<svg width="83" height="80" viewBox="0 0 83 80" fill="none" xmlns="http://www.w3.org/2000/svg">
<path d="M59.9176 57.7558V37.6937H80.7307V22.2443H59.9176V2.18218H43.8899V22.2443H23.0769V37.6937H43.8899V57.7558H59.9176Z" fill="#FED00C"/>
<path d="M20.813 37.6937V22.2443C20.813 21.0396 21.8271 20.0621 23.0769 20.0621H41.6261V2.18218C41.6261 0.977508 42.6401 3.00074e-05 43.8899 3.00074e-05H59.9176C61.1674 3.00074e-05 62.1815 0.977508 62.1815 2.18218V20.0568H80.7307C81.9804 20.0568 82.9945 21.0343 82.9945 22.239V37.6884C82.9945 38.8931 81.9804 39.8706 80.7307 39.8706H62.1815V57.7505C62.1815 58.9552 61.1674 59.9327 59.9176 59.9327H43.8899C42.6401 59.9327 41.6261 58.9552 41.6261 57.7505V39.8706H23.0769C21.8271 39.8706 20.813 38.8931 20.813 37.6884M25.3462 35.5115H43.8899C45.1397 35.5115 46.1537 36.489 46.1537 37.6937V55.5736H57.6483V37.6937C57.6483 36.489 58.6624 35.5115 59.9122 35.5115H78.4614V24.4317H59.9122C58.6624 24.4317 57.6483 23.4542 57.6483 22.2495V4.36962H46.1537V22.2443C46.1537 23.4489 45.1397 24.4264 43.8899 24.4264H25.3462V35.5115Z" fill="#080206"/>
<path d="M59.9176 57.7558L39.1046 77.8179H23.0769L43.8899 57.7558H59.9176Z" fill="#FDC30F"/>
<path d="M20.813 77.8179C20.813 77.2472 21.0433 76.6925 21.4763 76.275L42.2893 56.213C42.7169 55.8061 43.2924 55.5736 43.8899 55.5736H59.9176C60.833 55.5736 61.6607 56.1073 62.0116 56.921C62.3624 57.7399 62.1705 58.6751 61.5182 59.3039L40.7052 79.366C40.2776 79.7781 39.7021 80.0053 39.1046 80.0053H23.0769C22.1615 80.0053 21.3338 79.4716 20.983 78.658C20.8679 78.3885 20.8076 78.1032 20.8076 77.8232M44.8272 59.9379L28.5474 75.6304H38.1673L54.4472 59.9379H44.8272Z" fill="#080206"/>
<path d="M23.0769 22.2443L2.26384 42.3063V57.7558L23.0769 37.6937V22.2443Z" fill="#FDC30F"/>
<path d="M0 57.7558V42.3063C0 41.7251 0.241184 41.1704 0.663255 40.7635L21.4763 20.7014C22.1231 20.078 23.0988 19.8877 23.9484 20.2259C24.7926 20.5641 25.3462 21.3619 25.3462 22.2443V37.6937C25.3462 38.2749 25.105 38.8297 24.6829 39.2365L3.8699 59.2986C3.22309 59.9221 2.24739 60.1123 1.39777 59.7741C0.553626 59.436 0 58.6382 0 57.7558ZM4.53315 52.4774L20.813 36.7849V27.5121L4.53315 43.2046V52.4774Z" fill="#080206"/>
<path d="M43.8899 37.6937L23.0769 57.7505H2.26384L23.0769 37.6937H43.8899Z" fill="white"/>
<path d="M0 57.7558C0 57.1852 0.230221 56.6304 0.663255 56.213L21.4763 36.1509C21.9038 35.744 22.4794 35.5116 23.0769 35.5116L43.8899 35.5115C44.8053 35.5115 45.633 36.0452 45.9838 36.8589C46.3346 37.6726 46.1428 38.6131 45.4905 39.2418L24.6775 59.3039C24.2499 59.716 23.6744 59.9432 23.0769 59.9432H2.26932C1.35392 59.9432 0.526219 59.4096 0.175406 58.5959C0.0602959 58.3264 0 58.0411 0 57.7611M24.0142 39.8759L7.73432 55.5684H22.1395L38.4194 39.8759H24.0142Z" fill="#080206"/>
<path d="M43.8899 57.7558V37.6937L23.0769 57.7558V77.8179L43.8899 57.7558Z" fill="#FDC30F"/>
<path d="M20.813 77.8179V57.7558C20.813 57.1746 21.0542 56.6198 21.4763 56.213L42.2893 36.1509C42.9361 35.5274 43.9118 35.3372 44.756 35.6754C45.6001 36.0135 46.1537 36.8113 46.1537 37.6937L46.1537 57.7558C46.1537 58.337 45.918 58.8918 45.4905 59.2986L24.6775 79.3607C24.0306 79.9842 23.0549 80.1744 22.2053 79.8362C21.3612 79.4981 20.8076 78.7002 20.8076 77.8179M25.3462 58.6593V72.5448L41.6261 56.8523V42.9668L25.3462 58.6593Z" fill="#080206"/>
<path d="M80.7307 37.6937L59.9176 57.7558V37.6937H80.7307Z" fill="white"/>
<path d="M57.6483 57.7558L57.6483 37.6937C57.6483 36.489 58.6624 35.5115 59.9122 35.5115L80.7252 35.5116C81.6406 35.5116 82.4683 36.0452 82.8191 36.8589C83.1699 37.6726 82.9781 38.6131 82.3258 39.2418L61.5127 59.3039C60.8659 59.9274 59.8902 60.1176 59.0406 59.7794C58.1965 59.4413 57.6428 58.6434 57.6428 57.7611M62.1815 39.8759V52.4827L75.2602 39.8759H62.1815Z" fill="#080206"/>
<path d="M43.8899 2.18218L23.0769 22.2443H43.8899V2.18218Z" fill="#FDC30F"/>
<path d="M20.813 22.2443C20.813 21.6736 21.0433 21.1188 21.4763 20.7014L42.2893 0.639273C42.9361 0.0157999 43.9118 -0.174412 44.7615 0.163743C45.6056 0.501897 46.1592 1.29973 46.1592 2.1821V22.2442C46.1592 23.4489 45.1452 24.4263 43.8954 24.4263H23.0824C22.167 24.4263 21.3393 23.8927 20.9884 23.079C20.8733 22.8095 20.813 22.5243 20.813 22.2443ZM41.6261 7.4552L28.5528 20.0567H41.6261V7.4552Z" fill="#080206"/>
</svg>
