<svg width="23" height="23" viewBox="0 0 23 23" fill="none" xmlns="http://www.w3.org/2000/svg">
<path d="M10.6117 0.158258C9.36549 0.237383 8.21268 0.491241 7.10054 0.933022C4.53009 1.95395 2.42229 3.89031 1.18157 6.36955C-0.243771 9.21804 -0.386635 12.5709 0.791444 15.5425C1.26729 16.7437 1.93546 17.8305 2.81901 18.8405C2.99924 19.0471 3.54982 19.601 3.75423 19.7812C4.75647 20.668 5.83235 21.3384 7.0379 21.8263C7.60496 22.0549 8.20939 22.2439 8.79843 22.3736C8.99404 22.4176 9.43472 22.5 9.46989 22.5C9.49077 22.5 9.49077 22.456 9.49077 18.5767V14.6535H8.06213H6.63349V13.0215V11.3896H8.06213H9.49077V10.0126C9.49077 9.21804 9.49516 8.56965 9.50176 8.47734C9.60726 6.93331 10.2403 5.78161 11.3447 5.12443C11.8414 4.82881 12.4041 4.64859 13.0964 4.56287C13.2811 4.54089 13.3437 4.53869 13.8152 4.53869C14.3459 4.53869 14.5284 4.54748 15.079 4.59913C15.4218 4.631 16.1823 4.72771 16.2526 4.74749C16.2702 4.75299 16.2713 4.82662 16.2691 6.13987L16.2658 7.52675L15.3867 7.53334C14.4251 7.53993 14.4438 7.53884 14.1778 7.60917C13.8855 7.6861 13.6657 7.80918 13.4745 7.9993C13.1975 8.27514 13.0481 8.64768 13.0184 9.13781C13.0129 9.23672 13.0074 9.784 13.0074 10.3533V11.3896H14.5679C16.0032 11.3896 16.1285 11.3907 16.1285 11.4072C16.1285 11.4225 15.657 14.5172 15.6394 14.6172L15.6328 14.6535H14.3207H13.0074V18.5767C13.0074 22.3956 13.0074 22.5 13.0283 22.5C13.069 22.5 13.4888 22.4209 13.7064 22.3725C16.0208 21.8571 18.1143 20.6164 19.6946 18.824C21.7947 16.4415 22.7826 13.304 22.4299 10.1313C22.1375 7.49378 20.9067 5.03432 18.9616 3.20236C17.1505 1.49459 14.8372 0.441788 12.3645 0.196722C12.2678 0.187929 12.1272 0.174742 12.0513 0.168148C11.8755 0.153862 10.8073 0.14617 10.6117 0.158258Z" fill="white"/>
</svg>
