<svg width="26" height="23" viewBox="0 0 26 23" fill="none" xmlns="http://www.w3.org/2000/svg">
<path d="M22.0059 1.16598C18.705 2.43788 18.6142 2.47321 7.94937 6.58669C3.87122 8.16143 0.464344 9.4838 0.378542 9.53427C0.1817 9.64531 0 9.91786 0 10.1046C0 10.3216 0.121133 10.574 0.282644 10.685C0.3634 10.7406 1.75643 11.2806 3.38164 11.8863C5.00684 12.4919 6.3595 13.0118 6.38978 13.0421C6.42007 13.0724 6.95003 14.7329 7.56579 16.7316C8.18659 18.7303 8.72665 20.4413 8.77207 20.5372C8.81245 20.6281 8.91844 20.7492 9.00424 20.7997C9.1809 20.9057 9.53925 20.9259 9.70076 20.84C9.75628 20.8098 10.5336 20.189 11.4269 19.4622C13.3751 17.8723 13.3095 17.9228 13.572 17.8622C13.9909 17.7663 14.0161 17.7814 17.3372 20.194C19.3157 21.6274 20.5271 22.4703 20.628 22.4905C20.9359 22.5511 21.3296 22.3138 21.4204 22.0211C21.4356 21.9706 21.8646 19.9114 22.3794 17.4382C22.8942 14.9651 23.8835 10.2005 24.58 6.8441C25.4632 2.60443 25.8418 0.69154 25.8216 0.575453C25.761 0.267572 25.438 -0.00497818 25.1251 7.05719e-05C25.0595 0.00511742 23.6563 0.524981 22.0059 1.16598ZM20.2293 4.70408C20.2646 4.73941 20.2898 4.79998 20.2898 4.8454C20.2898 4.89083 19.7044 5.47126 18.9927 6.13749C18.276 6.79868 16.3984 8.54502 14.8136 10.0138C10.0086 14.4755 10.2459 14.2383 10.0743 14.8389C10.0339 14.9903 9.92789 15.6616 9.84208 16.3278C9.74619 17.0294 9.65029 17.5846 9.60991 17.6502C9.5342 17.7713 9.32727 17.8067 9.19604 17.7209C9.09005 17.6553 7.80805 13.1531 7.80805 12.8452C7.80301 12.5071 7.89386 12.2598 8.09574 12.0528C8.18659 11.962 9.42821 11.1645 10.8566 10.2863C12.2849 9.40809 14.9297 7.77784 16.7315 6.66745C18.5384 5.55706 20.0476 4.64351 20.093 4.64351C20.1334 4.64351 20.1939 4.66875 20.2293 4.70408Z" fill="white"/>
</svg>
