<svg width="15" height="15" viewBox="0 0 15 15" fill="none" xmlns="http://www.w3.org/2000/svg">
<path d="M7.07447 0.105505C6.24366 0.158255 5.47512 0.327494 4.73369 0.622013C3.02006 1.30263 1.61486 2.59354 0.787715 4.24636C-0.162514 6.14536 -0.257757 8.38063 0.527629 10.3617C0.844861 11.1625 1.2903 11.887 1.87934 12.5603C1.9995 12.6981 2.36655 13.0673 2.50282 13.1875C3.17098 13.7787 3.88823 14.2256 4.69193 14.5509C5.06997 14.7033 5.47292 14.8293 5.86562 14.9157C5.99603 14.9451 6.28981 15 6.31326 15C6.32718 15 6.32718 14.9707 6.32718 12.3845V9.76898H5.37475H4.42232V8.68101V7.59305H5.37475H6.32718V6.67505C6.32718 6.14536 6.33011 5.7131 6.3345 5.65156C6.40484 4.62221 6.82684 3.8544 7.56314 3.41629C7.89429 3.21921 8.2694 3.09906 8.73096 3.04191C8.85404 3.02726 8.8958 3.02579 9.2101 3.02579C9.56397 3.02579 9.68558 3.03165 10.0526 3.06609C10.2812 3.08733 10.7882 3.15181 10.8351 3.16499C10.8468 3.16866 10.8475 3.21774 10.8461 4.09324L10.8439 5.01783L10.2578 5.02223C9.61672 5.02662 9.62917 5.02589 9.45187 5.07278C9.25699 5.12406 9.11046 5.20612 8.98298 5.33286C8.79836 5.51676 8.69872 5.76512 8.67894 6.09188C8.67528 6.15781 8.67161 6.52267 8.67161 6.90217V7.59305H9.71196C10.6688 7.59305 10.7523 7.59378 10.7523 7.60477C10.7523 7.61503 10.438 9.67813 10.4263 9.7448L10.4219 9.76898H9.54711H8.67161V12.3845C8.67161 14.9304 8.67161 15 8.68553 15C8.71264 15 8.99251 14.9473 9.13757 14.915C10.6805 14.5714 12.0762 13.7443 13.1297 12.5493C14.5298 10.961 15.1884 8.8693 14.9532 6.75418C14.7584 4.99585 13.9378 3.35621 12.641 2.13491C11.4337 0.99639 9.89145 0.294525 8.24302 0.131147C8.17855 0.125286 8.08477 0.116494 8.03422 0.112099C7.917 0.102574 7.20488 0.0974455 7.07447 0.105505Z" fill="#181818"/>
</svg>
