<svg width="36" height="34" viewBox="0 0 36 34" fill="none" xmlns="http://www.w3.org/2000/svg">
<path fill-rule="evenodd" clip-rule="evenodd" d="M0 1.47826C0 0.66184 0.671573 0 1.5 0H7.5C8.21494 0 8.83051 0.497265 8.97083 1.18814L10.2306 7.3913H34.5C34.947 7.3913 35.3708 7.58781 35.6557 7.92726C35.9407 8.2667 36.0572 8.71372 35.9734 9.14648L33.5734 21.5491L33.5712 21.5602C33.3655 22.581 32.802 23.4981 31.9793 24.1507C31.1607 24.8001 30.1374 25.1466 29.087 25.1304H14.533C13.4826 25.1466 12.4593 24.8001 11.6407 24.1507C10.8184 23.4983 10.2549 22.5818 10.049 21.5614C10.0489 21.561 10.0488 21.5606 10.0487 21.5602L7.54318 9.22317C7.53302 9.18236 7.52457 9.14088 7.51793 9.09881L6.27047 2.95652H1.5C0.671573 2.95652 0 2.29468 0 1.47826ZM10.8311 10.3478L12.9913 20.9842C13.0598 21.3245 13.2477 21.6302 13.5219 21.8477C13.7961 22.0653 14.1393 22.1808 14.4913 22.1742C14.5008 22.174 14.5104 22.1739 14.52 22.1739H29.1C29.1096 22.1739 29.1192 22.174 29.1287 22.1742C29.4807 22.1808 29.8238 22.0653 30.0981 21.8477C30.371 21.6312 30.5584 21.3273 30.6278 20.9889L32.6869 10.3478H10.8311ZM10.5 31.0435C10.5 29.4106 11.8431 28.087 13.5 28.087C15.1568 28.087 16.5 29.4106 16.5 31.0435C16.5 32.6763 15.1568 34 13.5 34C11.8431 34 10.5 32.6763 10.5 31.0435ZM27 31.0435C27 29.4106 28.3431 28.087 30 28.087C31.6568 28.087 33 29.4106 33 31.0435C33 32.6763 31.6568 34 30 34C28.3431 34 27 32.6763 27 31.0435Z" fill="white"/>
</svg>
