<svg width="25" height="25" viewBox="0 0 25 25" fill="none" xmlns="http://www.w3.org/2000/svg">
<path opacity="0.989" fill-rule="evenodd" clip-rule="evenodd" d="M5.31512 0.00993236C6.0126 -0.053823 6.5771 0.189354 7.00866 0.739459C8.20884 2.37448 9.25102 4.11144 10.1352 5.95036C10.2789 6.30324 10.3745 6.66801 10.4218 7.04465C10.4017 7.32213 10.3235 7.58267 10.1873 7.82628C9.58556 8.48015 8.9342 9.0794 8.23323 9.62405C9.50687 13.1123 11.8865 15.5006 15.3722 16.789C15.7712 16.3464 16.162 15.8948 16.5446 15.4342C16.9114 14.9601 17.389 14.6822 17.9776 14.6005C18.8272 14.7651 19.6262 15.069 20.3746 15.5124C21.7368 16.3019 23.0568 17.153 24.3349 18.0657C25.0361 18.6571 25.1838 19.3606 24.7778 20.1761C24.0435 21.1537 23.2011 22.0308 22.2506 22.8076C21.2591 23.6595 20.1822 24.389 19.0198 24.9962C18.1492 25.0237 17.2981 24.9021 16.4664 24.6314C14.4131 23.9695 12.5025 23.0315 10.7345 21.8176C6.57288 18.9417 3.38556 15.2333 1.17245 10.6923C0.632636 9.4723 0.250505 8.20428 0.0260558 6.88832C-0.00868527 6.59302 -0.00868527 6.29777 0.0260558 6.00247C1.17952 3.87558 2.68199 2.02571 4.53349 0.452859C4.78205 0.276678 5.04259 0.129038 5.31512 0.00993236Z" fill="#FFC352"/>
</svg>
