<svg width="30" height="25" viewBox="0 0 30 25" fill="none" xmlns="http://www.w3.org/2000/svg">
<path d="M23.7286 10.1548C23.7286 12.3956 22.8787 14.4657 21.447 16.1451L28.6683 22.3307C29.3813 22.941 29.3813 23.932 28.6683 24.5423C27.9553 25.1526 26.7974 25.1526 26.0844 24.5423L18.8631 18.3567C16.9009 19.587 14.4825 20.3095 11.8643 20.3095C5.31042 20.3095 0 15.7643 0 10.1548C0 4.54523 5.31042 0 11.8643 0C18.4182 0 23.7286 4.54523 23.7286 10.1548ZM16.4275 8.59249C16.4275 6.4346 14.3855 4.68681 11.8643 4.68681C9.34315 4.68681 7.30112 6.4346 7.30112 8.59249C7.30112 10.975 9.95348 14.0409 11.2141 15.3591C11.5563 15.7155 12.1723 15.7155 12.5089 15.3591C13.7695 14.0409 16.4218 10.975 16.4218 8.59249H16.4275ZM10.039 8.59249C10.039 8.17815 10.2313 7.78078 10.5737 7.4878C10.916 7.19482 11.3802 7.03022 11.8643 7.03022C12.3484 7.03022 12.8127 7.19482 13.155 7.4878C13.4973 7.78078 13.6896 8.17815 13.6896 8.59249C13.6896 9.00683 13.4973 9.4042 13.155 9.69718C12.8127 9.99017 12.3484 10.1548 11.8643 10.1548C11.3802 10.1548 10.916 9.99017 10.5737 9.69718C10.2313 9.4042 10.039 9.00683 10.039 8.59249Z" fill="#FFC352"/>
</svg>
