<svg width="29" height="25" viewBox="0 0 29 25" fill="none" xmlns="http://www.w3.org/2000/svg">
<path d="M4.6875 0C3.82324 0 3.125 0.698242 3.125 1.5625V10.9375H7.8125V9.375C7.8125 7.65137 9.21387 6.25 10.9375 6.25H21.875V1.5625C21.875 0.698242 21.1768 0 20.3125 0H4.6875ZM10.9375 7.8125C10.0732 7.8125 9.375 8.51074 9.375 9.375V10.9375H14.0625C15.7861 10.9375 17.1875 12.3389 17.1875 14.0625V20.3125H26.5625C27.4268 20.3125 28.125 19.6143 28.125 18.75V9.375C28.125 8.51074 27.4268 7.8125 26.5625 7.8125H10.9375ZM22.6562 10.9375H24.2188C24.6484 10.9375 25 11.2891 25 11.7188V13.2812C25 13.7109 24.6484 14.0625 24.2188 14.0625H22.6562C22.2266 14.0625 21.875 13.7109 21.875 13.2812V11.7188C21.875 11.2891 22.2266 10.9375 22.6562 10.9375ZM1.5625 12.5C0.698242 12.5 0 13.1982 0 14.0625V14.6973L7.57324 20.3076C7.6416 20.3564 7.72461 20.3857 7.8125 20.3857C7.90039 20.3857 7.9834 20.3564 8.05176 20.3076L15.625 14.6973V14.0625C15.625 13.1982 14.9268 12.5 14.0625 12.5H1.5625ZM15.625 16.6406L8.98438 21.5625C8.64746 21.8115 8.2373 21.9482 7.8125 21.9482C7.3877 21.9482 6.98242 21.8115 6.64062 21.5625L0 16.6406V23.4375C0 24.3018 0.698242 25 1.5625 25H14.0625C14.9268 25 15.625 24.3018 15.625 23.4375V16.6406Z" fill="#FFC352"/>
</svg>
