<svg width="659" height="173" viewBox="0 0 659 173" fill="none" xmlns="http://www.w3.org/2000/svg">
<g clip-path="url(#clip0_53_58942)">
<path d="M591.146 145.382H98.7559L130.469 34.5434H654.839L631.836 114.94C626.683 132.949 610.065 145.382 591.144 145.382H591.146Z" fill="#010101"/>
<path d="M591.143 148.088H94.5996L127.861 31.8372H659L635.046 115.56C629.565 134.713 611.514 148.088 591.146 148.088H591.143ZM102.914 142.676H591.143C608.437 142.676 623.854 131.016 628.629 114.321L650.681 37.2471H133.078L102.914 142.676Z" fill="#FAC215"/>
<path d="M174.231 86.5C174.231 134.272 135.229 173 87.1142 173C38.9995 173 0 134.272 0 86.5C0 38.7283 39.0019 0 87.1142 0C135.226 0 174.231 38.7283 174.231 86.5Z" fill="#FAC215"/>
<path d="M108.782 71.4855C108.652 75.0848 108.151 79.3185 107.281 84.1867C106.421 88.9915 105.403 93.2325 104.233 96.9026C103.056 100.565 101.818 103.645 100.508 106.136C99.2003 108.618 97.8806 110.499 96.5608 111.776C95.2436 113.044 94 113.715 92.8351 113.796C91.6702 113.869 90.643 113.335 89.7558 112.207C88.8612 111.07 88.2001 109.321 87.7602 106.944C87.3203 104.57 87.1704 101.58 87.2933 97.9714C87.4235 94.3721 87.9101 90.1676 88.7703 85.3653C89.6403 80.4996 90.67 76.2292 91.8398 72.5641C93.0195 68.894 94.2556 65.812 95.5655 63.3304C96.8754 60.8389 98.1853 58.96 99.5124 57.6911C100.832 56.4149 102.073 55.7438 103.238 55.6706C104.405 55.5901 105.433 56.122 106.32 57.2518C107.207 58.389 107.876 60.1386 108.315 62.5153C108.753 64.897 108.905 67.8862 108.782 71.4879" fill="#020202"/>
<path d="M41.6835 137.171C38.5304 137.171 35.3797 136.683 32.3151 135.719C28.5722 134.543 25.542 132.605 23.3056 129.957C23.2933 129.943 13.9913 117.861 13.9913 117.861C13.0108 116.617 12.2882 115.131 11.8532 113.457C11.4133 111.771 11.3789 109.85 11.7549 107.757C12.1899 105.324 13.1902 102.908 14.7262 100.573C15.9427 98.7303 17.4516 97.2027 19.2235 96.007L18.3634 94.9016C16.8176 92.8689 15.7215 90.4873 15.0997 87.8177C14.473 85.1408 14.4681 82.0369 15.085 78.5864C15.7928 74.626 17.201 70.9633 19.2653 67.7032C21.3371 64.4504 23.8782 61.6149 26.8175 59.2772C29.7396 56.9517 33.0549 55.0581 36.6749 53.6477C40.2753 52.2446 44.028 51.4149 47.8274 51.1831C48.491 51.144 49.1545 51.1245 49.8009 51.1245C51.2754 51.1245 52.7377 51.2246 54.1483 51.4222C56.2053 51.7028 58.2279 52.1909 60.1473 52.8692C62.0667 53.5476 63.8681 54.4651 65.4975 55.5974C67.122 56.7272 68.5498 58.0888 69.7417 59.6457L74.1949 65.4289C75.4532 63.6305 76.8319 61.9272 78.3163 60.3436C81.6439 56.7833 85.5563 53.8307 89.948 51.5711C94.3791 49.2919 99.3164 47.9693 104.615 47.6448C105.465 47.5911 106.306 47.5667 107.112 47.5667C111.066 47.5667 114.541 48.206 117.436 49.4652C120.926 50.9927 123.791 53.1816 125.952 55.9683L132.609 64.6212C132.705 64.5675 132.801 64.5139 132.897 64.4626L132.713 64.2235C131.948 63.2108 131.383 62.0444 131.019 60.7413C130.646 59.3748 130.621 57.7887 130.936 56.0147C131.275 54.1186 131.973 52.4203 133.005 50.9683C134.008 49.5457 135.241 48.3232 136.669 47.3349C138.065 46.371 139.621 45.6146 141.292 45.085C142.948 44.5604 144.607 44.2456 146.224 44.1529C146.568 44.1309 146.932 44.1187 147.301 44.1187C147.896 44.1187 148.512 44.148 149.137 44.209C150.129 44.3042 151.122 44.4847 152.086 44.7434C153.113 45.0265 154.012 45.4047 154.851 45.9025C155.711 46.4125 156.438 47.0494 156.998 47.7912L161.385 53.4915C161.901 54.1406 162.287 54.919 162.523 55.7902C162.761 56.6857 162.784 57.6984 162.587 58.7989C162.322 60.2826 161.673 61.6295 160.66 62.8033C160.142 63.4036 159.554 63.9331 158.906 64.3821L160.36 66.2659C161.103 67.2151 161.646 68.3206 161.97 69.5455C162.309 70.8047 162.329 72.2908 162.032 73.9598C161.668 75.9974 160.859 77.8202 159.626 79.3722C158.434 80.868 157.011 82.1199 155.391 83.0984C153.823 84.0549 152.093 84.7992 150.255 85.3043C148.436 85.8021 146.681 86.1047 145.037 86.1999C144.59 86.2291 144.118 86.2438 143.644 86.2438C143.086 86.2438 142.504 86.2218 141.916 86.1828C141.484 86.1535 141.054 86.1071 140.628 86.0461C140.658 88.9597 140.405 91.927 139.872 94.9016C139.014 99.6966 137.5 104.413 135.372 108.923C133.221 113.469 130.456 117.561 127.158 121.092C123.838 124.648 119.938 127.595 115.571 129.857C111.179 132.137 106.259 133.454 100.946 133.781C100.095 133.835 99.2549 133.862 98.4488 133.862C94.4946 133.862 91.0195 133.222 88.127 131.963C84.647 130.45 81.7839 128.264 79.6163 125.47L74.7405 119.135C74.4431 119.628 74.1285 120.111 73.8017 120.585C71.526 123.872 68.7563 126.741 65.5737 129.111C62.4034 131.485 58.8718 133.376 55.0749 134.726C51.2975 136.068 47.4342 136.87 43.5955 137.107C42.9565 137.146 42.3077 137.168 41.6736 137.168M47.449 89.7333C47.5768 89.7333 47.7045 89.7503 47.8299 89.7821C48.4934 89.9626 48.8817 90.5898 48.7613 91.295L47.5448 98.5692C47.2523 100.192 46.869 102.015 46.3627 104.16C45.8515 106.336 45.1413 108.41 44.2565 110.316C43.3153 112.344 42.0668 114.118 40.548 115.59C39.6928 116.422 38.7245 117.066 37.6555 117.517C39.8181 117.229 41.9784 116.732 44.1091 116.031C46.9746 115.082 49.6632 113.73 52.0938 112.01C54.4998 110.316 56.6109 108.213 58.3729 105.758C60.1129 103.347 61.3392 100.502 62.0225 97.2979L65.9177 75.5191C66.4093 72.7739 66.2618 70.2849 65.4754 68.118C64.6865 65.9414 63.4036 64.0844 61.6661 62.6056C59.8966 61.0976 57.7217 59.9775 55.2051 59.2772C53.3767 58.7696 51.4253 58.4866 49.388 58.4353C50.5873 59.3016 51.4253 60.9194 51.8947 63.2718C52.5485 66.6002 52.3666 71.1658 51.3492 76.849C50.8724 79.5088 50.2457 82.0027 49.4814 84.2575C48.7638 86.3658 47.97 88.2155 47.1172 89.7674C47.2253 89.7455 47.3384 89.7333 47.4465 89.7333M26.4095 100.582C26.2768 100.582 26.1441 100.587 26.0065 100.595C25.3085 100.638 24.5811 100.807 23.7848 101.117C23.05 101.41 22.3349 101.849 21.6713 102.415C21.0176 102.971 20.4401 103.691 19.9559 104.55C19.4595 105.431 19.1007 106.478 18.8893 107.661C18.5919 109.316 18.823 110.724 19.5946 111.968C20.4179 113.296 21.6222 114.421 23.1729 115.309C24.763 116.222 26.6578 116.9 28.8008 117.317C28.8155 117.32 28.8278 117.325 28.8401 117.327C28.4469 117.112 28.0832 116.866 27.7514 116.58C26.1515 115.199 25.5076 113.345 25.891 111.212C26.0458 110.355 26.4685 109.574 27.1542 108.889C27.658 108.391 28.1446 107.94 28.6533 107.495C29.0932 107.103 29.5086 106.671 29.8772 106.222C30.1328 105.914 30.2925 105.548 30.3736 105.087C30.6587 103.494 30.381 102.373 29.5258 101.668C28.6459 100.936 27.626 100.582 26.4046 100.582M105.396 54.8824C104.794 54.8824 104.168 54.9019 103.539 54.9434C99.7563 55.1826 96.1436 56.1123 92.7964 57.7106C89.4541 59.3089 86.3944 61.5051 83.7033 64.2332C80.9975 66.9858 78.6775 70.2849 76.8049 74.0355C74.9125 77.8129 73.5436 82.0222 72.7351 86.5464C71.9265 91.0607 71.8037 95.1724 72.3664 98.7717C72.917 102.332 74.0769 105.363 75.8169 107.786C77.5397 110.177 79.8277 111.99 82.6146 113.174C84.9419 114.16 87.6453 114.66 90.6485 114.66C91.2555 114.66 91.8871 114.64 92.5211 114.599C96.3034 114.36 99.916 113.43 103.263 111.832C106.598 110.243 109.638 108.052 112.3 105.321C114.971 102.571 117.284 99.2695 119.166 95.5068C121.059 91.7147 122.428 87.5102 123.234 83.0056C124.037 78.5084 124.163 74.3918 123.602 70.7681C123.044 67.2152 121.894 64.182 120.181 61.7491C118.483 59.3577 116.215 57.5447 113.438 56.366C111.096 55.3802 108.385 54.88 105.387 54.88M44.0993 58.7672C40.4768 59.2845 37.2573 60.3655 34.5024 61.9907C31.0421 64.0307 28.2404 66.5124 26.1761 69.3625C24.1068 72.2102 22.7723 75.2556 22.2071 78.4156C21.6467 81.5537 21.8876 84.4673 22.9247 87.0734C23.9519 89.6527 25.8713 91.7757 28.6263 93.3789C30.961 94.7405 34.0379 95.4335 37.7759 95.4335H37.9012C37.2549 94.9357 36.6675 94.0866 36.2989 92.6835C35.8123 90.8606 35.6132 88.5571 35.7091 85.8363C35.8049 83.174 36.1342 80.2458 36.6896 77.137C37.245 74.0306 37.9676 71.0804 38.8326 68.3718C39.7149 65.6217 40.7594 63.2547 41.9341 61.3392C42.6223 60.2289 43.3448 59.3675 44.0993 58.7623M135.541 68.5743C135.281 68.5939 134.993 68.6646 134.713 68.7769C134.455 68.8842 134.204 69.0477 133.954 69.2747C133.678 69.5211 133.447 69.8091 133.236 70.1678C133.054 70.4801 132.909 70.9145 132.818 71.4123C132.713 72.0126 132.799 72.4982 133.089 72.935C133.462 73.4767 134.003 73.9208 134.73 74.2746C134.907 74.3625 135.089 74.443 135.281 74.5187C135.266 74.2893 135.276 74.0526 135.31 73.8061C135.409 73.0374 135.686 72.1907 136.134 71.3098C136.419 70.7486 136.596 70.2752 136.662 69.8994C136.753 69.3894 136.711 69.055 136.539 68.9013C136.291 68.6719 136.016 68.5719 135.664 68.5719C135.625 68.5719 135.583 68.5719 135.541 68.5768M140.786 50.4974C140.257 50.7316 139.756 51.0025 139.282 51.3051C138.419 51.8566 137.677 52.5447 137.065 53.35C136.495 54.1113 136.119 55.0142 135.925 56.1074C135.684 57.4495 135.765 58.5671 136.168 59.426C136.603 60.3582 137.239 61.1708 138.055 61.8492C138.923 62.5617 139.916 63.1961 141.002 63.7354C142.228 64.3382 143.347 64.9311 144.325 65.4948C145.431 66.1366 146.342 66.8589 147.04 67.6422C147.91 68.6451 148.227 69.9238 147.972 71.3513C147.78 72.4103 147.406 73.34 146.854 74.1111C147.559 73.8378 148.222 73.5157 148.842 73.1521C149.869 72.547 150.749 71.8076 151.457 70.9535C152.118 70.158 152.548 69.2185 152.739 68.1571C152.968 66.876 152.865 65.8511 152.42 65.019C151.926 64.0966 151.23 63.2986 150.353 62.6447C149.4 61.9346 148.318 61.305 147.141 60.773C145.866 60.202 144.659 59.6066 143.558 59.0039C142.41 58.3768 141.442 57.6691 140.678 56.898C139.719 55.9219 139.35 54.6603 139.601 53.2524C139.768 52.3178 140.112 51.4637 140.624 50.7194C140.675 50.6438 140.729 50.5681 140.783 50.4925M151.184 50.229C151.142 50.4461 151.076 50.6731 150.985 50.9049C150.793 51.371 150.567 51.8175 150.284 52.2909L149.584 53.4476C149.422 53.7111 149.377 53.8624 149.365 53.9307C149.269 54.4603 149.314 54.7994 149.491 54.9434C149.781 55.1826 150.098 55.2875 150.508 55.2875C150.555 55.2875 150.604 55.2875 150.65 55.2826C150.913 55.2655 151.201 55.2021 151.493 55.0874C151.806 54.9727 152.069 54.8263 152.329 54.6262C152.565 54.4456 152.766 54.2309 152.929 53.9844C153.086 53.7453 153.192 53.472 153.246 53.167C153.349 52.5886 153.27 52.125 153.002 51.7053C152.668 51.1831 152.179 50.7536 151.506 50.39C151.402 50.3314 151.294 50.2778 151.186 50.2241" fill="white"/>
<path d="M160.492 70.0994C160.21 69.0306 159.745 68.0936 159.106 67.2737L156.595 64.0209C157.762 63.5426 158.752 62.8447 159.558 61.9126C160.364 60.9804 160.871 59.9238 161.085 58.7281C161.244 57.8424 161.23 57.0444 161.043 56.349C160.856 55.6511 160.554 55.0361 160.129 54.4993L155.737 48.7892C155.277 48.1816 154.678 47.6521 153.945 47.2202C153.208 46.7785 152.402 46.4442 151.52 46.2002C150.642 45.9659 149.738 45.7976 148.801 45.7097C147.868 45.6194 146.976 45.6023 146.123 45.656C144.611 45.7439 143.102 46.0343 141.593 46.5125C140.082 46.9908 138.698 47.6619 137.445 48.5281C136.192 49.3944 135.12 50.4559 134.233 51.7126C133.338 52.9693 132.749 54.431 132.456 56.0757C132.176 57.6423 132.196 59.0063 132.51 60.163C132.832 61.3196 133.329 62.3348 133.985 63.2035L135.472 65.119C134.663 65.2459 133.913 65.5094 133.218 65.9145C132.835 66.139 132.478 66.3879 132.149 66.6637L124.693 56.9736C122.64 54.3285 119.967 52.2958 116.673 50.8561C113.378 49.4212 109.318 48.8527 104.513 49.1479C99.4089 49.4627 94.7444 50.7121 90.5149 52.8888C86.2854 55.0654 82.5744 57.8692 79.3844 61.283C77.438 63.3621 75.703 65.6217 74.1768 68.0546L68.4752 60.651C67.357 59.1918 66.0397 57.9351 64.5087 56.8687C62.9776 55.8048 61.299 54.9458 59.4681 54.2992C57.6372 53.6525 55.7252 53.1889 53.742 52.918C51.7587 52.6399 49.7459 52.5715 47.7209 52.6887C44.0664 52.9132 40.5226 53.6965 37.0721 55.041C33.6217 56.3856 30.4907 58.1669 27.6841 60.3997C24.8776 62.6349 22.4986 65.2947 20.5399 68.3742C18.5837 71.4611 17.2689 74.8895 16.5955 78.6548C16.0131 81.9149 16.0106 84.7943 16.598 87.3004C17.178 89.7991 18.188 91.9977 19.6257 93.8865L21.5131 96.312C19.2423 97.4687 17.4041 99.1207 15.9836 101.268C14.5705 103.418 13.6661 105.599 13.2679 107.825C12.9288 109.711 12.9534 111.402 13.3466 112.908C13.7324 114.404 14.3689 115.724 15.2586 116.851L24.5384 128.903C26.62 131.37 29.4241 133.164 32.9483 134.272C36.4749 135.38 40.063 135.826 43.7101 135.602C47.421 135.372 51.0927 134.611 54.7373 133.313C58.3819 132.017 61.7242 130.228 64.7642 127.952C67.8117 125.682 70.4142 122.976 72.5794 119.853C73.356 118.73 74.0416 117.549 74.629 116.324L80.8934 124.457C82.9381 127.093 85.6095 129.133 88.9076 130.567C92.2032 132.002 96.2607 132.571 101.068 132.276C106.172 131.961 110.819 130.719 115.017 128.54C119.224 126.363 122.918 123.567 126.108 120.153C129.298 116.739 131.928 112.837 134.007 108.442C136.076 104.055 137.536 99.5209 138.374 94.8333C139.025 91.2022 139.244 87.6274 139.03 84.1135C139.119 84.1403 139.2 84.1672 139.288 84.1867C140.232 84.4405 141.217 84.604 142.232 84.6747C143.255 84.7455 144.228 84.7504 145.159 84.6918C146.725 84.5991 148.352 84.3136 150.038 83.8499C151.719 83.3863 153.287 82.7152 154.729 81.8343C156.169 80.9607 157.42 79.8602 158.475 78.5401C159.521 77.2199 160.212 75.6631 160.532 73.8866C160.795 72.4201 160.777 71.1585 160.492 70.097M63.5232 97.4199C62.7933 100.853 61.4858 103.891 59.5886 106.519C57.7011 109.147 55.4647 111.378 52.8793 113.198C50.2915 115.028 47.4751 116.448 44.4203 117.459C41.3754 118.462 38.2985 119.064 35.1945 119.257C32.909 119.404 30.616 119.25 28.3207 118.801C26.0253 118.352 24.0125 117.634 22.2799 116.639C20.5424 115.643 19.2005 114.394 18.2568 112.871C17.3131 111.348 17.0207 109.592 17.3795 107.588C17.6252 106.222 18.043 105.006 18.6378 103.952C19.23 102.901 19.9403 102.025 20.7587 101.327C21.577 100.629 22.4593 100.089 23.3907 99.7185C24.3271 99.3549 25.2315 99.1378 26.1137 99.0841C27.8709 98.9767 29.3725 99.4281 30.6038 100.455C31.8399 101.473 32.2675 103.042 31.8891 105.153C31.7564 105.897 31.4713 106.534 31.024 107.068C30.5866 107.603 30.0975 108.105 29.5888 108.559C29.0727 109.013 28.6033 109.455 28.1781 109.872C27.7505 110.299 27.4974 110.765 27.404 111.275C27.1066 112.937 27.5883 114.296 28.8417 115.38C30.1 116.453 31.9554 116.922 34.4229 116.761C36.47 116.636 38.183 115.909 39.5494 114.579C40.9158 113.257 42.0242 111.673 42.8745 109.84C43.7248 108.01 44.3835 106.068 44.8701 104.001C45.3567 101.942 45.745 100.114 46.0325 98.5155L47.249 91.2413C46.1259 92.9519 44.9487 94.2964 43.7003 95.2725C42.4493 96.2559 41.1542 96.7903 39.8074 96.8708C34.7645 97.188 30.734 96.4633 27.7235 94.7039C24.7031 92.947 22.624 90.6361 21.4836 87.7762C20.3433 84.9163 20.0828 81.766 20.6948 78.3424C21.3067 74.9213 22.7321 71.6685 24.9636 68.5938C27.1877 65.5192 30.1516 62.8936 33.8453 60.7145C37.5366 58.5354 41.9062 57.2884 46.9467 56.9712C50.1146 56.7711 53.0637 57.0566 55.794 57.8155C58.5244 58.5744 60.8419 59.775 62.7539 61.405C64.6684 63.0351 66.0594 65.0458 66.9318 67.4494C67.8018 69.853 67.9714 72.5592 67.4307 75.585L63.5232 97.415V97.4199ZM120.529 96.0265C118.553 99.9723 116.157 103.391 113.341 106.292C110.515 109.191 107.332 111.485 103.781 113.176C100.22 114.875 96.4377 115.853 92.4195 116.107C88.4013 116.361 84.8845 115.856 81.8592 114.574C78.8389 113.293 76.396 111.358 74.5258 108.762C72.6629 106.166 71.4341 102.971 70.8492 99.189C70.257 95.4067 70.3823 91.173 71.2228 86.478C72.0633 81.7831 73.469 77.4664 75.4449 73.5182C77.4135 69.5724 79.8243 66.1537 82.6727 63.2547C85.5284 60.3582 88.7282 58.062 92.2819 56.3636C95.8405 54.6628 99.6227 53.6867 103.641 53.4329C107.659 53.1791 111.176 53.6916 114.204 54.9654C117.224 56.2465 119.65 58.1864 121.49 60.7828C123.321 63.3865 124.535 66.5709 125.128 70.3532C125.712 74.1355 125.592 78.379 124.752 83.074C123.913 87.7616 122.5 92.0856 120.532 96.0241M152.596 71.8173C151.741 72.8495 150.706 73.7183 149.495 74.4308C148.285 75.1409 146.956 75.6899 145.513 76.0852C144.073 76.4732 142.628 76.7197 141.185 76.8027C139.799 76.8881 138.47 76.8344 137.204 76.6367C135.938 76.4366 134.837 76.1048 133.906 75.6484C132.967 75.1897 132.264 74.5943 131.768 73.8769C131.284 73.1497 131.129 72.3054 131.301 71.3439C131.426 70.6534 131.635 70.0433 131.928 69.5406C132.23 69.0306 132.579 68.5914 132.987 68.2278C133.397 67.8569 133.827 67.5787 134.289 67.3884C134.742 67.2054 135.199 67.1004 135.641 67.0663C136.445 67.0175 137.113 67.2347 137.642 67.7203C138.18 68.1985 138.349 68.9501 138.165 69.9652C138.069 70.4996 137.841 71.1243 137.479 71.8369C137.118 72.547 136.899 73.2107 136.821 73.8183C136.735 74.4332 136.914 74.9408 137.366 75.3385C137.819 75.7265 138.804 75.8803 140.33 75.7875C141.023 75.7485 141.704 75.646 142.365 75.4801C143.024 75.3215 143.631 75.0677 144.184 74.7187C144.746 74.3673 145.223 73.9135 145.626 73.362C146.022 72.8081 146.302 72.1175 146.45 71.2878C146.631 70.2703 146.418 69.4162 145.818 68.7232C145.209 68.0375 144.41 67.4055 143.417 66.8296C142.429 66.2586 141.338 65.6851 140.166 65.1093C138.998 64.5309 137.929 63.8477 136.971 63.0619C136.022 62.2737 135.272 61.3245 134.749 60.2069C134.226 59.0868 134.108 57.6984 134.402 56.0439C134.643 54.7018 135.13 53.5427 135.867 52.5593C136.612 51.5759 137.506 50.7487 138.556 50.0777C139.613 49.3993 140.765 48.8795 142.006 48.5135C143.255 48.1475 144.503 47.923 145.749 47.8473C147 47.7717 148.197 47.8351 149.359 48.045C150.517 48.2475 151.515 48.5818 152.365 49.0503C153.218 49.5115 153.869 50.0899 154.321 50.7902C154.771 51.493 154.914 52.3104 154.746 53.2426C154.651 53.777 154.454 54.2626 154.176 54.6872C153.899 55.1118 153.552 55.4802 153.154 55.7828C152.756 56.0854 152.333 56.3245 151.873 56.4905C151.421 56.6662 150.967 56.7711 150.524 56.7979C149.691 56.8443 148.986 56.6418 148.418 56.1684C147.838 55.7047 147.649 54.9361 147.841 53.8648C147.897 53.5476 148.04 53.1938 148.28 52.8058C148.511 52.4251 148.745 52.0371 148.976 51.6565C149.209 51.2685 149.401 50.8927 149.554 50.5242C149.696 50.1631 149.73 49.8434 149.637 49.575C149.546 49.2968 149.281 49.0894 148.821 48.9503C148.367 48.8039 147.671 48.7575 146.727 48.8136C146.113 48.8551 145.506 48.9771 144.894 49.1845C144.28 49.3993 143.712 49.6921 143.193 50.0679C142.675 50.4437 142.225 50.9098 141.854 51.4539C141.473 52.0078 141.23 52.6301 141.104 53.328C140.932 54.2894 141.176 55.1069 141.834 55.7779C142.5 56.4514 143.36 57.0835 144.425 57.6667C145.481 58.245 146.646 58.8233 147.917 59.3919C149.185 59.9653 150.335 60.6364 151.367 61.405C152.397 62.1713 153.206 63.101 153.79 64.1917C154.375 65.2825 154.53 66.6271 154.243 68.2351C153.999 69.5919 153.441 70.7949 152.586 71.8198M46.5486 59.2064C45.4378 59.2723 44.3269 60.2093 43.221 61.9956C42.1225 63.7842 41.1394 66.0072 40.2916 68.6524C39.4412 71.3049 38.7458 74.1599 38.2002 77.2102C37.6521 80.2677 37.3351 83.0935 37.2417 85.6947C37.1508 88.296 37.3351 90.4409 37.7873 92.1344C38.2321 93.8279 39.0431 94.6405 40.2203 94.5624C41.0952 94.5087 41.9947 94.0475 42.9015 93.1666C43.8133 92.293 44.7079 91.0827 45.6024 89.5283C46.4872 87.9812 47.2932 86.1242 48.033 83.9598C48.7629 81.8026 49.3699 79.4039 49.8393 76.7807C50.8322 71.239 51.0091 66.8979 50.3898 63.7476C49.7607 60.5973 48.4827 59.0844 46.5511 59.2064" fill="#020202"/>
<path d="M66.9316 67.4543C66.0616 65.0507 64.6682 63.04 62.7537 61.4124C60.8393 59.7848 58.5242 58.5817 55.7938 57.8228C53.0635 57.0639 50.1144 56.7809 46.9465 56.981C41.9035 57.2982 37.5364 58.5451 33.8451 60.7218C30.1514 62.9009 27.19 65.5265 24.9634 68.6012C22.7319 71.6758 21.3065 74.9262 20.6946 78.3498C20.0826 81.7709 20.3431 84.9212 21.4834 87.7811C22.6213 90.6435 24.7004 92.9519 27.7208 94.7113C30.7314 96.4682 34.7618 97.1929 39.8048 96.8757C41.1515 96.7952 42.4467 96.2608 43.6976 95.2774C44.946 94.3013 46.1232 92.9543 47.2463 91.2462L46.0298 98.5228C45.7448 100.121 45.354 101.949 44.8699 104.008C44.3833 106.075 43.7246 108.015 42.8743 109.848C42.024 111.678 40.9156 113.264 39.5492 114.587C38.1803 115.917 36.4698 116.644 34.4227 116.768C31.9552 116.929 30.0998 116.461 28.8439 115.385C27.5881 114.301 27.1089 112.942 27.4062 111.283C27.4972 110.77 27.7528 110.304 28.1804 109.88C28.6055 109.46 29.0749 109.021 29.5935 108.567C30.1022 108.113 30.5888 107.61 31.0287 107.076C31.476 106.541 31.7611 105.904 31.8938 105.158C32.2723 103.047 31.8422 101.478 30.6085 100.46C29.3748 99.433 27.8732 98.9816 26.1185 99.089C25.2362 99.1427 24.3318 99.3598 23.3954 99.7234C22.464 100.094 21.5817 100.634 20.7634 101.332C19.945 102.029 19.2348 102.905 18.6425 103.957C18.0502 105.009 17.6275 106.227 17.3842 107.593C17.0254 109.594 17.3203 111.353 18.2615 112.876C19.2028 114.399 20.5471 115.648 22.2846 116.644C24.0148 117.639 26.03 118.357 28.3254 118.806C30.6208 119.255 32.9161 119.406 35.1992 119.262C38.3032 119.067 41.3801 118.467 44.425 117.461C47.4798 116.451 50.2987 115.031 52.8841 113.201C55.4694 111.378 57.7058 109.15 59.5933 106.522C61.4905 103.894 62.798 100.856 63.5279 97.4223L67.4354 75.5923C67.9761 72.5665 67.8065 69.8579 66.9365 67.4567M48.0303 83.9573C47.293 86.1218 46.4845 87.9788 45.5998 89.5258C44.7052 91.0802 43.8106 92.293 42.8989 93.1642C41.9945 94.0451 41.0925 94.5063 40.2176 94.56C39.0429 94.6405 38.2295 93.8279 37.7846 92.132C37.3324 90.4385 37.1457 88.2936 37.239 85.6923C37.33 83.0911 37.6495 80.2653 38.1975 77.2077C38.7431 74.1575 39.441 71.3025 40.2889 68.65C41.1368 66.0048 42.1198 63.7818 43.2184 61.9931C44.3243 60.2045 45.4351 59.2699 46.5459 59.204C48.4776 59.082 49.7555 60.5949 50.3847 63.7452C51.004 66.8955 50.8271 71.2366 49.8342 76.7783C49.3648 79.4015 48.7578 81.7978 48.0279 83.9573" fill="white"/>
<path d="M154.253 68.2327C154.01 69.5894 153.452 70.7924 152.599 71.8173C151.744 72.8495 150.709 73.7182 149.498 74.4308C148.288 75.1433 146.959 75.6924 145.516 76.0852C144.076 76.4732 142.629 76.7197 141.188 76.8026C139.802 76.888 138.473 76.8344 137.207 76.6343C135.942 76.4342 134.841 76.1047 133.909 75.646C132.97 75.1897 132.267 74.5943 131.773 73.8744C131.287 73.1472 131.134 72.3029 131.307 71.3415C131.429 70.6509 131.641 70.0409 131.933 69.5406C132.236 69.0306 132.587 68.5914 132.995 68.2278C133.403 67.8545 133.835 67.5763 134.297 67.3859C134.752 67.2029 135.207 67.098 135.649 67.0638C136.453 67.015 137.124 67.2346 137.65 67.7178C138.188 68.1961 138.357 68.9477 138.175 69.9652C138.08 70.4996 137.851 71.1219 137.49 71.8344C137.129 72.5445 136.91 73.2082 136.831 73.8158C136.745 74.4308 136.927 74.9383 137.377 75.3361C137.829 75.7241 138.814 75.8778 140.343 75.7851C141.036 75.746 141.714 75.6435 142.376 75.4776C143.034 75.3214 143.641 75.0677 144.194 74.7163C144.754 74.3649 145.234 73.911 145.637 73.3595C146.032 72.8056 146.31 72.115 146.46 71.2854C146.642 70.2678 146.428 69.4137 145.828 68.7207C145.219 68.035 144.42 67.4055 143.425 66.8271C142.437 66.2586 141.348 65.6851 140.174 65.1068C139.006 64.5285 137.937 63.8477 136.981 63.0595C136.03 62.2737 135.283 61.3221 134.757 60.202C134.234 59.082 134.116 57.6935 134.413 56.039C134.654 54.6969 135.14 53.5378 135.878 52.5544C136.622 51.571 137.517 50.7438 138.566 50.0728C139.623 49.3944 140.776 48.8746 142.017 48.5086C143.265 48.1426 144.514 47.9181 145.757 47.8424C147.008 47.7668 148.205 47.8302 149.367 48.0401C150.522 48.2402 151.523 48.5769 152.373 49.0454C153.226 49.5066 153.877 50.085 154.329 50.7853C154.779 51.4881 154.921 52.308 154.754 53.2377C154.659 53.7721 154.462 54.2577 154.184 54.6823C153.907 55.1069 153.56 55.4753 153.162 55.7779C152.766 56.0805 152.341 56.3197 151.881 56.4856C151.429 56.6613 150.975 56.7662 150.535 56.793C149.699 56.8419 148.996 56.6369 148.426 56.1635C147.846 55.6998 147.657 54.9312 147.849 53.8599C147.905 53.5427 148.045 53.1889 148.286 52.8009C148.517 52.4202 148.75 52.0322 148.982 51.6516C149.215 51.2636 149.407 50.8902 149.559 50.5217C149.702 50.1606 149.736 49.8409 149.643 49.5701C149.552 49.2919 149.286 49.0845 148.827 48.9454C148.37 48.799 147.677 48.7526 146.733 48.8087C146.118 48.8527 145.511 48.9722 144.899 49.1796C144.285 49.3944 143.717 49.6896 143.199 50.0654C142.68 50.4412 142.231 50.9049 141.859 51.4515C141.478 52.0054 141.235 52.6276 141.112 53.3255C140.94 54.287 141.184 55.1044 141.842 55.7779C142.508 56.449 143.371 57.0834 144.435 57.6642C145.492 58.245 146.657 58.8209 147.927 59.3894C149.195 59.9653 150.345 60.6339 151.378 61.4026C152.407 62.1688 153.216 63.0985 153.801 64.1893C154.386 65.28 154.541 66.6246 154.253 68.2327Z" fill="white"/>
<path d="M125.127 70.3557C124.534 66.5734 123.32 63.3889 121.487 60.7852C119.646 58.1889 117.221 56.2489 114.2 54.9678C111.172 53.694 107.658 53.1816 103.64 53.4354C99.6218 53.6892 95.8395 54.6652 92.2785 56.3661C88.7248 58.0669 85.5275 60.3607 82.6718 63.2572C79.8234 66.1537 77.4125 69.5724 75.444 73.5206C73.4681 77.4664 72.0648 81.7831 71.2243 86.4781C70.3838 91.173 70.256 95.4067 70.8483 99.1915C71.4332 102.974 72.662 106.166 74.5273 108.764C76.3975 111.361 78.8404 113.296 81.8608 114.577C84.8885 115.858 88.4029 116.363 92.421 116.109C96.4392 115.856 100.221 114.879 103.782 113.179C107.334 111.488 110.519 109.191 113.342 106.292C116.159 103.393 118.555 99.9748 120.531 96.029C122.497 92.0905 123.91 87.7665 124.751 83.0789C125.591 78.3839 125.712 74.1404 125.127 70.3581M104.235 96.9001C103.057 100.563 101.819 103.642 100.509 106.134C99.2015 108.615 97.8818 110.497 96.5621 111.773C95.2448 113.042 94.0013 113.713 92.8364 113.794C91.6715 113.867 90.6442 113.332 89.757 112.205C88.8624 111.068 88.2013 109.318 87.7614 106.942C87.3215 104.567 87.1716 101.578 87.2945 97.9689C87.4247 94.3672 87.9113 90.1652 88.7715 85.3604C89.6439 80.4947 90.6712 76.2244 91.841 72.5592C93.0207 68.8891 94.2568 65.8096 95.5667 63.3255C96.8766 60.834 98.189 58.9551 99.5136 57.6862C100.833 56.41 102.074 55.7389 103.239 55.6657C104.407 55.5852 105.434 56.1172 106.321 57.247C107.208 58.3841 107.877 60.1362 108.317 62.5105C108.754 64.8921 108.907 67.8813 108.784 71.4831C108.653 75.0823 108.152 79.3161 107.282 84.1843C106.422 88.9866 105.404 93.2301 104.235 96.9001Z" fill="white"/>
<path d="M239.292 83.1691L243.898 98.2861C244.345 99.6795 244.758 100.595 245.137 101.029C245.515 101.466 246.157 101.756 247.058 101.905C248.818 102.178 249.57 103.088 249.315 104.631C249.015 106.449 247.695 107.754 245.358 108.55C243.021 109.345 239.347 109.745 234.333 109.745C228.668 109.745 224.51 109.509 221.856 109.035C220.639 108.811 219.718 108.357 219.094 107.674C218.467 106.99 218.233 106.163 218.396 105.192C218.518 104.445 218.808 103.867 219.266 103.457C219.723 103.047 220.504 102.666 221.615 102.317C222.859 101.92 223.559 101.249 223.716 100.302C223.992 98.6351 223.139 97.6517 221.158 97.354C219.027 97.0563 215.982 96.905 212.021 96.905C208.688 96.905 206.661 97.1051 205.945 97.5028C205.503 97.7517 205.078 98.2007 204.67 98.8474C204.262 99.494 204.009 100.116 203.911 100.714C203.82 101.261 203.869 101.617 204.053 101.778C204.24 101.939 204.891 102.208 206.007 102.581C207.462 103.027 208.079 103.925 207.855 105.268C207.366 108.23 203.549 109.709 196.405 109.709C192.345 109.709 189.408 109.435 187.595 108.886C185.926 108.364 185.238 107.22 185.53 105.453C185.658 104.682 185.951 104.084 186.41 103.662C186.87 103.24 187.629 102.854 188.688 102.505C190.411 101.934 191.777 101.131 192.79 100.097C193.8 99.0645 195.361 96.8562 197.477 93.4716L204.685 81.9368C207.339 77.7055 209.172 74.5406 210.185 72.4372C211.197 70.3337 211.881 68.2742 212.239 66.2586C212.618 64.1185 212.996 62.6324 213.372 61.7979C213.748 60.9634 214.417 60.1508 215.375 59.3528C217.393 57.6105 219.742 56.7394 222.424 56.7394C224.955 56.7394 227.211 57.7228 229.192 59.6871C231.957 62.3738 235.323 70.2019 239.295 83.1667L239.292 83.1691ZM212.35 87.8714H219.718C221.072 87.8714 221.797 87.5737 221.895 86.9758C222.03 86.1535 221.423 84.1379 220.077 80.929C219.467 79.46 218.978 78.4791 218.609 77.9788C218.241 77.481 217.806 77.2321 217.304 77.2321C216.402 77.2321 215.513 78.0667 214.635 79.7333C214.498 79.9578 213.989 80.8412 213.107 82.3834C211.635 84.9212 210.858 86.439 210.775 86.9368C210.671 87.559 211.197 87.8689 212.35 87.8689V87.8714Z" fill="white"/>
<path d="M274.74 73.9111L271.395 94.1427C270.68 98.4716 271.761 100.639 274.644 100.639C275.372 100.639 276.119 100.434 276.888 100.024C277.657 99.6136 278.23 99.1085 278.603 98.5107C279.353 97.315 280.068 94.6527 280.751 90.5215C281.427 86.4414 281.749 83.6523 281.72 82.1589C281.72 81.5367 281.621 81.0828 281.417 80.7973C281.213 80.5118 280.793 80.1824 280.152 79.809C278.847 79.0623 278.289 78.1179 278.478 76.9711C278.734 75.4289 280.137 74.3576 282.693 73.7598C287.544 72.6153 292.238 72.0419 296.775 72.0419C299.306 72.0419 300.351 73.3742 299.911 76.0365C299.864 76.3098 299.761 76.871 299.596 77.7153C299.348 78.911 299.07 80.3654 298.761 82.0833L296.038 98.5448C295.897 99.3916 296.497 100.163 297.834 100.858C298.962 101.456 299.434 102.327 299.245 103.472C298.874 105.712 295.92 107.442 290.38 108.659C287.129 109.382 284.035 109.743 281.103 109.743C279.901 109.743 279.102 109.606 278.709 109.333C278.316 109.06 278.146 108.525 278.203 107.727C278.333 106.185 277.984 105.414 277.158 105.414C276.859 105.414 276.571 105.482 276.298 105.619C276.025 105.756 275.178 106.261 273.755 107.132C270.938 108.85 268.078 109.709 265.17 109.709C260.358 109.709 257.19 108.328 255.667 105.565C254.369 103.252 254.175 99.3574 255.079 93.8816C255.416 91.8416 255.716 90.0993 255.981 88.6547C256.121 87.808 256.215 87.237 256.264 86.9368C256.618 84.7968 256.684 83.2228 256.463 82.215C256.242 81.2072 255.664 80.4166 254.73 79.8456C253.836 79.3478 253.28 78.9501 253.067 78.6524C252.853 78.3547 252.789 77.9423 252.875 77.4201C253.187 75.5289 254.836 74.2722 257.822 73.65C262.912 72.5812 267.91 72.0443 272.823 72.0443C274.303 72.0443 274.939 72.6666 274.733 73.9111H274.74Z" fill="white"/>
<path d="M327.771 81.5635L325.685 94.1793C325.439 95.6727 325.606 96.8928 326.189 97.8371C326.771 98.7839 327.639 99.2549 328.791 99.2549C329.769 99.2549 331.133 98.8059 332.886 97.9104C333.299 97.6859 333.692 97.5736 334.07 97.5736C334.672 97.5736 335.164 97.9347 335.545 98.657C335.926 99.3793 336.049 100.163 335.908 101.009C335.653 102.552 334.557 104.033 332.618 105.451C328.56 108.462 324.001 109.967 318.939 109.967C314.928 109.967 311.893 108.842 309.836 106.59C307.776 104.338 307.051 101.371 307.661 97.6883L310.512 80.4434C310.605 79.8724 310.595 79.5162 310.48 79.3795C310.364 79.2429 310.018 79.1745 309.443 79.1745H305.57C304.842 79.1745 304.4 79.0574 304.238 78.8207C304.075 78.584 304.068 78.0301 304.211 77.1589L304.483 75.5167C304.631 74.77 305.012 74.2234 305.619 73.8744L324.613 63.1229C325.075 62.8984 325.621 62.7862 326.248 62.7862H329.293C329.919 62.7862 330.315 62.9302 330.48 63.2157C330.644 63.5012 330.659 64.0673 330.519 64.914L329.686 69.9531C329.563 70.6997 329.6 71.1853 329.801 71.4098C330.003 71.6343 330.492 71.7466 331.269 71.7466H338.224C339.15 71.7466 339.725 71.915 339.944 72.2517C340.165 72.5885 340.185 73.3034 340.003 74.3966L339.639 76.6001C339.443 77.7958 339.128 78.6231 338.703 79.0818C338.275 79.543 337.599 79.7724 336.67 79.7724H329.865C329.162 79.7724 328.666 79.8968 328.376 80.1457C328.084 80.3946 327.88 80.868 327.766 81.5635H327.771Z" fill="white"/>
<path d="M365.944 71.7466C370.53 71.7466 374.359 72.9276 377.426 75.2922C379.628 76.9857 381.255 79.1867 382.312 81.9002C383.395 84.7382 383.683 87.6981 383.174 90.785C382.282 96.1851 379.028 100.778 373.415 104.56C368.058 108.169 362.307 109.972 356.168 109.972C350.029 109.972 345.607 108.281 342.459 104.897C339.395 101.612 338.296 97.332 339.169 92.0563C340.139 86.1828 343.14 81.3805 348.168 77.647C353.43 73.7158 359.355 71.749 365.949 71.749L365.944 71.7466ZM361.511 80.3702C360.407 80.3702 359.456 80.7753 358.66 81.583C357.861 82.3907 357.352 83.4668 357.129 84.8114C356.883 86.3048 356.826 88.3399 356.966 90.9143C357.104 93.4887 357.397 95.7727 357.846 97.7639C358.286 99.8039 359.382 100.824 361.137 100.824C363.368 100.824 364.715 99.4184 365.18 96.6048C365.526 94.5136 365.637 92.1393 365.514 89.4746C365.391 86.8123 365.064 84.6479 364.538 82.9788C363.99 81.2877 362.983 80.4166 361.511 80.3653V80.3702Z" fill="white"/>
<path d="M409.032 81.5635L406.945 94.1793C406.699 95.6727 406.867 96.8928 407.449 97.8371C408.031 98.7839 408.899 99.2549 410.052 99.2549C411.03 99.2549 412.394 98.8059 414.146 97.9104C414.559 97.6859 414.954 97.5736 415.328 97.5736C415.93 97.5736 416.422 97.9347 416.803 98.657C417.184 99.3793 417.306 100.163 417.166 101.009C416.911 102.552 415.815 104.033 413.876 105.451C409.818 108.462 405.259 109.967 400.197 109.967C396.186 109.967 393.151 108.842 391.094 106.59C389.034 104.338 388.309 101.371 388.919 97.6883L391.77 80.4434C391.863 79.8724 391.853 79.5162 391.738 79.3795C391.622 79.2429 391.276 79.1745 390.701 79.1745H386.827C386.1 79.1745 385.658 79.0574 385.495 78.8207C385.333 78.584 385.326 78.0301 385.468 77.1589L385.739 75.5167C385.889 74.77 386.267 74.2234 386.874 73.8744L405.869 63.1229C406.331 62.8984 406.876 62.7862 407.503 62.7862H410.548C411.175 62.7862 411.57 62.9302 411.735 63.2157C411.9 63.5012 411.914 64.0673 411.774 64.914L410.941 69.9531C410.818 70.6997 410.855 71.1853 411.057 71.4098C411.258 71.6343 411.747 71.7466 412.524 71.7466H419.479C420.405 71.7466 420.98 71.915 421.199 72.2517C421.418 72.5885 421.438 73.3034 421.258 74.3966L420.894 76.6001C420.698 77.7958 420.383 78.6231 419.958 79.0818C419.53 79.543 418.852 79.7724 417.926 79.7724H411.121C410.418 79.7724 409.921 79.8968 409.631 80.1457C409.339 80.3946 409.137 80.868 409.022 81.5635H409.032Z" fill="white"/>
<path d="M441.859 72.0077C443.186 72.0077 443.965 72.1931 444.191 72.5665C444.417 72.9398 444.476 74.1331 444.368 76.1511C444.311 77.2468 444.609 77.7934 445.263 77.7934C445.764 77.7934 446.3 77.4322 446.87 76.7099C449.389 73.5987 452.267 72.0443 455.498 72.0443C457.779 72.0443 459.524 72.7788 460.736 74.2454C461.318 74.9676 461.741 75.8949 462.006 77.0272C462.272 78.1594 462.316 79.2477 462.141 80.2922C461.947 81.461 461.473 82.6616 460.718 83.8939C459.964 85.1262 459.082 86.1389 458.072 86.9368C456.216 88.4546 454.125 89.2135 451.792 89.2135C450.514 89.2135 449.48 88.989 448.688 88.5424C447.897 88.0935 446.914 87.1857 445.737 85.8167C445.297 85.2945 444.852 85.0334 444.4 85.0334C443.697 85.0334 443.176 85.4263 442.832 86.2096C442.49 86.9929 442.109 88.6425 441.694 91.1559C441.072 94.9138 440.787 97.4784 440.836 98.8449C440.888 99.5916 441.048 100.109 441.313 100.394C441.579 100.68 442.2 100.973 443.179 101.273C445.324 101.944 446.258 103.115 445.983 104.782C445.813 105.802 445.304 106.693 444.452 107.452C443.599 108.21 442.552 108.716 441.306 108.964C438.819 109.462 435.243 109.711 430.581 109.711C425.919 109.711 422.837 109.326 420.66 108.554C418.721 107.859 417.892 106.651 418.175 104.933C418.389 103.64 419.333 102.483 421.004 101.461C421.807 100.987 422.38 100.56 422.722 100.172C423.061 99.7869 423.336 99.2573 423.547 98.5863C424.321 96.3218 425.216 92.1295 426.229 86.0071C426.413 84.887 426.42 84.0842 426.251 83.5986C426.081 83.113 425.644 82.7201 424.941 82.4224C423.277 81.727 422.554 80.7192 422.771 79.399C422.967 78.2058 423.751 77.1785 425.123 76.3195C426.492 75.4606 428.689 74.6089 431.711 73.7622C435.759 72.6177 439.141 72.0321 441.851 72.0077H441.859Z" fill="white"/>
<path d="M486.612 71.7466C490.974 71.7466 494.488 72.8422 497.16 75.0311C498.571 76.1999 499.47 77.5396 499.861 79.0428C500.251 80.5484 500.227 82.6201 499.792 85.2579L498.797 90.8191C498.158 94.6771 498.02 97.1783 498.384 98.3227C498.568 98.8718 498.774 99.2183 499.001 99.3671C499.227 99.516 499.73 99.6526 500.512 99.7771C501.294 99.9015 501.608 100.424 501.456 101.344C501.259 102.539 500.571 103.784 499.391 105.077C498.212 106.37 496.786 107.454 495.113 108.325C493.051 109.421 490.994 109.967 488.939 109.967C486.307 109.967 484.375 109.072 483.144 107.281C482.724 106.634 482.289 106.309 481.839 106.309C481.338 106.309 480.623 106.622 479.691 107.242C476.885 109.057 473.889 109.967 470.706 109.967C467.524 109.967 464.882 109.269 463.083 107.876C461.906 106.956 461.053 105.756 460.52 104.274C459.986 102.793 459.856 101.246 460.122 99.6282C460.549 97.0392 461.982 94.7503 464.415 92.7591C468.217 89.6234 473.39 88.0446 479.935 88.0178C481.387 88.0178 482.326 87.8763 482.751 87.5883C483.174 87.3028 483.474 86.6366 483.646 85.5922C484.083 82.9544 484.122 81.0437 483.766 79.8627C483.41 78.6816 482.606 78.0886 481.353 78.0886C480.601 78.0886 479.893 78.3131 479.229 78.7597C478.566 79.2087 477.698 80.0286 476.622 81.2243C473.869 84.3843 471.277 85.9656 468.846 85.9656C467.617 85.9656 466.676 85.6044 466.017 84.8821C465.359 84.1598 465.128 83.2155 465.322 82.0466C465.518 80.8509 466.199 79.6577 467.362 78.462C468.524 77.2663 470.006 76.2219 471.807 75.3263C476.737 72.9374 481.672 71.7417 486.609 71.7417L486.612 71.7466ZM480.517 93.3594C479.414 93.3594 478.381 93.8084 477.418 94.7039C476.455 95.5995 475.872 96.6707 475.666 97.9128C475.469 99.1085 475.597 100.072 476.052 100.807C476.506 101.541 477.209 101.907 478.163 101.907C480.168 101.907 481.449 100.229 482.004 96.8684C482.23 95.4994 482.237 94.5795 482.028 94.1061C481.817 93.6327 481.313 93.3838 480.517 93.3594Z" fill="white"/>
<path d="M554.9 60.9951L549.265 95.0748C548.943 97.0148 548.82 98.2593 548.891 98.8083C548.963 99.3549 549.334 99.8918 549.997 100.414C550.796 101.036 551.315 101.583 551.548 102.056C551.784 102.53 551.845 103.101 551.735 103.774C551.406 105.765 549.137 107.283 544.93 108.328C541.143 109.247 537.432 109.709 533.799 109.709C532.998 109.709 532.497 109.589 532.298 109.355C532.099 109.118 532.035 108.552 532.109 107.656C532.192 106.388 531.846 105.753 531.069 105.753C530.641 105.753 529.916 106.126 528.892 106.873C525.994 108.94 522.979 109.972 519.845 109.972C515.96 109.972 512.701 108.542 510.066 105.68C508.521 103.962 507.368 101.985 506.611 99.7453C505.589 96.8342 505.323 93.884 505.817 90.8996C506.397 87.3906 507.936 84.0061 510.428 80.746C512.73 77.7348 515.569 75.4215 518.943 73.8036C521.772 72.4591 524.451 71.788 526.984 71.788C529.892 71.788 532.391 72.4347 534.483 73.728C534.827 73.9281 535.109 74.0257 535.335 74.0257C536.137 74.0257 536.714 72.9569 537.068 70.8144C537.22 69.8945 537.117 69.1917 536.758 68.7061C536.4 68.2205 535.687 67.8032 534.615 67.4567C533.119 66.9589 532.472 66.0878 532.679 64.8433C532.979 63.0277 535.031 61.6076 538.833 60.5876C545.539 58.8209 549.985 57.9375 552.165 57.9375C554.345 57.9375 555.23 58.9575 554.893 60.9975L554.9 60.9951ZM531.384 79.7724C529.754 79.7724 528.321 80.6313 527.085 82.3468C525.429 84.6357 524.291 87.6469 523.674 91.3804C523.114 94.7649 523.305 97.3149 524.252 99.0328C524.923 100.277 526.011 100.9 527.515 100.9C529.145 100.9 530.484 99.9601 531.533 98.0811C532.583 96.2022 533.455 93.1715 534.146 88.9914C534.78 85.1603 534.763 82.6079 534.094 81.339C533.583 80.3434 532.679 79.8212 531.384 79.7724Z" fill="white"/>
<path d="M590.987 92.2393H573.317C572.54 92.2393 572.095 92.5761 571.984 93.2471C571.717 94.865 572.348 96.3901 573.879 97.8201C575.41 99.2525 577.19 99.9674 579.22 99.9674C580.421 99.9674 581.795 99.7381 583.339 99.2769C584.882 98.8157 586.182 98.2495 587.246 97.5785C588.197 96.9806 588.922 96.6829 589.424 96.6829C590.075 96.6829 590.647 97.0807 591.144 97.8762C591.638 98.6741 591.815 99.494 591.677 100.341C591.38 102.132 589.967 103.862 587.435 105.529C582.96 108.491 578.116 109.97 572.904 109.97C567.691 109.97 563.481 108.452 560.424 105.416C558.942 103.923 557.812 102.12 557.033 100.004C556.018 97.1929 555.769 94.2305 556.283 91.1193C556.974 86.9392 558.873 83.1813 561.982 79.8456C564.666 76.9588 567.829 74.8066 571.471 73.3888C574.204 72.32 577.062 71.7832 580.045 71.7832C584.808 71.7832 588.632 73.1277 591.522 75.8144C592.98 77.1589 594.068 78.75 594.791 80.5923C595.624 82.6835 595.875 84.7235 595.545 86.7147C595.278 88.3326 594.72 89.6576 593.874 90.6898C593.026 91.722 592.063 92.2393 590.987 92.2393ZM575.447 85.2604H579.244C580.847 85.2604 581.771 84.5259 582.014 83.0569C582.235 81.7123 582.029 80.6191 581.392 79.7724C580.756 78.9256 579.809 78.5035 578.556 78.5035C577.153 78.5035 575.958 79.0501 574.975 80.1457C574.054 81.1657 573.508 82.198 573.336 83.2448C573.213 83.9915 573.307 84.5137 573.621 84.8114C573.936 85.1091 574.543 85.2604 575.445 85.2604H575.447Z" fill="white"/>
</g>
<defs>
<clipPath id="clip0_53_58942">
<rect width="659" height="173" fill="white"/>
</clipPath>
</defs>
</svg>
