<svg width="889" height="348" viewBox="0 0 889 348" fill="none" xmlns="http://www.w3.org/2000/svg">
<g clip-path="url(#clip0_44_21512)">
<mask id="mask0_44_21512" style="mask-type:luminance" maskUnits="userSpaceOnUse" x="500" y="0" width="390" height="277">
<path d="M889.004 0H500.314V276.859H889.004V0Z" fill="white"/>
</mask>
<g mask="url(#mask0_44_21512)">
<path fill-rule="evenodd" clip-rule="evenodd" d="M772.144 132.481C772.144 132.481 775.352 120.764 763.845 110.694C750.473 98.994 729.324 95.4782 719.334 85.7958C719.334 85.7958 724.473 78.6291 722.903 70.8188C721.101 61.8596 711.827 55.8557 709.462 54.9386C696.868 50.0697 682.67 51.575 660.17 48.5333C640.114 45.8237 622.34 41.6365 622.34 41.6365C617.745 59.0012 608.872 72.0196 596.098 81.0895C591.319 108.901 579.829 120.536 565.582 126.969C565.582 126.969 571.62 136.924 593.211 140.935C614.798 144.942 646.203 141.319 646.203 141.319C646.203 141.319 641.103 147.821 636.68 154.486C632.261 161.155 629.616 171.695 647.081 176.706C664.547 181.717 691.782 188.596 701.001 195.095C710.223 201.597 710.911 213.706 710.911 213.706C727.858 194.33 727.837 162.4 772.137 132.485L772.144 132.481Z" fill="white"/>
<path fill-rule="evenodd" clip-rule="evenodd" d="M632.458 159.134C632.479 159.03 632.51 158.926 632.551 158.826C632.572 158.77 632.596 158.719 632.617 158.663C633.267 156.822 634.194 155.071 635.224 153.517C637.738 149.728 640.466 145.991 642.372 143.451C633.146 144.271 609.975 145.825 592.889 142.651C570.309 138.461 564.085 127.872 564.085 127.872C563.825 127.443 563.76 126.924 563.908 126.446C564.057 125.965 564.403 125.574 564.859 125.37C578.684 119.131 589.735 107.777 594.369 80.7919C594.449 80.3351 594.704 79.9302 595.081 79.6603C607.533 70.8188 616.168 58.1153 620.642 41.1867C620.884 40.2731 621.811 39.716 622.734 39.9305C622.734 39.9305 640.432 44.1004 660.398 46.7961C683.082 49.8621 697.394 48.3948 710.088 53.3018C712.647 54.2915 722.664 60.7834 724.611 70.4693C725.901 76.8781 723.065 82.8924 721.582 85.4808C726.451 89.6853 733.564 92.6544 741.008 95.8796C749.38 99.5027 758.17 103.406 764.989 109.372C777.413 120.238 773.821 132.938 773.821 132.938C773.71 133.343 773.461 133.692 773.112 133.928C746.88 151.642 736.399 170.079 728.595 186.119C723.249 197.109 719.099 206.992 712.225 214.851C711.755 215.387 711.015 215.585 710.34 215.353C709.669 215.121 709.203 214.508 709.165 213.796C709.165 213.796 708.546 202.549 699.991 196.517C690.865 190.084 663.883 183.34 646.597 178.378C636.967 175.613 633.039 171.128 631.967 166.612C631.379 164.12 631.666 161.549 632.451 159.127L632.458 159.134ZM672.95 182.26C677.317 175.668 682.21 169.353 687.923 161.902C693.483 163.259 702.114 165.979 710.658 170.771C705.672 178.236 701.938 184.201 697.511 191.081C691.412 188.095 682.376 185.08 672.95 182.26ZM725.261 184.997C724.158 182.239 721.682 177.748 716.433 174.128C714.632 172.886 712.792 171.747 710.949 170.706C714.248 165.774 718.096 160.186 723.051 153.247C724.393 151.368 725.735 149.545 727.066 147.783C728.46 148.648 729.781 149.579 731.019 150.579C736.043 154.642 738.546 158.383 739.677 160.487C733.463 168.837 729.169 176.976 725.462 184.596L725.265 185.004L725.261 184.997ZM635.746 160.245C635.764 160.207 635.781 160.172 635.795 160.137C637.119 156.857 639.937 155.611 643.52 155.916C647.707 156.272 652.818 158.584 658.136 162.359C658.475 162.598 658.807 162.819 659.139 163.013C655.629 168.204 652.327 172.207 649.626 175.609C648.928 175.412 648.24 175.215 647.565 175.024C639.726 172.775 636.248 169.488 635.376 165.812C634.937 163.954 635.158 162.054 635.746 160.245ZM686.685 133.564C691.868 135.357 698.255 136.924 704.811 138.814C703.971 139.956 703.12 141.122 702.273 142.309C696.917 149.808 692.148 156.064 687.847 161.674C687.449 161.577 687.065 161.487 686.702 161.407C681.273 160.175 675.246 158.345 672.376 157.442C675.225 151.763 680.177 143.451 686.685 133.564ZM722.474 117.476C730.327 120.321 737.263 122.954 743.775 127.546C738.678 133.017 732.924 139.696 727.014 147.513C721.44 144.074 714.784 141.62 708.12 139.585C707.128 139.281 706.132 138.99 705.143 138.703C711.243 130.45 717.197 123.335 722.471 117.476H722.474ZM761.372 110.902C761.818 111.261 762.261 111.632 762.693 112.012C771.815 119.992 770.985 129.062 770.577 131.429C764.792 135.374 759.761 139.35 755.345 143.33C754.473 140.156 752.146 133.91 746.596 129.426C745.763 128.751 744.923 128.114 744.079 127.515C752.229 118.781 758.678 113.154 761.372 110.902ZM623.018 141.022C625.193 137.402 630.656 128.553 639.287 116.172C646.089 116.345 651.794 116.681 656.601 117.425C659.343 117.85 661.791 118.411 663.984 119.148C657.023 129.297 653.081 135.949 651.293 139.125C649.682 139.16 647.922 139.302 645.982 139.579C645.466 139.637 635.442 140.766 623.018 141.022ZM587.951 109.915C593.532 111.898 601.247 114.089 610.334 115.21C604.435 125.183 600.019 135.935 598.442 139.973C596.762 139.759 595.119 139.506 593.525 139.208C578.117 136.35 570.959 130.408 568.331 127.598C575.883 123.854 582.629 118.508 587.948 109.915H587.951ZM681.436 135.229C679.935 132.17 676.425 126.225 670.197 121.947C668.468 120.76 666.515 119.809 664.302 119.044C665.809 116.85 667.459 114.49 669.257 111.967C672.739 107.088 676.705 101.911 680.81 96.7689C682.366 97.4091 683.759 98.1497 684.994 98.9975C691.387 103.389 694.465 110.753 695.644 114.324C690.302 121.833 685.512 128.903 681.436 135.229ZM719.549 88.3392C724.659 92.6302 731.952 95.7758 739.629 99.0944L740.241 99.3608C737.395 101.88 730.752 107.991 722.412 117.245C716.602 115.141 710.292 112.916 703.29 109.697C708.335 102.79 713.795 95.5958 719.549 88.3392ZM627.292 91.9796C629.612 92.1976 632.057 92.3291 634.619 92.3464C642.697 92.3983 649.893 92.4883 656.231 92.7859C651.487 98.9629 646.902 105.084 643.008 110.538C641.67 112.414 640.394 114.227 639.18 115.968C634.052 115.843 628.308 115.809 621.859 115.764C617.948 115.736 614.2 115.473 610.659 115.047C612.544 111.881 614.574 108.801 616.714 106.046C620.473 101.205 624.003 96.4886 627.285 91.9796H627.292ZM674.81 69.5038C685.557 70.3551 692.888 72.068 698.48 75.3036C693.013 81.612 686.737 89.0313 680.747 96.5302C677.943 95.3882 674.627 94.5542 670.789 93.9348C666.674 93.2739 661.961 92.8655 656.629 92.6094C662.818 84.5569 669.267 76.4144 674.81 69.5073V69.5038ZM713.044 59.2158C716.264 61.7454 720.13 65.898 721.188 71.1614C722.557 77.9785 718.286 84.2489 717.937 84.7438C715.527 87.7648 713.169 90.7788 710.862 93.7722C709.815 89.5711 706.924 80.7573 700.409 76.2829C699.884 75.923 699.348 75.5804 698.787 75.2517C705.375 67.6559 710.772 61.7039 713.041 59.2158H713.044ZM617.399 59.3127C621.42 61.8319 630.255 66.3997 643.513 68.1058C639.118 74.8399 633.637 82.9097 627.198 91.7685C611.354 90.2459 601.326 84.5361 597.695 82.1138V82.0965C605.887 76.1514 612.492 68.5937 617.399 59.3161V59.3127ZM655.232 49.6026C656.781 49.8309 658.351 50.0559 659.934 50.2704C671.134 51.7827 680.26 52.1495 688.154 52.7481C685.844 55.558 680.841 61.6693 674.717 69.2962C668.776 68.829 661.791 68.6214 653.492 68.566C650.062 68.5418 646.846 68.3168 643.859 67.9466C649.678 59.0116 653.568 52.4678 655.235 49.6026H655.232Z" fill="#020202"/>
<path fill-rule="evenodd" clip-rule="evenodd" d="M616.365 33.0511C617.029 32.051 618.059 31.352 619.235 31.1167C620.411 30.8779 621.631 31.1167 622.631 31.7776C623.63 32.442 624.328 33.4733 624.567 34.6498C624.806 35.8264 624.567 37.0479 623.907 38.048C600.486 73.4626 420.077 346.249 420.077 346.249L412.535 341.256C412.535 341.256 592.944 68.4657 616.365 33.0511Z" fill="white"/>
<path fill-rule="evenodd" clip-rule="evenodd" d="M614.906 32.0856C615.826 30.6979 617.254 29.7325 618.883 29.4003C620.511 29.0681 622.206 29.4003 623.592 30.3138C624.979 31.2343 625.944 32.667 626.276 34.2934C626.607 35.9233 626.276 37.6189 625.359 39.0066C601.939 74.4211 421.529 347.208 421.529 347.208C420.997 348.014 419.911 348.235 419.109 347.702L411.567 342.709C410.762 342.176 410.544 341.089 411.073 340.283L614.906 32.0856ZM617.824 34.02L414.959 340.764L419.586 343.827L622.448 37.0825C622.852 36.47 622.997 35.7191 622.852 34.9993C622.707 34.2795 622.278 33.6463 621.666 33.2379C621.051 32.8331 620.304 32.6877 619.585 32.8331C618.865 32.9784 618.232 33.4075 617.824 34.02ZM621.635 36.7399L419.953 341.695C419.631 342.179 418.981 342.311 418.5 341.989C418.016 341.671 417.885 341.017 418.203 340.536L619.885 35.5807C620.207 35.0962 620.857 34.9647 621.341 35.2865C621.825 35.6084 621.957 36.2589 621.635 36.7434V36.7399Z" fill="#020202"/>
<path fill-rule="evenodd" clip-rule="evenodd" d="M559.756 120.923C561.772 122.809 566.395 125.173 566.395 125.173C567.249 125.619 567.578 126.678 567.132 127.536C566.686 128.391 565.628 128.723 564.77 128.273C564.77 128.273 558.352 124.837 556.527 122.588C555.078 120.805 555.154 119.574 555.392 118.93C555.69 118.137 556.374 117.58 557.339 117.39C558.356 117.193 559.798 117.515 559.798 117.515C560.735 117.743 561.309 118.691 561.081 119.629C560.918 120.3 560.389 120.785 559.756 120.923ZM589.18 76.2517C589.743 76.8712 590.68 77.494 591.621 78.0685C593.588 79.2796 595.677 80.214 595.677 80.214C596.559 80.6085 596.953 81.6432 596.559 82.5256C596.164 83.408 595.131 83.8025 594.249 83.408C594.249 83.408 591.112 82.003 588.699 80.342C587.499 79.515 586.482 78.6049 585.946 77.7743C584.829 76.0476 584.957 74.8987 585.227 74.2516C585.545 73.4868 586.185 72.985 587.015 72.7739C588.007 72.5213 589.349 72.8155 589.349 72.8155C590.289 73.0404 590.864 73.9886 590.639 74.9264C590.462 75.6461 589.868 76.1548 589.176 76.2483L589.18 76.2517ZM615.052 37.8611C615.539 38.1968 616.075 38.529 616.618 38.8508C618.741 40.1174 620.961 41.152 620.961 41.152C621.836 41.5569 622.216 42.602 621.808 43.4775C621.4 44.353 620.359 44.7336 619.485 44.3253C619.485 44.3253 612.607 41.0309 610.791 38.7366C610.058 37.8092 609.83 37.169 609.775 36.8264C609.647 36.034 609.927 35.5149 610.273 35.1516C610.629 34.7744 611.255 34.4387 612.13 34.5771C612.921 34.6982 614.398 35.5115 614.398 35.5115C615.218 35.989 615.505 37.0306 615.055 37.8611H615.052Z" fill="#020202"/>
</g>
<path d="M620.833 273.506H120.446L152.674 136.26H685.562L662.186 235.811C656.951 258.11 640.062 273.506 620.833 273.506Z" fill="#010101"/>
<path d="M620.833 276.859H116.221L150.022 132.91H689.787L665.443 236.579C659.876 260.294 641.529 276.856 620.83 276.856L620.833 276.859ZM124.672 270.156H620.83C638.406 270.156 654.07 255.719 658.925 235.046L681.336 139.61H155.326L124.672 270.156Z" fill="#FAC215"/>
<path d="M214.055 200.597C214.055 259.751 166.139 307.706 107.026 307.706C47.9128 307.706 0 259.751 0 200.597C0 141.444 47.9162 93.4884 107.026 93.4884C166.135 93.4884 214.055 141.444 214.055 200.597Z" fill="#FAC215"/>
<path d="M133.648 182.004C133.489 186.461 132.874 191.704 131.805 197.729C130.747 203.677 129.499 208.927 128.061 213.474C126.615 218.01 125.094 221.824 123.482 224.907C121.874 227.98 120.256 230.309 118.634 231.89C117.016 233.461 115.491 234.292 114.056 234.392C112.624 234.482 111.362 233.821 110.273 232.423C109.173 231.015 108.361 228.849 107.821 225.907C107.282 222.966 107.095 219.267 107.247 214.796C107.406 210.339 108.005 205.134 109.063 199.185C110.131 193.161 111.397 187.87 112.835 183.336C114.284 178.793 115.806 174.976 117.414 171.903C119.025 168.82 120.633 166.491 122.262 164.92C123.883 163.338 125.408 162.508 126.84 162.418C128.275 162.321 129.537 162.978 130.626 164.376C131.716 165.785 132.538 167.951 133.078 170.893C133.617 173.841 133.801 177.544 133.652 182.001" fill="#020202"/>
<path d="M51.2116 263.339C47.3387 263.339 43.4659 262.734 39.7002 261.54C35.1047 260.083 31.3805 257.685 28.6315 254.404C28.6176 254.387 17.1892 239.427 17.1892 239.427C15.9824 237.887 15.0972 236.046 14.5647 233.974C14.0253 231.883 13.9838 229.51 14.4437 226.918C14.9796 223.904 16.2072 220.914 18.0918 218.021C19.5856 215.74 21.439 213.847 23.6175 212.37L22.5594 210.999C20.6575 208.484 19.3124 205.535 18.5517 202.227C17.7805 198.912 17.7736 195.067 18.5344 190.797C19.4058 185.894 21.1347 181.357 23.6728 177.322C26.2178 173.294 29.3403 169.785 32.9504 166.889C36.5397 164.01 40.6131 161.663 45.0634 159.916C49.4861 158.179 54.0955 157.151 58.7637 156.864C59.5797 156.815 60.3923 156.791 61.1876 156.791C62.9996 156.791 64.7942 156.916 66.5301 157.161C69.0578 157.507 71.5406 158.113 73.9024 158.954C76.2607 159.795 78.4737 160.93 80.4758 162.331C82.4711 163.729 84.2277 165.415 85.6904 167.342L91.1642 174.502C92.7099 172.273 94.4043 170.166 96.2266 168.204C100.314 163.795 105.12 160.141 110.518 157.341C115.961 154.517 122.026 152.881 128.537 152.479C129.582 152.413 130.615 152.382 131.604 152.382C136.463 152.382 140.733 153.175 144.288 154.732C148.576 156.625 152.096 159.334 154.752 162.785L162.933 173.498C163.051 173.429 163.168 173.367 163.286 173.301L163.058 173.007C162.117 171.754 161.422 170.308 160.976 168.695C160.516 167.003 160.485 165.037 160.876 162.84C161.294 160.494 162.148 158.39 163.421 156.59C164.652 154.829 166.17 153.313 167.923 152.092C169.638 150.898 171.55 149.96 173.604 149.306C175.641 148.655 177.678 148.268 179.666 148.15C180.091 148.122 180.537 148.109 180.987 148.109C181.716 148.109 182.477 148.147 183.241 148.219C184.462 148.337 185.683 148.559 186.865 148.88C188.127 149.23 189.234 149.7 190.261 150.316C191.319 150.946 192.211 151.735 192.899 152.656L198.29 159.715C198.923 160.518 199.4 161.483 199.687 162.56C199.981 163.67 200.009 164.923 199.767 166.287C199.438 168.124 198.643 169.792 197.401 171.245C196.765 171.989 196.043 172.643 195.247 173.201L197.035 175.533C197.944 176.71 198.615 178.076 199.013 179.592C199.428 181.153 199.455 182.994 199.089 185.06C198.639 187.582 197.647 189.839 196.136 191.763C194.67 193.614 192.923 195.164 190.935 196.379C189.009 197.562 186.883 198.483 184.625 199.113C182.391 199.732 180.233 200.102 178.214 200.224C177.664 200.258 177.086 200.279 176.502 200.279C175.814 200.279 175.101 200.251 174.379 200.203C173.846 200.165 173.317 200.109 172.795 200.033C172.833 203.639 172.522 207.318 171.865 210.999C170.81 216.938 168.95 222.779 166.336 228.361C163.694 233.987 160.298 239.057 156.245 243.431C152.165 247.833 147.376 251.484 142.009 254.283C136.615 257.103 130.571 258.737 124.042 259.142C122.998 259.207 121.967 259.239 120.975 259.239C116.116 259.239 111.849 258.446 108.291 256.889C104.014 255.013 100.497 252.307 97.8345 248.847L91.842 241.002C91.4754 241.614 91.0916 242.213 90.6905 242.798C87.8931 246.867 84.4939 250.421 80.583 253.356C76.6894 256.297 72.3498 258.636 67.6851 260.308C63.0445 261.969 58.3003 262.962 53.5802 263.256C52.7953 263.305 52 263.332 51.2185 263.332M58.2934 204.601C58.4524 204.601 58.608 204.622 58.7602 204.663C59.5763 204.885 60.05 205.663 59.9048 206.539L58.4109 215.547C58.0548 217.557 57.581 219.813 56.9586 222.467C56.3293 225.163 55.4579 227.731 54.3721 230.091C53.2172 232.603 51.6819 234.797 49.8181 236.621C48.7668 237.652 47.5773 238.451 46.2633 239.005C48.919 238.649 51.5747 238.033 54.1923 237.164C57.7124 235.988 61.0148 234.313 64.0024 232.185C66.9589 230.087 69.5523 227.482 71.717 224.443C73.854 221.461 75.3616 217.938 76.2019 213.969L80.9876 187.001C81.5928 183.603 81.4095 180.52 80.4447 177.838C79.4765 175.142 77.8997 172.844 75.7627 171.01C73.5877 169.141 70.9147 167.757 67.8234 166.889C65.5792 166.259 63.1794 165.909 60.6793 165.844C62.1524 166.916 63.1829 168.92 63.7603 171.83C64.566 175.952 64.3378 181.606 63.0895 188.641C62.5051 191.936 61.734 195.022 60.7934 197.815C59.9117 200.424 58.9365 202.715 57.8888 204.636C58.0237 204.608 58.1585 204.594 58.2934 204.594M32.4455 218.035C32.283 218.035 32.1205 218.042 31.951 218.052C31.0935 218.104 30.2013 218.315 29.2228 218.699C28.3202 219.062 27.4419 219.606 26.6259 220.305C25.8236 220.993 25.1113 221.883 24.5166 222.949C23.9045 224.039 23.4653 225.333 23.206 226.8C22.8429 228.849 23.1265 230.593 24.0739 232.133C25.0836 233.776 26.5636 235.167 28.4724 236.268C30.4261 237.399 32.7533 238.237 35.3882 238.756C35.4055 238.759 35.4193 238.763 35.4366 238.766C34.9525 238.5 34.5064 238.195 34.0984 237.842C32.1343 236.133 31.3425 233.835 31.8127 231.195C32.0029 230.132 32.5216 229.167 33.3653 228.319C33.9843 227.703 34.5825 227.143 35.2084 226.592C35.7478 226.108 36.2596 225.572 36.7126 225.014C37.0273 224.634 37.2244 224.18 37.3246 223.609C37.6739 221.634 37.335 220.249 36.2838 219.377C35.2049 218.471 33.9497 218.031 32.449 218.031M129.485 161.445C128.745 161.445 127.977 161.47 127.203 161.521C122.559 161.816 118.119 162.968 114.007 164.947C109.899 166.927 106.144 169.647 102.838 173.024C99.5151 176.433 96.6623 180.516 94.3628 185.16C92.0391 189.839 90.3551 195.05 89.3627 200.653C88.3702 206.241 88.2181 211.335 88.9097 215.792C89.5874 220.201 91.0121 223.955 93.1491 226.956C95.2653 229.918 98.0766 232.164 101.503 233.628C104.363 234.849 107.686 235.469 111.372 235.469C112.119 235.469 112.894 235.444 113.675 235.392C118.319 235.098 122.763 233.942 126.871 231.967C130.968 229.998 134.703 227.288 137.974 223.907C141.259 220.502 144.098 216.412 146.411 211.754C148.735 207.058 150.419 201.85 151.408 196.275C152.397 190.707 152.549 185.606 151.861 181.122C151.176 176.723 149.762 172.965 147.66 169.951C145.574 166.989 142.784 164.743 139.374 163.286C136.494 162.068 133.167 161.445 129.485 161.445ZM54.1785 166.255C49.7281 166.896 45.7758 168.235 42.387 170.249C38.1338 172.775 34.6966 175.848 32.1585 179.378C29.617 182.904 27.9779 186.676 27.2829 190.586C26.5948 194.472 26.8887 198.081 28.1646 201.307C29.4268 204.501 31.7851 207.127 35.1704 209.117C38.0404 210.802 41.8199 211.66 46.412 211.66H46.5642C45.7688 211.044 45.0461 209.992 44.5966 208.255C43.9984 205.999 43.7563 203.144 43.8705 199.777C43.988 196.479 44.3926 192.856 45.0773 189.005C45.7585 185.157 46.6471 181.506 47.7122 178.153C48.798 174.747 50.0774 171.816 51.5228 169.446C52.3665 168.072 53.2587 167.006 54.1819 166.255M166.522 178.402C166.201 178.426 165.848 178.512 165.502 178.651C165.184 178.782 164.876 178.987 164.569 179.267C164.23 179.571 163.946 179.928 163.687 180.371C163.466 180.758 163.286 181.295 163.175 181.911C163.044 182.655 163.151 183.253 163.507 183.797C163.967 184.468 164.631 185.018 165.523 185.454C165.737 185.561 165.966 185.662 166.201 185.755C166.184 185.471 166.194 185.177 166.235 184.873C166.356 183.921 166.699 182.873 167.245 181.783C167.594 181.091 167.812 180.502 167.895 180.035C168.009 179.405 167.957 178.99 167.746 178.8C167.442 178.516 167.103 178.391 166.671 178.391C166.623 178.391 166.571 178.391 166.519 178.398M172.964 156.016C172.314 156.307 171.699 156.639 171.118 157.016C170.06 157.701 169.143 158.552 168.397 159.549C167.695 160.49 167.235 161.611 166.996 162.964C166.699 164.626 166.802 166.01 167.297 167.072C167.833 168.224 168.611 169.235 169.617 170.072C170.682 170.955 171.903 171.74 173.238 172.408C174.742 173.156 176.118 173.889 177.321 174.588C178.68 175.381 179.801 176.277 180.658 177.246C181.727 178.488 182.118 180.07 181.803 181.841C181.568 183.153 181.108 184.305 180.43 185.26C181.295 184.921 182.114 184.523 182.871 184.073C184.133 183.323 185.216 182.409 186.084 181.35C186.896 180.364 187.425 179.201 187.657 177.886C187.941 176.301 187.809 175.028 187.263 174C186.658 172.858 185.804 171.868 184.725 171.062C183.553 170.183 182.225 169.404 180.776 168.744C179.209 168.038 177.726 167.3 176.374 166.553C174.967 165.778 173.774 164.899 172.837 163.947C171.657 162.736 171.204 161.175 171.516 159.431C171.72 158.272 172.145 157.217 172.771 156.296C172.833 156.203 172.902 156.109 172.968 156.016M185.741 155.684C185.69 155.954 185.607 156.234 185.496 156.521C185.261 157.099 184.984 157.653 184.635 158.237L183.774 159.67C183.573 159.995 183.521 160.182 183.508 160.269C183.39 160.923 183.442 161.345 183.66 161.521C184.016 161.819 184.407 161.947 184.908 161.947C184.967 161.947 185.026 161.947 185.084 161.94C185.409 161.919 185.759 161.84 186.118 161.698C186.502 161.556 186.827 161.376 187.145 161.127C187.436 160.906 187.685 160.636 187.882 160.331C188.072 160.037 188.203 159.694 188.273 159.317C188.401 158.601 188.304 158.026 187.975 157.507C187.564 156.86 186.962 156.331 186.136 155.881C186.008 155.808 185.876 155.742 185.741 155.677" fill="white"/>
<path d="M197.177 180.288C196.827 178.962 196.26 177.803 195.472 176.789L192.388 172.761C193.823 172.169 195.04 171.304 196.029 170.148C197.018 168.993 197.644 167.685 197.906 166.207C198.1 165.11 198.086 164.124 197.854 163.259C197.626 162.394 197.253 161.632 196.731 160.968L191.333 153.898C190.769 153.147 190.033 152.49 189.13 151.957C188.224 151.41 187.232 150.998 186.149 150.694C185.071 150.403 183.961 150.195 182.813 150.085C181.665 149.974 180.568 149.953 179.521 150.019C177.664 150.126 175.81 150.486 173.953 151.081C172.097 151.673 170.399 152.507 168.86 153.576C167.321 154.649 166.004 155.964 164.914 157.521C163.815 159.078 163.092 160.888 162.729 162.923C162.383 164.864 162.407 166.553 162.795 167.986C163.192 169.418 163.801 170.674 164.607 171.751L166.436 174.121C165.44 174.277 164.52 174.606 163.666 175.107C163.196 175.384 162.76 175.696 162.352 176.035L153.189 164.034C150.668 160.76 147.383 158.244 143.337 156.459C139.288 154.684 134.302 153.978 128.399 154.344C122.13 154.732 116.397 156.279 111.199 158.975C106.002 161.67 101.445 165.141 97.5233 169.37C95.1339 171.944 93.0004 174.741 91.1227 177.755L84.117 168.588C82.7442 166.781 81.1259 165.224 79.2448 163.906C77.3637 162.591 75.3028 161.525 73.0517 160.726C70.8006 159.923 68.4527 159.352 66.0149 159.016C63.5771 158.67 61.1047 158.587 58.6184 158.732C54.1266 159.009 49.7731 159.982 45.5337 161.646C41.2943 163.311 37.4491 165.515 34.0016 168.283C30.5506 171.048 27.6321 174.346 25.222 178.156C22.8187 181.976 21.2039 186.226 20.3775 190.884C19.6617 194.919 19.6582 198.486 20.3775 201.59C21.0898 204.684 22.3312 207.408 24.0982 209.747L26.415 212.75C23.6244 214.183 21.3664 216.228 19.6202 218.889C17.8843 221.55 16.7743 224.253 16.2833 227.008C15.8683 229.344 15.8995 231.437 16.3801 233.299C16.8538 235.15 17.6353 236.787 18.728 238.182L30.1287 253.103C32.6876 256.155 36.1317 258.38 40.461 259.751C44.7937 261.125 49.2026 261.675 53.6805 261.398C58.2381 261.114 62.7506 260.169 67.2286 258.564C71.7066 256.958 75.8111 254.747 79.5491 251.927C83.2941 249.117 86.4926 245.767 89.1517 241.898C90.1061 240.507 90.9499 239.047 91.6691 237.528L99.3664 247.601C101.877 250.864 105.162 253.39 109.211 255.166C113.26 256.941 118.247 257.647 124.149 257.28C130.418 256.892 136.131 255.353 141.287 252.657C146.456 249.961 150.993 246.497 154.914 242.272C158.832 238.043 162.062 233.216 164.621 227.769C167.166 222.336 168.957 216.72 169.987 210.916C170.786 206.418 171.056 201.995 170.793 197.642C170.9 197.677 171 197.711 171.111 197.735C172.269 198.05 173.48 198.251 174.728 198.338C175.987 198.424 177.18 198.431 178.324 198.358C180.247 198.244 182.245 197.891 184.317 197.317C186.381 196.742 188.307 195.912 190.081 194.822C191.852 193.742 193.387 192.379 194.684 190.742C195.97 189.108 196.817 187.181 197.208 184.98C197.529 183.163 197.512 181.603 197.159 180.288M78.0415 214.121C77.1424 218.37 75.538 222.132 73.2073 225.388C70.8871 228.641 68.138 231.402 64.9637 233.659C61.7859 235.925 58.3245 237.683 54.5692 238.936C50.8278 240.178 47.0483 240.922 43.2342 241.165C40.4264 241.344 37.6082 241.158 34.79 240.6C31.9684 240.043 29.496 239.154 27.3693 237.922C25.2358 236.69 23.5864 235.14 22.428 233.257C21.2696 231.371 20.91 229.195 21.3491 226.717C21.65 225.025 22.1652 223.52 22.8948 222.215C23.6244 220.91 24.4958 219.827 25.5021 218.966C26.5083 218.1 27.5941 217.436 28.7352 216.972C29.8867 216.522 30.9967 216.252 32.079 216.187C34.2367 216.055 36.0798 216.612 37.5978 217.886C39.1158 219.145 39.6414 221.09 39.1781 223.703C39.0156 224.627 38.6629 225.412 38.1165 226.077C37.5771 226.741 36.9789 227.361 36.353 227.925C35.7167 228.485 35.1427 229.032 34.6206 229.551C34.095 230.081 33.7838 230.655 33.6696 231.288C33.3031 233.344 33.8944 235.029 35.4366 236.368C36.9823 237.697 39.2611 238.278 42.2937 238.078C44.811 237.922 46.9134 237.022 48.594 235.375C50.271 233.738 51.6335 231.776 52.6778 229.51C53.722 227.243 54.5312 224.838 55.1294 222.281C55.7276 219.73 56.2048 217.467 56.5575 215.488L58.0513 206.48C56.6716 208.598 55.2262 210.262 53.6909 211.474C52.1556 212.692 50.565 213.353 48.9086 213.453C42.7155 213.844 37.7638 212.948 34.0638 210.771C30.3535 208.594 27.7981 205.736 26.3977 202.193C24.9972 198.649 24.6756 194.749 25.4295 190.513C26.1833 186.278 27.9295 182.25 30.6751 178.443C33.4103 174.637 37.048 171.384 41.5848 168.688C46.1216 165.992 51.4882 164.446 57.6813 164.055C61.5715 163.809 65.1954 164.158 68.5495 165.1C71.9037 166.041 74.7496 167.525 77.1009 169.543C79.4523 171.56 81.1605 174.052 82.2325 177.028C83.301 180.004 83.5084 183.354 82.8445 187.101L78.0449 214.131L78.0415 214.121ZM148.081 212.394C145.654 217.28 142.711 221.516 139.25 225.104C135.778 228.693 131.867 231.534 127.503 233.631C123.129 235.735 118.482 236.946 113.547 237.258C108.609 237.573 104.29 236.946 100.573 235.361C96.8629 233.776 93.8614 231.378 91.5619 228.163C89.2728 224.949 87.7617 220.993 87.0459 216.311C86.3163 211.629 86.4719 206.383 87.5058 200.57C88.5397 194.756 90.2652 189.41 92.6926 184.523C95.1097 179.637 98.0731 175.402 101.573 171.816C105.082 168.231 109.014 165.387 113.378 163.283C117.752 161.179 122.396 159.968 127.334 159.653C132.272 159.338 136.591 159.975 140.311 161.553C144.022 163.138 147.003 165.543 149.264 168.757C151.515 171.979 153.005 175.924 153.735 180.61C154.454 185.292 154.306 190.548 153.272 196.362C152.241 202.165 150.505 207.522 148.088 212.398M187.477 182.416C186.426 183.696 185.157 184.769 183.667 185.651C182.18 186.53 180.548 187.212 178.774 187.7C177.003 188.181 175.226 188.486 173.459 188.589C171.754 188.693 170.122 188.631 168.566 188.382C167.01 188.136 165.658 187.724 164.513 187.157C163.362 186.589 162.497 185.852 161.889 184.963C161.294 184.063 161.104 183.018 161.315 181.828C161.467 180.973 161.726 180.218 162.086 179.596C162.456 178.966 162.888 178.422 163.39 177.969C163.894 177.509 164.423 177.166 164.991 176.931C165.547 176.706 166.107 176.575 166.65 176.533C167.636 176.471 168.459 176.741 169.109 177.343C169.769 177.935 169.977 178.865 169.752 180.125C169.635 180.789 169.354 181.561 168.912 182.44C168.469 183.319 168.199 184.139 168.103 184.894C167.995 185.655 168.22 186.285 168.773 186.776C169.33 187.257 170.54 187.447 172.415 187.333C173.265 187.285 174.102 187.16 174.915 186.953C175.724 186.755 176.471 186.444 177.149 186.011C177.84 185.579 178.428 185.015 178.922 184.33C179.407 183.644 179.752 182.79 179.936 181.762C180.16 180.502 179.898 179.443 179.161 178.585C178.411 177.737 177.432 176.955 176.208 176.239C174.994 175.533 173.653 174.824 172.211 174.107C170.779 173.391 169.462 172.547 168.286 171.571C167.121 170.595 166.197 169.422 165.554 168.034C164.911 166.65 164.766 164.927 165.129 162.878C165.423 161.217 166.024 159.781 166.93 158.563C167.847 157.345 168.946 156.32 170.233 155.49C171.529 154.649 172.947 154.005 174.472 153.555C176.007 153.102 177.539 152.825 179.068 152.728C180.606 152.635 182.076 152.711 183.504 152.971C184.925 153.22 186.153 153.635 187.197 154.216C188.245 154.787 189.047 155.504 189.6 156.372C190.154 157.241 190.327 158.255 190.123 159.411C190.005 160.075 189.763 160.674 189.421 161.2C189.078 161.726 188.653 162.182 188.165 162.556C187.678 162.93 187.156 163.228 186.592 163.435C186.035 163.653 185.479 163.781 184.936 163.816C183.912 163.875 183.048 163.622 182.346 163.037C181.633 162.463 181.402 161.511 181.637 160.186C181.706 159.791 181.882 159.355 182.176 158.874C182.46 158.404 182.747 157.923 183.03 157.452C183.317 156.971 183.553 156.507 183.739 156.05C183.916 155.604 183.954 155.206 183.843 154.874C183.732 154.531 183.404 154.272 182.84 154.102C182.28 153.922 181.429 153.863 180.268 153.936C179.51 153.988 178.767 154.137 178.013 154.393C177.259 154.659 176.561 155.023 175.924 155.486C175.288 155.954 174.735 156.528 174.278 157.203C173.812 157.888 173.511 158.66 173.359 159.525C173.148 160.715 173.445 161.729 174.254 162.56C175.074 163.394 176.128 164.176 177.439 164.899C178.736 165.615 180.171 166.332 181.73 167.034C183.29 167.743 184.701 168.574 185.97 169.526C187.235 170.474 188.228 171.626 188.947 172.976C189.663 174.325 189.856 175.993 189.504 177.98C189.206 179.661 188.518 181.149 187.47 182.419M57.1903 166.799C55.8279 166.882 54.462 168.041 53.1031 170.252C51.7545 172.467 50.5477 175.222 49.5069 178.495C48.4626 181.779 47.605 185.316 46.9376 189.091C46.2633 192.877 45.8726 196.375 45.7619 199.597C45.6478 202.819 45.8761 205.473 46.4328 207.574C46.9791 209.671 47.975 210.678 49.4204 210.581C50.4958 210.515 51.6023 209.944 52.7123 208.854C53.8327 207.771 54.9323 206.272 56.0319 204.348C57.1177 202.431 58.1101 200.134 59.0161 197.452C59.9117 194.78 60.6586 191.811 61.2361 188.562C62.4567 181.7 62.6746 176.325 61.9104 172.422C61.1392 168.522 59.5659 166.646 57.1938 166.799" fill="#020202"/>
<path d="M82.2289 177.014C81.1604 174.038 79.4488 171.546 77.0974 169.532C74.746 167.515 71.9002 166.027 68.546 165.086C65.1918 164.145 61.568 163.795 57.6778 164.041C51.4847 164.432 46.118 165.975 41.5813 168.674C37.0445 171.37 33.4033 174.623 30.6716 178.429C27.9294 182.236 26.1797 186.264 25.4259 190.5C24.6721 194.735 24.9937 198.635 26.3941 202.179C27.7946 205.722 30.3465 208.581 34.0569 210.757C37.7568 212.934 42.7085 213.83 48.9016 213.439C50.5545 213.342 52.1486 212.678 53.6839 211.46C55.2192 210.252 56.6646 208.584 58.0443 206.466L56.5505 215.477C56.1978 217.457 55.7206 219.72 55.1259 222.27C54.5277 224.828 53.7185 227.233 52.6742 229.499C51.6299 231.766 50.2675 233.728 48.5904 235.365C46.9099 237.012 44.8075 237.912 42.2901 238.067C39.2575 238.265 36.9788 237.687 35.4331 236.354C33.8909 235.015 33.2996 233.33 33.6661 231.274C33.7802 230.638 34.0914 230.063 34.617 229.537C35.1392 229.018 35.7166 228.475 36.3529 227.911C36.9788 227.35 37.577 226.727 38.1164 226.063C38.6662 225.399 39.0155 224.613 39.178 223.689C39.6414 221.076 39.1158 219.135 37.5978 217.872C36.0832 216.602 34.2367 216.041 32.0789 216.173C30.9966 216.239 29.8866 216.509 28.7351 216.958C27.5906 217.419 26.5048 218.087 25.502 218.952C24.4957 219.817 23.6244 220.9 22.8947 222.201C22.1651 223.506 21.6499 225.011 21.349 226.703C20.9099 229.181 21.2695 231.357 22.4279 233.243C23.5863 235.129 25.2357 236.676 27.3693 237.908C29.4959 239.14 31.9717 240.029 34.7899 240.587C37.6116 241.144 40.4298 241.331 43.2341 241.151C47.0482 240.908 50.8277 240.164 54.5692 238.922C58.3244 237.669 61.7858 235.915 64.9636 233.648C68.138 231.392 70.887 228.631 73.2073 225.378C75.5379 222.121 77.1424 218.36 78.0414 214.11L82.8445 187.081C83.5084 183.333 83.3009 179.98 82.2324 177.007M59.0091 197.448C58.1031 200.13 57.1107 202.428 56.0249 204.345C54.9253 206.269 53.8257 207.771 52.7053 208.85C51.5919 209.941 50.4854 210.512 49.4134 210.577C47.9715 210.674 46.9721 209.671 46.4258 207.57C45.8691 205.473 45.6408 202.815 45.755 199.594C45.8691 196.372 46.2598 192.873 46.9306 189.088C47.6015 185.312 48.459 181.776 49.4999 178.492C50.5407 175.218 51.7475 172.464 53.0961 170.249C54.455 168.034 55.8209 166.878 57.1833 166.795C59.5555 166.643 61.1253 168.519 61.8999 172.419C62.6607 176.318 62.4428 181.696 61.2256 188.555C60.6482 191.804 59.9012 194.773 59.0056 197.445" fill="white"/>
<path d="M189.511 177.976C189.213 179.658 188.525 181.146 187.478 182.416C186.426 183.696 185.154 184.769 183.667 185.651C182.18 186.534 180.548 187.212 178.778 187.7C177.007 188.181 175.23 188.486 173.459 188.589C171.755 188.693 170.122 188.627 168.566 188.382C167.01 188.136 165.658 187.724 164.514 187.157C163.359 186.589 162.494 185.852 161.889 184.963C161.291 184.063 161.104 183.018 161.315 181.828C161.467 180.973 161.727 180.218 162.083 179.596C162.453 178.962 162.885 178.422 163.386 177.969C163.888 177.509 164.42 177.163 164.987 176.928C165.544 176.703 166.104 176.571 166.647 176.53C167.633 176.467 168.459 176.741 169.106 177.339C169.766 177.931 169.974 178.862 169.752 180.122C169.635 180.786 169.355 181.554 168.909 182.437C168.466 183.316 168.196 184.139 168.1 184.89C167.996 185.651 168.217 186.281 168.77 186.773C169.327 187.254 170.537 187.444 172.415 187.33C173.266 187.281 174.102 187.157 174.912 186.949C175.721 186.755 176.468 186.44 177.145 186.008C177.834 185.575 178.425 185.011 178.919 184.326C179.403 183.641 179.749 182.786 179.932 181.758C180.157 180.499 179.894 179.44 179.158 178.582C178.408 177.734 177.429 176.952 176.205 176.235C174.991 175.53 173.653 174.82 172.208 174.104C170.776 173.387 169.462 172.543 168.286 171.571C167.117 170.595 166.198 169.418 165.554 168.034C164.911 166.65 164.766 164.927 165.133 162.878C165.427 161.217 166.025 159.781 166.931 158.563C167.844 157.345 168.947 156.32 170.233 155.49C171.53 154.649 172.947 154.005 174.472 153.555C176.008 153.102 177.54 152.825 179.068 152.732C180.607 152.638 182.076 152.715 183.504 152.974C184.926 153.223 186.153 153.639 187.198 154.22C188.245 154.791 189.048 155.507 189.601 156.372C190.154 157.241 190.33 158.258 190.123 159.411C190.005 160.075 189.767 160.674 189.421 161.2C189.079 161.726 188.653 162.182 188.166 162.556C187.678 162.93 187.156 163.224 186.592 163.432C186.036 163.65 185.479 163.778 184.936 163.812C183.909 163.871 183.045 163.619 182.346 163.034C181.634 162.459 181.402 161.508 181.637 160.182C181.706 159.788 181.879 159.352 182.177 158.871C182.46 158.4 182.747 157.919 183.031 157.449C183.318 156.968 183.553 156.504 183.74 156.047C183.916 155.601 183.957 155.203 183.843 154.87C183.733 154.528 183.404 154.268 182.844 154.099C182.284 153.919 181.43 153.86 180.271 153.933C179.514 153.985 178.771 154.133 178.017 154.389C177.26 154.656 176.564 155.019 175.925 155.486C175.289 155.95 174.735 156.525 174.282 157.203C173.815 157.888 173.515 158.66 173.362 159.525C173.152 160.715 173.449 161.729 174.258 162.56C175.078 163.39 176.136 164.176 177.443 164.895C178.739 165.615 180.175 166.328 181.734 167.031C183.294 167.743 184.704 168.571 185.973 169.522C187.239 170.47 188.231 171.623 188.951 172.972C189.666 174.322 189.86 175.99 189.507 177.976" fill="white"/>
<path d="M153.728 180.606C152.999 175.921 151.508 171.979 149.257 168.754C146.996 165.539 144.015 163.138 140.305 161.549C136.584 159.975 132.265 159.338 127.331 159.653C122.393 159.968 117.749 161.175 113.375 163.279C109.011 165.383 105.079 168.224 101.569 171.813C98.07 175.402 95.1066 179.634 92.6895 184.52C90.262 189.406 88.5365 194.753 87.5061 200.566C86.4756 206.38 86.3166 211.622 87.0462 216.308C87.7654 220.99 89.2731 224.945 91.5657 228.16C93.8652 231.375 96.8666 233.773 100.577 235.358C104.298 236.943 108.617 237.569 113.551 237.254C118.489 236.939 123.133 235.732 127.507 233.628C131.871 231.531 135.782 228.689 139.254 225.101C142.715 221.512 145.658 217.28 148.085 212.391C150.502 207.511 152.238 202.158 153.269 196.355C154.299 190.541 154.448 185.288 153.732 180.603M128.06 213.474C126.615 218.01 125.094 221.824 123.482 224.907C121.874 227.98 120.256 230.309 118.634 231.89C117.016 233.461 115.491 234.292 114.056 234.392C112.624 234.482 111.362 233.821 110.273 232.423C109.173 231.015 108.361 228.849 107.821 225.907C107.282 222.966 107.095 219.267 107.247 214.799C107.406 210.339 108.005 205.134 109.063 199.189C110.135 193.164 111.397 187.873 112.835 183.34C114.284 178.796 115.806 174.979 117.414 171.906C119.025 168.823 120.633 166.494 122.261 164.923C123.883 163.342 125.408 162.511 126.84 162.421C128.275 162.324 129.537 162.982 130.626 164.38C131.715 165.788 132.538 167.958 133.078 170.896C133.617 173.844 133.801 177.547 133.652 182.004C133.493 186.461 132.877 191.704 131.809 197.729C130.751 203.677 129.502 208.927 128.064 213.474" fill="white"/>
<path d="M271.518 219.322C275.36 219.322 278.897 216.467 279.841 212.512C282.02 203.393 268.368 212.294 270.785 202.186C272.701 194.168 289.409 193.617 295.008 193.617C315.644 193.617 315.461 199.438 314.697 202.625C314.012 205.48 311.125 207.459 308.386 207.899C305.454 208.228 305.105 208.778 303.652 211.633C295.537 227.669 278.223 235.358 262.635 235.358C239.363 235.358 222.917 219.211 228.72 194.936C234.263 171.758 257.849 155.282 281.339 155.282C290.996 155.282 295.557 158.248 298.414 158.248C300.388 158.248 303.639 156.601 305.613 156.601C312.418 156.601 313.801 167.806 312.463 173.408C311.177 178.789 307.121 184.281 301.19 184.281C290.322 184.281 293.974 169.013 279.046 169.013C269.495 169.013 261.459 176.924 258.675 188.565C253.264 211.193 264.495 219.322 271.518 219.322Z" fill="white"/>
<path d="M371.908 207.567C367.284 226.9 376.392 216.353 374.975 222.284C373.477 228.544 363.287 235.354 355.275 235.354C346.603 235.354 347.723 229.752 344.981 229.752C343.663 229.752 341.896 231.181 339.165 232.496C336.409 233.925 332.774 235.351 327.726 235.351C318.614 235.351 310.661 230.517 313.261 219.644C315.125 211.844 324.901 202.179 344.22 202.179C347.623 202.179 349.106 202.397 350.054 198.445C350.922 194.818 352.623 187.24 347.574 187.24C340.987 187.24 337.494 199.102 327.722 199.102C324.209 199.102 322.179 196.576 323.02 193.06C325.253 183.724 345.247 177.682 355.676 177.682C361.935 177.682 378.478 180.097 374.539 196.576L371.911 207.56L371.908 207.567ZM336.668 217.235C335.987 220.09 336.789 223.167 339.97 223.167C344.141 223.167 345.548 218.664 346.336 215.367C346.914 212.951 347.681 210.204 344.607 210.204C340.876 210.204 337.508 213.719 336.668 217.232V217.235Z" fill="white"/>
<path d="M390.273 200.538C392.846 189.773 384.595 195.815 386.2 189.115C388.274 180.436 414.537 178.021 415.526 178.021C419.696 178.021 419.544 179.118 419.091 182.855C418.887 184.174 418.172 186.7 420.039 186.7C422.674 186.7 426.394 178.021 435.835 178.021C443.189 178.021 446.706 183.513 444.974 190.763C443.214 198.123 435.565 203.944 428.32 203.944C421.076 203.944 420.706 197.684 417.853 197.684C414.779 197.684 413.569 205.044 413.095 207.02C412.307 210.314 411.532 214.931 411.083 219.104C410.585 223.938 419.638 220.973 418.061 227.561C416.408 234.482 406.615 235.029 394.544 235.029C389.495 235.029 374.512 235.247 376.324 227.669C377.427 223.056 382.476 223.056 384.602 219.211C386.137 216.464 387.963 210.204 388.696 207.127L390.273 200.538Z" fill="white"/>
<path d="M499.014 207.567C494.391 226.9 503.499 216.353 502.081 222.284C500.584 228.544 490.393 235.354 482.381 235.354C473.709 235.354 474.829 229.752 472.087 229.752C470.77 229.752 469.003 231.181 466.271 232.496C463.515 233.925 459.881 235.351 454.832 235.351C445.721 235.351 437.768 230.517 440.368 219.644C442.232 211.844 452.007 202.179 471.327 202.179C474.729 202.179 476.213 202.397 477.16 198.445C478.028 194.818 479.729 187.24 474.681 187.24C468.093 187.24 464.601 199.102 454.829 199.102C451.316 199.102 449.286 196.576 450.126 193.06C452.356 183.724 472.354 177.682 482.779 177.682C489.038 177.682 505.581 180.097 501.642 196.576L499.014 207.56V207.567ZM463.774 217.235C463.093 220.09 463.895 223.167 467.077 223.167C471.247 223.167 472.654 218.664 473.443 215.367C474.02 212.951 474.784 210.204 471.714 210.204C467.983 210.204 464.618 213.719 463.778 217.232L463.774 217.235Z" fill="white"/>
<path d="M525.056 256.121C504.747 256.121 498.904 248.431 500.584 241.403C502.106 235.032 508.171 234.922 508.565 233.275C508.907 231.845 503.713 228.772 504.868 223.938C506.732 216.138 516.176 213.834 516.542 212.294C516.857 210.975 510.602 205.923 512.545 197.794C515.723 184.503 533.77 178.353 544.856 178.353C550.454 178.353 557.529 180.44 561.371 180.44C569.711 180.44 575.275 174.619 576.924 174.619C579.449 174.619 579.76 177.914 579.258 180C577.789 186.153 570.589 190.545 570.302 191.756C570.04 192.853 570.081 194.064 569.818 195.161C566.274 209.989 547.833 215.041 535.758 215.041C533.891 215.041 532.106 214.713 530.128 214.713C528.261 214.713 526.874 215.92 526.456 217.678C525.64 221.083 530.315 221.741 532.839 221.741C536.242 221.741 549.42 219.872 553.812 219.872C565.226 219.872 568.508 226.354 566.931 232.942C564.566 242.829 551.951 256.121 525.056 256.121ZM528.413 246.674C532.037 246.674 540.398 246.123 541.609 241.071C542.158 238.763 540.201 237.777 538.116 237.777C536.47 237.777 532.03 238.434 528.517 238.434C525.993 238.434 520.273 237.555 519.067 237.555C518.078 237.555 517.514 238.545 517.331 239.313C515.941 245.134 524.132 246.674 528.413 246.674ZM543.49 186.368C539.209 186.368 536.37 190.43 535.454 194.278C534.458 198.452 533.372 207.57 538.974 207.57C543.912 207.57 546.585 203.286 547.608 199.002C548.684 194.5 549.641 186.371 543.493 186.371L543.49 186.368Z" fill="white"/>
<path d="M602.505 208.556C601.298 208.556 599.621 208.228 599.175 210.093C597.861 215.585 603.895 220.197 609.054 220.197C617.288 220.197 622.53 215.256 624.836 215.256C627.143 215.256 628.305 218.661 627.803 220.748C625.78 229.205 608.833 235.358 598.954 235.358C579.195 235.358 572.401 221.076 575.789 206.909C579.835 189.994 597.152 177.692 613.619 177.692C632.278 177.692 637.07 192.081 635.103 200.32C633.37 207.57 629.84 208.56 626.327 208.56H602.509L602.505 208.556ZM615.365 194.718C616.309 190.763 614.632 187.69 610.569 187.69C606.945 187.69 603.09 191.424 602.249 194.939C601.305 198.895 605.244 198.016 608.1 198.016C610.956 198.016 614.418 198.673 615.365 194.721V194.718Z" fill="white"/>
</g>
<defs>
<clipPath id="clip0_44_21512">
<rect width="889" height="348" fill="white"/>
</clipPath>
</defs>
</svg>
