<svg width="721" height="291" viewBox="0 0 721 291" fill="none" xmlns="http://www.w3.org/2000/svg">
<g clip-path="url(#clip0_29_471)">
<path d="M145.536 289.638C225.161 289.638 289.71 225.105 289.71 145.5C289.71 65.8949 225.161 1.36215 145.536 1.36215C65.911 1.36215 1.3623 65.8949 1.3623 145.5C1.3623 225.105 65.911 289.638 145.536 289.638Z" fill="#FFC418"/>
<path d="M145.536 291C106.66 291 70.1135 275.867 42.6276 248.383C15.1418 220.899 0 184.367 0 145.5C0 106.633 15.1372 70.0961 42.6276 42.617C70.118 15.138 106.664 0 145.536 0C184.408 0 220.959 15.1335 248.445 42.617C275.931 70.1006 291.072 106.638 291.072 145.5C291.072 184.362 275.935 220.904 248.445 248.383C220.954 275.867 184.408 291 145.536 291ZM145.536 2.72429C107.391 2.72429 71.5259 17.5762 44.5533 44.5422C17.5806 71.5082 2.72497 107.364 2.72497 145.5C2.72497 183.636 17.5806 219.492 44.5533 246.458C71.5259 273.424 107.391 288.276 145.536 288.276C183.681 288.276 219.546 273.424 246.519 246.458C273.492 219.492 288.347 183.636 288.347 145.5C288.347 107.364 273.492 71.5082 246.519 44.5422C219.546 17.5762 183.681 2.72429 145.536 2.72429Z" fill="white"/>
<path d="M48.3592 165.969C45.9658 163.262 44.1719 160.061 42.9865 156.379C41.7966 152.697 41.4378 148.415 41.9056 143.534C42.4461 137.886 43.9902 132.7 46.5381 127.983C49.0859 123.265 52.3241 119.152 56.2571 115.637C60.1902 112.127 64.6546 109.258 69.664 107.028C74.6688 104.799 79.8962 103.396 85.3462 102.81C88.3709 102.488 91.3911 102.461 94.4067 102.733C97.4178 103.006 100.338 103.559 103.172 104.399C106.001 105.239 108.631 106.402 111.056 107.877C113.481 109.353 115.625 111.138 117.478 113.226L132.901 130.507C135.218 133.141 136.975 136.256 138.17 139.856C139.364 143.457 139.741 147.566 139.301 152.188L136.171 184.921C135.608 190.823 133.896 196.172 131.044 200.967C128.187 205.761 124.618 209.952 120.339 213.544C116.057 217.135 111.265 220.019 105.965 222.193C100.665 224.368 95.2469 225.753 89.7107 226.343C84.2607 226.925 78.8244 226.511 73.3972 225.099C67.9654 223.687 63.5373 221.217 60.113 217.689L44.6896 200.408C43.2181 198.787 42.0964 196.876 41.3197 194.669C40.5477 192.467 40.2933 189.951 40.5658 187.127C40.8837 183.79 41.9737 180.475 43.8267 177.188C45.6842 173.901 48.2412 171.317 51.502 169.447L48.3683 165.969H48.3592ZM117.383 135.597C117.814 131.061 117.237 127.038 115.648 123.524C114.058 120.01 111.747 117.104 108.713 114.802C105.679 112.5 102.091 110.87 97.9446 109.916C93.7981 108.963 89.3928 108.736 84.7194 109.231C77.2803 110.025 70.9583 112.164 65.7446 115.642C60.5308 119.12 56.4615 123.22 53.5276 127.937C50.5937 132.655 48.8815 137.581 48.391 142.717C47.9005 147.852 48.6726 152.515 50.7118 156.697C52.751 160.883 56.1163 164.189 60.8078 166.609C65.4993 169.029 71.5624 169.842 78.997 169.047C80.9862 168.834 82.8437 167.957 84.5786 166.418C86.309 164.879 87.8986 162.804 89.3473 160.193L88.4345 171.09C88.2074 173.488 87.8577 176.235 87.3899 179.331C86.9221 182.432 86.1728 185.37 85.1327 188.149C84.0972 190.928 82.6439 193.348 80.7773 195.409C78.9107 197.47 76.4628 198.665 73.4381 198.987C69.8048 199.373 66.9935 198.81 64.9997 197.284C63.006 195.763 62.1249 193.761 62.3656 191.277C62.4383 190.505 62.7653 189.797 63.342 189.139C63.9188 188.485 64.5592 187.799 65.2722 187.091C65.9807 186.378 66.6347 185.611 67.2251 184.784C67.8155 183.958 68.1652 182.991 68.2742 181.878C68.5785 178.714 67.7474 176.407 65.79 174.963C63.828 173.519 61.5526 172.938 58.9594 173.215C57.6605 173.351 56.3434 173.728 54.9991 174.337C53.6593 174.945 52.4195 175.799 51.2886 176.893C50.1577 177.987 49.2131 179.336 48.4637 180.943C47.7098 182.546 47.2375 184.376 47.0422 186.433C46.7561 189.429 47.4055 192.026 48.9951 194.229C50.5801 196.431 52.7237 198.215 55.4169 199.577C58.1101 200.939 61.1848 201.884 64.65 202.401C68.1107 202.919 71.526 203.001 74.9005 202.642C79.483 202.152 83.9746 201.057 88.3754 199.359C92.7763 197.661 96.782 195.368 100.397 192.485C104.012 189.602 107.06 186.142 109.544 182.105C112.024 178.073 113.6 173.478 114.263 168.325L117.392 135.593L117.383 135.597ZM84.4061 112.568C87.2582 112.264 89.3428 114.434 90.6508 119.079C91.9588 123.724 92.2176 130.199 91.4274 138.499C91.0504 142.435 90.451 146.036 89.6244 149.3C88.7978 152.565 87.8214 155.38 86.6996 157.746C85.5733 160.111 84.3879 161.977 83.148 163.335C81.9036 164.697 80.6365 165.446 79.3376 165.583C77.6073 165.769 76.3038 164.615 75.4318 162.127C74.5553 159.639 74.0239 156.456 73.8423 152.579C73.6561 148.706 73.7832 144.474 74.2192 139.897C74.6552 135.32 75.3455 131.034 76.2857 127.034C77.2212 123.038 78.3793 119.674 79.7554 116.945C81.127 114.216 82.6803 112.759 84.4106 112.572L84.4061 112.568ZM69.5504 191.4C69.4641 191.409 69.4233 191.395 69.4278 191.35C69.4278 191.309 69.3869 191.291 69.3052 191.3C69.3597 191.631 69.6322 191.899 70.1272 192.104L69.5504 191.404V191.4ZM80.4094 153.014C80.523 153.596 80.6002 154.136 80.6365 154.64C80.6729 155.144 80.7092 155.648 80.7501 156.152L80.4094 153.014Z" fill="#010101"/>
<path d="M115.012 168.557C114.349 173.656 112.769 178.201 110.266 182.196C107.764 186.192 104.689 189.62 101.038 192.48C97.3906 195.341 93.344 197.62 88.8978 199.305C84.4515 200.994 79.9099 202.088 75.2775 202.583C71.8667 202.946 68.4105 202.878 64.9135 202.37C61.4119 201.866 58.3009 200.939 55.5714 199.6C52.8419 198.256 50.6755 196.499 49.0678 194.324C47.4601 192.154 46.797 189.584 47.0786 186.619C47.2739 184.589 47.7462 182.777 48.5046 181.188C49.2631 179.599 50.2123 178.264 51.3568 177.174C52.4967 176.089 53.7502 175.245 55.1036 174.636C56.4616 174.032 57.7922 173.656 59.1048 173.519C61.7298 173.238 64.0279 173.81 66.0171 175.231C68.0018 176.652 68.842 178.932 68.5468 182.06C68.4423 183.159 68.0881 184.117 67.4931 184.939C66.8937 185.756 66.2397 186.519 65.5221 187.223C64.8045 187.926 64.1551 188.607 63.5737 189.252C62.9924 189.901 62.6654 190.605 62.5927 191.368C62.3566 193.824 63.2513 195.804 65.2723 197.302C67.2888 198.805 70.1364 199.359 73.8105 198.964C76.8716 198.637 79.3422 197.452 81.227 195.409C83.1118 193.366 84.5742 190.968 85.6142 188.217C86.6542 185.465 87.4081 182.559 87.8759 179.495C88.3392 176.43 88.6889 173.71 88.916 171.34L89.8152 160.561C88.3528 163.149 86.7541 165.206 85.0056 166.731C83.2571 168.261 81.3769 169.129 79.3695 169.342C71.8486 170.146 65.7174 169.356 60.9668 166.972C56.2163 164.588 52.8101 161.328 50.7391 157.196C48.6681 153.064 47.8734 148.456 48.3593 143.375C48.8453 138.299 50.5665 133.422 53.5231 128.75C56.4797 124.078 60.5899 120.014 65.8536 116.563C71.1174 113.113 77.5074 110.983 85.0283 110.18C89.7516 109.676 94.2069 109.889 98.4034 110.824C102.6 111.76 106.229 113.362 109.303 115.628C112.373 117.898 114.717 120.768 116.334 124.241C117.951 127.715 118.541 131.692 118.114 136.178L115.017 168.557H115.012ZM84.7059 113.485C83.0436 113.662 81.4995 115.106 80.0734 117.812C78.6474 120.523 77.462 123.851 76.5219 127.806C75.5818 131.76 74.896 136.001 74.46 140.528C74.0285 145.055 73.9059 149.237 74.1057 153.069C74.301 156.901 74.8415 160.048 75.7362 162.509C76.6263 164.97 77.9434 166.105 79.6919 165.919C81.0045 165.778 82.2852 165.033 83.5387 163.685C84.7922 162.336 85.9866 160.493 87.1175 158.15C88.2483 155.811 89.2293 153.024 90.0604 149.795C90.887 146.562 91.4865 143.003 91.8589 139.112C92.6446 130.902 92.3676 124.5 91.0324 119.91C89.6971 115.319 87.5853 113.176 84.7013 113.485H84.7059Z" fill="white"/>
<path d="M216.754 121.217C220.932 125.853 223.789 131.565 225.324 138.344C226.859 145.128 227.281 152.111 226.595 159.299C225.923 166.318 224.306 173.161 221.745 179.826C219.183 186.496 215.723 192.476 211.363 197.77C207.003 203.064 201.812 207.473 195.78 210.997C189.749 214.52 182.932 216.69 175.32 217.503C168.14 218.27 161.991 217.698 156.868 215.791C151.74 213.88 147.48 211.033 144.074 207.251L128.651 189.97C124.482 185.247 121.602 179.54 120.017 172.852C118.432 166.159 117.987 159.18 118.682 151.907C119.363 144.805 120.98 137.94 123.541 131.315C126.098 124.691 129.559 118.729 133.919 113.435C138.274 108.141 143.493 103.732 149.565 100.204C155.637 96.6761 162.477 94.5057 170.089 93.693C177.264 92.9257 183.418 93.4977 188.541 95.4048C193.664 97.3163 197.929 100.163 201.335 103.95L216.758 121.231L216.754 121.217ZM204.682 142.708C205.354 135.693 205.014 129.395 203.665 123.824C202.316 118.252 200.104 113.594 197.038 109.857C193.973 106.12 190.099 103.401 185.43 101.698C180.757 99.9952 175.439 99.464 169.471 100.1C163.503 100.735 157.971 102.429 152.871 105.176C147.771 107.923 143.275 111.537 139.383 116.019C135.486 120.5 132.311 125.731 129.859 131.711C127.402 137.69 125.84 144.188 125.172 151.207C124.5 158.227 124.84 164.52 126.189 170.091C127.538 175.662 129.768 180.316 132.879 184.049C135.99 187.781 139.878 190.501 144.556 192.203C149.229 193.906 154.547 194.437 160.515 193.802C166.482 193.166 172.014 191.472 177.114 188.725C182.21 185.978 186.688 182.369 190.539 177.892C194.391 173.415 197.543 168.184 200 162.204C202.452 156.225 204.019 149.727 204.687 142.708H204.682ZM151.241 148.42C151.936 141.146 152.935 134.753 154.229 129.231C155.528 123.715 157 119.07 158.644 115.292C160.288 111.519 162.018 108.645 163.835 106.67C165.647 104.699 167.423 103.619 169.153 103.432C170.883 103.246 172.482 103.964 173.953 105.589C175.425 107.21 176.633 109.771 177.582 113.267C178.531 116.768 179.135 121.19 179.394 126.539C179.653 131.892 179.435 138.203 178.74 145.477C178.054 152.665 177.06 159.017 175.761 164.534C174.462 170.05 172.991 174.7 171.347 178.473C169.702 182.251 167.972 185.125 166.155 187.095C164.339 189.071 162.568 190.147 160.837 190.333C159.107 190.519 157.508 189.802 156.037 188.176C154.565 186.555 153.353 183.994 152.403 180.498C151.454 177.002 150.85 172.575 150.591 167.226C150.332 161.878 150.546 155.607 151.232 148.42H151.241ZM161.078 127.42C161.5 125.681 161.959 124.023 162.454 122.443C162.945 120.868 163.476 119.369 164.039 117.953L164.025 118.08C163.471 119.41 162.945 120.863 162.454 122.439C161.959 124.014 161.505 125.676 161.078 127.415V127.42ZM157.249 167.467C157.717 175.127 159.011 180.366 161.137 183.186C160.142 181.937 159.307 179.953 158.625 177.229C157.944 174.505 157.486 171.254 157.249 167.467Z" fill="#010101"/>
<path d="M205.626 142.485C204.963 149.428 203.396 155.857 200.926 161.773C198.455 167.694 195.276 172.87 191.393 177.306C187.505 181.742 182.986 185.325 177.836 188.053C172.686 190.782 167.095 192.467 161.06 193.112C155.028 193.756 149.642 193.243 144.914 191.568C140.182 189.897 136.244 187.218 133.092 183.531C129.94 179.844 127.674 175.249 126.298 169.742C124.922 164.234 124.563 158.009 125.226 151.067C125.889 144.129 127.456 137.695 129.927 131.779C132.393 125.858 135.595 120.682 139.528 116.237C143.456 111.796 147.998 108.213 153.148 105.48C158.298 102.751 163.889 101.067 169.925 100.422C175.956 99.7773 181.338 100.29 186.07 101.966C190.798 103.641 194.717 106.32 197.828 110.012C200.935 113.698 203.178 118.298 204.559 123.806C205.935 129.313 206.294 135.538 205.631 142.481L205.626 142.485ZM151.59 148.261C150.909 155.371 150.709 161.573 150.982 166.863C151.254 172.157 151.876 176.53 152.844 179.985C153.811 183.445 155.042 185.969 156.532 187.572C158.021 189.17 159.643 189.879 161.391 189.693C163.14 189.506 164.929 188.435 166.759 186.478C168.59 184.521 170.334 181.679 171.991 177.937C173.649 174.2 175.125 169.601 176.424 164.143C177.723 158.686 178.717 152.402 179.394 145.291C180.08 138.099 180.289 131.856 180.016 126.562C179.744 121.272 179.122 116.899 178.154 113.44C177.187 109.984 175.956 107.455 174.466 105.852C172.972 104.254 171.355 103.546 169.607 103.732C167.858 103.918 166.064 104.99 164.239 106.947C162.408 108.904 160.664 111.751 159.007 115.483C157.354 119.22 155.873 123.819 154.574 129.277C153.275 134.739 152.281 141.064 151.59 148.256V148.261Z" fill="white"/>
<path d="M254.181 97.843C254.875 98.6104 255.407 99.5048 255.779 100.531C256.147 101.557 256.27 102.733 256.138 104.073C255.965 105.857 255.339 107.469 254.249 108.908C253.159 110.348 251.764 111.46 250.07 112.241L254.244 116.909C255.307 118.08 256.12 119.447 256.678 121.009C257.237 122.575 257.414 124.45 257.205 126.639C256.951 129.313 256.115 131.67 254.707 133.704C253.295 135.738 251.56 137.459 249.503 138.862C247.445 140.265 245.179 141.368 242.713 142.176C240.242 142.98 237.844 143.507 235.51 143.756C234.116 143.906 232.653 143.961 231.118 143.924C229.579 143.888 228.089 143.716 226.636 143.411C225.187 143.103 223.82 142.649 222.539 142.045C221.258 141.441 220.177 140.664 219.296 139.715L211.993 131.533C211.335 130.802 210.817 129.926 210.449 128.9C210.081 127.878 209.963 126.675 210.095 125.299C210.204 124.164 210.481 123.052 210.931 121.962C211.38 120.872 211.962 119.878 212.675 118.979C213.388 118.08 214.242 117.308 215.236 116.659C216.231 116.01 217.325 115.565 218.524 115.315L216.049 112.572C214.95 111.328 214.092 109.853 213.46 108.154C212.834 106.456 212.629 104.431 212.856 102.084C213.093 99.6138 213.801 97.4117 214.977 95.482C216.154 93.5522 217.63 91.8995 219.401 90.5283C221.172 89.1571 223.161 88.0628 225.369 87.2455C227.576 86.4282 229.806 85.9015 232.058 85.6609C233.325 85.5247 234.67 85.4929 236.078 85.561C237.49 85.6336 238.871 85.8152 240.22 86.1104C241.568 86.4101 242.822 86.855 243.985 87.4544C245.143 88.0537 246.106 88.7938 246.873 89.6747L254.176 97.8566L254.181 97.843ZM246.832 118.784C247.064 116.355 246.682 114.339 245.679 112.74C244.675 111.142 243.367 109.798 241.746 108.708C240.129 107.619 238.344 106.688 236.391 105.911C234.438 105.14 232.64 104.35 230.996 103.541C229.352 102.733 227.994 101.857 226.931 100.908C225.864 99.9589 225.405 98.7329 225.55 97.2346C225.65 96.1812 225.945 95.2277 226.431 94.3741C226.917 93.5205 227.526 92.794 228.252 92.1946C228.979 91.5953 229.783 91.1185 230.669 90.7644C231.554 90.4102 232.444 90.1832 233.348 90.0879C234.779 89.9335 235.832 89.9516 236.505 90.1423C237.177 90.333 237.59 90.6282 237.758 91.0323C237.922 91.4364 237.917 91.9177 237.74 92.4762C237.567 93.0346 237.327 93.6113 237.027 94.2061C236.727 94.8009 236.427 95.4048 236.123 96.0177C235.823 96.6307 235.651 97.1619 235.605 97.6069C235.451 99.2279 235.828 100.372 236.736 101.035C237.645 101.702 238.712 101.966 239.943 101.834C240.597 101.766 241.251 101.584 241.909 101.294C242.563 101.003 243.167 100.617 243.721 100.136C244.275 99.6547 244.734 99.0871 245.102 98.4242C245.47 97.7658 245.692 97.0303 245.769 96.2175C245.906 94.8009 245.597 93.5795 244.843 92.5579C244.089 91.5363 243.054 90.7054 241.737 90.0606C240.419 89.4204 238.889 88.98 237.149 88.7439C235.41 88.5078 233.616 88.4896 231.777 88.6848C229.933 88.8801 228.112 89.2978 226.309 89.9289C224.506 90.5646 222.862 91.4228 221.381 92.4989C219.9 93.5795 218.67 94.8826 217.693 96.4128C216.717 97.9429 216.131 99.7182 215.936 101.743C215.695 104.254 216.035 106.334 216.948 107.982C217.866 109.63 219.078 111.015 220.595 112.136C222.108 113.258 223.77 114.211 225.582 115.002C227.39 115.792 229.07 116.586 230.614 117.381C232.158 118.18 233.421 119.074 234.397 120.073C235.374 121.072 235.792 122.339 235.646 123.883C235.528 125.14 235.201 126.198 234.674 127.057C234.147 127.915 233.489 128.628 232.708 129.191C231.927 129.754 231.055 130.18 230.092 130.462C229.134 130.743 228.139 130.943 227.117 131.052C224.864 131.293 223.379 131.129 222.666 130.566C221.949 130.003 221.617 129.254 221.667 128.328C221.713 127.402 221.962 126.394 222.412 125.299C222.862 124.21 223.125 123.256 223.202 122.448C223.347 120.909 222.998 119.792 222.153 119.102C221.308 118.411 220.291 118.125 219.101 118.253C218.447 118.321 217.789 118.516 217.13 118.825C216.471 119.133 215.863 119.583 215.3 120.164C214.737 120.745 214.269 121.426 213.887 122.212C213.51 122.997 213.27 123.915 213.17 124.968C213.029 126.425 213.365 127.683 214.178 128.741C214.991 129.799 216.113 130.639 217.552 131.27C218.992 131.897 220.663 132.323 222.566 132.541C224.469 132.759 226.445 132.759 228.493 132.541C230.623 132.314 232.735 131.856 234.824 131.175C236.913 130.489 238.816 129.576 240.528 128.428C242.241 127.284 243.667 125.908 244.816 124.3C245.96 122.693 246.632 120.859 246.832 118.793V118.784ZM224.955 126.957C224.842 127.293 224.778 127.556 224.755 127.76L225.314 125.717C225.21 125.93 225.141 126.135 225.101 126.344C225.06 126.548 225.01 126.752 224.951 126.961L224.955 126.957ZM227.657 119.628C227.349 119.46 227.049 119.324 226.754 119.215C226.458 119.106 226.159 118.97 225.85 118.802L227.657 119.633V119.628Z" fill="#010101"/>
<path d="M247.078 118.657C246.883 120.7 246.206 122.521 245.053 124.11C243.894 125.703 242.455 127.066 240.729 128.201C238.999 129.336 237.077 130.248 234.966 130.93C232.849 131.611 230.715 132.069 228.566 132.296C226.495 132.519 224.497 132.523 222.572 132.31C220.646 132.101 218.952 131.683 217.494 131.066C216.036 130.448 214.896 129.617 214.074 128.573C213.252 127.529 212.911 126.289 213.048 124.845C213.148 123.806 213.388 122.893 213.77 122.121C214.151 121.345 214.624 120.673 215.191 120.096C215.759 119.519 216.372 119.079 217.04 118.766C217.703 118.457 218.366 118.266 219.029 118.198C220.228 118.071 221.259 118.348 222.113 119.029C222.971 119.71 223.325 120.813 223.18 122.334C223.103 123.138 222.839 124.078 222.39 125.154C221.94 126.235 221.69 127.234 221.64 128.151C221.595 129.068 221.931 129.808 222.658 130.362C223.38 130.92 224.883 131.075 227.163 130.834C228.199 130.725 229.198 130.525 230.17 130.244C231.137 129.962 232.018 129.54 232.813 128.982C233.603 128.423 234.266 127.715 234.798 126.866C235.329 126.017 235.656 124.968 235.774 123.728C235.919 122.207 235.497 120.954 234.507 119.964C233.512 118.979 232.236 118.094 230.674 117.308C229.111 116.523 227.413 115.742 225.578 114.965C223.748 114.189 222.063 113.249 220.532 112.141C218.997 111.033 217.766 109.671 216.835 108.041C215.904 106.415 215.559 104.359 215.795 101.875C215.986 99.8726 216.577 98.1109 217.562 96.5989C218.548 95.0869 219.788 93.7929 221.282 92.7213C222.776 91.6498 224.438 90.7962 226.259 90.165C228.08 89.5339 229.924 89.1207 231.786 88.9209C233.649 88.7212 235.461 88.7348 237.223 88.9663C238.985 89.1934 240.529 89.6247 241.864 90.2558C243.195 90.887 244.244 91.7088 245.012 92.7168C245.775 93.7248 246.093 94.9325 245.956 96.3356C245.879 97.1392 245.657 97.8657 245.284 98.5195C244.916 99.1734 244.448 99.7409 243.894 100.213C243.336 100.69 242.727 101.071 242.064 101.362C241.401 101.652 240.738 101.83 240.075 101.902C238.83 102.034 237.75 101.775 236.832 101.117C235.91 100.463 235.529 99.3323 235.679 97.7295C235.724 97.2482 235.897 96.717 236.201 96.1267C236.505 95.541 236.805 94.9507 237.109 94.365C237.409 93.7793 237.65 93.2072 237.827 92.6532C238.004 92.0993 238.008 91.6225 237.84 91.223C237.672 90.8234 237.241 90.5328 236.542 90.3512C235.842 90.1696 234.788 90.1514 233.381 90.3012C232.468 90.3966 231.568 90.6236 230.674 90.9778C229.779 91.3319 228.966 91.8041 228.235 92.399C227.504 92.9938 226.891 93.7112 226.4 94.5602C225.91 95.4048 225.614 96.3492 225.514 97.3935C225.378 98.8374 225.846 100.036 226.922 100.994C227.999 101.952 229.37 102.824 231.037 103.619C232.704 104.413 234.525 105.19 236.501 105.952C238.476 106.715 240.284 107.632 241.923 108.704C243.563 109.78 244.889 111.106 245.906 112.681C246.924 114.261 247.319 116.25 247.087 118.657H247.078Z" fill="white"/>
<path d="M291.231 180.875C281.081 171.817 276.008 158.331 276.008 140.415C276.008 128.437 278.161 118.416 282.471 110.348C286.776 102.279 292.594 96.2675 299.919 92.3082C307.245 88.3489 315.561 86.3692 324.871 86.3692C333.087 86.3692 340.367 87.2864 346.703 89.1162C353.038 90.9506 357.966 93.5977 361.481 97.0621C364.996 100.526 366.754 104.636 366.754 109.385C366.754 113.744 365.364 117.798 362.594 121.563C359.819 125.327 355.218 127.206 348.783 127.206C344.423 127.206 340.635 126.217 337.42 124.237C334.2 122.257 331.724 119.76 329.994 116.741C328.259 113.721 327.396 110.729 327.396 107.759C327.396 105.085 327.769 103.378 328.509 102.638C329.249 101.893 330.366 101.425 331.852 101.226C332.842 101.13 333.582 100.903 334.081 100.558C334.577 100.213 334.822 99.4458 334.822 98.2562C334.822 97.0666 333.932 96.0268 332.147 95.1369C330.362 94.247 327.841 93.802 324.571 93.802C318.926 93.802 314.448 96.1267 311.128 100.781C307.808 105.435 306.155 112.264 306.155 121.272C306.155 126.421 306.845 132.755 308.235 140.278C313.581 168.393 322.936 182.446 336.307 182.446C340.662 182.446 344.005 181.483 346.33 179.549C348.656 177.619 349.823 173.933 349.823 168.488C349.823 164.429 349.128 160.77 347.743 157.501C346.353 154.236 344.968 151.711 343.583 149.927H360.069C365.714 149.927 369.647 150.994 371.877 153.119C374.102 155.248 375.219 158.54 375.219 162.995C375.219 167.449 373.957 172.225 371.432 177.025C368.907 181.828 364.424 185.933 357.993 189.348C351.558 192.762 342.992 194.469 332.301 194.469C315.075 194.469 301.382 189.942 291.236 180.884L291.231 180.875Z" fill="white"/>
<path d="M386.355 181.17C386.95 175.081 387.246 167.485 387.246 158.377V104.776C387.246 102.302 386.85 100.272 386.056 98.6876C385.261 97.1029 383.926 95.768 382.045 94.6783L415.463 87.4044V158.377C415.463 167.485 415.758 175.081 416.353 181.17C416.948 187.259 418.433 191.096 420.808 192.676H381.896C384.271 191.096 385.756 187.254 386.351 181.17H386.355Z" fill="white"/>
<path d="M432.693 181.17C433.288 175.081 433.583 167.485 433.583 158.377V129.422C433.583 126.948 433.188 124.918 432.394 123.333C431.599 121.753 430.264 120.414 428.383 119.324L461.801 112.05V158.377C461.801 167.485 462.096 175.081 462.691 181.17C463.286 187.259 464.771 191.096 467.146 192.676H428.233C430.609 191.096 432.094 187.254 432.689 181.17H432.693ZM434.401 80.2759C437.716 77.0113 441.654 75.3767 446.209 75.3767C450.764 75.3767 454.825 77.0113 458.09 80.2759C461.355 83.5405 462.99 87.5043 462.99 92.1538C462.99 96.8033 461.355 100.645 458.09 103.959C454.825 107.278 450.86 108.935 446.209 108.935C441.559 108.935 437.716 107.278 434.401 103.959C431.081 100.645 429.423 96.7079 429.423 92.1538C429.423 87.5997 431.081 83.5405 434.401 80.2759Z" fill="white"/>
<path d="M477.542 181.17C478.137 175.081 478.432 167.485 478.432 158.377V129.422C478.432 126.948 478.037 124.918 477.242 123.333C476.448 121.753 475.112 120.414 473.232 119.324L506.649 112.05V115.91C506.649 118.089 505.955 119.896 504.569 121.331C503.18 122.766 501.204 124.328 498.629 126.008C496.944 127.097 495.709 127.987 494.914 128.682C494.119 129.377 493.724 130.167 493.724 131.057C493.724 132.641 494.564 133.431 496.249 133.431C497.934 133.431 499.837 132.464 501.967 130.535C504.097 128.605 505.655 126.798 506.645 125.113C509.415 120.264 512.785 116.405 516.745 113.53C520.706 110.661 525.306 109.226 530.556 109.226C537.982 109.226 543.55 111.156 547.265 115.015C550.98 118.875 553.328 123.479 554.318 128.823C555.308 134.167 555.803 140.551 555.803 147.979V158.372C555.803 167.48 556.099 175.077 556.694 181.166C557.288 187.254 558.774 191.091 561.149 192.671H522.236C524.612 191.091 526.097 187.25 526.692 181.166C527.287 175.081 527.582 167.48 527.582 158.372V149.314C527.582 142.685 526.914 137.586 525.579 134.022C524.244 130.457 521.441 128.677 517.186 128.677C513.521 128.677 510.923 130.362 509.388 133.726C507.853 137.091 506.936 141.595 506.64 147.239V158.377C506.64 167.485 506.936 175.081 507.53 181.17C508.125 187.259 509.611 191.096 511.986 192.676H473.073C475.449 191.096 476.934 187.254 477.529 181.17H477.542Z" fill="white"/>
<path d="M571.554 181.17C572.149 175.081 572.444 167.485 572.444 158.377V129.422C572.444 126.948 572.049 124.918 571.254 123.333C570.459 121.753 569.124 120.414 567.244 119.324L600.661 112.05V158.377C600.661 167.485 600.956 175.081 601.551 181.17C602.146 187.259 603.631 191.096 606.006 192.676H567.094C569.469 191.096 570.954 187.254 571.549 181.17H571.554ZM573.261 80.2759C576.577 77.0113 580.514 75.3767 585.069 75.3767C589.625 75.3767 593.685 77.0113 596.95 80.2759C600.216 83.5405 601.851 87.5043 601.851 92.1538C601.851 96.8033 600.216 100.645 596.95 103.959C593.685 107.278 589.72 108.935 585.069 108.935C580.419 108.935 576.577 107.278 573.261 103.959C569.941 100.645 568.284 96.7079 568.284 92.1538C568.284 87.5997 569.941 83.5405 573.261 80.2759Z" fill="white"/>
<path d="M631.63 189.561C625.34 186.496 620.366 181.815 616.701 175.531C613.036 169.247 611.206 161.501 611.206 152.293C611.206 143.084 612.986 135.343 616.552 129.054C620.117 122.77 624.89 118.094 630.885 115.024C636.875 111.959 643.433 110.42 650.564 110.42C656.109 110.42 661.305 111.16 666.16 112.65C671.01 114.134 674.87 116.237 677.745 118.961C680.616 121.685 682.051 124.927 682.051 128.687C682.051 131.951 680.538 134.353 677.523 135.888C674.503 137.422 671.41 138.19 668.24 138.19C663.585 138.19 659.924 137.25 657.249 135.37C654.574 133.49 653.239 131.211 653.239 128.541C653.239 126.761 653.534 125.622 654.129 125.127C654.724 124.632 655.614 124.31 656.804 124.16C657.994 124.01 658.584 123.492 658.584 122.602C658.584 121.513 657.767 120.5 656.132 119.56C654.497 118.62 652.589 118.148 650.414 118.148C645.859 118.148 642.466 119.56 640.241 122.38C638.011 125.199 636.898 129.731 636.898 135.965C636.898 140.419 637.493 145.863 638.678 152.297C640.259 161.01 642.911 167.989 646.626 173.233C650.341 178.482 654.769 181.102 659.919 181.102C663.385 181.102 666.873 180.089 670.388 178.06C673.903 176.03 676.701 172.838 678.781 168.484H686.206C684.126 176.303 680.139 182.541 674.253 187.191C668.362 191.845 661.259 194.17 652.939 194.17C644.619 194.17 637.915 192.635 631.625 189.565L631.63 189.561Z" fill="white"/>
<path d="M705 106.107V123.96H694.268V106.107H678.722V96.3946H694.268V79.2815H705V96.3946H720.545V106.107H705Z" fill="#FFC418" stroke="#FFC51B" stroke-width="2" stroke-miterlimit="10"/>
<path d="M310.279 237.113C310.279 235.765 309.67 233.413 308.453 230.053C308.453 231.347 308.208 232.637 307.718 233.922C307.227 235.206 306.35 236.301 305.079 237.213C303.807 238.126 302.063 238.58 299.842 238.58C296.613 238.58 295.001 237.3 295.001 234.734C295.001 233.862 295.187 232.868 295.555 231.76L301.981 213.871C302.14 213.262 302.218 212.722 302.218 212.245C302.218 211.401 302.045 210.779 301.7 210.379H306.618C308.126 210.379 309.053 210.856 309.398 211.805L313.167 222.116L315.706 229.059C317.609 234.321 319.199 237.377 320.466 238.221H309.993C310.179 238.035 310.27 237.667 310.27 237.109L310.279 237.113ZM297.063 234.534C297.063 235.91 297.871 236.596 299.484 236.596C301.228 236.596 302.104 235.683 302.104 233.858C302.104 233.277 301.991 232.827 301.768 232.509C301.541 232.192 301.191 231.824 300.719 231.397C300.269 231.025 299.924 230.675 299.688 230.344C299.452 230.012 299.329 229.572 299.329 229.013C299.329 228.169 299.783 227.506 300.696 227.029C301.609 226.552 302.713 226.316 304.012 226.316C305.574 226.316 306.75 226.725 307.545 227.547L305.642 222.348L304.77 219.969C304.507 219.201 304.375 218.566 304.375 218.066C304.375 217.512 304.479 217.076 304.693 216.758C304.906 216.441 305.211 216.109 305.606 215.769C306.083 215.396 306.319 215.042 306.319 214.697C306.319 214.248 306.014 214.021 305.406 214.021C304.956 214.021 304.547 214.207 304.175 214.574C303.803 214.947 303.526 215.419 303.344 216L297.631 231.869C297.258 232.9 297.076 233.785 297.076 234.525L297.063 234.534Z" fill="white"/>
<path d="M332.914 237.431C331.924 236.401 331.293 235.17 331.029 233.744C330.766 232.314 330.634 230.612 330.634 228.627V225.849C330.634 223.415 330.557 221.385 330.398 219.76C330.239 218.134 329.844 217.108 329.208 216.686H339.604C338.968 217.108 338.573 218.134 338.414 219.76C338.255 221.385 338.178 223.415 338.178 225.849V228.269C338.178 230.039 338.355 231.402 338.714 232.355C339.072 233.309 339.817 233.781 340.957 233.781C341.934 233.781 342.628 233.331 343.042 232.432C343.451 231.533 343.696 230.33 343.778 228.823V225.849C343.778 223.415 343.7 221.385 343.541 219.76C343.382 218.134 342.987 217.108 342.351 216.686H352.747C352.111 217.108 351.716 218.134 351.557 219.76C351.398 221.385 351.321 223.415 351.321 225.849V229.063C351.321 231.497 351.398 233.527 351.557 235.152C351.716 236.778 352.111 237.804 352.747 238.226H343.782V237.195C343.782 236.614 343.968 236.133 344.336 235.747C344.704 235.365 345.235 234.948 345.921 234.498C346.371 234.208 346.702 233.967 346.911 233.785C347.125 233.599 347.229 233.39 347.229 233.15C347.229 232.727 347.002 232.514 346.552 232.514C346.103 232.514 345.594 232.773 345.026 233.286C344.459 233.803 344.041 234.285 343.778 234.734C343.037 236.028 342.138 237.064 341.08 237.826C340.022 238.594 338.791 238.975 337.392 238.975C335.407 238.975 333.922 238.457 332.928 237.427L332.914 237.431Z" fill="white"/>
<path d="M366.7 237.449C365.405 236.932 364.569 236.169 364.202 235.147C363.829 234.13 363.648 232.641 363.648 230.684V218.665H362.258V216.681C363.103 216.681 363.829 216.418 364.442 215.887C365.051 215.36 365.714 214.593 366.427 213.585C367.113 212.686 367.671 212.036 368.094 211.641C368.516 211.246 369.02 211.047 369.602 211.047H371.187V214.298C371.187 214.879 371 215.36 370.633 215.746C370.26 216.127 369.733 216.545 369.048 216.995C368.598 217.285 368.266 217.526 368.057 217.707C367.844 217.894 367.74 218.102 367.74 218.343C367.74 218.765 367.962 218.979 368.416 218.979C368.87 218.979 369.375 218.72 369.942 218.207C370.51 217.689 370.928 217.208 371.191 216.758H373.93V218.743H371.191V230.207C371.191 232.137 371.368 233.626 371.727 234.671C372.086 235.715 372.817 236.237 373.93 236.237V238.221H372.817C370.038 238.221 368.003 237.963 366.709 237.449H366.7Z" fill="white"/>
<path d="M388.699 237.39C387.018 236.573 385.688 235.32 384.711 233.64C383.73 231.96 383.244 229.89 383.244 227.433C383.244 224.977 383.735 222.906 384.711 221.226C385.688 219.546 387.018 218.298 388.699 217.476C390.379 216.659 392.277 216.245 394.394 216.245C396.51 216.245 398.409 216.654 400.089 217.476C401.769 218.298 403.096 219.546 404.077 221.226C405.053 222.906 405.544 224.977 405.544 227.433C405.544 229.89 405.053 231.96 404.077 233.64C403.096 235.32 401.769 236.569 400.089 237.39C398.409 238.212 396.51 238.621 394.394 238.621C392.277 238.621 390.379 238.212 388.699 237.39ZM391.596 230.766C391.846 231.533 392.118 232.232 392.409 232.868C392.514 233.104 392.609 233.336 392.686 233.563C392.763 233.79 392.804 234.017 392.804 234.258C392.804 234.603 392.713 234.811 392.527 234.893C392.341 234.97 392.064 235.011 391.696 235.011C391.405 235.011 391.187 235.039 391.042 235.088C390.897 235.143 390.824 235.288 390.824 235.524C390.824 235.842 391.115 236.106 391.696 236.319C392.277 236.532 393.031 236.637 393.958 236.637C395.493 236.637 396.615 236.219 397.332 235.388C398.045 234.557 398.404 233.227 398.404 231.402C398.404 230.475 398.272 229.154 398.009 227.433C397.505 224.314 396.824 222.012 395.965 220.532C395.107 219.051 394.158 218.311 393.127 218.311C392.173 218.311 391.455 218.661 390.965 219.365C390.474 220.064 390.229 221.158 390.229 222.638C390.229 224.014 390.415 225.612 390.783 227.438C391.074 228.891 391.346 230.003 391.596 230.77V230.766Z" fill="white"/>
<path d="M441.69 238.421C440.764 238.289 439.946 238.221 439.229 238.221H431.136C431.772 237.799 432.167 236.773 432.326 235.147C432.485 233.522 432.562 231.492 432.562 229.059V218.983C432.562 216.659 432.485 214.747 432.326 213.253C432.167 211.759 431.772 210.801 431.136 210.379H440.501C440.737 210.379 441.413 210.338 442.526 210.261C443.08 210.184 443.662 210.143 444.27 210.143C445.778 210.143 447.404 210.661 449.152 211.691C450.901 212.722 452.386 214.302 453.617 216.432C454.848 218.561 455.461 221.199 455.461 224.346C455.461 227.283 454.97 229.821 453.994 231.96C453.013 234.103 451.646 235.742 449.888 236.877C448.13 238.013 446.123 238.585 443.875 238.585C443.425 238.585 442.699 238.53 441.69 238.426V238.421ZM437.98 236.142C438.203 236.21 438.702 236.242 439.47 236.242C441.345 236.242 442.867 235.869 444.034 235.129C445.197 234.389 446.069 233.168 446.654 231.461C447.236 229.753 447.526 227.447 447.526 224.536C447.526 219.751 446.804 216.522 445.365 214.856C443.92 213.19 442.304 212.359 440.505 212.359V231.12C440.451 232.337 440.233 233.204 439.851 233.717C439.47 234.235 438.956 234.662 438.325 235.007C438.089 235.111 437.916 235.22 437.807 235.325C437.703 235.429 437.648 235.552 437.648 235.683C437.648 235.919 437.762 236.074 437.985 236.137L437.98 236.142Z" fill="white"/>
<path d="M470.593 237.39C468.913 236.573 467.582 235.32 466.606 233.64C465.625 231.96 465.139 229.89 465.139 227.433C465.139 224.977 465.615 222.906 466.569 221.226C467.523 219.546 468.799 218.298 470.398 217.476C471.996 216.659 473.75 216.245 475.657 216.245C477.088 216.245 478.441 216.472 479.722 216.922C481.003 217.371 482.047 218.034 482.856 218.906C483.664 219.778 484.118 220.8 484.223 221.962V222.398C484.145 223.615 483.768 224.591 483.092 225.331C482.415 226.071 481.629 226.634 480.73 227.015C479.831 227.397 478.654 227.787 477.197 228.187C476.034 228.477 475.135 228.754 474.499 229.018C473.863 229.281 473.4 229.626 473.109 230.049C473.636 231.61 474.331 232.845 475.194 233.758C476.052 234.671 477.038 235.125 478.15 235.125C479.077 235.125 480.008 234.852 480.948 234.312C481.888 233.772 482.633 232.918 483.192 231.756H485.176C484.622 233.844 483.555 235.511 481.984 236.755C480.408 237.999 478.514 238.621 476.288 238.621C474.063 238.621 472.274 238.212 470.593 237.39ZM469.821 229.377C470.243 229.377 470.648 229.263 471.029 229.041C471.411 228.818 471.924 228.441 472.555 227.91C472.95 227.592 473.627 227.17 474.581 226.639C475.825 225.926 476.761 225.258 477.396 224.636C478.032 224.014 478.373 223.188 478.427 222.157C478.373 221.072 478.082 220.159 477.555 219.419C477.024 218.679 476.179 218.307 475.017 218.307C473.958 218.307 473.195 218.761 472.737 219.673C472.274 220.586 472.042 222.098 472.042 224.214C472.042 225.195 471.924 225.953 471.683 226.493C471.447 227.034 471.174 227.406 470.87 227.606C470.566 227.806 470.189 227.969 469.739 228.101C469.449 228.178 469.235 228.26 469.103 228.337C468.972 228.414 468.904 228.55 468.904 228.732C468.904 229.154 469.208 229.367 469.817 229.367L469.821 229.377Z" fill="white"/>
<path d="M498.943 237.449C497.648 236.932 496.813 236.169 496.445 235.147C496.072 234.13 495.891 232.641 495.891 230.684V218.665H494.501V216.681C495.346 216.681 496.072 216.418 496.686 215.887C497.294 215.36 497.957 214.593 498.67 213.585C499.356 212.686 499.915 212.036 500.337 211.641C500.759 211.246 501.263 211.047 501.845 211.047H503.43V214.298C503.43 214.879 503.244 215.36 502.876 215.746C502.503 216.127 501.977 216.545 501.291 216.995C500.841 217.285 500.51 217.526 500.301 217.707C500.087 217.894 499.983 218.102 499.983 218.343C499.983 218.765 500.205 218.979 500.659 218.979C501.114 218.979 501.618 218.72 502.185 218.207C502.753 217.689 503.171 217.208 503.434 216.758H506.173V218.743H503.434V230.207C503.434 232.137 503.612 233.626 503.97 234.671C504.329 235.715 505.06 236.237 506.173 236.237V238.221H505.06C502.281 238.221 500.246 237.963 498.952 237.449H498.943Z" fill="white"/>
<path d="M517.594 236.655C516.323 235.188 515.691 233.318 515.691 231.043C515.691 229.19 516.141 227.601 517.04 226.262C517.939 224.927 519.129 223.914 520.61 223.229C522.091 222.543 523.68 222.198 525.37 222.198C527.059 222.198 528.44 222.702 529.498 223.705V222.675C529.498 221.244 529.194 220.105 528.585 219.242C527.976 218.384 526.841 217.953 525.174 217.953C523.984 217.953 523.389 218.27 523.389 218.906C523.389 219.092 523.43 219.238 523.508 219.342C523.585 219.446 523.707 219.555 523.866 219.66C524.053 219.764 524.198 219.887 524.302 220.019C524.407 220.15 524.461 220.364 524.461 220.654C524.461 221.844 523.203 222.439 520.692 222.439C519.579 222.439 518.762 222.207 518.23 221.744C517.699 221.281 517.435 220.731 517.435 220.096C517.435 218.879 518.112 217.966 519.461 217.358C520.81 216.749 522.713 216.445 525.174 216.445C529.593 216.445 532.673 217.276 534.421 218.942C536.165 220.609 537.042 222.684 537.042 225.172V229.059C537.042 231.492 537.119 233.522 537.278 235.147C537.437 236.773 537.832 237.799 538.468 238.221H529.857V237.545C529.857 236.777 530.057 236.192 530.452 235.779C530.847 235.37 531.405 234.979 532.118 234.607C532.541 234.371 532.845 234.176 533.031 234.03C533.218 233.885 533.308 233.708 533.308 233.495C533.308 233.072 533.081 232.859 532.632 232.859C531.996 232.859 531.083 233.536 529.893 234.884C529.203 236.074 528.326 237.032 527.254 237.758C526.183 238.485 524.906 238.848 523.426 238.848C520.805 238.848 518.861 238.112 517.594 236.646V236.655ZM524.221 232.968C524.829 233.508 525.66 233.781 526.718 233.781C527.59 233.781 528.272 233.327 528.762 232.414C529.253 231.501 529.498 230.398 529.498 229.104V228.904C529.498 226.947 529.121 225.671 528.367 225.077C527.613 224.482 526.841 224.187 526.046 224.187C525.12 224.187 524.384 224.654 523.844 225.594C523.303 226.534 523.031 227.706 523.031 229.104C523.031 229.367 523.058 229.767 523.108 230.294C523.24 231.538 523.612 232.428 524.221 232.973V232.968Z" fill="white"/>
<path d="M549.177 235.147C549.336 233.522 549.413 231.492 549.413 229.059V221.322C549.413 220.659 549.309 220.118 549.095 219.696C548.882 219.274 548.527 218.915 548.023 218.625L556.952 216.681V229.059C556.952 231.492 557.029 233.522 557.188 235.147C557.347 236.773 557.742 237.799 558.378 238.221H547.982C548.618 237.799 549.013 236.773 549.172 235.147H549.177ZM549.631 208.195C550.517 207.323 551.57 206.887 552.787 206.887C554.005 206.887 555.09 207.323 555.962 208.195C556.834 209.067 557.27 210.125 557.27 211.369C557.27 212.613 556.834 213.639 555.962 214.525C555.09 215.41 554.032 215.855 552.787 215.855C551.543 215.855 550.521 215.41 549.631 214.525C548.745 213.639 548.3 212.586 548.3 211.369C548.3 210.152 548.741 209.067 549.631 208.195Z" fill="white"/>
<path d="M569.492 235.147C569.651 233.522 569.728 231.492 569.728 229.059V214.738C569.728 214.075 569.624 213.535 569.411 213.112C569.197 212.69 568.843 212.332 568.339 212.041L577.268 210.098V229.059C577.268 231.492 577.345 233.522 577.504 235.147C577.663 236.773 578.058 237.799 578.694 238.221H568.298C568.934 237.799 569.329 236.773 569.488 235.147H569.492Z" fill="white"/>
<path d="M589.807 235.147C589.966 233.522 590.043 231.492 590.043 229.059V221.322C590.043 220.659 589.938 220.118 589.725 219.696C589.512 219.274 589.157 218.915 588.653 218.625L597.582 216.681V229.059C597.582 231.492 597.659 233.522 597.818 235.147C597.977 236.773 598.372 237.799 599.008 238.221H588.612C589.248 237.799 589.643 236.773 589.802 235.147H589.807ZM590.261 208.195C591.147 207.323 592.2 206.887 593.417 206.887C594.634 206.887 595.72 207.323 596.592 208.195C597.464 209.067 597.9 210.125 597.9 211.369C597.9 212.613 597.464 213.639 596.592 214.525C595.72 215.41 594.662 215.855 593.417 215.855C592.173 215.855 591.151 215.41 590.261 214.525C589.375 213.639 588.93 212.586 588.93 211.369C588.93 210.152 589.371 209.067 590.261 208.195Z" fill="white"/>
<path d="M609.721 235.147C609.88 233.522 609.957 231.492 609.957 229.059V221.322C609.957 220.659 609.853 220.118 609.639 219.696C609.426 219.274 609.072 218.915 608.568 218.625L617.496 216.681V217.712C617.496 218.293 617.31 218.779 616.942 219.16C616.57 219.542 616.043 219.96 615.357 220.409C614.908 220.7 614.576 220.94 614.367 221.122C614.154 221.308 614.049 221.517 614.049 221.758C614.049 222.18 614.272 222.393 614.726 222.393C615.18 222.393 615.684 222.134 616.252 221.621C616.82 221.104 617.237 220.622 617.501 220.173C618.241 218.879 619.14 217.848 620.199 217.081C621.257 216.314 622.488 215.932 623.886 215.932C625.871 215.932 627.356 216.45 628.351 217.48C629.345 218.511 629.972 219.742 630.236 221.167C630.499 222.598 630.631 224.3 630.631 226.284V229.063C630.631 231.497 630.708 233.527 630.867 235.152C631.026 236.778 631.421 237.804 632.057 238.226H621.661C622.297 237.804 622.692 236.778 622.851 235.152C623.01 233.527 623.087 231.497 623.087 229.063V226.643C623.087 224.872 622.91 223.51 622.551 222.557C622.192 221.603 621.448 221.126 620.308 221.126C619.327 221.126 618.636 221.576 618.223 222.475C617.814 223.374 617.569 224.577 617.487 226.085V229.059C617.487 231.492 617.564 233.522 617.723 235.147C617.882 236.773 618.278 237.799 618.913 238.221H608.518C609.153 237.799 609.549 236.773 609.707 235.147H609.721Z" fill="white"/>
<path d="M643.27 247.525C641.222 246.585 640.195 245.073 640.195 242.984C640.195 241.872 640.54 240.982 641.226 240.305C641.912 239.629 642.775 239.12 643.806 238.78C644.837 238.439 646.267 238.053 648.093 237.631C649.524 237.313 650.637 237.045 651.445 236.818C652.253 236.596 653.053 236.323 653.847 236.006C653.266 236.083 652.644 236.124 651.981 236.124C649.969 236.124 648.152 235.747 646.526 234.993C644.9 234.239 643.611 233.122 642.657 231.642C641.703 230.162 641.226 228.35 641.226 226.207C641.226 224.064 641.703 222.207 642.657 220.713C643.611 219.219 644.891 218.107 646.504 217.381C648.116 216.654 649.942 216.291 651.981 216.291H652.022C654.533 216.291 656.223 216.164 657.081 215.914C657.939 215.664 658.371 215.315 658.371 214.861C658.371 214.647 658.33 214.466 658.253 214.307C658.176 214.148 658.053 213.962 657.894 213.753C657.681 213.489 657.522 213.244 657.417 213.017C657.313 212.795 657.258 212.509 657.258 212.164C657.258 211.346 657.576 210.683 658.212 210.179C658.848 209.675 659.797 209.426 661.069 209.426C662.154 209.426 662.967 209.743 663.507 210.379C664.048 211.015 664.32 211.741 664.32 212.559C664.32 213.934 663.803 215.019 662.772 215.81C661.741 216.6 660.047 217.158 657.694 217.476C659.279 218.243 660.519 219.36 661.405 220.827C662.29 222.293 662.735 224.087 662.735 226.203C662.735 228.636 662.127 230.671 660.91 232.31C660.065 233.631 659.007 234.762 657.735 235.701C656.463 236.641 654.851 237.667 652.894 238.775C651.095 239.779 649.774 240.632 648.924 241.336C648.08 242.035 647.653 242.848 647.653 243.774C647.653 244.701 648.093 245.418 648.983 246.017C649.869 246.612 651.186 246.912 652.93 246.912C654.361 246.912 655.569 246.608 656.559 245.999C657.549 245.391 658.048 244.583 658.048 243.579C658.048 243.157 657.976 242.807 657.83 242.53C657.685 242.253 657.481 241.967 657.217 241.677C656.927 241.332 656.7 241 656.541 240.687C656.382 240.369 656.304 239.96 656.304 239.456C656.304 237.894 657.826 237.118 660.869 237.118C661.954 237.118 662.903 237.377 663.725 237.89C664.543 238.408 664.956 239.388 664.956 240.846C664.956 242.117 664.402 243.379 663.289 244.633C662.177 245.89 660.61 246.921 658.589 247.725C656.563 248.533 654.243 248.937 651.627 248.937C648.107 248.937 645.323 248.465 643.275 247.529L643.27 247.525ZM650.155 230.607C650.287 230.87 650.391 231.125 650.473 231.361C650.555 231.597 650.591 231.824 650.591 232.037C650.591 232.328 650.514 232.514 650.355 232.591C650.196 232.668 649.96 232.709 649.642 232.709C649.378 232.709 649.179 232.736 649.047 232.786C648.915 232.841 648.847 232.959 648.847 233.145C648.847 233.436 649.097 233.676 649.601 233.858C650.105 234.044 650.777 234.135 651.627 234.135C652.975 234.135 653.961 233.785 654.583 233.086C655.205 232.387 655.514 231.256 655.514 229.694C655.514 228.559 655.41 227.392 655.196 226.203C654.747 223.451 654.147 221.449 653.389 220.191C652.635 218.933 651.795 218.307 650.868 218.307C650.023 218.307 649.378 218.597 648.942 219.179C648.506 219.76 648.288 220.7 648.288 221.994C648.288 222.947 648.461 224.346 648.806 226.198C649.124 227.76 649.574 229.227 650.155 230.602V230.607Z" fill="white"/>
</g>
<defs>
<clipPath id="clip0_29_471">
<rect width="721" height="291" fill="white"/>
</clipPath>
</defs>
</svg>
