<svg width="386" height="85" viewBox="0 0 386 85" fill="none" xmlns="http://www.w3.org/2000/svg">
<g clip-path="url(#clip0_1_18)">
<path d="M170.914 42.5C170.914 65.9714 152.142 85 128.985 85C105.828 85 87.0572 65.9714 87.0572 42.5C87.0572 19.0286 105.829 0 128.985 0C152.141 0 170.914 19.0286 170.914 42.5Z" fill="#FDC30F"/>
<path d="M139.414 35.1225C139.351 36.8918 139.11 38.9715 138.691 41.3627C138.278 43.7225 137.788 45.8066 137.224 47.6095C136.657 49.4091 136.062 50.9229 135.431 52.1465C134.801 53.3656 134.166 54.2901 133.532 54.9175C132.897 55.5417 132.3 55.8711 131.738 55.9103C131.176 55.9462 130.683 55.684 130.255 55.1293C129.824 54.5713 129.507 53.7108 129.295 52.5432C129.082 51.3767 129.01 49.9077 129.07 48.1351C129.132 46.3658 129.368 44.3007 129.781 41.9409C130.2 39.5497 130.695 37.451 131.258 35.6514C131.825 33.8485 132.421 32.3347 133.051 31.1144C133.682 29.8908 134.312 28.9664 134.95 28.3434C135.585 27.7159 136.183 27.3865 136.744 27.3506C137.307 27.3114 137.8 27.5725 138.228 28.1272C138.654 28.6852 138.976 29.5457 139.188 30.7133C139.4 31.8842 139.473 33.3521 139.413 35.1214" fill="#000001"/>
<path d="M107.119 67.3967C105.601 67.3967 104.085 67.1558 102.61 66.6829C100.809 66.1048 99.3499 65.1523 98.2743 63.8514C98.2687 63.8447 93.7916 57.9082 93.7916 57.9082C93.3196 57.2964 92.9714 56.5669 92.7635 55.7434C92.5524 54.9142 92.5358 53.9718 92.716 52.9432C92.926 51.7476 93.4069 50.5599 94.1454 49.4136C94.7313 48.5082 95.4564 47.7575 96.3099 47.1703L95.8964 46.6269C95.1524 45.6285 94.624 44.4587 94.3256 43.1454C94.0238 41.8311 94.0216 40.3049 94.3178 38.6096C94.6594 36.6632 95.3359 34.8648 96.3309 33.2625C97.328 31.6635 98.5506 30.2718 99.9656 29.1222C101.372 27.9793 102.968 27.0492 104.71 26.3556C106.444 25.6665 108.249 25.2586 110.078 25.1455C110.398 25.1264 110.717 25.1163 111.029 25.1163C111.739 25.1163 112.442 25.1656 113.122 25.2631C114.112 25.4009 115.085 25.6407 116.009 25.9747C116.933 26.3074 117.8 26.759 118.584 27.3148C119.365 27.8694 120.053 28.5384 120.627 29.3037L122.77 32.1453C123.376 31.2612 124.04 30.4242 124.753 29.6466C126.355 27.8975 128.238 26.4464 130.351 25.336C132.484 24.2154 134.861 23.5667 137.411 23.4064C137.82 23.3807 138.224 23.3683 138.612 23.3683C140.516 23.3683 142.189 23.6821 143.582 24.3006C145.262 25.0513 146.64 26.1259 147.681 27.4952L150.885 31.7464C150.931 31.7195 150.978 31.6938 151.025 31.6691L150.936 31.5515C150.568 31.0539 150.296 30.4802 150.121 29.8404C149.942 29.1692 149.929 28.3894 150.082 27.5176C150.245 26.5865 150.58 25.7517 151.078 25.0379C151.56 24.3387 152.154 23.7381 152.841 23.2529C153.513 22.7801 154.261 22.4069 155.066 22.147C155.863 21.8893 156.662 21.7346 157.441 21.6887C157.606 21.6786 157.781 21.6719 157.959 21.6719C158.245 21.6719 158.543 21.6864 158.842 21.7167C159.32 21.7638 159.799 21.8523 160.262 21.9789C160.756 22.1178 161.189 22.3038 161.592 22.5492C162.006 22.7991 162.356 23.1129 162.625 23.477L164.737 26.2783C164.985 26.5977 165.171 26.9798 165.284 27.4078C165.399 27.8482 165.41 28.3457 165.315 28.8857C165.187 29.6152 164.875 30.2774 164.387 30.8534C164.138 31.1492 163.855 31.408 163.543 31.6299L164.243 32.5554C164.6 33.0216 164.862 33.565 165.017 34.1667C165.18 34.7853 165.191 35.5158 165.047 36.3361C164.872 37.3378 164.482 38.2331 163.89 38.9962C163.316 39.7312 162.631 40.3452 161.853 40.8271C161.098 41.2977 160.265 41.6619 159.38 41.9117C158.504 42.1571 157.66 42.305 156.868 42.3521C156.654 42.3667 156.426 42.3734 156.198 42.3734C155.93 42.3734 155.65 42.3633 155.367 42.3431C155.158 42.3286 154.951 42.3062 154.747 42.2759C154.761 43.7068 154.639 45.1657 154.383 46.628C153.971 48.9844 153.241 51.3016 152.217 53.5169C151.183 55.7501 149.852 57.7614 148.264 59.496C146.666 61.2417 144.79 62.6917 142.687 63.8021C140.574 64.9215 138.206 65.5692 135.648 65.7305C135.239 65.7563 134.834 65.7697 134.446 65.7697C132.542 65.7697 130.871 65.456 129.477 64.8363C127.802 64.0923 126.424 63.0189 125.381 61.6462L123.034 58.5334C122.892 58.7755 122.74 59.0141 122.582 59.2461C121.487 60.8608 120.155 62.2704 118.622 63.4357C117.097 64.6022 115.397 65.5311 113.569 66.1944C111.752 66.8544 109.893 67.2477 108.044 67.3642C107.736 67.3833 107.425 67.3934 107.119 67.3934M109.894 44.0889C109.956 44.0889 110.018 44.0967 110.077 44.1135C110.397 44.2021 110.584 44.5113 110.526 44.8576L109.94 48.432C109.8 49.2287 109.615 50.1251 109.371 51.1784C109.124 52.2485 108.783 53.267 108.357 54.2038C107.904 55.1999 107.304 56.0717 106.573 56.7944C106.161 57.2034 105.695 57.5205 105.18 57.7412C106.221 57.6001 107.262 57.3547 108.285 57.0107C109.665 56.5445 110.958 55.8801 112.128 55.0352C113.285 54.2027 114.302 53.1695 115.15 51.9639C115.987 50.7795 116.577 49.3822 116.907 47.8068L118.782 37.107C119.018 35.7579 118.946 34.5354 118.569 33.4709C118.19 32.4008 117.572 31.4898 116.735 30.7626C115.883 30.022 114.836 29.4718 113.626 29.1278C112.746 28.8779 111.806 28.7401 110.827 28.7132C111.404 29.139 111.807 29.9334 112.034 31.0887C112.349 32.7246 112.261 34.9679 111.771 37.7591C111.541 39.0667 111.239 40.2903 110.872 41.3997C110.526 42.435 110.145 43.3437 109.735 44.1068C109.787 44.0956 109.841 44.09 109.894 44.09M99.7677 49.4192C99.7036 49.4192 99.6395 49.4214 99.5743 49.4259C99.2382 49.4472 98.8889 49.5301 98.5053 49.6825C98.1516 49.827 97.8066 50.0422 97.4883 50.3201C97.1732 50.5935 96.8957 50.9464 96.6625 51.3689C96.4237 51.8014 96.2502 52.3157 96.1485 52.8973C96.0059 53.7107 96.1164 54.4021 96.4878 55.0139C96.8836 55.666 97.464 56.2185 98.2101 56.6555C98.9751 57.1048 99.8871 57.4365 100.92 57.6426C100.926 57.6438 100.932 57.646 100.938 57.6471C100.749 57.5418 100.574 57.4197 100.414 57.2807C99.6439 56.6028 99.3355 55.6918 99.519 54.643C99.5931 54.2217 99.7976 53.8385 100.127 53.5023C100.37 53.2581 100.605 53.0362 100.849 52.8177C101.06 52.625 101.26 52.4121 101.438 52.1913C101.561 52.0412 101.638 51.8608 101.677 51.6344C101.814 50.8512 101.681 50.301 101.269 49.9548C100.846 49.5951 100.355 49.4214 99.7666 49.4214M137.783 26.9652C137.493 26.9652 137.192 26.9753 136.889 26.9954C135.069 27.1131 133.331 27.5691 131.719 28.3546C130.11 29.1401 128.638 30.2192 127.343 31.5593C126.041 32.9118 124.925 34.532 124.024 36.3753C123.113 38.232 122.454 40.2993 122.065 42.5224C121.676 44.7399 121.616 46.7613 121.888 48.5295C122.153 50.2786 122.712 51.7678 123.549 52.9589C124.379 54.1343 125.481 55.0251 126.822 55.6055C127.943 56.0896 129.244 56.335 130.689 56.335C130.98 56.335 131.284 56.3249 131.591 56.3047C133.41 56.1871 135.15 55.7299 136.761 54.9456C138.366 54.1646 139.83 53.0889 141.111 51.7476C142.398 50.3963 143.51 48.7738 144.416 46.926C145.327 45.0626 145.986 42.9964 146.374 40.7834C146.761 38.5737 146.821 36.5512 146.552 34.7707C146.284 33.0249 145.731 31.5346 144.906 30.3391C144.089 29.1636 142.997 28.2728 141.66 27.6946C140.533 27.2106 139.228 26.9641 137.786 26.9641M108.281 28.8745C106.538 29.1289 104.989 29.66 103.661 30.4589C101.995 31.4618 100.648 32.6798 99.6539 34.0816C98.659 35.48 98.0156 36.977 97.7436 38.5289C97.4739 40.0718 97.59 41.5027 98.0896 42.7835C98.5838 44.0508 99.5068 45.0929 100.835 45.8817C101.959 46.5507 103.44 46.8902 105.239 46.8902H105.298C104.987 46.6459 104.705 46.2291 104.527 45.54C104.292 44.6447 104.197 43.5118 104.243 42.1762C104.288 40.8685 104.447 39.4298 104.715 37.9014C104.982 36.3753 105.329 34.9264 105.746 33.5953C106.171 32.2439 106.672 31.0808 107.238 30.1396C107.569 29.5939 107.918 29.1715 108.28 28.8734M152.293 33.6928C152.167 33.7028 152.028 33.7365 151.893 33.7925C151.77 33.8451 151.648 33.9247 151.529 34.0368C151.396 34.1578 151.284 34.299 151.183 34.4749C151.095 34.6284 151.025 34.8413 150.981 35.0867C150.93 35.3825 150.972 35.62 151.112 35.8352C151.292 36.1019 151.552 36.3192 151.902 36.4929C151.987 36.5355 152.076 36.5758 152.168 36.6128C152.16 36.5008 152.165 36.3831 152.181 36.2621C152.228 35.8845 152.362 35.4677 152.577 35.0351C152.714 34.7595 152.799 34.5264 152.832 34.3415C152.876 34.0917 152.856 33.9269 152.773 33.8519C152.654 33.7398 152.522 33.6894 152.352 33.6894C152.333 33.6894 152.314 33.6894 152.293 33.6916M154.816 24.8116C154.562 24.927 154.32 25.0592 154.092 25.2093C153.678 25.4805 153.32 25.8189 153.025 26.2144C152.751 26.5887 152.57 27.0324 152.476 27.5691C152.36 28.2291 152.4 28.7771 152.593 29.1995C152.802 29.6567 153.108 30.0578 153.502 30.3906C153.919 30.7402 154.397 31.0528 154.92 31.3173C155.511 31.6131 156.049 31.9044 156.52 32.1823C157.052 32.4972 157.492 32.8524 157.828 33.2367C158.247 33.7286 158.399 34.3572 158.276 35.0598C158.185 35.5808 158.004 36.0369 157.739 36.4167C158.079 36.2823 158.398 36.1243 158.695 35.9461C159.19 35.6492 159.614 35.2861 159.954 34.8659C160.273 34.4749 160.481 34.0132 160.571 33.4922C160.682 32.8636 160.631 32.3582 160.417 31.9504C160.179 31.4977 159.844 31.1055 159.423 30.7839C158.964 30.4354 158.443 30.1262 157.876 29.864C157.263 29.5838 156.681 29.2914 156.152 28.9956C155.6 28.6874 155.132 28.3401 154.765 27.9613C154.304 27.4806 154.126 26.8621 154.248 26.1696C154.328 25.7102 154.495 25.2911 154.74 24.9247C154.764 24.8878 154.791 24.8508 154.817 24.8138M159.821 24.6793C159.801 24.7869 159.769 24.8978 159.725 25.011C159.633 25.2407 159.523 25.4592 159.387 25.6923L159.05 26.2615C158.972 26.3904 158.951 26.4654 158.945 26.4991C158.9 26.759 158.92 26.926 159.005 26.9966C159.144 27.1142 159.298 27.1658 159.495 27.1658C159.518 27.1658 159.541 27.1658 159.563 27.1635C159.69 27.1557 159.827 27.1232 159.969 27.0683C160.119 27.0122 160.246 26.9405 160.371 26.8419C160.485 26.7534 160.582 26.6481 160.66 26.5271C160.735 26.4094 160.787 26.2749 160.812 26.1248C160.862 25.8402 160.824 25.6127 160.695 25.4066C160.534 25.15 160.298 24.9393 159.975 24.76C159.926 24.732 159.874 24.7051 159.822 24.6782" fill="white"/>
<path d="M164.302 34.4413C164.166 33.9157 163.943 33.4552 163.635 33.0529L162.426 31.454C162.989 31.2187 163.465 30.8758 163.853 30.4175C164.24 29.9592 164.486 29.4393 164.589 28.8533C164.665 28.4185 164.658 28.0263 164.569 27.6834C164.479 27.3406 164.333 27.038 164.129 26.7747L162.015 23.9689C161.794 23.6709 161.505 23.4109 161.153 23.198C160.798 22.9818 160.41 22.817 159.985 22.6971C159.563 22.5817 159.128 22.4999 158.678 22.4562C158.228 22.4114 157.799 22.4036 157.389 22.4305C156.661 22.473 155.935 22.6165 155.209 22.8518C154.481 23.0871 153.816 23.4165 153.212 23.8423C152.61 24.267 152.094 24.7891 151.667 25.4077C151.236 26.0262 150.953 26.7433 150.811 27.5512C150.676 28.321 150.686 28.9911 150.838 29.5592C150.994 30.1273 151.232 30.627 151.547 31.0528L152.264 31.9941C151.875 32.0568 151.514 32.1857 151.179 32.3851C150.995 32.496 150.823 32.6182 150.665 32.7526L147.076 27.9916C146.089 26.6918 144.802 25.6934 143.216 24.9852C141.629 24.2804 139.676 24.0014 137.363 24.146C134.907 24.3006 132.662 24.9135 130.626 25.9836C128.59 27.0537 126.804 28.4308 125.269 30.1082C124.332 31.129 123.496 32.2394 122.761 33.435L120.018 29.7967C119.48 29.0796 118.846 28.4622 118.108 27.9389C117.372 27.4168 116.564 26.9943 115.683 26.6761C114.802 26.3579 113.881 26.1304 112.926 25.9971C111.971 25.8604 111.003 25.8267 110.029 25.885C108.27 25.9948 106.564 26.3803 104.903 27.0403C103.242 27.7002 101.735 28.5754 100.385 29.6735C99.0337 30.7716 97.8896 32.0781 96.9455 33.5908C96.0048 35.1068 95.3713 36.7921 95.0474 38.6421C94.7666 40.2433 94.7655 41.6585 95.0485 42.8899C95.3282 44.118 95.8135 45.1982 96.5055 46.126L97.4131 47.3182C96.3209 47.8863 95.4354 48.6976 94.7512 49.7542C94.0713 50.8097 93.6358 51.8821 93.4445 52.9757C93.282 53.9024 93.2931 54.7327 93.4832 55.4722C93.6689 56.2073 93.9751 56.856 94.4029 57.4107L98.869 63.3326C99.8706 64.5439 101.22 65.4257 102.917 65.9703C104.614 66.5149 106.341 66.7345 108.096 66.6236C109.883 66.5115 111.649 66.1361 113.404 65.4997C115.158 64.8621 116.766 63.9847 118.23 62.8654C119.697 61.7493 120.949 60.4204 121.991 58.8853C122.364 58.334 122.695 57.7536 122.977 57.1518L125.991 61.1487C126.975 62.444 128.262 63.4458 129.848 64.1506C131.435 64.8554 133.387 65.1355 135.701 64.9898C138.157 64.8352 140.393 64.2257 142.415 63.1544C144.439 62.0844 146.218 60.7106 147.754 59.0332C149.289 57.3558 150.554 55.4386 151.555 53.2794C152.551 51.1235 153.253 48.8959 153.658 46.5921C153.971 44.8083 154.076 43.0524 153.974 41.3257C154.016 41.3391 154.056 41.3526 154.099 41.3627C154.553 41.4882 155.027 41.5677 155.515 41.6025C156.008 41.6372 156.476 41.6394 156.923 41.6114C157.677 41.5655 158.459 41.4254 159.271 41.198C160.081 40.9705 160.834 40.6411 161.53 40.2085C162.223 39.7794 162.825 39.2382 163.333 38.5894C163.836 37.9406 164.17 37.1753 164.322 36.3024C164.448 35.5819 164.44 34.9623 164.303 34.4413M117.631 47.8661C117.279 49.5525 116.649 51.045 115.737 52.337C114.829 53.6278 113.752 54.7237 112.508 55.6179C111.263 56.5165 109.907 57.2146 108.437 57.711C106.971 58.2029 105.491 58.4998 103.996 58.5951C102.896 58.6668 101.792 58.5917 100.687 58.371C99.582 58.1502 98.6136 57.7973 97.7801 57.3087C96.9433 56.8202 96.2977 56.205 95.8445 55.4576C95.3901 54.7091 95.2497 53.8463 95.4222 52.8614C95.5405 52.1902 95.7417 51.593 96.028 51.0753C96.3132 50.5576 96.6548 50.1285 97.0494 49.7856C97.443 49.4427 97.8686 49.1783 98.3163 48.9956C98.7673 48.8163 99.2017 48.7099 99.6274 48.6841C100.473 48.6315 101.195 48.8533 101.789 49.3587C102.383 49.8584 102.589 50.6305 102.408 51.6669C102.343 52.0333 102.206 52.346 101.991 52.6082C101.78 52.8715 101.545 53.118 101.3 53.341C101.051 53.564 100.826 53.7802 100.621 53.9864C100.416 54.1959 100.293 54.4245 100.249 54.6766C100.105 55.4924 100.337 56.1613 100.941 56.6924C101.545 57.2202 102.439 57.4499 103.626 57.3715C104.612 57.3098 105.435 56.9524 106.093 56.2991C106.751 55.6492 107.284 54.8716 107.693 53.9707C108.102 53.0709 108.419 52.1174 108.653 51.1022C108.887 50.0904 109.075 49.1917 109.213 48.4062L109.799 44.8318C109.258 45.6722 108.692 46.3333 108.09 46.8129C107.488 47.2958 106.865 47.5591 106.216 47.5983C103.789 47.7541 101.849 47.3978 100.4 46.5339C98.9464 45.6699 97.9459 44.536 97.3976 43.1297C96.8493 41.7246 96.7233 40.1761 97.0185 38.4953C97.3136 36.8134 97.999 35.2155 99.0735 33.7051C100.145 32.1946 101.571 30.9049 103.348 29.8337C105.126 28.7636 107.227 28.1507 109.655 27.9949C111.179 27.8975 112.599 28.0364 113.913 28.4095C115.228 28.7827 116.343 29.3721 117.264 30.1732C118.185 30.9744 118.855 31.9627 119.275 33.1426C119.694 34.3236 119.775 35.6537 119.515 37.1406L117.634 47.8661H117.631ZM145.068 47.1804C144.118 49.12 142.965 50.7997 141.608 52.2238C140.249 53.648 138.716 54.7752 137.007 55.6067C135.294 56.4414 133.473 56.921 131.54 57.0465C129.605 57.172 127.913 56.9233 126.457 56.2935C125.003 55.6649 123.828 54.7136 122.927 53.4373C122.029 52.1622 121.439 50.5924 121.157 48.7345C120.872 46.8767 120.933 44.7959 121.337 42.4888C121.742 40.1817 122.418 38.0605 123.369 36.122C124.317 34.1824 125.477 32.5028 126.848 31.0797C128.222 29.6567 129.763 28.5294 131.472 27.6946C133.186 26.8599 135.005 26.3803 136.94 26.2548C138.874 26.1304 140.566 26.3825 142.024 27.0078C143.478 27.6364 144.645 28.5911 145.53 29.8662C146.413 31.1447 146.996 32.7101 147.282 34.569C147.563 36.4268 147.506 38.5121 147.1 40.8192C146.697 43.1219 146.017 45.2464 145.069 47.1826M160.502 35.2861C160.09 35.7937 159.592 36.2195 159.009 36.5702C158.427 36.9198 157.787 37.1888 157.094 37.3837C156.4 37.5742 155.704 37.6952 155.011 37.7356C154.343 37.777 153.703 37.7513 153.094 37.6538C152.485 37.5563 151.955 37.3927 151.507 37.1686C151.054 36.9434 150.716 36.6509 150.479 36.298C150.245 35.9405 150.171 35.5259 150.254 35.0531C150.314 34.7135 150.414 34.4144 150.556 34.1667C150.701 33.9169 150.87 33.7006 151.067 33.5213C151.263 33.3387 151.471 33.202 151.695 33.109C151.912 33.0193 152.132 32.9678 152.345 32.951C152.731 32.9263 153.053 33.0339 153.308 33.2726C153.567 33.5079 153.649 33.8765 153.561 34.3763C153.515 34.6396 153.405 34.9455 153.231 35.2951C153.058 35.6447 152.951 35.9696 152.914 36.2677C152.872 36.5691 152.959 36.8201 153.177 37.014C153.395 37.2044 153.869 37.2806 154.604 37.2347C154.938 37.2157 155.265 37.1652 155.584 37.0846C155.901 37.0072 156.193 36.8817 156.459 36.7103C156.73 36.5377 156.96 36.3148 157.153 36.0436C157.343 35.7713 157.478 35.4318 157.55 35.0239C157.639 34.5242 157.536 34.104 157.246 33.7645C156.953 33.4283 156.568 33.1179 156.09 32.8333C155.614 32.5532 155.089 32.2708 154.524 31.9873C153.963 31.7038 153.448 31.3677 152.987 30.9811C152.53 30.5945 152.169 30.1284 151.917 29.5782C151.665 29.0281 151.608 28.3457 151.75 27.5333C151.866 26.8733 152.1 26.3041 152.455 25.8211C152.813 25.3382 153.244 24.9315 153.748 24.602C154.257 24.2681 154.812 24.0137 155.409 23.8345C156.01 23.6552 156.61 23.5443 157.21 23.5073C157.812 23.4703 158.388 23.5006 158.947 23.6036C159.505 23.7034 159.985 23.8681 160.394 24.0978C160.805 24.3253 161.119 24.6087 161.336 24.9527C161.553 25.2979 161.622 25.7001 161.541 26.1584C161.494 26.4217 161.4 26.6593 161.267 26.8677C161.133 27.0772 160.966 27.2576 160.775 27.4055C160.584 27.5546 160.379 27.6722 160.159 27.754C159.941 27.8403 159.722 27.8919 159.51 27.9042C159.109 27.9277 158.771 27.8269 158.496 27.5949C158.218 27.3663 158.126 26.9898 158.218 26.4632C158.245 26.3063 158.313 26.1326 158.429 25.9422C158.541 25.755 158.652 25.5645 158.764 25.3774C158.877 25.1869 158.968 25.002 159.041 24.8216C159.11 24.6446 159.127 24.4877 159.082 24.3544C159.038 24.2177 158.911 24.1157 158.69 24.0485C158.471 23.9768 158.137 23.9532 157.682 23.9824C157.385 24.0025 157.094 24.0631 156.798 24.1639C156.503 24.2692 156.23 24.4138 155.98 24.5975C155.731 24.7824 155.514 25.011 155.336 25.2788C155.153 25.5511 155.035 25.857 154.976 26.1999C154.893 26.6727 155.01 27.0739 155.327 27.4033C155.648 27.7339 156.062 28.0454 156.574 28.3311C157.083 28.6157 157.644 28.9003 158.255 29.1782C158.866 29.4606 159.419 29.79 159.916 30.1665C160.412 30.543 160.8 30.999 161.082 31.5358C161.363 32.0714 161.438 32.7325 161.3 33.5224C161.183 34.1891 160.914 34.7808 160.503 35.2839M109.46 29.0897C108.926 29.1222 108.391 29.5816 107.859 30.4601C107.33 31.3386 106.857 32.4311 106.449 33.7309C106.04 35.034 105.705 36.4369 105.442 37.935C105.178 39.4376 105.025 40.826 104.981 42.1033C104.937 43.3807 105.026 44.4351 105.244 45.2677C105.458 46.1002 105.849 46.4991 106.415 46.4599C106.836 46.433 107.269 46.2078 107.705 45.7741C108.144 45.345 108.575 44.75 109.005 43.9858C109.431 43.225 109.82 42.3129 110.175 41.2495C110.526 40.1895 110.818 39.0118 111.045 37.7221C111.522 34.9993 111.607 32.8669 111.309 31.3184C111.006 29.771 110.39 29.0269 109.462 29.0874" fill="#000001"/>
<path d="M119.271 33.1426C118.852 31.9616 118.181 30.9733 117.261 30.1732C116.34 29.3732 115.224 28.7827 113.91 28.4095C112.595 28.0364 111.176 27.8975 109.652 27.9949C107.225 28.1507 105.123 28.7625 103.345 29.8337C101.567 30.9038 100.141 32.1946 99.0702 33.7051C97.9957 35.2155 97.3103 36.8134 97.0151 38.4953C96.72 40.1772 96.846 41.7235 97.3954 43.1297C97.9437 44.536 98.9442 45.6711 100.398 46.5339C101.847 47.3978 103.787 47.753 106.214 47.5972C106.861 47.558 107.485 47.2947 108.087 46.8117C108.689 46.3322 109.255 45.6711 109.795 44.8307L109.209 48.4062C109.072 49.1917 108.884 50.0892 108.651 51.1022C108.417 52.1174 108.1 53.0709 107.691 53.9707C107.282 54.8705 106.748 55.6492 106.09 56.2991C105.432 56.9524 104.607 57.3098 103.622 57.3715C102.435 57.4499 101.542 57.2202 100.937 56.6924C100.334 56.1602 100.102 55.4924 100.245 54.6766C100.29 54.4245 100.412 54.1959 100.618 53.9864C100.822 53.7802 101.048 53.564 101.298 53.341C101.543 53.118 101.777 52.8715 101.989 52.6082C102.204 52.3448 102.341 52.0322 102.405 51.6658C102.587 50.6293 102.381 49.8584 101.786 49.3575C101.193 48.8533 100.47 48.6303 99.6251 48.683C99.2006 48.7099 98.7662 48.8163 98.3141 48.9945C97.8663 49.1771 97.4407 49.4416 97.0472 49.7845C96.6537 50.1273 96.3121 50.5576 96.0269 51.0742C95.7416 51.5919 95.5394 52.1891 95.4211 52.8603C95.2486 53.8441 95.3901 54.708 95.8434 55.4554C96.2966 56.2039 96.9433 56.8179 97.779 57.3065C98.6125 57.795 99.582 58.148 100.686 58.3687C101.791 58.5895 102.895 58.6645 103.995 58.5928C105.488 58.4976 106.97 58.2018 108.436 57.7087C109.906 57.2124 111.262 56.5154 112.507 55.6156C113.752 54.7203 114.829 53.6256 115.736 52.3336C116.649 51.0417 117.278 49.5492 117.63 47.8628L119.511 37.1372C119.772 35.6503 119.69 34.3202 119.271 33.1392M110.175 41.2517C109.82 42.3151 109.431 43.2272 109.005 43.988C108.575 44.7522 108.144 45.3472 107.705 45.7764C107.269 46.21 106.836 46.4352 106.415 46.4621C105.85 46.5014 105.458 46.1013 105.244 45.2699C105.026 44.4374 104.937 43.3841 104.981 42.1056C105.025 40.8282 105.178 39.4399 105.442 37.9373C105.705 36.4391 106.04 35.0363 106.449 33.7331C106.857 32.4333 107.33 31.3408 107.859 30.4623C108.391 29.5838 108.925 29.1244 109.46 29.0919C110.39 29.0314 111.005 29.7754 111.308 31.324C111.606 32.8714 111.521 35.0049 111.043 37.7266C110.818 39.0152 110.525 40.194 110.173 41.254" fill="white"/>
<path d="M161.299 33.5247C161.182 34.1914 160.913 34.783 160.503 35.2861C160.092 35.7937 159.593 36.2195 159.01 36.5702C158.428 36.9198 157.789 37.1899 157.095 37.3837C156.402 37.5742 155.705 37.6964 155.012 37.7367C154.344 37.7782 153.704 37.7524 153.095 37.6538C152.486 37.5563 151.955 37.3938 151.508 37.1686C151.056 36.9445 150.717 36.6509 150.48 36.298C150.245 35.9405 150.172 35.5259 150.255 35.0531C150.315 34.7135 150.416 34.4144 150.556 34.1679C150.701 33.9169 150.87 33.7017 151.067 33.5224C151.263 33.3387 151.471 33.2031 151.693 33.109C151.912 33.0193 152.131 32.9678 152.343 32.951C152.73 32.9263 153.053 33.0339 153.307 33.2726C153.566 33.5079 153.648 33.8765 153.561 34.3763C153.514 34.6396 153.405 34.9455 153.23 35.2951C153.056 35.6447 152.95 35.9696 152.913 36.2677C152.872 36.5691 152.959 36.8201 153.176 37.014C153.394 37.2056 153.868 37.2806 154.603 37.2347C154.937 37.2157 155.263 37.1652 155.581 37.0846C155.899 37.0072 156.19 36.8829 156.457 36.7103C156.727 36.5377 156.958 36.3148 157.151 36.0436C157.341 35.7713 157.476 35.4318 157.548 35.0239C157.635 34.5242 157.532 34.104 157.244 33.7645C156.951 33.4283 156.566 33.1179 156.088 32.8333C155.611 32.5543 155.087 32.2719 154.522 31.9873C153.961 31.7038 153.447 31.3688 152.986 30.9811C152.528 30.5945 152.168 30.1273 151.916 29.5771C151.664 29.0269 151.607 28.3445 151.75 27.5322C151.865 26.8733 152.1 26.303 152.455 25.82C152.813 25.3371 153.244 24.9303 153.748 24.5998C154.257 24.2659 154.812 24.0115 155.409 23.8322C156.01 23.6529 156.61 23.542 157.21 23.505C157.812 23.4681 158.388 23.4983 158.947 23.6014C159.503 23.7 159.984 23.8647 160.393 24.0955C160.804 24.3219 161.117 24.6054 161.335 24.9505C161.552 25.2956 161.62 25.699 161.54 26.1562C161.493 26.4195 161.399 26.657 161.264 26.8666C161.131 27.075 160.964 27.2554 160.773 27.4044C160.581 27.5523 160.378 27.67 160.157 27.7518C159.939 27.8381 159.72 27.8896 159.508 27.9019C159.107 27.9255 158.767 27.8246 158.493 27.5927C158.215 27.3641 158.123 26.9876 158.216 26.461C158.243 26.3041 158.311 26.1304 158.427 25.9399C158.538 25.7528 158.65 25.5623 158.762 25.3752C158.874 25.1847 158.966 25.0009 159.039 24.8194C159.108 24.6424 159.124 24.4855 159.08 24.3521C159.037 24.2154 158.909 24.1135 158.688 24.0462C158.468 23.9745 158.134 23.951 157.679 23.9801C157.383 24.0014 157.091 24.0608 156.796 24.1617C156.5 24.267 156.227 24.4115 155.977 24.5964C155.727 24.7813 155.512 25.0088 155.333 25.2777C155.15 25.55 155.032 25.8559 154.972 26.1988C154.889 26.6716 155.006 27.0728 155.323 27.4033C155.643 27.7339 156.058 28.0454 156.57 28.33C157.078 28.6157 157.64 28.8992 158.251 29.1771C158.861 29.4595 159.415 29.7889 159.911 30.1654C160.408 30.5419 160.796 30.9979 161.078 31.5346C161.358 32.0702 161.435 32.7314 161.295 33.5213" fill="white"/>
<path d="M147.28 34.5679C146.995 32.7089 146.411 31.1447 145.529 29.8651C144.643 28.5899 143.475 27.6364 142.023 27.0066C140.566 26.3814 138.873 26.1293 136.94 26.2537C135.006 26.378 133.186 26.8587 131.472 27.6935C129.762 28.5283 128.222 29.6555 126.848 31.0797C125.477 32.5028 124.317 34.1824 123.369 36.122C122.419 38.0616 121.742 40.1817 121.339 42.4888C120.934 44.7959 120.873 46.8767 121.158 48.7345C121.44 50.5924 122.031 52.1622 122.928 53.4373C123.829 54.7136 125.004 55.6638 126.458 56.2935C127.915 56.9221 129.607 57.1709 131.541 57.0465C133.475 56.9221 135.295 56.4414 137.008 55.6067C138.719 54.7752 140.251 53.648 141.609 52.2238C142.965 50.7997 144.119 49.12 145.069 47.1804C146.016 45.2453 146.697 43.1208 147.1 40.817C147.505 38.5098 147.562 36.4257 147.282 34.5668M137.224 47.6096C136.657 49.4091 136.062 50.9229 135.431 52.1465C134.801 53.3668 134.166 54.2901 133.532 54.9175C132.897 55.5417 132.3 55.8711 131.738 55.9103C131.176 55.9462 130.683 55.684 130.255 55.1293C129.824 54.5713 129.507 53.7108 129.295 52.5432C129.082 51.3767 129.01 49.9088 129.07 48.1351C129.132 46.3658 129.368 44.3007 129.781 41.9409C130.2 39.5497 130.695 37.451 131.258 35.6514C131.825 33.8485 132.421 32.3347 133.051 31.1145C133.682 29.8908 134.312 28.9664 134.95 28.3434C135.585 27.7159 136.183 27.3865 136.743 27.3506C137.306 27.3114 137.799 27.5725 138.227 28.1272C138.653 28.6852 138.975 29.5469 139.187 30.7133C139.398 31.8842 139.471 33.3521 139.412 35.1214C139.349 36.8907 139.108 38.9704 138.689 41.3616C138.275 43.7214 137.786 45.8055 137.222 47.6084" fill="white"/>
<path d="M7.29825 52.8468C7.81892 51.2243 8.35176 49.2007 8.89675 46.7725L12.6376 30.1138C11.7522 30.1138 10.9805 30.2785 10.3206 30.608C9.66062 30.9385 9.24828 31.4719 9.08247 32.2103C8.96418 32.7381 8.94097 33.1594 9.01282 33.4765C9.08468 33.7936 9.22507 34.123 9.43511 34.4659C9.44837 34.5186 9.50807 34.6306 9.61309 34.8021C9.717 34.9735 9.74353 35.1786 9.69047 35.415C9.53681 36.1007 8.9885 36.6285 8.04665 36.9971C7.1048 37.3669 5.80035 37.5507 4.13553 37.5507C0.830207 37.5507 -0.493028 36.0862 0.164721 33.1583C0.365914 32.2619 0.876637 31.4372 1.69578 30.6853C2.51493 29.9334 3.67456 29.3205 5.17356 28.8454C6.67256 28.3703 8.4623 28.1328 10.545 28.1328H23.4269C25.5085 28.1328 27.1921 28.3703 28.4778 28.8454C29.7634 29.3205 30.6467 29.9334 31.1286 30.6853C31.6095 31.4372 31.751 32.2619 31.5487 33.1583C30.891 36.0862 28.9089 37.5507 25.6047 37.5507C23.9387 37.5507 22.7183 37.3669 21.9423 36.9971C21.1662 36.6285 20.8556 36.1007 21.0093 35.415C21.0623 35.1774 21.1795 34.9735 21.3619 34.8021C21.5432 34.6306 21.6526 34.5186 21.6913 34.4659C22.0539 34.123 22.3436 33.7936 22.558 33.4765C22.7714 33.1594 22.9383 32.7381 23.0566 32.2103C23.3705 30.8119 22.1612 30.1127 19.4285 30.1127C18.6734 30.1127 18.1782 30.1463 17.9427 30.2113C17.7062 30.2774 17.5624 30.4287 17.5083 30.6662C17.4784 30.7985 17.5039 30.9172 17.5846 31.0226C17.6641 31.1279 17.8101 31.2343 18.0212 31.3397C18.3838 31.5772 18.6745 31.8215 18.8912 32.0714C19.1079 32.3224 19.2715 32.7246 19.3809 33.2782C19.4904 33.8317 19.4417 34.5712 19.235 35.4945L16.7024 46.7714C16.1574 49.1984 15.7804 51.2232 15.5726 52.8457C15.3648 54.4682 15.5251 55.4901 16.0546 55.9126H5.43776C6.15742 55.4912 6.77758 54.4682 7.29715 52.8457L7.29825 52.8468Z" fill="white"/>
<path d="M28.69 52.8468C29.2107 51.2243 29.7435 49.2007 30.2885 46.7725L33.4965 32.4882C33.6447 31.8293 33.6613 31.2881 33.5485 30.8657C33.4346 30.4444 33.1627 30.0881 32.7349 29.7967L41.9533 27.8582L40.2476 35.4553C40.1171 36.0357 39.8264 36.5176 39.3765 36.8997C38.9255 37.2829 38.3119 37.6975 37.5348 38.1457C37.0263 38.4359 36.6482 38.6734 36.3984 38.8583C36.1485 39.0432 35.9971 39.2539 35.944 39.4914C35.849 39.9138 36.0225 40.1245 36.4658 40.1245C36.9091 40.1245 37.4662 39.8679 38.1417 39.3536C38.816 38.8393 39.3345 38.3586 39.696 37.9092C40.7141 36.6173 41.8306 35.5887 43.0433 34.8233C44.256 34.058 45.5516 33.6759 46.9312 33.6759C48.8834 33.6759 50.231 34.1903 50.9761 35.2189C51.7211 36.2475 52.0627 37.4745 52.0041 38.8987C51.9445 40.3228 51.6924 42.0249 51.248 44.0026L50.6256 46.7725C50.0806 49.1996 49.7037 51.2243 49.4959 52.8468C49.288 54.4693 49.4483 55.4912 49.9778 55.9137H39.7501C40.4698 55.4924 41.0899 54.4693 41.6095 52.8468C42.1302 51.2243 42.663 49.2007 43.208 46.7725L43.7497 44.3589C44.1465 42.5919 44.2759 41.2327 44.1377 40.2836C43.9995 39.3334 43.3705 38.8594 42.2518 38.8594C41.2889 38.8594 40.5052 39.3088 39.9005 40.2052C39.2958 41.1027 38.7851 42.3028 38.3694 43.8054L37.7028 46.7725C37.1578 49.1996 36.782 51.2243 36.573 52.8468C36.3652 54.4693 36.5255 55.4912 37.055 55.9137H26.8273C27.547 55.4924 28.1671 54.4693 28.6867 52.8468H28.69Z" fill="white"/>
<path d="M56.8991 55.0823C55.43 54.2654 54.4019 53.0183 53.816 51.3431C53.229 49.6679 53.2113 47.6039 53.7618 45.1511C54.3123 42.6983 55.2442 40.6343 56.5575 38.9592C57.8708 37.284 59.4052 36.038 61.164 35.22C62.9217 34.4032 64.7379 33.993 66.6117 33.993C68.0167 33.993 69.3002 34.2172 70.462 34.6654C71.6227 35.1147 72.5027 35.7735 73.1018 36.6442C73.6999 37.5148 73.921 38.53 73.764 39.6909L73.7109 39.9284L73.6667 40.1256C73.3163 41.3391 72.726 42.3151 71.8969 43.0535C71.0678 43.792 70.1668 44.3533 69.1962 44.7354C68.2257 45.1186 66.9798 45.5075 65.4598 45.903C64.2493 46.1932 63.3019 46.4711 62.6188 46.7344C61.9345 46.9989 61.4028 47.3417 61.0214 47.7631C61.1916 49.3194 61.5984 50.5531 62.2396 51.463C62.8808 52.3728 63.7485 52.8278 64.8418 52.8278C65.7527 52.8278 66.73 52.5577 67.7757 52.0165C68.8204 51.4764 69.7468 50.626 70.5549 49.464H72.5071C71.4923 51.5482 70.0718 53.2099 68.2455 54.4492C66.4182 55.6896 64.4118 56.3092 62.2263 56.3092C60.0408 56.3092 58.3683 55.9002 56.9002 55.0823H56.8991ZM57.9327 47.0896C58.3484 47.0896 58.7707 46.9776 59.1985 46.7535C59.6263 46.5294 60.2111 46.154 60.955 45.6262C61.416 45.3102 62.1744 44.8878 63.2301 44.3601C64.613 43.6474 65.6864 42.9818 66.4503 42.3622C67.2142 41.7425 67.737 40.9178 68.0211 39.8892C68.2113 38.8079 68.1295 37.898 67.7757 37.1585C67.4209 36.4201 66.6714 36.0503 65.5261 36.0503C64.4848 36.0503 63.6347 36.5052 62.9747 37.4151C62.3148 38.325 61.7477 39.8354 61.2745 41.9453C61.0556 42.9213 60.7682 43.6799 60.4123 44.22C60.0563 44.7612 59.707 45.1298 59.3632 45.3282C59.0194 45.5265 58.6115 45.6912 58.1394 45.8223C57.8354 45.9019 57.6088 45.9803 57.4618 46.0599C57.3137 46.1394 57.2186 46.2716 57.1777 46.4554C57.0826 46.8778 57.3347 47.0885 57.9338 47.0885L57.9327 47.0896Z" fill="white"/>
<path d="M194.068 54.8055C194.37 53.4597 194.298 51.1123 193.853 47.7619C193.564 49.055 193.033 50.3402 192.265 51.6199C191.495 52.8995 190.384 53.9942 188.932 54.9041C187.479 55.8139 185.659 56.2689 183.472 56.2689C180.297 56.2689 178.997 54.9893 179.572 52.4311C179.768 51.5605 180.171 50.5711 180.785 49.464L191.116 31.6187C191.408 31.0125 191.608 30.4713 191.714 29.9962C191.903 29.1524 191.874 28.5317 191.625 28.1361H196.466C197.949 28.1361 198.753 28.6112 198.879 29.5603L200.277 39.8477L201.22 46.7725C201.916 52.0221 202.792 55.0688 203.852 55.9126H193.547C193.77 55.7288 193.945 55.359 194.069 54.8044L194.068 54.8055ZM181.647 52.2339C181.339 53.6054 181.979 54.2912 183.566 54.2912C185.284 54.2912 186.346 53.3813 186.755 51.5605C186.886 50.98 186.876 50.5318 186.725 50.2147C186.575 49.8976 186.313 49.529 185.939 49.1066C185.579 48.7379 185.32 48.3883 185.16 48.0577C185 47.7283 184.982 47.2857 185.106 46.7322C185.295 45.8884 185.893 45.2284 186.897 44.7533C187.902 44.2783 189.041 44.0407 190.316 44.0407C191.851 44.0407 192.917 44.4497 193.515 45.2677L192.805 40.0842L192.479 37.7098C192.391 36.9445 192.403 36.3114 192.516 35.8105C192.64 35.257 192.842 34.8211 193.122 34.5051C193.401 34.188 193.774 33.8586 194.241 33.5157C194.793 33.1471 195.107 32.7907 195.184 32.4479C195.285 31.9997 195.036 31.7755 194.437 31.7755C193.994 31.7755 193.549 31.9604 193.103 32.3291C192.655 32.6989 192.275 33.174 191.963 33.7533L182.788 49.5805C182.192 50.6092 181.812 51.4932 181.646 52.2317L181.647 52.2339Z" fill="white"/>
<path d="M208.46 55.1226C207.715 54.094 207.372 52.867 207.432 51.4428C207.491 50.0187 207.744 48.3166 208.188 46.3389L208.81 43.569C209.355 41.1419 209.732 39.1172 209.94 37.4947C210.148 35.8722 209.988 34.8502 209.458 34.4278H219.686C218.966 34.8502 218.346 35.8722 217.826 37.4947C217.306 39.1172 216.773 41.1419 216.228 43.569L215.686 45.9826C215.289 47.7496 215.16 49.1088 215.298 50.0579C215.436 51.0081 216.064 51.482 217.184 51.482C218.147 51.482 218.931 51.0338 219.535 50.1363C220.14 49.2399 220.651 48.0387 221.067 46.5361L221.733 43.569C222.278 41.1419 222.655 39.1172 222.863 37.4947C223.071 35.8722 222.91 34.8502 222.381 34.4278H232.609C231.889 34.8502 231.27 35.8722 230.749 37.4947C230.229 39.1172 229.696 41.1419 229.151 43.569L228.431 46.7736C227.886 49.2007 227.509 51.2254 227.301 52.848C227.093 54.4705 227.254 55.4924 227.783 55.9148H218.961L219.192 54.8862C219.322 54.3069 219.612 53.825 220.063 53.4418C220.513 53.0597 221.126 52.644 221.904 52.1958C222.412 51.9056 222.79 51.668 223.04 51.4832C223.29 51.2994 223.441 51.0876 223.494 50.8501C223.589 50.4288 223.415 50.217 222.972 50.217C222.53 50.217 221.971 50.4736 221.296 50.9879C220.621 51.5022 220.103 51.984 219.742 52.4322C218.723 53.7253 217.606 54.7539 216.395 55.5181C215.182 56.2823 213.885 56.6655 212.507 56.6655C210.555 56.6655 209.207 56.1512 208.462 55.1226H208.46Z" fill="white"/>
<path d="M233.888 55.1416C232.728 54.6273 232.08 53.862 231.944 52.8468C231.807 51.8316 231.959 50.3481 232.397 48.395L235.09 36.4055H233.724L234.168 34.4267C235.001 34.4267 235.776 34.1634 236.493 33.6356C237.21 33.1078 238.032 32.3437 238.961 31.3408C239.838 30.4444 240.53 29.7978 241.036 29.4023C241.541 29.0068 242.079 28.8084 242.652 28.8084H244.213L243.484 32.0534C243.354 32.6339 243.063 33.1157 242.613 33.4978C242.162 33.881 241.548 34.2956 240.771 34.7438C240.264 35.034 239.885 35.2716 239.636 35.4564C239.386 35.6413 239.235 35.852 239.182 36.0895C239.087 36.512 239.26 36.7226 239.703 36.7226C240.147 36.7226 240.704 36.466 241.379 35.9506C242.054 35.4363 242.572 34.9556 242.934 34.5062H245.628L245.183 36.4851H242.489L239.921 47.9199C239.489 49.8461 239.331 51.3297 239.448 52.3717C239.565 53.4138 240.171 53.9348 241.263 53.9348L240.819 55.9137H239.726C236.993 55.9137 235.046 55.656 233.888 55.1416Z" fill="white"/>
<path d="M247.739 55.0823C246.27 54.2654 245.242 53.0183 244.656 51.3431C244.069 49.6679 244.051 47.6039 244.602 45.1511C245.152 42.6983 246.097 40.6343 247.436 38.9592C248.775 37.284 250.362 36.038 252.2 35.22C254.036 34.4032 255.995 33.993 258.076 33.993C260.158 33.993 261.933 34.402 263.402 35.22C264.871 36.038 265.898 37.284 266.485 38.9592C267.071 40.6343 267.09 42.6983 266.54 45.1511C265.989 47.6039 265.043 49.669 263.704 51.3431C262.364 53.0183 260.777 54.2654 258.942 55.0823C257.106 55.9002 255.147 56.3092 253.064 56.3092C250.981 56.3092 249.206 55.9002 247.738 55.0823H247.739ZM252.074 48.4746C252.149 49.2399 252.258 49.9391 252.403 50.5711C252.454 50.8086 252.493 51.0394 252.521 51.2635C252.549 51.4876 252.536 51.7185 252.483 51.956C252.405 52.2989 252.267 52.5096 252.067 52.5891C251.867 52.6687 251.585 52.7079 251.22 52.7079C250.934 52.7079 250.713 52.7348 250.558 52.7874C250.403 52.8401 250.299 52.9858 250.245 53.2222C250.174 53.5393 250.401 53.8026 250.926 54.0133C251.451 54.2251 252.169 54.3304 253.08 54.3304C254.588 54.3304 255.788 53.9147 256.678 53.0844C257.568 52.2541 258.217 50.9274 258.625 49.1077C258.832 48.1844 258.997 46.8655 259.123 45.1511C259.328 42.0383 259.173 39.7435 258.659 38.2667C258.145 36.7899 257.38 36.0514 256.365 36.0514C255.429 36.0514 254.64 36.401 254.001 37.1002C253.363 37.7994 252.878 38.8875 252.546 40.3643C252.237 41.7358 252.061 43.3314 252.017 45.1523C251.977 46.6033 251.995 47.7115 252.071 48.4757L252.074 48.4746Z" fill="white"/>
<path d="M284.676 55.656C284.298 55.4845 284.008 55.1809 283.807 54.7461C283.605 54.3113 283.423 53.6446 283.26 52.7482L283.171 52.2731L282.544 47.7619L277.708 55.9126H275.014C274.286 55.9126 273.732 55.8274 273.355 55.6548C272.977 55.4834 272.687 55.1797 272.486 54.745C272.284 54.3102 272.102 53.6435 271.939 52.7471L271.85 52.272L271.073 46.693L270.413 41.9846C269.769 37.5529 268.955 35.034 267.972 34.4267H278.707C278.451 34.6385 278.267 34.9948 278.155 35.4957C277.965 36.3405 277.923 37.4543 278.029 38.8393C278.134 40.2242 278.301 41.8008 278.528 43.5678L278.934 46.4565C278.98 46.8263 279.011 47.1232 279.027 47.3473C279.041 47.5714 279.025 47.7899 278.978 48.0006C278.836 48.6337 278.576 49.1222 278.2 49.4651C277.823 49.808 277.337 50.1509 276.74 50.4937C276.38 50.7055 276.106 50.8837 275.917 51.0282C275.728 51.1739 275.613 51.3386 275.572 51.5224C275.477 51.9448 275.69 52.1555 276.211 52.1555C277.278 52.1555 278.343 51.2983 279.404 49.5839L280.975 46.9328C282.754 43.8726 283.796 41.6708 284.098 40.3251C284.24 39.692 284.287 39.1642 284.238 38.7429C284.189 38.3216 284.089 37.8723 283.935 37.3972C283.804 37.0543 283.722 36.7506 283.691 36.4873C283.659 36.224 283.679 35.9338 283.749 35.6167C283.862 35.1158 284.202 34.792 284.768 34.6474C285.334 34.5029 286.059 34.4301 286.944 34.4301H291.785C291.032 35.1158 290.466 36.3036 290.087 37.991C289.672 39.8377 289.593 41.6977 289.849 43.5701L290.255 46.4588C290.301 46.8285 290.332 47.1255 290.348 47.3496C290.362 47.5737 290.346 47.7922 290.299 48.0028C290.157 48.6359 289.897 49.1245 289.521 49.4674C289.144 49.8102 288.658 50.1531 288.061 50.496C287.701 50.7078 287.426 50.8859 287.238 51.0305C287.049 51.1761 286.934 51.3409 286.893 51.5246C286.798 51.9471 287.011 52.1577 287.532 52.1577C288.599 52.1577 289.664 51.3005 290.725 49.5861L292.305 46.8958C294.067 43.9152 295.057 41.9364 295.277 40.9604C295.461 40.1436 295.54 39.4959 295.517 39.0219C295.493 38.5468 295.435 37.9933 295.343 37.3602C295.185 36.6744 295.159 36.094 295.266 35.6189C295.379 35.118 295.692 34.7942 296.206 34.6497C296.72 34.5051 297.406 34.4323 298.265 34.4323H303.145C301.999 35.0127 300.346 37.0442 298.184 40.5257L289.029 55.9182H286.335C285.607 55.9182 285.053 55.833 284.676 55.6604V55.656Z" fill="white"/>
<path d="M302.235 55.0823C300.766 54.2654 299.738 53.0183 299.152 51.3431C298.565 49.6679 298.547 47.6039 299.098 45.1511C299.648 42.6983 300.593 40.6343 301.932 38.9592C303.271 37.284 304.858 36.038 306.695 35.22C308.532 34.4032 310.49 33.993 312.572 33.993C314.654 33.993 316.429 34.402 317.898 35.22C319.367 36.038 320.394 37.284 320.981 38.9592C321.567 40.6343 321.586 42.6983 321.035 45.1511C320.485 47.6039 319.539 49.669 318.2 51.3431C316.86 53.0183 315.273 54.2654 313.438 55.0823C311.601 55.9002 309.643 56.3092 307.56 56.3092C305.477 56.3092 303.702 55.9002 302.234 55.0823H302.235ZM306.568 48.4746C306.643 49.2399 306.753 49.9391 306.898 50.5711C306.949 50.8086 306.987 51.0394 307.016 51.2635C307.044 51.4876 307.03 51.7185 306.977 51.956C306.9 52.2989 306.762 52.5096 306.562 52.5891C306.362 52.6687 306.08 52.7079 305.715 52.7079C305.429 52.7079 305.207 52.7348 305.053 52.7874C304.898 52.8401 304.794 52.9858 304.74 53.2222C304.669 53.5393 304.896 53.8026 305.421 54.0133C305.946 54.2251 306.663 54.3304 307.574 54.3304C309.083 54.3304 310.283 53.9147 311.173 53.0844C312.062 52.2541 312.711 50.9274 313.119 49.1077C313.327 48.1844 313.492 46.8655 313.618 45.1511C313.822 42.0383 313.668 39.7435 313.154 38.2667C312.64 36.7899 311.875 36.0514 310.86 36.0514C309.923 36.0514 309.135 36.401 308.496 37.1002C307.857 37.7994 307.373 38.8875 307.04 40.3643C306.732 41.7358 306.556 43.3314 306.512 45.1523C306.472 46.6033 306.49 47.7115 306.566 48.4757L306.568 48.4746Z" fill="white"/>
<path d="M321.845 52.8468C322.365 51.2243 322.898 49.2007 323.443 46.7725L325.175 39.0567C325.323 38.3978 325.34 37.8566 325.227 37.4342C325.113 37.0128 324.842 36.6565 324.414 36.3663L333.632 34.4278L333.401 35.4564C333.271 36.0369 332.98 36.5187 332.53 36.9008C332.079 37.284 331.465 37.6986 330.688 38.1468C330.18 38.437 329.802 38.6746 329.552 38.8594C329.302 39.0443 329.151 39.255 329.098 39.4925C329.002 39.915 329.176 40.1256 329.619 40.1256C330.035 40.1256 330.581 39.869 331.257 39.3547C331.931 38.8404 332.459 38.372 332.841 37.9496C333.865 36.6307 334.991 35.5887 336.217 34.8234C337.443 34.058 338.771 33.6759 340.203 33.6759H343.365L342.707 36.6039C342.398 37.9754 341.919 39.097 341.269 39.9665C340.618 40.8372 339.615 41.2719 338.263 41.2719C337.664 41.2719 337.261 41.1531 337.055 40.9156C336.848 40.678 336.7 40.3486 336.614 39.9262C336.52 39.5306 336.407 39.2539 336.273 39.0948C336.139 38.9368 335.877 38.8572 335.487 38.8572C334.498 38.8572 333.694 39.3065 333.077 40.2029C332.459 41.1005 331.943 42.3006 331.526 43.8032L330.86 46.7703C330.315 49.1973 329.939 51.2221 329.73 52.8446C329.522 54.4671 329.682 55.489 330.212 55.9114H319.984C320.704 55.4901 321.324 54.4671 321.843 52.8446L321.845 52.8468Z" fill="white"/>
<path d="M340.817 52.8468C341.337 51.2243 341.87 49.2007 342.415 46.7725L345.623 32.4882C345.771 31.8293 345.788 31.2881 345.675 30.8657C345.561 30.4444 345.29 30.0881 344.861 29.7967L354.08 27.8582L350.819 42.3801C350.688 42.9605 350.398 43.4423 349.948 43.8244C349.497 44.2077 348.883 44.6223 348.106 45.0705C347.597 45.3607 347.219 45.5982 346.97 45.7831C346.72 45.968 346.568 46.1786 346.515 46.4162C346.42 46.8386 346.594 47.0493 347.037 47.0493C347.48 47.0493 348.037 46.7916 348.713 46.2773C349.387 45.7629 349.906 45.2822 350.267 44.8329C351.83 42.8541 353.486 41.5621 355.237 40.9548C356.558 40.4013 357.353 39.5306 357.62 38.3429C357.702 37.9742 357.715 37.684 357.659 37.4722C357.602 37.2616 357.53 37.0901 357.443 36.9579C357.355 36.8268 357.303 36.7338 357.29 36.6812C356.977 36.3383 356.868 35.9562 356.962 35.5338C357.05 35.1382 357.309 34.8547 357.739 34.6833C358.168 34.5118 358.681 34.4256 359.28 34.4256H365.447C364.807 37.2739 362.495 39.3457 358.509 40.6377C360.616 40.8753 361.866 41.7986 362.259 43.4076C362.653 45.0167 362.61 47.0616 362.131 49.5402C361.894 50.5957 361.702 51.8227 361.558 53.22C361.413 54.6184 361.596 55.5148 362.105 55.9103H351.839C352.527 55.5148 353.103 54.6576 353.568 53.3387C354.033 52.0199 354.375 50.8725 354.595 49.8965C354.807 48.6046 354.805 47.595 354.592 46.87C354.377 46.145 353.788 45.782 352.826 45.782C351.864 45.782 351.08 46.2313 350.475 47.1277C349.87 48.0241 349.36 49.2253 348.944 50.7279C348.743 51.6255 348.614 52.6014 348.559 53.6558C348.504 54.7114 348.713 55.4632 349.185 55.9114H338.957C339.677 55.4901 340.297 54.4671 340.817 52.8446V52.8468Z" fill="white"/>
<path d="M371.675 56.2297C370.036 56.2297 368.645 55.9921 367.502 55.517C366.359 55.0419 365.539 54.3763 365.043 53.5191C364.545 52.6619 364.418 51.6927 364.661 50.6103C364.97 49.2388 365.571 48.3222 366.47 47.8605C367.366 47.3989 368.388 47.1681 369.533 47.1681C371.251 47.1681 372.328 47.558 372.764 48.3356C373.201 49.1144 373.339 49.8595 373.18 50.5711C372.99 51.4159 372.701 51.9493 372.312 52.1734C371.923 52.3975 371.417 52.5096 370.792 52.5096C370.402 52.5096 370.1 52.5488 369.887 52.6283C369.673 52.7079 369.532 52.9051 369.461 53.2222C369.39 53.5393 369.604 53.7757 370.101 53.9348C370.599 54.0928 371.277 54.1724 372.136 54.1724C374.582 54.1724 376.001 53.3018 376.392 51.5605C376.558 50.8221 376.489 50.1755 376.183 49.622C375.878 49.0685 375.458 48.5934 374.922 48.1978C374.386 47.8023 373.623 47.3148 372.636 46.7344C371.482 46.0756 370.557 45.475 369.859 44.9338C369.161 44.3937 368.62 43.7012 368.237 42.8563C367.854 42.0126 367.793 41.0097 368.054 39.8489C368.51 37.8185 369.739 36.3472 371.738 35.4374C373.738 34.5275 376.105 34.0726 378.838 34.0726C381.57 34.0726 383.358 34.5152 384.591 35.3982C385.823 36.2823 386.248 37.5809 385.862 39.2953C385.678 40.1133 385.248 40.8383 384.573 41.4714C383.897 42.1045 383.025 42.4216 381.958 42.4216C380.735 42.4216 379.871 42.1246 379.367 41.5308C378.862 40.9369 378.708 40.2052 378.904 39.3345C378.981 38.9917 379.095 38.7149 379.247 38.5042C379.398 38.2936 379.604 38.0684 379.866 37.8319C380.064 37.6482 380.217 37.4823 380.328 37.3367C380.438 37.1921 380.517 37.014 380.564 36.8022C380.647 36.4335 380.512 36.1366 380.159 35.9114C379.805 35.6873 379.251 35.5752 378.497 35.5752C377.586 35.5752 376.793 35.8318 376.118 36.3472C375.443 36.8616 375.019 37.5014 374.848 38.2667C374.658 39.1116 374.73 39.8365 375.063 40.4427C375.394 41.05 375.853 41.5576 376.438 41.9666C377.023 42.3756 377.842 42.844 378.894 43.3718C380.11 43.9791 381.077 44.5393 381.796 45.0536C382.513 45.568 383.065 46.2403 383.451 47.0717C383.837 47.9031 383.896 48.9116 383.63 50.0982C383.156 52.2093 381.826 53.7589 379.639 54.7472C377.451 55.7366 374.811 56.2308 371.713 56.2308H371.674L371.675 56.2297Z" fill="white"/>
</g>
<defs>
<clipPath id="clip0_1_18">
<rect width="386" height="85" fill="white"/>
</clipPath>
</defs>
</svg>
