<svg width="1031" height="290" viewBox="0 0 1031 290" fill="none" xmlns="http://www.w3.org/2000/svg">
<g clip-path="url(#clip0_68_59255)">
<path d="M117.692 2.07556C113.965 18.406 110.935 34.7425 108.598 51.0729C106.851 63.1389 105.664 71.0775 101.281 78.6761C98.8539 82.881 95.3892 87.3125 89.9089 90.909C85.5617 93.76 79.7653 96.1875 72.2754 97.607C70.9516 97.8575 69.6456 98.0782 68.4351 98.275C66.9443 109.858 65.8888 121.417 65.3103 133.006C58.1305 132.332 50.8493 131.908 43.5085 131.908C36.1856 131.908 28.803 132.32 21.4503 133C24.2411 121.381 26.531 109.87 28.3916 98.281C27.2347 98.0841 25.9943 97.8635 24.742 97.613C17.6576 96.1934 12.565 93.7659 9.04664 90.915C4.60398 87.3125 2.42738 82.8869 1.21683 78.682C-0.965736 71.0834 0.1494 63.1389 1.89665 51.0789C4.276 34.7425 5.96958 18.406 6.97141 2.07556C22.1838 3.7098 38.6186 3.08354 52.9186 2.14713C52.9186 2.14713 49.5016 15.7936 45.4168 35.3926C41.5704 53.8404 41.0516 61.0931 44.4925 65.1787C46.359 67.4034 49.0544 67.97 52.7934 67.97C56.5323 67.97 59.3888 67.4034 61.8993 65.1787C66.5209 61.0931 68.1011 53.8344 69.5979 35.3926C71.1901 15.7936 71.7268 2.14713 71.7268 2.14713C85.7525 3.07758 100.78 3.57858 117.692 2.07556Z" fill="white"/>
<path d="M252.874 64.5107L252.039 70.2723C248.271 96.2949 228.818 118.721 203.993 128.92C194.833 132.684 184.94 134.783 174.839 134.783C137.353 134.783 111.157 105.898 116.309 70.2723L117.144 64.5107C122.302 28.8795 156.865 0 194.35 0C231.836 0 258.038 28.8795 252.874 64.5107ZM209.718 66.2762C211.716 52.4865 202.156 41.3033 188.369 41.3033C174.582 41.3033 161.785 52.4806 159.787 66.2762L159.465 68.5069C157.467 82.2965 167.027 93.4797 180.814 93.4797C194.601 93.4797 207.398 82.3025 209.396 68.5069L209.718 66.2762Z" fill="white"/>
<path d="M379.039 2.09948C374.465 24.2989 370.589 46.4923 367.399 68.6917C365.026 85.0878 363.421 95.8834 358.651 106.214C356.009 111.933 352.324 117.952 346.659 122.842C342.174 126.719 336.265 130.017 328.715 131.95C317.695 134.771 310.885 134.759 304.588 134.759C298.29 134.759 291.474 134.771 281.277 131.95C274.282 130.017 269.327 126.719 265.963 122.842C261.723 117.952 259.773 111.933 258.789 106.214C257.006 95.8834 258.533 85.0878 260.906 68.6917C264.15 46.4923 266.691 24.2989 268.545 2.09948C283.436 3.39971 302.339 3.36989 315.316 2.01001C315.316 2.01001 310.169 21.8773 304.802 50.4229C299.751 77.2924 297.092 87.8553 300.753 93.8077C302.739 97.0404 305.732 97.8695 309.925 97.8695C314.117 97.8695 317.355 97.0404 320.271 93.8077C325.656 87.8553 326.055 77.2924 328.781 50.4229C331.679 21.8833 332.287 2.01001 332.287 2.01001C344.876 3.36392 363.767 3.39971 379.033 2.09948H379.039Z" fill="white"/>
<path d="M479.557 133.113C471.894 132.421 464.297 131.938 456.634 131.914C448.494 131.89 440.288 132.356 431.934 133.083C432.387 130.292 434.051 122.389 431.683 112.095C430.318 106.16 426.263 97.6309 417.473 95.4181C417.473 95.4181 417.461 95.4181 417.449 95.4122C416.101 107.174 414.915 119.508 413.781 133.012C406.828 132.385 399.845 131.95 392.809 131.92C385.241 131.884 377.614 132.302 369.945 133C378.914 89.3643 385.253 45.7349 388.956 2.09949C410.108 4.18702 425.338 2.48121 437.366 2.27245C447.82 2.09352 455.429 2.49314 462.633 4.46735C471.369 6.85906 478.847 12.1972 483.665 19.2351C487.679 25.1041 490.058 32.0347 490.285 40.015C490.499 47.5898 488.603 55.6775 484.47 63.4491C481.352 69.3121 476.73 74.9544 470.964 79.7378C467.988 82.207 464.648 84.2946 461.822 85.8513C466.724 89.1675 469.938 93.1338 472.061 98.5614C476.658 110.317 474.542 122.55 479.563 133.113H479.557ZM450.199 48.9079C451.267 41.536 445.554 35.7088 437.462 35.506C431.039 35.3449 427.133 35.7684 425.792 35.9533C424.247 45.21 422.87 54.3594 421.635 63.0674C421.868 63.0912 425.004 63.3477 433.556 62.4829C442.501 61.5763 449.108 56.4529 450.175 49.0809L450.199 48.9079Z" fill="white"/>
<path d="M658.359 133.113C650.697 132.421 643.099 131.938 635.436 131.914C627.297 131.89 619.091 132.356 610.736 133.083C611.19 130.292 612.853 122.389 610.486 112.095C609.12 106.16 605.065 97.6309 596.275 95.4181C596.275 95.4181 596.264 95.4181 596.252 95.4122C594.904 107.174 593.717 119.508 592.584 133.012C585.631 132.385 578.648 131.95 571.611 131.92C564.044 131.884 556.417 132.302 548.748 133C557.717 89.3643 564.056 45.7349 567.759 2.09949C588.911 4.18702 604.141 2.48121 616.169 2.27245C626.623 2.09352 634.232 2.49314 641.436 4.46735C650.172 6.85906 657.65 12.1972 662.468 19.2351C666.481 25.1041 668.861 32.0347 669.087 40.015C669.302 47.5898 667.406 55.6775 663.273 63.4491C660.154 69.3121 655.533 74.9544 649.766 79.7378C646.791 82.207 643.451 84.2946 640.625 85.8513C645.526 89.1675 648.741 93.1338 650.863 98.5614C655.461 110.317 653.344 122.55 658.365 133.113H658.359ZM629.002 48.9079C630.07 41.536 624.357 35.7088 616.264 35.506C609.842 35.3449 605.936 35.7684 604.594 35.9533C603.05 45.21 601.672 54.3594 600.438 63.0674C600.67 63.0912 603.807 63.3477 612.358 62.4829C621.303 61.5763 627.911 56.4529 628.978 49.0809L629.002 48.9079Z" fill="#FAC215"/>
<path d="M709.286 133.006C702.083 132.356 694.855 131.92 687.556 131.908C680.257 131.908 672.904 132.326 665.51 133C674.473 89.3643 680.812 45.7349 684.521 2.09949C698.874 3.44147 713.425 3.47726 728.166 2.18299C719.257 45.7587 712.954 89.424 709.286 133V133.006Z" fill="#FAC215"/>
<path d="M837.837 67.636C837.127 72.5208 836.102 76.6184 834.503 81.1215C830.937 91.1655 824.348 101.848 816.274 109.709C810.948 114.892 805.391 119.293 799.69 122.455C795.235 124.93 790.608 127.137 785.521 128.807C780.064 130.596 774.638 131.759 769.366 132.433C764.017 133.119 759.151 132.988 754.309 133C743.551 133.023 733.694 131.622 723.002 132.719C722.107 132.809 721.213 132.892 720.324 133C720.324 133 720.366 132.785 720.449 132.391C720.467 132.32 720.479 132.248 720.491 132.177C720.604 131.622 720.771 130.775 720.992 129.666C725.154 108.987 728.715 88.3085 731.708 67.6301C734.708 46.9515 737.129 26.273 738.96 5.59455C739.061 4.49114 739.138 3.64419 739.186 3.08354C739.186 3.01197 739.198 2.9404 739.204 2.86883C739.24 2.47518 739.258 2.26046 739.258 2.26046C740.116 2.36782 740.987 2.45132 741.852 2.54675C752.234 3.63823 762.491 2.24257 773.242 2.26046C778.085 2.27239 782.986 2.14117 788.139 2.82707C793.214 3.50105 798.247 4.73568 803.178 6.52499C807.788 8.19501 811.873 10.4257 815.582 12.9248C820.15 16.0084 824.688 20.4339 828.445 25.6647C834.038 33.4422 837.855 43.9932 838.386 54.1446C838.624 58.6596 838.546 62.7452 837.837 67.6241V67.636ZM797.376 67.636C798.491 59.942 796.708 52.904 792.701 47.8641C788.819 42.9793 783.022 39.8718 775.52 40.3669C775.52 40.3669 774.364 47.5241 771.489 67.636C768.543 87.7539 767.613 95.0065 767.613 95.0065C775.103 95.4897 781.955 92.3822 787.34 87.1932C792.498 82.2189 796.285 75.2525 797.388 67.636H797.376Z" fill="#FAC215"/>
<path d="M917.818 133.006C903.84 132.344 889.725 131.89 875.538 131.908C862.198 131.932 848.804 132.385 835.482 133.006C844.427 89.4657 850.784 45.8184 854.487 2.27841C881.603 3.54882 909.296 3.54286 936.775 2.26648C933.066 15.0064 930.674 28.0207 929.75 40.862C928.909 40.8083 910.471 39.681 891.591 39.8182L889.844 52.415C900.017 52.5581 910.292 52.0154 920.674 50.7211C920.674 50.7211 919.016 55.4091 917.227 67.7732C915.438 80.1374 915.635 85.5352 915.635 85.5352C905.688 84.2528 895.634 83.7041 885.485 83.8413L883.535 97.8814C902.343 98.0723 920.054 96.8496 921.312 96.7601C918.915 108.808 917.74 121.077 917.818 133.006Z" fill="#FAC215"/>
<path d="M234.362 219.728L233.528 225.489C229.759 251.512 210.307 273.938 185.481 284.137C176.322 287.901 166.429 290 156.327 290C118.842 290 92.6448 261.115 97.7971 225.489L98.6319 219.728C103.79 184.097 138.353 155.217 175.839 155.217C213.324 155.217 239.527 184.097 234.362 219.728ZM191.206 221.493C193.204 207.704 183.645 196.52 169.858 196.52C156.07 196.52 143.273 207.698 141.275 221.493L140.953 223.724C138.956 237.514 148.515 248.697 162.302 248.697C176.089 248.697 188.886 237.52 190.884 223.724L191.206 221.493Z" fill="white"/>
<path d="M360.528 157.311C355.954 179.51 352.078 201.703 348.887 223.903C346.514 240.299 344.91 251.094 340.139 261.425C337.497 267.145 333.812 273.163 328.147 278.053C323.662 281.93 317.753 285.229 310.203 287.161C299.183 289.982 292.373 289.97 286.076 289.97C279.779 289.97 272.963 289.982 262.765 287.161C255.77 285.229 250.815 281.93 247.452 278.053C243.212 273.163 241.262 267.145 240.278 261.425C238.495 251.094 240.021 240.299 242.395 223.903C245.633 201.703 248.179 179.51 250.034 157.311C264.924 158.611 283.828 158.581 296.804 157.221C296.804 157.221 291.657 177.088 286.291 205.634C281.24 232.503 278.574 243.066 282.241 249.019C284.227 252.251 287.221 253.081 291.413 253.081C295.605 253.081 298.837 252.251 301.759 249.019C307.144 243.066 307.544 232.503 310.269 205.634C313.167 177.094 313.775 157.221 313.775 157.221C326.364 158.575 345.256 158.611 360.522 157.311H360.528Z" fill="white"/>
<path d="M461.045 288.33C453.382 287.638 445.785 287.155 438.122 287.131C429.982 287.107 421.777 287.573 413.422 288.3C413.875 285.509 415.539 277.606 413.172 267.312C411.806 261.377 407.751 252.848 398.961 250.635C398.961 250.635 398.949 250.635 398.937 250.629C397.589 262.391 396.403 274.725 395.27 288.229C388.317 287.602 381.334 287.167 374.297 287.137C366.729 287.101 359.102 287.519 351.434 288.217C360.402 244.581 366.741 200.952 370.445 157.317C391.596 159.404 406.827 157.698 418.855 157.489C429.308 157.311 436.917 157.71 444.121 159.684C452.857 162.076 460.335 167.414 465.154 174.452C469.167 180.321 471.546 187.252 471.773 195.232C471.988 202.807 470.091 210.895 465.959 218.666C462.84 224.529 458.218 230.171 452.452 234.955C449.476 237.424 446.137 239.512 443.31 241.068C448.212 244.385 451.426 248.351 453.549 253.778C458.147 265.534 456.03 277.767 461.051 288.33H461.045ZM431.688 204.125C432.755 196.753 427.042 190.926 418.95 190.723C412.528 190.562 408.622 190.985 407.28 191.17C405.735 200.427 404.358 209.576 403.123 218.284C403.356 218.308 406.493 218.565 415.044 217.7C423.989 216.793 430.596 211.67 431.664 204.298L431.688 204.125Z" fill="white"/>
<path d="M648.512 204.638C647.66 210.519 645.966 215.815 642.955 221.762C640.223 227.141 636.365 232.45 630.36 237.925C625.524 242.333 619.942 246.198 610.091 249.234C600.574 252.168 594.592 252.794 577.436 254.118C576.178 265.164 575.069 276.413 574.085 288.127C566.875 287.483 559.618 287.119 552.307 287.137C544.996 287.155 537.637 287.543 530.23 288.217C539.199 244.581 545.538 200.952 549.241 157.317C573.411 159.398 589.428 157.525 602.076 157.489C610.085 157.466 616.507 158.032 622.375 159.792C630.873 162.333 637.91 167.319 642.686 174.792C647.427 182.206 650.349 191.946 648.512 204.638ZM609.894 204.125C610.962 196.753 605.249 190.926 597.157 190.723C590.925 190.568 587.132 190.783 585.713 190.89C584.252 200.147 582.994 209.272 581.825 218.32C583.006 218.368 586.375 218.404 593.251 217.706C602.201 216.799 608.803 211.676 609.87 204.304L609.894 204.125Z" fill="#FAC215"/>
<path d="M752.584 288.33C744.921 287.638 737.324 287.155 729.661 287.131C721.521 287.107 713.316 287.573 704.961 288.3C705.414 285.509 707.078 277.606 704.711 267.312C703.345 261.377 699.29 252.848 690.5 250.635C690.5 250.635 690.488 250.635 690.476 250.629C689.129 262.391 687.942 274.725 686.809 288.229C679.856 287.602 672.873 287.167 665.836 287.137C658.269 287.101 650.641 287.519 642.973 288.217C651.941 244.581 658.28 200.952 661.984 157.317C683.135 159.404 698.366 157.698 710.394 157.489C720.847 157.311 728.457 157.71 735.66 159.684C744.396 162.076 751.874 167.414 756.693 174.452C760.706 180.321 763.085 187.252 763.312 195.232C763.527 202.807 761.63 210.895 757.498 218.666C754.379 224.529 749.757 230.171 743.991 234.955C741.015 237.424 737.676 239.512 734.849 241.068C739.751 244.385 742.965 248.351 745.088 253.778C749.686 265.534 747.569 277.767 752.59 288.33H752.584ZM723.227 204.125C724.294 196.753 718.581 190.926 710.489 190.723C704.067 190.562 700.161 190.985 698.819 191.17C697.274 200.427 695.897 209.576 694.663 218.284C694.895 218.308 698.032 218.565 706.583 217.7C715.528 216.793 722.135 211.67 723.203 204.298L723.227 204.125Z" fill="#FAC215"/>
<path d="M803.511 288.223C796.307 287.573 789.08 287.137 781.781 287.125C774.488 287.125 767.129 287.543 759.734 288.217C768.697 244.581 775.036 200.952 778.745 157.317C793.099 158.659 807.649 158.694 822.391 157.4C813.482 200.976 807.178 244.641 803.511 288.217V288.223Z" fill="#FAC215"/>
<path d="M932.062 222.853C931.352 227.738 930.326 231.835 928.728 236.339C925.162 246.383 918.573 257.065 910.498 264.926C905.173 270.109 899.615 274.511 893.914 277.672C889.46 280.147 884.832 282.354 879.746 284.024C874.289 285.813 868.863 286.976 863.591 287.65C858.242 288.336 853.382 288.205 848.534 288.217C837.776 288.241 827.919 286.839 817.226 287.936C816.332 288.026 815.437 288.109 814.549 288.217C814.549 288.217 814.591 288.002 814.674 287.608C814.692 287.537 814.704 287.465 814.716 287.394C814.829 286.839 814.996 285.992 815.217 284.883C819.379 264.204 822.939 243.526 825.933 222.847C828.932 202.169 831.353 181.49 833.184 160.812C833.285 159.708 833.363 158.861 833.411 158.301C833.411 158.229 833.423 158.157 833.429 158.086C833.464 157.692 833.482 157.477 833.482 157.477C834.341 157.585 835.212 157.668 836.076 157.764C846.458 158.855 856.715 157.46 867.467 157.477C872.309 157.489 877.211 157.358 882.363 158.044C887.438 158.718 892.471 159.953 897.403 161.742C902.013 163.412 906.097 165.643 909.807 168.142C914.374 171.225 918.912 175.651 922.669 180.882C928.263 188.659 932.079 199.21 932.61 209.362C932.849 213.877 932.771 217.962 932.062 222.841V222.853ZM891.601 222.853C892.716 215.159 890.933 208.121 886.925 203.081C883.043 198.196 877.247 195.089 869.745 195.584C869.745 195.584 868.588 202.741 865.714 222.853C862.768 242.971 861.838 250.224 861.838 250.224C869.328 250.707 876.179 247.599 881.564 242.41C886.723 237.436 890.509 230.47 891.613 222.853H891.601Z" fill="#FAC215"/>
<path d="M1012.04 288.223C998.064 287.561 983.949 287.107 969.762 287.125C956.423 287.149 943.029 287.602 929.707 288.223C938.652 244.683 945.009 201.035 948.712 157.495C975.827 158.766 1003.52 158.76 1031 157.484C1027.29 170.223 1024.9 183.238 1023.97 196.079C1023.13 196.025 1004.7 194.898 985.816 195.035L984.068 207.632C994.242 207.775 1004.52 207.232 1014.9 205.938C1014.9 205.938 1013.24 210.626 1011.45 222.99C1009.66 235.354 1009.86 240.752 1009.86 240.752C999.913 239.47 989.859 238.921 979.709 239.058L977.759 253.098C996.567 253.289 1014.28 252.067 1015.54 251.977C1013.14 264.025 1011.96 276.294 1012.04 288.223Z" fill="#FAC215"/>
</g>
<defs>
<clipPath id="clip0_68_59255">
<rect width="1031" height="290" fill="white"/>
</clipPath>
</defs>
</svg>
