<svg width="835" height="112" viewBox="0 0 835 112" fill="none" xmlns="http://www.w3.org/2000/svg">
<g clip-path="url(#clip0_68_59245)">
<path d="M0.386692 42.5749L0.883428 39.1382C3.13648 23.6089 14.7299 10.2258 29.5256 4.14182C34.9852 1.89357 40.8796 0.643066 46.9025 0.643066C65.8627 0.643066 79.9665 13.0639 81.9179 29.8215C83.0312 38.6859 82.0643 46.7654 79.8778 54.3261C76.9594 64.4188 72.0542 73.4074 66.4348 81.8771C59.9728 91.6195 50.5216 102.351 42.423 110.311C36.4089 109.699 30.0356 109.419 23.9506 109.393C16.7346 109.362 9.50978 109.721 2.62644 110.324C7.48292 106.484 13.1732 101.149 18.1273 95.6504C22.416 90.8923 26.4387 85.7572 29.6498 80.6931C10.3791 78.0679 -2.42519 62.0065 0.386692 42.5749ZM31.0601 41.3022C30.2618 46.8053 34.0716 51.2708 39.5712 51.2708C45.0708 51.2708 50.1712 46.8053 50.9695 41.3022L51.0981 40.4109C51.8965 34.9078 48.0867 30.4423 42.5871 30.4423C37.0875 30.4423 31.9871 34.9078 31.1888 40.4109L31.0601 41.3022Z" fill="#FDC30F"/>
<path d="M176.98 53.4481L176.186 58.9246C171.959 88.1075 157.301 111.761 125.102 111.761C92.903 111.761 85.0971 88.1031 89.3238 58.9246L90.1177 53.4481C94.3444 24.2697 109.007 0.612061 141.202 0.612061C173.396 0.612061 181.207 24.2697 176.98 53.4481ZM143.641 54.9469C145.553 41.7413 144.439 31.0321 136.798 31.0321C129.156 31.0321 124.942 41.7413 123.031 54.9469L122.672 57.4258C120.76 70.6359 121.873 81.3406 129.515 81.3406C137.157 81.3406 141.37 70.6315 143.286 57.4258L143.645 54.9469H143.641Z" fill="#FDC30F"/>
<path d="M264.804 75.1235C266.605 86.8215 265.549 96.1116 269.421 110.355C263.407 109.641 257.251 109.464 251.073 109.45C244.646 109.437 238.193 109.619 231.727 110.355C232.676 104.674 233.616 97.8587 232.237 88.7416C230.458 76.9992 224.165 69.8687 216.935 69.239C215.157 82.9147 213.693 96.5905 212.54 110.271C200.641 109.202 188.582 109.229 176.367 110.342C183.765 74.3608 188.994 38.3844 192.05 2.40796C203.909 3.51656 215.924 3.54317 228.099 2.47891C225.748 13.9818 223.615 25.4891 221.708 36.992C228.551 35.3557 233.514 29.9545 236.37 26.1276C242.544 17.8486 244.89 7.79134 246.128 2.47004C252.94 3.10416 259.872 3.23719 266.817 3.22833C273.253 3.21946 279.697 3.10416 286.172 2.47448C275.785 15.3698 275.187 22.1322 267.58 33.7947C264.227 38.9298 260.67 44.158 251.436 50.5435C259.908 55.5766 263.34 65.5895 264.804 75.1235Z" fill="#FDC30F"/>
<path d="M335.905 0H365.194C344.203 36.952 324.129 74.2809 305.001 112H275.777C296.747 75.048 316.798 37.7191 335.905 0Z" fill="#FDC30F"/>
<path d="M449.772 82.6086C448.907 85.9832 447.315 89.9032 444.601 93.7656C443.057 95.9695 441.39 97.8896 439.66 99.5215C437.589 101.481 435.535 103.1 433.278 104.461C429.796 106.559 426.053 108.213 422.349 109.029C415.426 110.559 407.895 110.541 400.169 110.399C383.391 110.084 380.455 108.275 359.18 110.355C366.569 74.4227 371.798 38.4907 374.858 2.55859C391.361 3.80466 402.032 2.94882 411.115 2.66502C418.717 2.42556 425.033 2.69606 430.763 4.31019C435.371 5.60504 439.651 7.62269 443.106 10.4031C449.071 15.2011 451.856 22.274 452.371 27.4091C452.659 30.3003 452.717 32.2381 452.225 35.5418C451.768 38.6237 451.094 40.9606 449.781 43.9272C448.064 47.8162 445.297 51.9136 442.073 55.0532C444.308 57.0531 447.067 60.4632 448.592 64.055C450.051 67.4962 451 71.465 450.743 76.1876C450.632 78.2053 450.304 80.4801 449.763 82.5998L449.772 82.6086ZM417.258 75.8905C418.03 70.924 414.477 66.8177 409.363 66.7645L400.307 66.6669C399.415 73.0037 398.639 79.2429 398.001 84.8391L406.534 84.9323C411.647 84.9899 416.464 80.9679 417.24 76.0058L417.258 75.8905ZM403.598 43.8918L409.612 43.8075C414.091 43.7454 418.234 40.0383 418.815 35.5684L418.828 35.4619C419.413 30.9921 416.229 27.3913 411.749 27.4534L405.824 27.5376C405.137 32.5574 404.369 38.1714 403.598 43.8962V43.8918Z" fill="white"/>
<path d="M558.535 2.40786C554.76 20.7131 551.563 39.014 548.933 57.3192C546.972 70.8397 545.655 79.744 541.717 88.2581C539.539 92.9763 536.497 97.9384 531.826 101.969C528.127 105.167 523.253 107.885 517.022 109.477C507.93 111.805 502.315 111.796 497.121 111.796C491.928 111.796 486.309 111.805 477.891 109.477C472.125 107.885 468.036 105.167 465.259 101.969C461.76 97.934 460.154 92.9719 459.343 88.2581C457.875 79.7396 459.134 70.8397 461.09 57.3192C463.765 39.014 465.862 20.7131 467.393 2.40786C479.674 3.48099 495.267 3.45439 505.969 2.33691C505.969 2.33691 501.725 18.7176 497.299 42.2555C493.13 64.4098 490.934 73.119 493.955 78.0279C495.596 80.693 498.066 81.3759 501.521 81.3759C504.976 81.3759 507.646 80.693 510.059 78.0279C514.503 73.119 514.831 64.4098 517.08 42.2555C519.47 18.7221 519.976 2.33691 519.976 2.33691C530.358 3.45439 545.943 3.48099 558.535 2.40786Z" fill="white"/>
<path d="M615.253 110.364C594.172 109.171 572.454 109.175 551.027 110.368C558.407 74.445 563.672 38.3267 566.723 2.40796C578.583 3.51656 590.598 3.53873 602.772 2.47891C597.57 27.9191 593.454 53.3594 590.42 78.7996C600.235 78.7996 610.09 78.5335 619.914 77.9748C617.022 88.5509 615.439 99.7788 615.253 110.364Z" fill="white"/>
<path d="M725.12 110.35C719.345 109.823 713.491 109.464 707.588 109.446C701.481 109.428 695.325 109.778 689.195 110.35C689.04 108.847 688.641 105.18 688.047 100.262C677.699 98.5238 667.077 98.444 656.251 100.018C654.144 105.14 652.636 108.909 652.082 110.333C646.201 109.774 640.245 109.432 634.235 109.446C628.341 109.459 622.389 109.823 616.459 110.35C635.095 75.487 652.02 38.8677 666.385 2.5498C666.629 2.56754 676.391 3.38347 686.148 3.39234C695.844 3.38791 705.77 2.58085 706.142 2.5498C710.063 38.8943 716.516 75.5181 725.12 110.35ZM683.931 70.4274C683.203 65.8511 682.427 61.3501 681.616 57.2173C681.035 54.2063 680.396 50.9913 679.735 47.701C678.112 50.9913 676.537 54.2063 675.083 57.2173C673.056 61.39 670.958 65.9264 668.887 70.5338C673.845 70.8797 678.857 70.8531 683.926 70.4318L683.931 70.4274Z" fill="white"/>
<path d="M819.441 110.053L819.402 110.342C813.662 109.805 808.3 109.459 802.903 109.45C797.119 109.437 791.3 109.801 784.989 110.355C781.264 94.8477 777.268 83.2429 768.415 66.9952C766.841 81.3494 765.554 95.6991 764.344 110.053L764.304 110.342C758.432 109.792 752.533 109.45 746.581 109.45C740.478 109.45 734.322 109.809 728.148 110.355C735.533 74.4272 740.775 38.4109 743.831 2.4833C755.695 3.54756 766.016 3.52096 778.195 2.41235C781.964 16.0482 787.22 32.3979 794.48 48.7165C796.228 33.3069 797.625 17.8929 798.938 2.4833C810.802 3.54756 822.825 3.52096 835.009 2.41235C827.664 38.2912 822.479 74.1745 819.45 110.058L819.441 110.053Z" fill="white"/>
</g>
<defs>
<clipPath id="clip0_68_59245">
<rect width="835" height="112" fill="white"/>
</clipPath>
</defs>
</svg>
