<svg width="1087" height="164" viewBox="0 0 1087 164" fill="none" xmlns="http://www.w3.org/2000/svg">
<g clip-path="url(#clip0_52_58844)">
<path d="M63.0563 75.0696C58.6483 74.6731 54.278 74.3963 49.87 74.3827C45.1875 74.369 40.4674 74.6356 35.6614 75.0525C35.9222 73.4531 36.8792 68.9251 35.5174 63.0267C34.7318 59.6264 32.3992 54.7396 27.3428 53.4717C27.3428 53.4717 27.336 53.4717 27.3291 53.4683C26.5539 60.2074 25.8712 67.2745 25.2195 75.0115C21.2197 74.6526 17.2027 74.4032 13.1549 74.3861C8.80179 74.3656 4.41436 74.6048 0.00292969 75.0046C5.15875 49.9997 8.80522 25.0015 10.9355 0C23.1029 1.19608 31.864 0.218712 38.7831 0.099104C44.7965 -0.00341739 49.1736 0.225547 53.3175 1.3567C58.3429 2.72707 62.6446 5.78562 65.4163 9.81813C67.725 13.1808 69.0937 17.1518 69.224 21.7243C69.3475 26.0643 68.2567 30.6983 65.8794 35.1512C64.0854 38.5104 61.4268 41.7433 58.1097 44.484C56.3979 45.8988 54.4769 47.0949 52.851 47.9868C55.6707 49.8869 57.5197 52.1595 58.7409 55.2693C61.3857 62.0049 60.1679 69.014 63.0563 75.0661V75.0696ZM46.1686 26.823C46.7827 22.5991 43.4964 19.2603 38.8414 19.1442C35.1469 19.0519 32.9 19.2945 32.1282 19.4005C31.2397 24.7042 30.4473 29.9465 29.7372 34.9359C29.871 34.9495 31.6754 35.0965 36.5945 34.601C41.74 34.0815 45.5409 31.146 46.1549 26.9221L46.1686 26.823Z" fill="white"/>
<path d="M138.75 75.0079C134.723 74.6423 130.641 74.3894 126.524 74.3791C122.267 74.3689 117.972 74.6115 113.698 75.0079C113.592 73.9622 113.311 71.4163 112.899 67.9989C105.685 66.7926 98.2754 66.7379 90.7252 67.828C89.257 71.3889 88.2039 74.0066 87.8162 74.9943C83.7135 74.6081 79.5594 74.3689 75.3709 74.3791C71.2579 74.3894 67.1106 74.6423 62.9736 75.0079C75.9678 50.7821 87.7716 25.3363 97.7917 0.098999C97.9598 0.112669 104.769 0.679953 111.575 0.683371C118.336 0.679953 125.259 0.119503 125.519 0.098999C128.253 25.3534 132.754 50.8026 138.754 75.0045L138.75 75.0079ZM110.028 47.2657C109.52 44.0875 108.978 40.9606 108.412 38.0866C108.007 35.9917 107.561 33.7602 107.102 31.474C105.97 33.7602 104.872 35.9917 103.86 38.0866C102.447 40.9879 100.985 44.1388 99.5412 47.3374C102.999 47.5766 106.495 47.5596 110.031 47.2657H110.028Z" fill="white"/>
<path d="M234.78 0.098999L234.756 0.153677C221.649 24.5777 210.016 49.5724 199.921 75.0011C193.993 74.1228 187.51 74.2083 180.512 75.0045C180.32 71.2864 179.448 56.7284 177.565 48.8206C173.387 56.7215 168.313 71.2659 167.03 74.9977C160.952 74.1946 154.482 74.1092 147.601 75.0114C144.894 49.5792 140.531 24.5811 134.521 0.153677L134.511 0.098999C134.511 0.098999 140.874 0.560345 147.056 0.591102C153.223 0.560345 159.443 0.143425 159.443 0.143425C159.443 0.143425 162.07 17.9001 165.082 31.1185L175.397 0.276703C181.52 0.690206 187.764 0.683371 194.007 0.252781L195.341 30.8315C202.157 17.6438 209.834 0.146842 209.834 0.146842C209.834 0.146842 215.934 0.563763 222.095 0.594519C228.283 0.563763 234.78 0.102416 234.78 0.102416V0.098999Z" fill="white"/>
<path d="M284.914 75.0079C280.887 74.6423 276.805 74.3894 272.688 74.3791C268.431 74.3689 264.137 74.6115 259.862 75.0079C259.756 73.9622 259.475 71.4163 259.063 67.9989C251.849 66.7926 244.439 66.7379 236.889 67.828C235.421 71.3889 234.368 74.0066 233.98 74.9943C229.878 74.6081 225.723 74.3689 221.535 74.3791C217.422 74.3894 213.275 74.6423 209.138 75.0079C222.135 50.7821 233.936 25.3363 243.956 0.102417C244.124 0.116087 250.933 0.683371 257.739 0.686789C264.5 0.683371 271.423 0.122921 271.683 0.102417C274.417 25.3568 278.918 50.8061 284.918 75.0079H284.914ZM256.192 47.2657C255.684 44.0875 255.142 40.9606 254.576 38.0866C254.171 35.9917 253.725 33.7602 253.266 31.474C252.134 33.7602 251.036 35.9917 250.024 38.0866C248.611 40.9879 247.149 44.1388 245.705 47.3374C249.163 47.5766 252.659 47.5596 256.195 47.2657H256.192Z" fill="white"/>
<path d="M321.939 21.8439C318.889 39.5459 316.625 57.2479 315.15 74.95C311.483 74.6287 307.802 74.41 304.097 74.3792C299.408 74.3417 294.681 74.574 289.927 74.9978C293.604 57.2787 296.485 39.5596 298.585 21.8439C290.41 22.1583 284.314 22.6709 284.314 22.6709C284.314 22.6709 285.494 17.2543 286.249 10.963C287.007 4.67156 287.042 0 287.042 0C287.042 0 301.573 0.457929 313.483 0.543363C327.091 0.457929 339.831 0 339.831 0C339.831 0 338.507 4.67497 337.437 10.963C336.367 17.2543 335.969 22.6709 335.969 22.6709C335.969 22.6709 330.024 22.1583 321.942 21.8439H321.939Z" fill="white"/>
<path d="M429.35 50.5259C430.605 58.6525 429.868 65.1113 432.571 75.0046C428.375 74.5057 424.084 74.3861 419.776 74.3758C415.295 74.369 410.795 74.492 406.284 75.0046C406.946 71.0575 407.601 66.3211 406.637 59.9852C405.399 51.8245 401.008 46.8728 395.965 46.4353C394.727 55.9391 393.705 65.4428 392.899 74.95C384.601 74.205 376.193 74.2255 367.672 74.9978C372.831 49.9963 376.478 24.9981 378.608 -0.00341797C386.878 0.765492 395.259 0.785997 403.749 0.0478427C402.109 8.04109 400.624 16.0378 399.293 24.0276C404.065 22.8896 407.529 19.1373 409.519 16.4786C413.824 10.7272 415.46 3.73861 416.321 0.041008C421.072 0.48185 425.906 0.574119 430.749 0.567284C435.236 0.560449 439.73 0.48185 444.248 0.0444253C437.006 9.00479 436.588 13.7071 431.281 21.8097C428.941 25.3775 426.461 29.0101 420.023 33.4493C425.933 36.9453 428.324 43.9031 429.346 50.5294L429.35 50.5259Z" fill="#FAC215"/>
<path d="M483.754 75.0045C475.714 74.6252 467.594 74.3655 459.433 74.3757C451.76 74.3894 444.055 74.6491 436.392 75.0045C441.537 50.0577 445.194 25.0493 447.324 0.102416C462.922 0.830317 478.853 0.8269 494.66 0.0955811C492.526 7.3951 491.15 14.8518 490.619 22.2094C490.135 22.1787 479.528 21.5328 468.668 21.6114L467.663 28.8289C473.515 28.9109 479.425 28.5999 485.398 27.8584C485.398 27.8584 484.444 30.5444 483.415 37.6286C482.386 44.7129 482.499 47.8056 482.499 47.8056C476.777 47.0709 470.994 46.7565 465.155 46.8351L464.033 54.8796C474.853 54.9889 485.041 54.2884 485.765 54.2371C484.386 61.1402 483.71 68.1698 483.754 75.0045Z" fill="#FAC215"/>
<path d="M564.276 0C559.154 24.9332 555.539 49.8664 553.426 74.7996L553.398 74.9978C549.395 74.6253 545.656 74.3861 541.893 74.3792C537.859 74.3724 533.801 74.6219 529.399 75.008C526.803 64.233 524.014 56.168 517.839 44.8804C516.741 54.8558 515.843 64.8277 514.999 74.7996L514.971 74.9978C510.879 74.6151 506.763 74.3792 502.612 74.3792C498.358 74.3792 494.063 74.6321 489.755 75.008C494.904 50.0407 498.561 25.0152 500.691 0.0512607C508.965 0.789415 516.162 0.772328 524.655 0C527.283 9.47639 530.95 20.8392 536.013 32.1746C537.231 21.468 538.209 10.7579 539.121 0.0512607C547.395 0.789415 555.782 0.772328 564.276 0Z" fill="#FAC215"/>
<path d="M627.442 37.5501C627.034 40.3489 626.444 42.6967 625.525 45.2768C623.473 51.0317 619.683 57.1522 615.038 61.6563C611.975 64.626 608.778 67.148 605.498 68.9592C602.936 70.3774 600.274 71.6419 597.348 72.5987C594.209 73.624 591.087 74.2904 588.055 74.6765C584.978 75.0695 582.179 74.9943 579.393 75.0012C573.205 75.0148 567.538 74.2118 561.384 74.8406C560.869 74.8918 560.355 74.9397 559.844 75.0012C559.844 75.0012 559.868 74.8781 559.916 74.6526C559.926 74.6116 559.933 74.5706 559.94 74.5296C560.005 74.2118 560.101 73.7265 560.228 73.0909C562.622 61.2428 564.67 49.3948 566.392 37.5467C568.118 25.6987 569.51 13.8506 570.564 2.00255C570.622 1.37033 570.667 0.885064 570.694 0.56383C570.694 0.522822 570.701 0.481813 570.704 0.440805C570.725 0.215258 570.735 0.0922321 570.735 0.0922321C571.229 0.153745 571.73 0.201588 572.227 0.256266C578.2 0.881647 584.1 0.0819799 590.285 0.0922321C593.07 0.0990668 595.89 0.0238845 598.854 0.416883C601.773 0.803047 604.668 1.51044 607.505 2.53566C610.157 3.49252 612.507 4.77062 614.64 6.2025C617.268 7.96929 619.878 10.505 622.039 13.502C625.257 17.9583 627.453 24.0036 627.758 29.82C627.895 32.407 627.85 34.7479 627.442 37.5433V37.5501ZM604.164 37.5535C604.805 33.1451 603.78 29.1126 601.475 26.2249C599.241 23.4261 595.907 21.6456 591.592 21.9293C591.592 21.9293 590.926 26.0301 589.273 37.5535C587.578 49.0804 587.043 53.2359 587.043 53.2359C591.352 53.5127 595.293 51.7322 598.391 48.7591C601.358 45.909 603.536 41.9175 604.171 37.5535H604.164Z" fill="#FAC215"/>
<path d="M693.36 75.0079C689.332 74.6423 685.25 74.3894 681.134 74.3791C676.877 74.3689 672.582 74.6115 668.308 75.0079C668.201 73.9622 667.92 71.4163 667.508 67.9989C660.294 66.7926 652.885 66.7379 645.335 67.828C643.866 71.3889 642.813 74.0066 642.426 74.9943C638.323 74.6081 634.169 74.3689 629.98 74.3791C625.867 74.3894 621.72 74.6423 617.583 75.0079C630.581 50.7821 642.381 25.3363 652.401 0.102417C652.569 0.116087 659.378 0.683371 666.184 0.686789C672.945 0.683371 679.868 0.122921 680.129 0.102417C682.863 25.3568 687.363 50.8061 693.363 75.0079H693.36ZM664.634 47.2657C664.126 44.0875 663.584 40.9606 663.018 38.0866C662.613 35.9917 662.167 33.7602 661.708 31.474C660.576 33.7602 659.478 35.9917 658.463 38.0866C657.049 40.9879 655.588 44.1388 654.144 47.3374C657.602 47.5766 661.097 47.5596 664.634 47.2657Z" fill="#FAC215"/>
<path d="M758.526 75.0696C754.118 74.6731 749.748 74.3963 745.34 74.3827C740.657 74.369 735.937 74.6356 731.131 75.0525C731.392 73.4531 732.349 68.9251 730.987 63.0267C730.202 59.6264 727.869 54.7396 722.813 53.4717C722.813 53.4717 722.806 53.4717 722.799 53.4683C722.024 60.2074 721.341 67.2745 720.689 75.0115C716.689 74.6526 712.672 74.4032 708.625 74.3861C704.272 74.3656 699.884 74.6048 695.473 75.0046C700.632 50.0031 704.278 25.005 706.409 0.00341797C718.576 1.1995 727.337 0.22213 734.256 0.102522C740.27 5.93252e-07 744.647 0.228965 748.791 1.36012C753.816 2.73049 758.118 5.78904 760.89 9.82155C763.198 13.1842 764.567 17.1552 764.697 21.7277C764.821 26.0678 763.73 30.7017 761.353 35.1546C759.558 38.5139 756.9 41.7467 753.583 44.4874C751.871 45.9022 749.95 47.0983 748.324 47.9902C751.144 49.8903 752.993 52.1629 754.214 55.2727C756.859 62.0083 755.641 69.0174 758.529 75.0696H758.526ZM741.638 26.823C742.252 22.5991 738.966 19.2603 734.311 19.1442C730.617 19.0519 728.37 19.2945 727.598 19.4005C726.709 24.7042 725.917 29.9465 725.207 34.9359C725.341 34.9495 727.145 35.0965 732.064 34.601C737.21 34.0815 741.011 31.146 741.625 26.9221L741.638 26.823Z" fill="#FAC215"/>
<path d="M834.221 75.0079C830.194 74.6423 826.111 74.3894 821.995 74.3791C817.738 74.3689 813.443 74.6115 809.169 75.0079C809.063 73.9622 808.781 71.4163 808.37 67.9989C801.156 66.7926 793.746 66.7379 786.196 67.828C784.728 71.3889 783.675 74.0066 783.287 74.9943C779.184 74.6081 775.03 74.3689 770.842 74.3791C766.729 74.3894 762.581 74.6423 758.444 75.0079C771.442 50.7821 783.242 25.3363 793.262 0.102417C793.431 0.116087 800.24 0.683371 807.046 0.686789C813.807 0.683371 820.729 0.122921 820.99 0.102417C823.724 25.3568 828.225 50.8061 834.224 75.0079H834.221ZM805.495 47.2657C804.987 44.0875 804.445 40.9606 803.879 38.0866C803.475 35.9917 803.029 33.7602 802.569 31.474C801.437 33.7602 800.339 35.9917 799.324 38.0866C797.911 40.9879 796.449 44.1388 795.005 47.3374C798.463 47.5766 801.958 47.5596 805.495 47.2657Z" fill="#FAC215"/>
<path d="M907.907 75.0079C903.88 74.6423 899.798 74.3894 895.682 74.3791C891.425 74.3689 887.13 74.6115 882.855 75.0079C882.749 73.9622 882.468 71.4163 882.056 67.9989C874.842 66.7926 867.433 66.7379 859.882 67.828C858.414 71.3889 857.361 74.0066 856.973 74.9943C852.871 74.6081 848.717 74.3689 844.528 74.3791C840.415 74.3894 836.268 74.6423 832.131 75.0079C845.128 50.7821 856.929 25.3363 866.949 0.102417C867.117 0.116087 873.926 0.683371 880.732 0.686789C887.493 0.683371 894.416 0.122921 894.677 0.102417C897.411 25.3568 901.911 50.8061 907.911 75.0079H907.907ZM879.185 47.2657C878.677 44.0875 878.135 40.9606 877.569 38.0866C877.165 35.9917 876.719 33.7602 876.259 31.474C875.127 33.7602 874.029 35.9917 873.014 38.0866C871.6 40.9879 870.139 44.1388 868.695 47.3374C872.153 47.5766 875.648 47.5596 879.185 47.2657Z" fill="#FAC215"/>
<path d="M984.539 0C979.417 24.9332 975.801 49.8664 973.688 74.7996L973.661 74.9978C969.658 74.6253 965.919 74.3861 962.156 74.3792C958.121 74.3724 954.063 74.6219 949.662 75.008C947.065 64.233 944.276 56.168 938.102 44.8804C937.004 54.8558 936.105 64.8277 935.261 74.7996L935.234 74.9978C931.142 74.6151 927.025 74.3792 922.875 74.3792C918.621 74.3792 914.326 74.6321 910.018 75.008C915.167 50.0407 918.823 25.0152 920.954 0.0512607C929.228 0.789415 936.424 0.772328 944.918 0C947.546 9.47639 951.213 20.8392 956.276 32.1746C957.494 21.468 958.471 10.7579 959.384 0.0512607C967.658 0.789415 976.045 0.772328 984.539 0Z" fill="#FAC215"/>
<path d="M408.888 110.778C405.838 128.48 403.574 146.182 402.099 163.884C398.432 163.562 394.751 163.344 391.046 163.313C386.357 163.275 381.63 163.508 376.876 163.932C380.553 146.212 383.435 128.493 385.534 110.778C377.359 111.092 371.264 111.605 371.264 111.605C371.264 111.605 372.444 106.188 373.198 99.8967C373.957 93.6053 373.991 88.9337 373.991 88.9337C373.991 88.9337 388.522 89.3916 400.432 89.4771C414.04 89.3916 426.78 88.9337 426.78 88.9337C426.78 88.9337 425.456 93.6087 424.386 99.8967C423.316 106.188 422.918 111.605 422.918 111.605C422.918 111.605 416.973 111.092 408.891 110.778H408.888Z" fill="white"/>
<path d="M483.124 163.942C479.097 163.576 475.015 163.323 470.898 163.313C466.641 163.303 462.347 163.545 458.072 163.942C457.966 162.896 457.685 160.35 457.273 156.933C450.059 155.727 442.649 155.672 435.099 156.762C433.631 160.323 432.578 162.941 432.19 163.928C428.088 163.542 423.933 163.303 419.745 163.313C415.632 163.323 411.485 163.576 407.348 163.942C420.345 139.716 432.146 114.27 442.166 89.0364C442.334 89.05 449.143 89.6173 455.949 89.6207C462.71 89.6173 469.633 89.0569 469.893 89.0364C472.627 114.291 477.128 139.74 483.128 163.942H483.124ZM454.398 136.196C453.891 133.018 453.349 129.891 452.783 127.017C452.378 124.922 451.932 122.691 451.472 120.404C450.34 122.691 449.243 124.922 448.231 127.017C446.817 129.918 445.356 133.069 443.912 136.268C447.37 136.507 450.865 136.49 454.402 136.196H454.398Z" fill="white"/>
<path d="M559.751 88.9338C554.629 113.867 551.014 138.8 548.901 163.733L548.873 163.932C544.87 163.559 541.131 163.32 537.364 163.313C533.33 163.306 529.272 163.556 524.871 163.942C522.274 153.167 519.485 145.102 513.311 133.814C512.213 143.79 511.314 153.762 510.471 163.733L510.443 163.932C506.351 163.549 502.234 163.313 498.084 163.313C493.83 163.313 489.535 163.566 485.227 163.942C490.376 138.975 494.032 113.949 496.163 88.9851C504.437 89.7233 511.633 89.7062 520.127 88.9338C522.755 98.4102 526.422 109.773 531.485 121.108C532.703 110.402 533.68 99.6918 534.593 88.9851C542.867 89.7233 551.254 89.7062 559.748 88.9338H559.751Z" fill="white"/>
<path d="M623.648 116.047C623.158 119.417 622.184 122.451 620.451 125.859C618.88 128.941 616.661 131.983 613.206 135.12C610.424 137.645 607.214 139.86 601.547 141.599C596.072 143.28 592.631 143.639 582.762 144.398C582.038 150.727 581.4 157.172 580.834 163.884C576.687 163.515 572.512 163.306 568.307 163.317C564.101 163.327 559.868 163.549 555.607 163.935C560.767 138.934 564.413 113.935 566.543 88.9338C580.447 90.1265 589.661 89.0534 596.936 89.0329C601.543 89.0193 605.238 89.3439 608.613 90.3521C613.501 91.8079 617.549 94.6648 620.297 98.9468C623.024 103.195 624.705 108.775 623.648 116.047ZM601.433 115.753C602.048 111.53 598.761 108.191 594.106 108.075C590.522 107.986 588.34 108.109 587.523 108.17C586.683 113.474 585.959 118.703 585.287 123.887C585.966 123.914 587.904 123.935 591.859 123.535C597.008 123.015 600.806 120.08 601.42 115.856L601.433 115.753Z" fill="white"/>
<path d="M683.09 163.942C679.063 163.576 674.981 163.323 670.864 163.313C666.607 163.303 662.312 163.545 658.038 163.942C657.932 162.896 657.65 160.35 657.239 156.933C650.025 155.727 642.615 155.672 635.065 156.762C633.597 160.323 632.544 162.941 632.156 163.928C628.053 163.542 623.899 163.303 619.711 163.313C615.598 163.323 611.45 163.576 607.313 163.942C620.311 139.716 632.111 114.27 642.132 89.0364C642.3 89.05 649.109 89.6173 655.915 89.6207C662.676 89.6173 669.598 89.0569 669.859 89.0364C672.593 114.291 677.094 139.74 683.093 163.942H683.09ZM654.364 136.196C653.856 133.018 653.314 129.891 652.748 127.017C652.344 124.922 651.898 122.691 651.438 120.404C650.306 122.691 649.208 124.922 648.196 127.017C646.783 129.918 645.322 133.069 643.878 136.268C647.335 136.507 650.831 136.49 654.368 136.196H654.364Z" fill="white"/>
<path d="M788.639 126.484C788.23 129.283 787.64 131.631 786.721 134.211C784.67 139.966 780.879 146.086 776.234 150.59C773.171 153.56 769.974 156.082 766.695 157.893C764.132 159.311 761.47 160.576 758.544 161.533C755.405 162.558 752.284 163.224 749.251 163.61C746.174 164.003 743.378 163.928 740.59 163.935C734.401 163.949 728.731 163.146 722.58 163.774C722.066 163.826 721.551 163.873 721.04 163.935C721.04 163.935 721.064 163.812 721.112 163.586C721.122 163.545 721.129 163.504 721.136 163.463C721.201 163.146 721.297 162.66 721.424 162.025C723.819 150.177 725.867 138.329 727.589 126.481C729.314 114.632 730.707 102.784 731.76 90.9364C731.818 90.3042 731.863 89.8189 731.89 89.4977C731.89 89.4567 731.897 89.4156 731.901 89.3746C731.921 89.1491 731.931 89.0261 731.931 89.0261C732.425 89.0876 732.926 89.1354 733.424 89.1901C739.396 89.8155 745.296 89.0158 751.481 89.0261C754.266 89.0329 757.086 88.9577 760.05 89.3507C762.969 89.7369 765.864 90.4443 768.701 91.4695C771.353 92.4264 773.703 93.7045 775.836 95.1363C778.464 96.9031 781.075 99.4388 783.236 102.436C786.453 106.892 788.649 112.937 788.954 118.754C789.091 121.341 789.047 123.682 788.639 126.477V126.484ZM765.36 126.484C766.002 122.076 764.976 118.043 762.671 115.155C760.438 112.357 757.103 110.576 752.788 110.86C752.788 110.86 752.122 114.961 750.469 126.484C748.774 138.011 748.239 142.166 748.239 142.166C752.548 142.443 756.489 140.663 759.587 137.69C762.554 134.839 764.732 130.848 765.367 126.484H765.36Z" fill="#FAC215"/>
<path d="M850.337 164C845.929 163.604 841.558 163.327 837.15 163.313C832.468 163.299 827.748 163.566 822.942 163.983C823.202 162.384 824.16 157.856 822.798 151.957C822.012 148.557 819.679 143.67 814.623 142.402C814.623 142.402 814.616 142.402 814.609 142.399C813.834 149.138 813.151 156.205 812.5 163.942C808.5 163.583 804.483 163.334 800.435 163.317C796.082 163.296 791.695 163.535 787.283 163.935C792.442 138.934 796.089 113.935 798.219 88.9338C810.387 90.1299 819.148 89.1526 826.067 89.0329C832.08 88.9304 836.457 89.1594 840.601 90.2905C845.627 91.6609 849.928 94.7195 852.7 98.752C855.009 102.115 856.377 106.086 856.508 110.658C856.631 114.998 855.54 119.632 853.163 124.085C851.369 127.444 848.711 130.677 845.393 133.418C843.682 134.833 841.761 136.029 840.135 136.921C842.954 138.821 844.803 141.093 846.025 144.203C848.669 150.939 847.452 157.948 850.34 164H850.337ZM833.452 115.753C834.066 111.53 830.78 108.191 826.125 108.075C822.431 107.982 820.184 108.225 819.412 108.331C818.523 113.635 817.731 118.877 817.021 123.866C817.155 123.88 818.959 124.027 823.878 123.531C829.024 123.012 832.825 120.076 833.439 115.853L833.452 115.753Z" fill="#FAC215"/>
<path d="M926.034 163.942C922.007 163.576 917.925 163.323 913.809 163.313C909.551 163.303 905.257 163.545 900.982 163.942C900.876 162.896 900.595 160.35 900.183 156.933C892.969 155.727 885.56 155.672 878.009 156.762C876.541 160.323 875.488 162.941 875.1 163.928C870.998 163.542 866.844 163.303 862.655 163.313C858.542 163.323 854.395 163.576 850.258 163.942C863.255 139.716 875.056 114.27 885.076 89.0364C885.244 89.05 892.053 89.6173 898.859 89.6207C905.62 89.6173 912.543 89.0569 912.803 89.0364C915.537 114.291 920.038 139.74 926.038 163.942H926.034ZM897.309 136.196C896.801 133.018 896.259 129.891 895.693 127.017C895.288 124.922 894.842 122.691 894.382 120.404C893.25 122.691 892.153 124.922 891.141 127.017C889.728 129.918 888.266 133.069 886.822 136.268C890.28 136.507 893.775 136.49 897.312 136.196H897.309Z" fill="#FAC215"/>
<path d="M1008.09 163.942C1004.08 163.583 1000.04 163.33 995.983 163.313C991.643 163.293 987.266 163.532 982.869 163.932C984.759 154.773 987.513 138.773 988.982 130.407L969.809 155.07L957.789 130.366C956.819 138.735 954.908 154.79 954.133 163.942C950.009 163.573 945.872 163.323 941.694 163.313C937.464 163.306 933.204 163.542 928.916 163.932C934.075 138.93 937.722 113.932 939.852 88.9304C948.123 89.6993 955.954 89.7677 964.444 89.0295L975.082 118.604L994.36 89.0295C1002.63 89.8018 1010.45 89.7198 1018.94 88.9783C1013.81 113.946 1010.19 138.971 1008.08 163.938L1008.09 163.942Z" fill="#FAC215"/>
<path d="M1087 163.942C1082.97 163.576 1078.89 163.323 1074.77 163.313C1070.52 163.303 1066.22 163.545 1061.95 163.942C1061.84 162.896 1061.56 160.35 1061.15 156.933C1053.93 155.727 1046.53 155.672 1038.98 156.762C1037.51 160.323 1036.45 162.941 1036.07 163.928C1031.96 163.542 1027.81 163.303 1023.62 163.313C1019.51 163.323 1015.36 163.576 1011.22 163.942C1024.22 139.716 1036.02 114.27 1046.04 89.0364C1046.21 89.05 1053.02 89.6173 1059.82 89.6207C1066.59 89.6173 1073.51 89.0569 1073.77 89.0364C1076.5 114.291 1081 139.74 1087 163.942H1087ZM1058.27 136.196C1057.77 133.018 1057.22 129.891 1056.66 127.017C1056.25 124.922 1055.81 122.691 1055.35 120.404C1054.22 122.691 1053.12 124.922 1052.11 127.017C1050.69 129.918 1049.23 133.069 1047.79 136.268C1051.25 136.507 1054.74 136.49 1058.28 136.196H1058.27Z" fill="#FAC215"/>
</g>
<defs>
<clipPath id="clip0_52_58844">
<rect width="1087" height="164" fill="white"/>
</clipPath>
</defs>
</svg>
