<svg width="1204" height="175" viewBox="0 0 1204 175" fill="none" xmlns="http://www.w3.org/2000/svg">
<g clip-path="url(#clip0_60_59059)">
<path d="M45.821 54.6411C42.6161 54.3531 39.4396 54.1503 36.2388 54.1422C32.8386 54.1301 29.4059 54.3288 25.9122 54.6289C26.1033 53.4649 26.7988 50.1715 25.8064 45.8804C25.233 43.4063 23.541 39.8533 19.8643 38.9285C19.8643 38.9285 19.8602 38.9285 19.8561 38.9285C19.2949 43.8321 18.7987 48.971 18.3228 54.5965C15.4148 54.3369 12.4986 54.1544 9.55397 54.1422C6.39377 54.126 3.20103 54.3004 -0.00390625 54.5924C3.7501 36.4058 6.39784 18.2191 7.94744 0.036499C16.7895 0.904462 23.1546 0.194679 28.1817 0.109505C32.5498 0.0324431 35.7304 0.202791 38.7441 1.02208C42.3965 2.01984 45.5201 4.24247 47.5333 7.17894C49.2131 9.62465 50.2055 12.5125 50.299 15.8424C50.3885 18.9978 49.5954 22.3683 47.8668 25.609C46.5613 28.0547 44.6294 30.403 42.2216 32.3985C40.977 33.4287 39.582 34.2967 38.4025 34.9457C40.4524 36.3247 41.7945 37.9795 42.6812 40.2427C44.6009 45.1422 43.7183 50.2405 45.817 54.6411H45.821ZM33.5504 19.5454C33.9977 16.4751 31.6062 14.0415 28.2264 13.9604C25.5421 13.8915 23.9071 14.0699 23.3458 14.147C22.6991 18.0041 22.1256 21.8167 21.6091 25.4467C21.7067 25.4548 23.0163 25.5643 26.5914 25.2034C30.3291 24.8262 33.0908 22.6887 33.5382 19.6184L33.5504 19.5454Z" fill="white"/>
<path d="M100.826 54.5965C97.8973 54.3288 94.9323 54.1463 91.9389 54.1422C88.8438 54.1341 85.7242 54.3085 82.6169 54.5965C82.5396 53.834 82.3363 51.9845 82.0353 49.4982C76.7927 48.6181 71.4077 48.5816 65.9211 49.3765C64.8555 51.9642 64.0909 53.8705 63.8062 54.5884C60.8249 54.3085 57.8071 54.1341 54.7608 54.1422C51.7714 54.1503 48.7576 54.3328 45.752 54.5965C55.2041 36.9736 63.7777 18.4665 71.062 0.109497C71.184 0.117609 76.1297 0.531311 81.0754 0.535367C85.9886 0.535367 91.0197 0.125721 91.2068 0.109497C93.1956 18.4787 96.4616 36.9898 100.826 54.5965ZM79.9529 34.4143C79.5828 32.1025 79.1883 29.8271 78.7815 27.7383C78.4846 26.2173 78.1633 24.5909 77.8298 22.928C77.0083 24.5909 76.2111 26.2133 75.4749 27.7383C74.4459 29.8474 73.3844 32.139 72.3351 34.467C74.8486 34.6414 77.3865 34.6293 79.957 34.4143H79.9529Z" fill="white"/>
<path d="M170.603 0.109525L170.586 0.150084C161.061 17.9149 152.609 36.0975 145.272 54.5925C140.965 53.9516 136.251 54.0165 131.171 54.5925C131.029 51.8872 130.399 41.3013 129.032 35.5459C125.994 41.2932 122.309 51.8709 121.378 54.5884C116.961 54.0043 112.259 53.9435 107.256 54.5965C105.288 36.0975 102.119 17.9149 97.7513 0.146028L97.7432 0.105469C97.7432 0.105469 102.368 0.442109 106.858 0.466444C111.34 0.442109 115.858 0.141972 115.858 0.141972C115.858 0.141972 117.77 13.056 119.954 22.6725L127.454 0.239313C131.903 0.53945 136.438 0.535394 140.977 0.22309L141.945 22.4657C146.899 12.8734 152.479 0.141972 152.479 0.141972C152.479 0.141972 156.913 0.446164 161.386 0.466444C165.885 0.442109 170.607 0.109525 170.603 0.105469V0.109525Z" fill="white"/>
<path d="M207.037 54.5965C204.108 54.3288 201.143 54.1463 198.15 54.1422C195.055 54.1341 191.935 54.3085 188.828 54.5965C188.751 53.834 188.547 51.9845 188.246 49.4982C183.004 48.6181 177.619 48.5816 172.132 49.3765C171.066 51.9642 170.302 53.8705 170.017 54.5884C167.036 54.3085 164.018 54.1341 160.972 54.1422C157.982 54.1503 154.969 54.3328 151.963 54.5965C161.407 36.9736 169.985 18.4665 177.265 0.109497C177.387 0.117609 182.333 0.531311 187.278 0.535367C192.191 0.535367 197.222 0.125721 197.41 0.109497C199.398 18.4787 202.664 36.9898 207.028 54.5965H207.037ZM186.164 34.4143C185.794 32.1025 185.399 29.8271 184.992 27.7383C184.696 26.2173 184.374 24.5909 184.041 22.928C183.219 24.5909 182.422 26.2133 181.686 27.7383C180.657 29.8474 179.595 32.139 178.546 34.467C181.06 34.6414 183.597 34.6293 186.168 34.4143H186.164Z" fill="white"/>
<path d="M233.936 15.9235C231.72 28.801 230.077 41.6785 229.003 54.5519C226.339 54.3167 223.667 54.1585 220.97 54.1382C217.562 54.1098 214.129 54.2802 210.672 54.5884C213.344 41.6987 215.439 28.8132 216.964 15.9235C211.026 16.1506 206.593 16.5238 206.593 16.5238C206.593 16.5238 207.451 12.5855 208 8.00637C208.549 3.43132 208.578 0.0324707 208.578 0.0324707C208.578 0.0324707 219.136 0.365055 227.791 0.425893C237.678 0.365055 246.939 0.0324707 246.939 0.0324707C246.939 0.0324707 245.979 3.43132 245.198 8.00637C244.422 12.5814 244.133 16.5238 244.133 16.5238C244.133 16.5238 239.814 16.1506 233.941 15.9235H233.936Z" fill="white"/>
<path d="M311.99 36.7911C312.901 42.7046 312.369 47.4013 314.329 54.5965C311.279 54.2355 308.163 54.1463 305.031 54.1422C301.778 54.1382 298.508 54.2274 295.225 54.5965C295.705 51.7249 296.181 48.2815 295.482 43.6699C294.583 37.7361 291.39 34.1304 287.73 33.8141C286.827 40.7253 286.086 47.6406 285.501 54.5559C279.473 54.0165 273.36 54.0287 267.17 54.5924C270.92 36.4058 273.568 18.2232 275.117 0.036499C281.128 0.596213 287.217 0.608381 293.387 0.0730021C292.195 5.88917 291.113 11.7013 290.15 17.5174C293.619 16.69 296.132 13.9604 297.58 12.0257C300.708 7.84005 301.9 2.75801 302.526 0.0689462C305.979 0.389362 309.489 0.458313 313.011 0.450201C316.273 0.446145 319.539 0.389362 322.821 0.0689462C317.558 6.58678 317.253 10.0059 313.398 15.8991C311.697 18.4949 309.896 21.1394 305.218 24.3638C309.513 26.9068 311.25 31.9686 311.994 36.787L311.99 36.7911Z" fill="white"/>
<path d="M351.523 54.5965C345.678 54.3207 339.777 54.1341 333.851 54.1422C328.275 54.1503 322.674 54.341 317.106 54.5965C320.844 36.4504 323.504 18.2597 325.054 0.113553C336.389 0.644876 347.964 0.64082 359.45 0.109497C357.9 5.41867 356.9 10.8414 356.513 16.1952C356.16 16.1709 348.456 15.7004 340.566 15.7612L339.834 21.0136C344.084 21.0745 348.383 20.8473 352.719 20.3079C352.719 20.3079 352.023 22.2628 351.279 27.4138C350.531 32.5648 350.612 34.8158 350.612 34.8158C346.455 34.2805 342.25 34.0533 338.008 34.1101L337.194 39.9628C345.056 40.0399 352.458 39.5329 352.987 39.4964C351.987 44.5176 351.494 49.6321 351.527 54.6005L351.523 54.5965Z" fill="white"/>
<path d="M402.147 54.4424L402.127 54.5884C399.219 54.3167 396.502 54.1423 393.765 54.1382C390.832 54.1341 387.884 54.3167 384.687 54.5925C382.8 46.7524 380.774 40.8876 376.288 32.6784C375.491 39.9344 374.836 47.1864 374.222 54.4424L374.202 54.5884C371.228 54.3126 368.235 54.1382 365.221 54.1382C362.13 54.1382 359.011 54.3207 355.879 54.5925C359.621 36.4301 362.277 18.2272 363.826 0.0689738C369.837 0.604353 375.068 0.592185 381.242 0.0324707C383.153 6.9275 385.817 15.1894 389.494 23.435C390.381 15.6477 391.089 7.85631 391.751 0.0689738C397.763 0.604353 403.859 0.592185 410.029 0.0324707C406.308 18.1664 403.681 36.3044 402.147 54.4424Z" fill="white"/>
<path d="M455.932 27.349C455.635 29.385 455.204 31.0926 454.537 32.9705C453.048 37.1562 450.291 41.6055 446.919 44.8867C444.694 47.0444 442.372 48.8818 439.989 50.1999C438.126 51.2301 436.194 52.1508 434.067 52.8484C431.789 53.5947 429.52 54.0774 427.315 54.3572C425.078 54.6412 423.045 54.5884 421.019 54.5925C416.525 54.6006 412.405 54.0206 407.931 54.4749C407.557 54.5114 407.183 54.5479 406.812 54.5925C406.812 54.5925 406.833 54.5033 406.865 54.337C406.874 54.3086 406.878 54.2802 406.886 54.2477C406.935 54.0165 407.004 53.6637 407.093 53.2013C408.834 44.5825 410.322 35.9637 411.571 27.3449C412.824 18.7261 413.837 10.1073 414.601 1.48855C414.642 1.03024 414.674 0.677372 414.695 0.44213C414.695 0.413739 414.699 0.385348 414.703 0.3529C414.719 0.190664 414.723 0.101434 414.723 0.101434C415.081 0.146049 415.443 0.182552 415.809 0.219056C420.149 0.673317 424.436 0.0933225 428.93 0.101434C430.955 0.10549 433.001 0.0527635 435.157 0.336677C437.28 0.616534 439.383 1.13163 441.445 1.87792C443.368 2.57148 445.077 3.50028 446.63 4.5467C448.538 5.83242 450.437 7.67786 452.007 9.85588C454.346 13.0965 455.94 17.4931 456.164 21.7275C456.261 23.6094 456.229 25.3129 455.936 27.3449L455.932 27.349ZM439.021 27.353C439.484 24.1448 438.74 21.2124 437.064 19.1114C435.441 17.0754 433.017 15.7775 429.882 15.9884C429.882 15.9884 429.398 18.9695 428.198 27.353C426.965 35.7366 426.575 38.7582 426.575 38.7582C429.707 38.961 432.57 37.6631 434.819 35.5013C436.975 33.4288 438.557 30.5248 439.021 27.353Z" fill="white"/>
<path d="M503.834 54.5965C500.906 54.3288 497.941 54.1463 494.948 54.1422C491.853 54.1341 488.733 54.3085 485.626 54.5965C485.548 53.834 485.345 51.9845 485.044 49.4982C479.801 48.6181 474.417 48.5816 468.93 49.3765C467.864 51.9642 467.1 53.8705 466.815 54.5884C463.834 54.3085 460.816 54.1341 457.77 54.1422C454.78 54.1503 451.766 54.3328 448.761 54.5965C458.205 36.9736 466.782 18.4665 474.063 0.109497C474.185 0.117609 479.13 0.531311 484.076 0.535367C488.989 0.535367 494.02 0.125721 494.207 0.109497C496.196 18.4787 499.462 36.9898 503.826 54.5965H503.834ZM482.958 34.4143C482.587 32.1025 482.193 29.8271 481.786 27.7383C481.489 26.2173 481.168 24.5909 480.835 22.928C480.013 24.5909 479.216 26.2133 478.48 27.7383C477.451 29.8474 476.389 32.139 475.34 34.467C477.853 34.6414 480.391 34.6293 482.962 34.4143H482.958Z" fill="white"/>
<path d="M551.185 54.6411C547.98 54.3531 544.808 54.1503 541.603 54.1422C538.203 54.1301 534.77 54.3288 531.276 54.6289C531.468 53.4649 532.163 50.1715 531.171 45.8804C530.597 43.4063 528.905 39.8533 525.229 38.9285C525.229 38.9285 525.224 38.9285 525.22 38.9285C524.659 43.8321 524.163 48.971 523.687 54.5965C520.779 54.3369 517.863 54.1544 514.918 54.1422C511.758 54.126 508.565 54.3004 505.36 54.5924C509.11 36.4058 511.758 18.2232 513.308 0.036499C522.15 0.904462 528.515 0.194679 533.542 0.109505C537.91 0.0324431 541.091 0.202791 544.104 1.02208C547.757 2.01984 550.88 4.24247 552.894 7.17894C554.573 9.62465 555.566 12.5125 555.659 15.8424C555.749 18.9978 554.956 22.3683 553.227 25.609C551.921 28.0547 549.99 30.403 547.582 32.3985C546.337 33.4287 544.942 34.2967 543.763 34.9457C545.813 36.3247 547.155 37.9795 548.041 40.2427C549.961 45.1422 549.079 50.2405 551.177 54.6411H551.185ZM538.915 19.5454C539.362 16.4751 536.97 14.0415 533.591 13.9604C530.906 13.8915 529.271 14.0699 528.71 14.147C528.067 18.0041 527.49 21.8167 526.973 25.4467C527.071 25.4548 528.381 25.5643 531.956 25.2034C535.693 24.8262 538.455 22.6887 538.902 19.6184L538.915 19.5454Z" fill="white"/>
<path d="M606.189 54.5965C603.261 54.3288 600.296 54.1463 597.302 54.1422C594.207 54.1341 591.088 54.3085 587.98 54.5965C587.903 53.834 587.7 51.9845 587.399 49.4982C582.156 48.6181 576.771 48.5816 571.284 49.3765C570.219 51.9642 569.454 53.8705 569.169 54.5884C566.188 54.3085 563.17 54.1341 560.124 54.1422C557.135 54.1503 554.121 54.3328 551.115 54.5965C560.559 36.9736 569.137 18.4665 576.417 0.109497C576.539 0.117609 581.485 0.531311 586.431 0.535367C591.344 0.535367 596.375 0.125721 596.562 0.109497C598.551 18.4787 601.817 36.9898 606.181 54.5965H606.189ZM585.316 34.4143C584.946 32.1025 584.552 29.8271 584.145 27.7383C583.848 26.2173 583.527 24.5909 583.193 22.928C582.372 24.5909 581.574 26.2133 580.838 27.7383C579.809 29.8474 578.748 32.139 577.698 34.467C580.212 34.6414 582.75 34.6293 585.32 34.4143H585.316Z" fill="white"/>
<path d="M659.734 54.5965C656.805 54.3288 653.84 54.1463 650.847 54.1422C647.752 54.1341 644.632 54.3085 641.525 54.5965C641.448 53.834 641.244 51.9845 640.943 49.4982C635.701 48.6181 630.316 48.5816 624.829 49.3765C623.764 51.9642 622.999 53.8705 622.714 54.5884C619.733 54.3085 616.715 54.1341 613.669 54.1422C610.68 54.1503 607.666 54.3328 604.66 54.5965C614.104 36.9736 622.682 18.4665 629.962 0.109497C630.084 0.117609 635.03 0.531311 639.975 0.535367C644.889 0.535367 649.92 0.125721 650.107 0.109497C652.096 18.4787 655.362 36.9898 659.726 54.5965H659.734ZM638.861 34.4143C638.491 32.1025 638.096 29.8271 637.69 27.7383C637.393 26.2173 637.072 24.5909 636.738 22.928C635.916 24.5909 635.119 26.2133 634.383 27.7383C633.354 29.8474 632.293 32.139 631.243 34.467C633.757 34.6414 636.295 34.6293 638.865 34.4143H638.861Z" fill="white"/>
<path d="M707.536 54.4424L707.515 54.5884C704.607 54.3167 701.891 54.1423 699.153 54.1382C696.221 54.1341 693.272 54.3167 690.075 54.5925C688.188 46.7524 686.163 40.8876 681.677 32.6784C680.88 39.9344 680.225 47.1864 679.611 54.4424L679.59 54.5884C676.617 54.3126 673.628 54.1382 670.61 54.1382C667.519 54.1382 664.399 54.3207 661.268 54.5925C665.009 36.4301 667.665 18.2272 669.215 0.0689738C675.226 0.604353 680.457 0.592185 686.631 0.0324707C688.542 6.9275 691.206 15.1894 694.883 23.435C695.77 15.6477 696.477 7.85631 697.14 0.0689738C703.151 0.604353 709.244 0.592185 715.418 0.0324707C711.697 18.1664 709.069 36.3044 707.536 54.4424Z" fill="white"/>
<path d="M787.248 27.349C786.951 29.385 786.52 31.0926 785.853 32.9705C784.365 37.1562 781.607 41.6055 778.235 44.8867C776.011 47.0444 773.688 48.8818 771.305 50.1999C769.442 51.2301 767.51 52.1508 765.383 52.8484C763.105 53.5947 760.836 54.0774 758.632 54.3572C756.395 54.6412 754.361 54.5884 752.336 54.5925C747.841 54.6006 743.721 54.0206 739.247 54.4749C738.873 54.5114 738.499 54.5479 738.129 54.5925C738.129 54.5925 738.149 54.5033 738.182 54.337C738.19 54.3086 738.194 54.2802 738.202 54.2477C738.251 54.0165 738.32 53.6637 738.41 53.2013C740.15 44.5825 741.639 35.9637 742.888 27.3449C744.14 18.7261 745.153 10.1073 745.918 1.48855C745.958 1.03024 745.991 0.677372 746.011 0.44213C746.011 0.413739 746.015 0.385348 746.019 0.3529C746.036 0.190664 746.04 0.101434 746.04 0.101434C746.398 0.146049 746.759 0.182552 747.126 0.219056C751.465 0.673317 755.752 0.0933225 760.246 0.101434C762.272 0.10549 764.318 0.0527635 766.473 0.336677C768.596 0.616534 770.699 1.13163 772.761 1.87792C774.685 2.57148 776.393 3.50028 777.947 4.5467C779.854 5.83242 781.754 7.67786 783.323 9.85588C785.662 13.0965 787.256 17.4931 787.48 21.7275C787.578 23.6094 787.545 25.3129 787.252 27.3449L787.248 27.349ZM770.333 27.353C770.801 24.1448 770.052 21.2124 768.377 19.1114C766.754 17.0754 764.334 15.7775 761.194 15.9884C761.194 15.9884 760.71 18.9695 759.51 27.353C758.278 35.7366 757.887 38.7582 757.887 38.7582C761.019 38.961 763.882 37.6631 766.131 35.5013C768.287 33.4288 769.869 30.5248 770.333 27.353Z" fill="white"/>
<path d="M835.148 54.5965C832.22 54.3288 829.255 54.1463 826.261 54.1422C823.166 54.1341 820.046 54.3085 816.939 54.5965C816.862 53.834 816.659 51.9845 816.358 49.4982C811.115 48.6181 805.73 48.5816 800.243 49.3765C799.178 51.9642 798.413 53.8705 798.128 54.5884C795.147 54.3085 792.129 54.1341 789.083 54.1422C786.094 54.1503 783.08 54.3328 780.074 54.5965C789.518 36.9736 798.096 18.4665 805.376 0.109497C805.498 0.117609 810.444 0.531311 815.39 0.535367C820.303 0.535367 825.334 0.125721 825.521 0.109497C827.51 18.4787 830.776 36.9898 835.14 54.5965H835.148ZM814.275 34.4143C813.905 32.1025 813.511 29.8271 813.104 27.7383C812.807 26.2173 812.486 24.5909 812.152 22.928C811.331 24.5909 810.533 26.2133 809.797 27.7383C808.768 29.8474 807.707 32.139 806.657 34.467C809.171 34.6414 811.709 34.6293 814.279 34.4143H814.275Z" fill="white"/>
<path d="M882.501 54.6411C879.296 54.3531 876.119 54.1503 872.918 54.1422C869.518 54.1301 866.086 54.3288 862.592 54.6289C862.783 53.4649 863.479 50.1715 862.486 45.8804C861.913 43.4063 860.221 39.8533 856.544 38.9285C856.544 38.9285 856.54 38.9285 856.536 38.9285C855.975 43.8321 855.478 48.971 855.003 54.5965C852.094 54.3369 849.178 54.1544 846.234 54.1422C843.073 54.126 839.881 54.3004 836.676 54.5924C840.426 36.4058 843.073 18.2232 844.623 0.036499C853.465 0.904462 859.83 0.194679 864.857 0.109505C869.225 0.0324431 872.406 0.202791 875.42 1.02208C879.072 2.01984 882.196 4.24247 884.209 7.17894C885.889 9.62465 886.881 12.5125 886.975 15.8424C887.064 18.9978 886.271 22.3683 884.543 25.609C883.237 28.0547 881.305 30.403 878.897 32.3985C877.653 33.4287 876.258 34.2967 875.078 34.9457C877.128 36.3247 878.47 37.9795 879.357 40.2427C881.277 45.1422 880.394 50.2405 882.493 54.6411H882.501ZM870.23 19.5454C870.677 16.4751 868.286 14.0415 864.906 13.9604C862.222 13.8915 860.587 14.0699 860.026 14.147C859.379 18.0041 858.805 21.8167 858.289 25.4467C858.386 25.4548 859.696 25.5643 863.271 25.2034C867.009 24.8262 869.771 22.6887 870.218 19.6184L870.23 19.5454Z" fill="white"/>
<path d="M903.788 54.5965C900.779 54.3247 897.757 54.1422 894.707 54.1422C891.656 54.1422 888.581 54.3166 885.49 54.5965C889.236 36.4098 891.888 18.2272 893.438 0.0405273C899.437 0.600242 905.521 0.61241 911.679 0.0770305C907.953 18.2394 905.322 36.4382 903.788 54.5965Z" fill="white"/>
<path d="M980.04 54.6411C976.835 54.3531 973.662 54.1503 970.458 54.1422C967.057 54.1301 963.625 54.3288 960.131 54.6289C960.322 53.4649 961.018 50.1715 960.025 45.8804C959.452 43.4063 957.76 39.8533 954.083 38.9285C954.083 38.9285 954.079 38.9285 954.075 38.9285C953.514 43.8321 953.017 48.971 952.542 54.5965C949.634 54.3369 946.717 54.1544 943.773 54.1422C940.613 54.126 937.42 54.3004 934.215 54.5924C937.965 36.4058 940.613 18.2232 942.162 0.036499C951.004 0.904462 957.369 0.194679 962.396 0.109505C966.765 0.0324431 969.945 0.202791 972.959 1.02208C976.611 2.01984 979.735 4.24247 981.748 7.17894C983.428 9.62465 984.42 12.5125 984.514 15.8424C984.603 18.9978 983.81 22.3683 982.081 25.609C980.776 28.0547 978.844 30.403 976.436 32.3985C975.192 33.4287 973.797 34.2967 972.617 34.9457C974.667 36.3247 976.009 37.9795 976.896 40.2427C978.816 45.1422 977.933 50.2405 980.032 54.6411H980.04ZM967.769 19.5454C968.216 16.4751 965.825 14.0415 962.445 13.9604C959.761 13.8915 958.126 14.0699 957.565 14.147C956.922 18.0041 956.344 21.8167 955.828 25.4467C955.926 25.4548 957.235 25.5643 960.81 25.2034C964.548 24.8262 967.309 22.6887 967.757 19.6184L967.769 19.5454Z" fill="white"/>
<path d="M1036.68 0.0365031C1034.77 9.28801 1033.15 18.5395 1031.82 27.791C1030.83 34.6252 1030.16 39.1232 1028.16 43.4306C1027.06 45.8155 1025.52 48.322 1023.15 50.3621C1021.28 51.9804 1018.81 53.3513 1015.65 54.1585C1011.04 55.3347 1008.2 55.3306 1005.57 55.3306C1002.93 55.3306 1000.08 55.3347 995.821 54.1585C992.897 53.3513 990.827 51.9804 989.419 50.3621C987.646 48.322 986.833 45.8155 986.422 43.4306C985.678 39.1273 986.316 34.6252 987.309 27.791C988.663 18.5395 989.729 9.28801 990.501 0.0365031C996.724 0.575938 1004.63 0.56377 1010.05 0C1010.05 0 1007.9 8.2781 1005.66 20.1741C1003.55 31.3724 1002.43 35.7731 1003.97 38.2553C1004.8 39.6018 1006.05 39.9466 1007.8 39.9466C1009.56 39.9466 1010.91 39.6018 1012.13 38.2553C1014.38 35.7731 1014.55 31.3724 1015.69 20.1741C1016.9 8.2781 1017.16 0 1017.16 0C1022.42 0.56377 1030.31 0.575938 1036.7 0.0365031H1036.68Z" fill="white"/>
<path d="M1090.98 54.5965C1088.06 54.3369 1085.13 54.1544 1082.18 54.1423C1079.03 54.126 1075.85 54.3004 1072.65 54.5925C1074.03 47.9327 1076.03 36.2922 1077.09 30.2043L1063.16 48.1436L1054.43 30.1719C1053.72 36.2598 1052.33 47.9367 1051.77 54.5925C1048.78 54.3248 1045.77 54.1423 1042.73 54.1382C1039.66 54.1341 1036.56 54.3045 1033.45 54.5884C1037.2 36.4017 1039.84 18.2191 1041.39 0.0324707C1047.41 0.592185 1053.1 0.640856 1059.27 0.105477L1066.99 21.618L1081 0.109533C1087.02 0.669247 1092.7 0.612465 1098.86 0.0730297C1095.14 18.2354 1092.51 36.4382 1090.97 54.5965H1090.98Z" fill="white"/>
<path d="M1148.32 54.5965C1145.39 54.3288 1142.42 54.1463 1139.43 54.1422C1136.34 54.1341 1133.22 54.3085 1130.11 54.5965C1130.03 53.834 1129.83 51.9845 1129.53 49.4982C1124.29 48.6181 1118.9 48.5816 1113.42 49.3765C1112.35 51.9642 1111.59 53.8705 1111.3 54.5884C1108.32 54.3085 1105.3 54.1341 1102.25 54.1422C1099.27 54.1503 1096.25 54.3328 1093.25 54.5965C1102.69 36.9736 1111.27 18.4665 1118.55 0.109497C1118.67 0.117609 1123.62 0.531311 1128.56 0.535367C1133.47 0.535367 1138.51 0.125721 1138.69 0.109497C1140.68 18.4787 1143.95 36.9898 1148.31 54.5965H1148.32ZM1127.44 34.4143C1127.07 32.1025 1126.68 29.8271 1126.27 27.7383C1125.97 26.2173 1125.65 24.5909 1125.32 22.928C1124.5 24.5909 1123.7 26.2133 1122.97 27.7383C1121.94 29.8474 1120.87 32.139 1119.83 34.467C1122.34 34.6414 1124.88 34.6293 1127.45 34.4143H1127.44Z" fill="white"/>
<path d="M1196.12 54.4424L1196.1 54.5884C1193.18 54.3167 1190.25 54.1423 1187.3 54.1382C1184.14 54.1342 1180.97 54.3167 1177.77 54.5925C1179.06 48.3626 1180.22 42.0922 1181.24 35.8664H1170.15C1169.37 42.0598 1168.72 48.2491 1168.19 54.4384L1168.17 54.5844C1165.11 54.2964 1162.03 54.1261 1158.92 54.1342C1155.91 54.1423 1152.89 54.3248 1149.85 54.5884C1153.59 36.4261 1156.25 18.2232 1157.8 0.0649455C1163.81 0.600325 1169.9 0.588157 1176.07 0.0284424C1174.78 6.32726 1173.63 12.6301 1172.6 18.933H1183.72C1184.51 12.6423 1185.19 6.35565 1185.73 0.0649455C1191.74 0.600325 1197.83 0.588157 1204 0.0284424C1200.28 18.1624 1197.66 36.3004 1196.12 54.4384L1196.12 54.4424Z" fill="white"/>
<path d="M126.164 141.454C127.815 152.153 126.847 160.65 130.398 173.678C124.883 173.025 119.238 172.863 113.572 172.85C107.679 172.838 101.761 173.004 95.831 173.678C96.7014 168.482 97.5636 162.248 96.2988 153.909C94.6678 143.169 88.8965 136.647 82.267 136.071C80.636 148.58 79.2939 161.088 78.2364 173.601C67.3241 172.623 56.2655 172.648 45.0645 173.666C51.8485 140.756 56.6437 107.85 59.446 74.9449C70.3217 75.9589 81.3397 75.9833 92.5041 75.0098C90.3485 85.5309 88.3922 96.0559 86.6433 106.577C92.9189 105.08 97.4701 100.14 100.089 96.64C105.751 89.0676 107.902 79.8688 109.037 75.0017C115.284 75.5817 121.641 75.7034 128.011 75.6953C133.912 75.6872 139.822 75.5817 145.76 75.0058C136.238 86.8003 135.689 92.9856 128.71 103.653C125.635 108.349 122.373 113.131 113.906 118.972C121.674 123.575 124.822 132.733 126.164 141.454Z" fill="#FDC30F"/>
<path d="M182.82 75.0179C176.08 107.879 171.313 140.813 168.54 173.678C163.09 173.187 157.623 172.858 152.104 172.85C146.585 172.846 141.021 173.163 135.429 173.674C142.209 140.764 147.004 107.859 149.81 74.949C160.67 75.9629 171.675 75.9873 182.824 75.0139L182.82 75.0179Z" fill="#FDC30F"/>
<path d="M260.992 173.402L260.955 173.666C255.692 173.175 250.775 172.863 245.825 172.85C240.521 172.838 235.185 173.171 229.398 173.678C225.981 159.494 222.317 148.88 214.199 134.019C212.755 147.148 211.575 160.273 210.461 173.402L210.424 173.666C205.039 173.163 199.63 172.85 194.172 172.85C188.575 172.85 182.93 173.179 177.269 173.678C184.04 140.817 188.848 107.875 191.65 75.0139C202.53 75.9873 211.994 75.9629 223.163 74.949C226.62 87.4209 231.439 102.379 238.097 117.301C239.7 103.206 240.981 89.1081 242.185 75.0139C253.065 75.9873 264.091 75.9629 275.263 74.949C268.528 107.765 263.773 140.586 260.996 173.406L260.992 173.402Z" fill="#FDC30F"/>
<path d="M302.916 173.678C297.466 173.187 291.999 172.858 286.48 172.85C280.961 172.846 275.397 173.163 269.801 173.674C276.581 140.764 281.376 107.859 284.182 74.949C295.042 75.9629 306.048 75.9873 317.196 75.0139C310.456 107.875 305.69 140.809 302.916 173.674V173.678Z" fill="#FDC30F"/>
<path d="M421.157 124.468C419.387 136.664 418.224 145.193 414.995 152.985C412.994 157.815 410.68 161.319 406.132 165.367C402.81 168.324 398.905 170.879 393.195 172.315C385.837 174.169 380.375 173.629 374.213 173.077C368.487 172.562 362.296 172.36 354.931 173.597C357.786 163.453 359.311 153.078 359.433 142.926C368.906 145.124 374.412 146.154 377.731 146.154C381.05 146.154 383.348 145.538 385.552 143.137C389.616 138.708 389.319 131.934 391.796 111.939C392.109 109.4 392.707 105.328 393.256 102.768C384.633 102.367 373.123 103.677 373.123 103.677C375.702 94.1496 377.097 84.4398 377.276 74.9166C394.545 75.9873 412.302 75.9792 429.881 74.8922C425.134 91.9229 423.365 107.315 421.161 124.463L421.157 124.468Z" fill="#FDC30F"/>
<path d="M512.843 173.678C507.548 173.195 502.179 172.862 496.766 172.85C491.165 172.834 485.52 173.154 479.899 173.678C479.757 172.303 479.391 168.949 478.846 164.451C469.357 162.861 459.616 162.788 449.688 164.227C447.756 168.912 446.373 172.36 445.865 173.661C440.472 173.15 435.01 172.838 429.499 172.85C424.093 172.862 418.635 173.195 413.197 173.678C430.288 141.79 445.808 108.297 458.982 75.0787C459.205 75.095 468.157 75.8412 477.105 75.8494C485.996 75.8453 495.098 75.1071 495.44 75.0787C499.035 108.321 504.953 141.819 512.843 173.678ZM475.067 137.158C474.4 132.973 473.688 128.856 472.944 125.076C472.411 122.318 471.826 119.381 471.22 116.372C469.731 119.381 468.287 122.322 466.953 125.076C465.095 128.892 463.171 133.042 461.271 137.256C465.818 137.572 470.414 137.548 475.063 137.162L475.067 137.158Z" fill="#FDC30F"/>
<path d="M604.709 124.374C604.176 128.057 603.395 131.148 602.187 134.542C599.491 142.119 594.508 150.17 588.399 156.104C584.373 160.013 580.167 163.331 575.856 165.716C572.489 167.582 568.987 169.249 565.139 170.51C561.015 171.861 556.907 172.737 552.917 173.244C548.87 173.759 545.194 173.666 541.525 173.67C533.391 173.686 525.931 172.631 517.842 173.459C517.163 173.528 516.492 173.593 515.816 173.67C515.816 173.67 515.849 173.507 515.91 173.211C515.922 173.159 515.93 173.106 515.943 173.049C516.028 172.631 516.154 171.99 516.321 171.159C519.469 155.564 522.165 139.969 524.423 124.374C526.692 108.779 528.522 93.1843 529.905 77.5894C529.982 76.7579 530.039 76.1211 530.076 75.6993C530.076 75.6466 530.084 75.5939 530.088 75.5371C530.117 75.241 530.129 75.0788 530.129 75.0788C530.78 75.1599 531.434 75.2248 532.093 75.2937C539.947 76.1171 547.707 75.0666 555.837 75.0788C559.502 75.0869 563.207 74.9895 567.104 75.5046C570.943 76.0157 574.75 76.9445 578.48 78.2951C581.965 79.5524 585.052 81.2356 587.862 83.1216C591.316 85.4457 594.748 88.7877 597.595 92.7301C601.825 98.5949 604.713 106.553 605.115 114.21C605.294 117.613 605.238 120.695 604.701 124.378L604.709 124.374ZM574.099 124.374C574.941 118.57 573.591 113.265 570.561 109.461C567.624 105.778 563.24 103.43 557.562 103.807C557.562 103.807 556.688 109.201 554.512 124.374C552.283 139.547 551.579 145.015 551.579 145.015C557.245 145.38 562.426 143.035 566.498 139.121C570.402 135.37 573.261 130.117 574.099 124.374Z" fill="#FDC30F"/>
<path d="M636.038 173.678C630.588 173.187 625.122 172.858 619.602 172.85C614.083 172.846 608.519 173.163 602.923 173.674C609.703 140.764 614.498 107.859 617.304 74.949C628.164 75.9629 639.17 75.9873 650.318 75.0139C643.578 107.875 638.812 140.809 636.038 173.674V173.678Z" fill="#FDC30F"/>
<path d="M796.236 173.678C790.961 173.203 785.662 172.875 780.317 172.85C774.611 172.822 768.856 173.138 763.073 173.666C765.558 161.611 769.182 140.549 771.113 129.537L745.901 162.001L730.096 129.485C728.819 140.5 726.305 161.636 725.288 173.678C719.867 173.191 714.425 172.863 708.934 172.85C703.375 172.838 697.77 173.15 692.133 173.666C698.917 140.756 703.712 107.85 706.514 74.9449C717.39 75.9589 727.688 76.0482 738.853 75.0747L752.84 114.003L778.19 75.0747C789.066 76.0887 799.348 75.9833 810.512 75.0098C803.773 107.871 799.01 140.813 796.236 173.678Z" fill="#FDC30F"/>
<path d="M902.537 74.9449C899.076 91.6877 896.144 108.426 893.732 125.169C891.934 137.536 890.726 145.68 887.119 153.467C885.122 157.783 882.332 162.321 878.049 166.012C874.657 168.936 870.187 171.423 864.472 172.879C856.135 175.008 850.986 175 846.223 175C841.46 175 836.307 175.008 828.588 172.879C823.3 171.423 819.546 168.936 817.004 166.012C813.795 162.321 812.323 157.783 811.579 153.467C810.233 145.68 811.388 137.536 813.181 125.169C815.634 108.426 817.558 91.6877 818.961 74.9449C830.223 75.9264 844.523 75.9021 854.337 74.88C854.337 74.88 850.445 89.8625 846.386 111.391C842.563 131.655 840.549 139.62 843.319 144.11C844.824 146.548 847.089 147.172 850.258 147.172C853.426 147.172 855.874 146.548 858.087 144.11C862.162 139.62 862.463 131.655 864.525 111.391C866.718 89.8666 867.181 74.88 867.181 74.88C876.702 75.9021 890.995 75.9264 902.541 74.9449H902.537Z" fill="#FDC30F"/>
<path d="M984.75 124.374C984.217 128.057 983.436 131.148 982.228 134.542C979.532 142.119 974.549 150.17 968.44 156.104C964.414 160.013 960.208 163.331 955.897 165.716C952.53 167.582 949.028 169.249 945.18 170.51C941.056 171.861 936.948 172.737 932.958 173.244C928.912 173.759 925.235 173.666 921.566 173.67C913.432 173.686 905.977 172.631 897.883 173.459C897.204 173.528 896.533 173.593 895.857 173.67C895.857 173.67 895.89 173.507 895.951 173.211C895.963 173.159 895.971 173.106 895.984 173.049C896.069 172.631 896.195 171.99 896.362 171.159C899.51 155.564 902.206 139.969 904.464 124.374C906.733 108.779 908.563 93.1843 909.946 77.5894C910.023 76.7579 910.08 76.1211 910.117 75.6993C910.117 75.6466 910.125 75.5939 910.129 75.5371C910.158 75.241 910.17 75.0788 910.17 75.0788C910.821 75.1599 911.475 75.2248 912.134 75.2937C919.988 76.1171 927.748 75.0666 935.879 75.0788C939.543 75.0869 943.248 74.9895 947.145 75.5046C950.984 76.0157 954.791 76.9445 958.521 78.2951C962.006 79.5524 965.093 81.2356 967.904 83.1216C971.357 85.4457 974.789 88.7877 977.636 92.7301C981.87 98.5949 984.754 106.553 985.157 114.21C985.335 117.613 985.279 120.695 984.742 124.378L984.75 124.374ZM954.14 124.374C954.982 118.57 953.632 113.265 950.602 109.461C947.665 105.778 943.281 103.43 937.603 103.807C937.603 103.807 936.729 109.201 934.553 124.374C932.324 139.547 931.62 145.015 931.62 145.015C937.286 145.38 942.467 143.035 946.539 139.121C950.443 135.37 953.302 130.117 954.14 124.374Z" fill="#FDC30F"/>
<path d="M1071.43 173.678C1066.14 173.195 1060.77 172.862 1055.35 172.85C1049.75 172.834 1044.11 173.154 1038.49 173.678C1038.34 172.303 1037.98 168.949 1037.43 164.451C1027.94 162.861 1018.2 162.788 1008.28 164.227C1006.34 168.912 1004.96 172.36 1004.45 173.661C999.06 173.15 993.597 172.838 988.086 172.85C982.681 172.862 977.223 173.195 971.785 173.678C988.875 141.79 1004.4 108.297 1017.57 75.0787C1017.79 75.095 1026.74 75.8412 1035.69 75.8494C1044.58 75.8453 1053.69 75.1071 1054.03 75.0787C1057.62 108.321 1063.54 141.819 1071.43 173.678ZM1033.66 137.158C1032.99 132.973 1032.28 128.856 1031.54 125.076C1031 122.318 1030.42 119.381 1029.81 116.372C1028.32 119.381 1026.88 122.322 1025.55 125.076C1023.69 128.892 1021.76 133.042 1019.86 137.256C1024.41 137.572 1029.01 137.548 1033.66 137.162L1033.66 137.158Z" fill="#FDC30F"/>
<path d="M1157.93 173.402L1157.89 173.666C1152.61 173.171 1147.31 172.863 1141.96 172.85C1136.26 172.842 1130.51 173.171 1124.73 173.678C1127.06 162.406 1129.16 151.062 1131.01 139.791H1110.93C1109.53 150.993 1108.34 162.2 1107.39 173.402L1107.35 173.666C1101.81 173.146 1096.23 172.834 1090.61 172.85C1085.18 172.867 1079.7 173.195 1074.2 173.678C1080.97 140.817 1085.78 107.875 1088.58 75.0139C1099.46 75.9873 1110.49 75.9629 1121.66 74.949C1119.32 86.3501 1117.22 97.7553 1115.36 109.156H1135.48C1136.93 97.7756 1138.14 86.3947 1139.12 75.0139C1150 75.9873 1161.02 75.9629 1172.19 74.949C1165.45 107.765 1160.7 140.586 1157.93 173.406V173.402Z" fill="#FDC30F"/>
</g>
<defs>
<clipPath id="clip0_60_59059">
<rect width="1204" height="175" fill="white"/>
</clipPath>
</defs>
</svg>
