<svg width="1013" height="365" viewBox="0 0 1013 365" fill="none" xmlns="http://www.w3.org/2000/svg">
<g clip-path="url(#clip0_60_59145)">
<path d="M539.773 14.6923C539.961 14.6923 540.149 14.6923 540.337 14.6956C548.128 14.8178 555.587 16.8133 562.329 20.4905C569.388 24.3395 575.958 29.0905 582.733 33.4648C584.007 34.2874 585.238 35.1861 586.528 36.0781C588.479 32.4802 590.205 29.064 592.135 25.7701C596.102 18.9906 601.735 15.0127 609.698 15.0127C609.976 15.0127 610.263 15.0193 610.55 15.0293C622.886 15.4555 634.822 17.4873 645.901 23.573C648.9 18.941 653.012 16.7373 657.85 16.7373C659.259 16.7373 660.725 16.9257 662.249 17.2924C671.341 19.4928 680.311 22.1722 687.924 28.02C689.188 28.988 690.544 29.8371 691.957 30.8052C692.425 29.2094 692.755 27.9011 693.191 26.6357C695.346 20.4079 699.973 16.8398 706.405 16.8398C706.679 16.8398 706.956 16.8464 707.236 16.8596C714.886 17.2131 721.592 20.3022 727.796 24.6633C737.531 31.5089 747.316 38.2884 757.088 45.091C764.173 50.0237 766.255 55.7691 763.995 64.0849C760.368 77.4159 756.649 90.7206 753.194 104.095C750.026 116.355 747.154 128.695 744.105 141.203C744.597 140.962 744.867 140.87 745.095 140.718C753.164 135.25 761.804 132.871 770.783 132.871C774.911 132.871 779.113 133.373 783.363 134.308C795.458 136.971 806.272 142.789 816.575 149.533C819.76 151.617 822.839 153.861 826.106 156.127C826.717 154.419 827.195 152.876 827.812 151.393C830.017 146.09 833.644 142.347 839.488 141.322C840.429 141.157 841.366 141.081 842.293 141.081C845.092 141.081 847.834 141.745 850.573 142.538C864.542 146.585 877.238 153.101 888.828 161.876C892.706 164.813 896.804 167.453 900.966 170.34C901.17 169.719 901.319 169.342 901.421 168.949C902.956 163.125 904.299 157.244 906.048 151.485C908.671 142.832 914.163 138.405 922.057 138.405C923.575 138.405 925.178 138.567 926.865 138.894C938.089 141.075 948.223 145.915 957.625 152.261C967.549 158.958 977.297 165.92 987.115 172.775C987.986 173.383 988.834 174.027 989.669 174.685C998.061 181.286 1000.03 188.105 996.943 198.354C989.705 222.363 982.264 246.319 975.535 270.47C969.241 293.052 963.77 315.865 957.889 338.563C957.523 339.977 956.919 341.414 956.1 342.62C953.15 346.968 949.015 348.616 944.408 348.616C943.329 348.616 942.23 348.527 941.111 348.359C929.521 346.631 918.459 343.409 909.011 335.943C905.295 333.005 901.259 330.471 897.362 327.759C896.098 326.88 894.821 326.018 893.323 324.997C892.722 328.628 892.151 331.971 891.616 335.322C890.26 343.816 884.983 348.669 877.145 348.669C876.334 348.669 875.492 348.616 874.628 348.51C872.113 348.203 869.667 347.387 867.173 346.865C856.955 344.721 847.676 340.565 839.491 334.03C838.95 333.597 838.333 333.257 838.039 333.065C834.178 335.692 830.673 338.506 826.802 340.644C815.839 346.7 804.289 349.102 792.405 349.102C787.422 349.102 782.38 348.679 777.298 347.926C763.582 345.887 751.312 340.254 740.105 332.18C737.832 330.541 735.505 328.978 732.947 327.197C732.947 329.332 732.974 331.076 732.944 332.82C732.763 342.785 727.06 348.474 717.097 348.593C716.074 348.606 715.044 348.613 714.018 348.613C712.21 348.613 710.401 348.59 708.596 348.517C701.072 348.216 693.709 346.928 687.36 342.666C676.948 335.675 666.704 328.436 656.504 321.138C654.544 319.737 652.969 317.699 651.498 315.743C650.943 315.003 650.524 314.656 649.848 314.656C649.636 314.656 649.402 314.692 649.131 314.755C646.722 315.333 644.29 315.816 641.845 316.202C640.29 316.45 639.396 317.19 638.753 318.647C635.687 325.578 632.637 332.523 629.36 339.355C626.585 345.141 621.906 348.243 616.101 348.243C614.906 348.243 613.665 348.111 612.385 347.846C605.332 346.383 598.719 343.561 592.683 339.679C585.479 335.044 578.529 330.009 571.467 325.146C569.563 323.834 567.662 322.522 565.596 321.098C563.022 326.88 560.537 332.434 558.075 337.998C554.692 345.643 548.907 349.802 540.73 349.802C540.456 349.802 540.182 349.796 539.898 349.789C535.337 349.634 530.763 348.801 526.275 347.873C521.503 346.885 516.682 345.801 512.161 344.047C508.125 342.484 504.326 340.168 500.673 337.793C494.875 334.02 489.284 329.923 483.384 325.806C481.334 330.316 479.457 334.661 477.401 338.919C474.678 344.566 470.599 348.649 464.141 349.756C462.91 349.964 461.666 350.119 460.428 350.301H460.002C459.818 350.202 459.646 350.043 459.451 350.007C452.587 348.679 445.683 347.546 438.875 345.983C433.648 344.784 428.503 343.247 423.988 340.036C414.461 333.26 404.894 326.537 395.215 319.982C389.812 316.321 386.753 311.369 385.681 305.038C385.361 303.152 384.958 301.275 384.744 299.376C383.123 285.076 381.117 270.807 380.051 256.465C378.605 237.022 377.797 217.529 376.906 198.046C376.506 189.334 376.54 180.602 376.434 171.876C376.338 164.185 375.398 156.408 378.76 148.872C369.342 148.105 361.339 144.385 353.957 138.861C347.208 133.813 340.156 129.174 333.232 124.36C332.747 124.023 332.219 123.746 331.609 123.376C331.42 124.04 331.259 124.506 331.156 124.982C330.025 130.321 329.001 135.686 327.751 140.995C326.355 146.916 322.108 150.831 316.626 150.831C316.369 150.831 316.111 150.824 315.847 150.804C309.085 150.355 302.472 148.578 296.799 144.821C286.348 137.896 276.193 130.522 265.887 123.376C260.373 119.553 258.244 114.244 258.963 107.722C259.515 102.72 260.392 97.7512 260.844 92.7425C261.102 89.9144 262.296 87.1987 261.221 84.1822C255.214 67.2995 249.337 50.3673 243.466 33.4383C240.661 25.3571 244.209 18.5776 252.541 16.777C256.366 15.9477 260.415 15.9609 264.366 15.9279H264.603C269.58 15.9279 274.203 17.3122 278.302 20.3187C281.272 22.4993 284.338 24.5444 287.361 26.6489C289.72 28.2909 292.077 29.9329 294.614 31.7038C296.443 28.3669 298.195 25.3009 299.819 22.1689C302.29 17.4014 306.66 14.7319 311.788 14.7319C312.55 14.7319 313.329 14.7914 314.121 14.9103C318.167 15.5215 321.596 17.4312 324.873 19.724C328.002 21.9112 331.137 24.0884 334.202 26.226C334.476 26.1104 334.628 26.084 334.73 25.9981C335.004 25.7734 335.255 25.5223 335.513 25.2811C341.987 19.2714 349.68 16.0336 358.356 16.0336C358.656 16.0336 358.957 16.0336 359.26 16.0435C369.421 16.3045 378.873 19.397 387.377 25.1126C389.539 26.5663 391.664 28.0861 393.868 29.6224C394.103 28.9418 394.271 28.4759 394.423 28.0068C396.584 21.2702 401.244 17.6327 407.392 17.6327C408.897 17.6327 410.488 17.8507 412.158 18.2935C418.329 19.9322 423.893 22.7999 429.051 26.5234C430.978 27.9176 432.955 29.2391 435.103 30.7292C435.331 29.6752 435.512 28.9418 435.648 28.1984C437.017 20.5632 441.858 16.4598 449.568 16.4598H449.657C454.91 16.4796 459.755 18.2307 464.118 20.8804C471.371 25.2844 478.41 30.0552 485.466 34.7797C490.634 38.2388 495.686 41.8665 500.917 45.5073C501.481 44.4963 501.963 43.6505 502.429 42.7982C506.369 35.5858 511.223 29.0905 517.325 23.5466C523.724 17.7351 531.179 14.6923 539.769 14.6923" fill="white"/>
<path d="M539.773 14.6923C539.961 14.6923 540.149 14.6923 540.337 14.6956C548.128 14.8178 555.587 16.8133 562.329 20.4905C569.388 24.3395 575.958 29.0905 582.733 33.4648C584.007 34.2874 585.238 35.1861 586.528 36.0781C588.479 32.4802 590.205 29.064 592.135 25.7701C596.102 18.9906 601.735 15.0127 609.698 15.0127C609.976 15.0127 610.263 15.0193 610.55 15.0293C622.886 15.4555 634.822 17.4873 645.901 23.573C648.9 18.941 653.012 16.7373 657.85 16.7373C659.259 16.7373 660.725 16.9257 662.249 17.2924C671.341 19.4928 680.311 22.1722 687.924 28.02C689.188 28.988 690.544 29.8371 691.957 30.8052C692.425 29.2094 692.755 27.9011 693.191 26.6357C695.346 20.4079 699.973 16.8398 706.405 16.8398C706.679 16.8398 706.956 16.8464 707.236 16.8596C714.886 17.2131 721.592 20.3022 727.796 24.6633C737.531 31.5089 747.316 38.2884 757.088 45.091C764.173 50.0237 766.255 55.7691 763.995 64.0849C760.368 77.4159 756.649 90.7206 753.194 104.095C750.026 116.355 747.154 128.695 744.105 141.203C744.597 140.962 744.867 140.87 745.095 140.718C753.164 135.25 761.804 132.871 770.783 132.871C774.912 132.871 779.113 133.373 783.363 134.308C795.458 136.971 806.272 142.789 816.575 149.532C819.76 151.617 822.839 153.861 826.106 156.127C826.717 154.419 827.195 152.876 827.812 151.393C830.017 146.09 833.644 142.347 839.488 141.322C840.429 141.157 841.366 141.081 842.293 141.081C845.092 141.081 847.834 141.745 850.573 142.538C864.542 146.585 877.238 153.101 888.828 161.876C892.706 164.813 896.804 167.453 900.966 170.34C901.17 169.719 901.319 169.342 901.421 168.949C902.956 163.125 904.299 157.244 906.048 151.485C908.671 142.832 914.163 138.405 922.057 138.405C923.575 138.405 925.178 138.567 926.865 138.894C938.089 141.075 948.223 145.915 957.625 152.261C967.549 158.958 977.297 165.92 987.115 172.775C987.986 173.383 988.834 174.027 989.669 174.685C998.061 181.286 1000.03 188.105 996.943 198.354C989.705 222.363 982.264 246.319 975.535 270.47C969.241 293.052 963.77 315.865 957.889 338.563C957.523 339.977 956.919 341.414 956.1 342.62C953.15 346.968 949.015 348.616 944.408 348.616C943.329 348.616 942.23 348.527 941.111 348.359C929.521 346.631 918.459 343.409 909.011 335.943C905.295 333.005 901.259 330.471 897.362 327.759C896.098 326.88 894.821 326.018 893.323 324.997C892.722 328.628 892.151 331.971 891.616 335.321C890.26 343.816 884.983 348.669 877.145 348.669C876.334 348.669 875.492 348.616 874.628 348.51C872.113 348.203 869.667 347.387 867.173 346.865C856.955 344.721 847.676 340.565 839.491 334.03C838.95 333.597 838.333 333.257 838.039 333.065C834.178 335.692 830.673 338.506 826.802 340.644C815.839 346.7 804.289 349.102 792.405 349.102C787.422 349.102 782.38 348.679 777.298 347.926C763.582 345.887 751.312 340.254 740.105 332.18C737.832 330.541 735.505 328.978 732.947 327.197C732.947 329.332 732.974 331.076 732.944 332.82C732.763 342.785 727.06 348.474 717.097 348.593C716.074 348.606 715.044 348.613 714.018 348.613C712.21 348.613 710.401 348.59 708.596 348.517C701.072 348.216 693.709 346.928 687.36 342.666C676.948 335.675 666.704 328.436 656.504 321.138C654.544 319.737 652.969 317.699 651.498 315.743C650.943 315.003 650.524 314.656 649.848 314.656C649.636 314.656 649.402 314.692 649.131 314.755C646.722 315.333 644.29 315.816 641.845 316.202C640.29 316.45 639.396 317.19 638.753 318.647C635.687 325.578 632.637 332.523 629.36 339.356C626.585 345.141 621.906 348.243 616.101 348.243C614.906 348.243 613.665 348.111 612.385 347.846C605.332 346.383 598.719 343.561 592.683 339.679C585.479 335.044 578.529 330.009 571.467 325.146C569.563 323.834 567.662 322.522 565.596 321.098C563.022 326.88 560.537 332.434 558.075 337.998C554.692 345.643 548.907 349.802 540.73 349.802C540.456 349.802 540.182 349.796 539.898 349.789C535.337 349.634 530.763 348.801 526.275 347.873C521.503 346.885 516.682 345.801 512.161 344.047C508.125 342.484 504.326 340.168 500.673 337.793C494.875 334.02 489.284 329.923 483.384 325.806C481.334 330.316 479.457 334.661 477.401 338.919C474.678 344.566 470.599 348.649 464.141 349.756C462.91 349.964 461.666 350.119 460.428 350.301H460.002C459.818 350.202 459.646 350.043 459.451 350.007C452.587 348.679 445.683 347.546 438.875 345.983C433.648 344.784 428.503 343.247 423.988 340.036C414.461 333.26 404.894 326.537 395.215 319.982C389.812 316.321 386.753 311.369 385.681 305.038C385.361 303.152 384.958 301.275 384.744 299.376C383.123 285.076 381.117 270.807 380.051 256.465C378.605 237.022 377.797 217.529 376.906 198.046C376.506 189.334 376.539 180.602 376.434 171.876C376.338 164.185 375.398 156.408 378.76 148.872C369.342 148.105 361.339 144.385 353.957 138.861C347.208 133.813 340.156 129.174 333.232 124.36C332.747 124.023 332.219 123.746 331.609 123.376C331.42 124.04 331.259 124.506 331.156 124.982C330.025 130.321 329.001 135.686 327.751 140.995C326.355 146.916 322.108 150.831 316.626 150.831C316.369 150.831 316.111 150.824 315.847 150.804C309.085 150.355 302.472 148.578 296.799 144.821C286.348 137.896 276.193 130.522 265.887 123.376C260.373 119.553 258.244 114.244 258.963 107.722C259.515 102.72 260.392 97.7512 260.844 92.7425C261.102 89.9144 262.296 87.1987 261.221 84.1822C255.214 67.2995 249.337 50.3673 243.466 33.4383C240.661 25.3571 244.209 18.5776 252.541 16.777C256.366 15.9477 260.415 15.9609 264.366 15.9279H264.603C269.58 15.9279 274.203 17.3122 278.302 20.3187C281.272 22.4993 284.338 24.5444 287.361 26.6489C289.72 28.2909 292.077 29.9329 294.614 31.7038C296.443 28.3669 298.195 25.3009 299.819 22.1689C302.29 17.4014 306.66 14.7319 311.788 14.7319C312.55 14.7319 313.329 14.7914 314.121 14.9103C318.167 15.5215 321.596 17.4312 324.873 19.724C328.002 21.9112 331.137 24.0884 334.202 26.226C334.476 26.1104 334.628 26.084 334.73 25.9981C335.004 25.7734 335.255 25.5223 335.513 25.2811C341.987 19.2714 349.68 16.0336 358.356 16.0336C358.656 16.0336 358.957 16.0336 359.26 16.0435C369.421 16.3045 378.873 19.397 387.377 25.1126C389.539 26.5663 391.664 28.0861 393.868 29.6224C394.103 28.9418 394.271 28.4759 394.423 28.0068C396.584 21.2702 401.244 17.6327 407.392 17.6327C408.897 17.6327 410.488 17.8507 412.158 18.2935C418.329 19.9322 423.893 22.7999 429.051 26.5234C430.978 27.9176 432.955 29.2391 435.103 30.7292C435.331 29.6752 435.512 28.9418 435.648 28.1984C437.017 20.5632 441.858 16.4598 449.568 16.4598H449.657C454.91 16.4796 459.755 18.2307 464.118 20.8804C471.371 25.2844 478.41 30.0552 485.466 34.7797C490.634 38.2388 495.686 41.8665 500.917 45.5073C501.481 44.4963 501.963 43.6505 502.429 42.7982C506.369 35.5858 511.223 29.0905 517.325 23.5466C523.724 17.7351 531.179 14.6923 539.769 14.6923" stroke="#080206" stroke-width="2"/>
<path d="M454.602 149.754C446.131 149.754 437.904 147.236 429.961 142.356C425.449 139.588 421.228 136.334 417.862 133.991C413.919 137.625 410.203 141.048 406.49 144.464C407.055 144.613 407.853 144.824 408.652 145.029C414.925 146.625 420.984 148.763 426.39 152.407C431.033 155.532 435.574 158.796 440.165 161.998C445.144 165.47 450.131 168.936 455.276 172.514C456.262 170.842 457.134 169.319 458.048 167.823C461.651 161.925 466.681 158.446 473.591 158.446C473.892 158.446 474.195 158.453 474.502 158.466C476.888 158.568 479.297 158.965 481.627 159.503C492.379 161.985 502.678 165.526 511.635 172.303C515.925 175.547 520.436 178.491 524.977 181.662C530.802 169.679 536.511 157.928 542.2 146.215C539.917 144.801 537.339 143.351 534.914 141.676C526.169 135.646 517.516 129.481 508.744 123.491C504.028 120.267 499.56 116.861 496.666 111.779C496.629 111.717 496.428 111.75 496.273 111.733C493.557 119.431 490.432 126.944 485.841 133.747C482.135 139.238 477.72 144.098 471.413 146.506C465.717 148.68 460.107 149.747 454.599 149.747" fill="white"/>
<path d="M454.602 149.754C446.131 149.754 437.904 147.236 429.961 142.356C425.449 139.588 421.228 136.334 417.862 133.991C413.919 137.625 410.203 141.048 406.49 144.464C407.055 144.613 407.853 144.824 408.652 145.029C414.925 146.625 420.984 148.763 426.39 152.407C431.033 155.532 435.574 158.796 440.165 161.998C445.144 165.47 450.131 168.936 455.276 172.514C456.262 170.842 457.134 169.319 458.048 167.823C461.651 161.925 466.681 158.446 473.591 158.446C473.892 158.446 474.195 158.453 474.502 158.466C476.888 158.568 479.297 158.965 481.627 159.503C492.379 161.985 502.678 165.526 511.635 172.303C515.925 175.547 520.436 178.491 524.977 181.662C530.802 169.679 536.511 157.928 542.2 146.215C539.917 144.801 537.339 143.351 534.914 141.676C526.169 135.646 517.516 129.481 508.744 123.491C504.028 120.267 499.56 116.861 496.666 111.779C496.629 111.717 496.428 111.75 496.273 111.733C493.557 119.431 490.432 126.944 485.841 133.747C482.135 139.238 477.72 144.098 471.413 146.506C465.717 148.68 460.107 149.747 454.599 149.747" stroke="#080206" stroke-width="2"/>
<path d="M610.321 149.456C609.72 149.456 609.107 149.417 608.48 149.338C602.975 148.63 598.107 146.199 593.491 143.235C591.887 142.204 591.072 141.696 590.296 141.696C589.451 141.696 588.656 142.307 586.927 143.523C584.188 145.449 581.204 147.018 578.297 148.763C587.755 155.347 597.309 161.995 606.935 168.698C609.826 163.392 612.469 158.231 615.4 153.236C619.459 146.298 624.924 140.949 632.976 138.838C633.904 138.593 634.844 138.395 636.148 138.088C632.778 135.742 629.722 133.608 626.406 131.298C625.977 132.177 625.657 132.798 625.366 133.433C623.987 136.456 622.716 139.535 621.221 142.502C618.971 146.972 615.07 149.456 610.318 149.456" fill="white"/>
<path d="M610.321 149.456C609.72 149.456 609.107 149.417 608.48 149.338C602.975 148.63 598.107 146.199 593.491 143.235C591.887 142.204 591.072 141.696 590.296 141.696C589.451 141.696 588.656 142.307 586.927 143.523C584.188 145.449 581.204 147.018 578.297 148.763C587.755 155.347 597.309 161.995 606.935 168.698C609.826 163.392 612.469 158.231 615.4 153.236C619.459 146.298 624.924 140.949 632.976 138.838C633.904 138.593 634.844 138.395 636.148 138.088C632.778 135.742 629.722 133.608 626.406 131.298C625.977 132.177 625.657 132.798 625.366 133.433C623.987 136.456 622.716 139.535 621.221 142.502C618.971 146.972 615.07 149.456 610.318 149.456" stroke="#080206" stroke-width="2"/>
<path d="M717.206 164.02C722.555 158.955 727.637 154.145 732.894 149.169C721.466 148.647 711.361 144.596 702.471 136.677C701.718 142.191 699.669 146.262 694.963 148.554C702.817 154.016 710.48 159.345 717.206 164.02Z" fill="white"/>
<path d="M717.206 164.02C722.555 158.955 727.637 154.145 732.894 149.169C721.466 148.647 711.361 144.596 702.471 136.677C701.718 142.191 699.669 146.262 694.963 148.554C702.817 154.016 710.48 159.345 717.206 164.02Z" stroke="#080206" stroke-width="2"/>
<path d="M998.53 163.389C997.322 162.441 996.299 161.678 995.315 160.99C992.484 159.011 989.652 157.026 986.824 155.037C979.93 150.19 972.802 145.181 965.641 140.351C953.658 132.267 941.867 127.179 929.594 124.797C927.016 124.294 924.479 124.04 922.053 124.04C908.018 124.04 896.999 132.537 892.474 146.8C880.713 138.693 867.981 132.627 854.556 128.738C851.104 127.74 846.949 126.716 842.289 126.716C840.497 126.716 838.722 126.868 837.003 127.169C830.831 128.256 825.479 131.114 821.265 135.475C812.133 129.713 800.352 123.336 786.439 120.277C781.092 119.101 775.825 118.503 770.776 118.503C768.578 118.503 766.41 118.615 764.272 118.836C765.189 115.106 766.116 111.406 767.077 107.683C769.598 97.9164 772.324 87.9751 774.957 78.3609C775.918 74.8588 776.878 71.3534 777.832 67.8513C781.693 53.648 777.35 41.7013 765.272 33.2963L758.559 28.628C751.164 23.4839 743.514 18.1679 736.033 12.9082C726.717 6.35997 717.509 2.9603 707.893 2.51098C707.388 2.48785 706.893 2.47464 706.398 2.47464C698.55 2.47464 691.693 5.32256 686.627 10.4402C679.746 7.06039 672.559 5.012 665.615 3.33364C662.992 2.696 660.378 2.37552 657.847 2.37552C652.435 2.37552 647.432 3.80279 643.092 6.51195C633.769 2.98674 623.344 1.10354 611.041 0.677341C610.586 0.660822 610.137 0.654214 609.692 0.654214C598.253 0.654214 588.416 5.91065 581.657 15.5414C577.69 12.9148 573.582 10.2783 569.179 7.87975C560.289 3.03299 550.656 0.495629 540.551 0.340348C540.287 0.337044 540.023 0.33374 539.766 0.33374C527.667 0.33374 516.873 4.56598 507.682 12.9115C503.709 16.5193 500.049 20.5897 496.729 25.0796C495.633 24.3296 494.538 23.583 493.432 22.8462L491.125 21.3C484.812 17.0711 478.288 12.6968 471.552 8.6099C464.497 4.3248 457.148 2.13765 449.712 2.10461H449.564C441.409 2.10461 434.469 4.88976 429.463 9.85545C425.044 7.46676 420.533 5.66947 415.827 4.42061C412.979 3.66403 410.141 3.28078 407.389 3.28078C400.62 3.28078 394.505 5.60339 389.693 9.75303C380.367 4.67501 370.279 1.96915 359.62 1.69493C359.194 1.68171 358.771 1.67841 358.349 1.67841C349.624 1.67841 341.33 4.02745 333.928 8.54712C333.644 8.34889 333.364 8.15396 333.083 7.95573C329.097 5.16398 323.576 1.82378 316.259 0.716987C314.768 0.492325 313.263 0.379994 311.785 0.379994C303.049 0.379994 295.211 4.27524 289.981 11.0217C288.885 10.2618 287.819 9.50855 286.783 8.74535C280.302 3.9878 272.837 1.57599 264.603 1.57599H264.25L263.59 1.5826C259.359 1.61894 254.567 1.65528 249.512 2.74886C241.506 4.48008 235.077 9.03279 231.411 15.5678C229.401 19.1492 228.355 23.1403 228.223 27.3031C227.361 26.7051 226.5 26.1005 225.639 25.5025C220.269 21.7692 214.719 17.9136 209.333 14.0844C202.614 9.30701 196.106 5.95029 189.443 3.81931C187.381 3.16184 184.962 2.40856 182.338 1.81387C179.817 1.2423 177.309 0.951561 174.88 0.951561C165.342 0.951561 157.161 5.39194 151.974 12.9974C144.786 7.79385 136.49 4.13317 126.616 1.81387C124.035 1.20596 121.477 0.898699 119.016 0.898699C112.679 0.898699 106.931 2.91075 102.215 6.6441C102.178 6.63089 102.142 6.61767 102.103 6.60446C92.3276 3.19157 83.4834 1.34142 75.0648 0.944953C73.6061 0.878876 71.867 0.806192 70.0387 0.806192C66.1248 0.806192 62.8511 1.12336 59.7391 1.80396C52.8254 3.31712 43.2386 7.91939 36.8364 21.2504L36.4635 22.0269C28.5993 38.4041 20.4613 55.3396 12.7654 72.2124C8.75909 80.9941 5.44248 89.9376 2.39319 98.3459C-2.72857 112.447 1.81897 126.3 14.2604 134.5C19.1115 137.698 23.8175 141.018 28.7973 144.534C33.3581 147.752 38.0772 151.082 42.8789 154.28C47.235 157.181 52.1918 159.695 57.6105 161.753C61.3859 163.187 65.1447 163.914 68.7913 163.914C77.5927 163.914 85.1928 159.831 90.4103 152.496C91.2848 153.134 92.1395 153.775 92.9744 154.426C101.271 160.858 111.135 164.122 122.286 164.122C122.672 164.122 123.061 164.119 123.451 164.112C125.659 164.069 130.622 163.974 136.018 161.674C139.734 163.101 143.664 163.835 147.693 163.835C149.822 163.835 152.007 163.633 154.181 163.23C156.218 162.854 158.26 162.49 160.303 162.124C167.983 160.752 175.906 159.332 183.82 157.333C189.456 161.575 196.192 163.808 203.37 163.808C205.066 163.808 206.812 163.683 208.554 163.438C210.395 163.177 212.032 162.814 213.478 162.494C214.092 162.358 214.709 162.219 215.322 162.1C218.058 161.568 220.797 161.053 223.536 160.538C229.609 159.398 235.889 158.218 242.133 156.844C252.528 154.551 259.716 147.448 261.989 138.194C264.002 139.604 266.015 141.009 268.025 142.423C274.787 147.187 281.78 152.113 288.875 156.814C296.234 161.687 304.986 164.492 314.887 165.153C315.471 165.193 316.045 165.209 316.619 165.209C327.747 165.209 337.192 158.056 340.898 147.131C342.403 148.204 343.888 149.285 345.363 150.385C350.802 154.452 356.303 157.538 361.966 159.685C361.824 162.837 361.913 165.817 361.996 168.54C362.032 169.719 362.068 170.899 362.085 172.071C362.108 174.186 362.128 176.304 362.144 178.421C362.2 185.032 362.256 191.871 362.57 198.72L362.877 205.421C363.649 222.482 364.448 240.128 365.745 257.545C366.523 268.045 367.791 278.508 369.018 288.631C369.52 292.758 370.021 296.884 370.487 301.014C370.691 302.825 370.995 304.477 371.262 305.937C371.355 306.446 371.447 306.955 371.536 307.467C373.272 317.692 378.681 326.14 387.175 331.895C395.442 337.495 404.234 343.624 415.682 351.761C422.358 356.509 429.532 358.591 435.667 359.998C440.65 361.141 445.614 362.053 450.409 362.938C451.785 363.193 453.158 363.444 454.531 363.705L456.29 364.68H461.457L462.487 364.531L463.566 364.379C464.56 364.24 465.556 364.101 466.546 363.933C473.44 362.753 482.766 358.898 489.159 347.404C490.38 348.23 491.607 349.049 492.845 349.855C497.056 352.594 501.682 355.412 506.969 357.461C512.589 359.638 518.374 360.923 523.354 361.954C528.344 362.988 533.743 363.969 539.403 364.161C539.845 364.174 540.28 364.184 540.713 364.184C554.352 364.184 565.454 356.767 571.173 343.832C571.328 343.485 571.48 343.138 571.635 342.792C575.938 345.795 580.364 348.857 584.911 351.781C592.614 356.737 600.874 360.15 609.457 361.931C611.682 362.393 613.912 362.628 616.084 362.628C627.37 362.628 637.158 356.261 642.277 345.597C644.306 341.361 646.257 337.079 648.148 332.84C657.368 339.435 668.285 347.176 679.353 354.609C689.472 361.405 700.553 362.585 708.008 362.882C709.84 362.955 711.8 362.991 714.001 362.991C715.087 362.991 716.166 362.985 717.248 362.971C728.142 362.839 736.911 358.211 742.098 350.529C752.738 356.565 763.823 360.464 775.182 362.149C781.138 363.034 786.93 363.484 792.392 363.484C807.503 363.484 821.406 360.034 833.716 353.238C835.254 352.389 836.689 351.497 838.062 350.589C845.943 355.472 854.701 358.944 864.215 360.94C864.931 361.088 865.638 361.277 866.347 361.455C868.139 361.911 870.37 362.479 872.875 362.783C874.307 362.958 875.739 363.044 877.132 363.044C888.088 363.044 897.058 357.665 902.031 348.692C914.902 358.092 929.185 361.118 938.986 362.582C940.827 362.856 942.646 362.995 944.395 362.995C954.212 362.995 962.582 358.63 967.957 350.704C969.644 348.216 970.96 345.273 971.759 342.19C973.729 334.591 975.676 326.88 977.561 319.423C981.31 304.589 985.184 289.246 989.335 274.346C994.54 255.662 1000.29 236.711 1005.86 218.385C1007.46 213.099 1009.06 207.809 1010.66 202.52C1015.51 186.44 1011.54 173.644 998.516 163.405M245.014 81.3839C245.73 83.4125 246.446 85.451 247.165 87.4729C247.155 87.5192 247.145 87.5687 247.139 87.6117C246.941 88.6491 246.7 89.9343 246.561 91.4574C246.34 93.9022 245.99 96.4297 245.617 99.0992C244.974 98.6532 244.344 98.1939 243.664 97.7776C242.753 97.2226 241.816 96.5982 240.852 95.9275C242.364 90.6942 243.733 85.9069 245.014 81.3839ZM239.057 142.812C230.282 144.749 221.418 146.278 212.597 147.996C210.584 148.389 208.594 148.928 206.564 149.212C205.485 149.364 204.426 149.443 203.379 149.443C199.231 149.443 195.37 148.211 191.968 145.475C189.694 143.645 187.565 142.611 184.902 142.611C183.879 142.611 182.774 142.766 181.549 143.083C171.712 145.657 161.61 147.25 151.591 149.096C150.268 149.341 148.971 149.463 147.7 149.463C143.248 149.463 139.107 147.95 135.321 144.755C132.021 148.723 127.847 149.651 123.18 149.741C122.883 149.747 122.586 149.747 122.296 149.747C114.725 149.747 107.914 147.824 101.766 143.057C96.4561 138.94 90.7634 135.316 84.9387 131.266C84.0147 133.311 83.15 135.21 82.2953 137.11C81.8003 138.21 81.2987 139.304 80.8202 140.411C78.223 146.374 74.088 149.542 68.7979 149.542C66.9102 149.542 64.8741 149.139 62.7092 148.317C58.5808 146.747 54.5051 144.755 50.8321 142.31C41.1628 135.874 31.8565 128.887 22.1542 122.497C14.9699 117.763 13.135 110.801 15.8807 103.246C18.9498 94.7943 22.0948 86.343 25.8239 78.1693C33.5792 61.1643 41.6776 44.3147 49.7695 27.465C52.4657 21.8517 56.4885 17.2098 62.8082 15.8255C65.1447 15.3134 67.59 15.1581 70.0387 15.1581C71.4974 15.1581 72.956 15.2143 74.3982 15.2804C82.2953 15.6471 89.9483 17.5567 97.3768 20.1503C100.396 21.2042 103.116 23.1105 106.079 24.6832C106.139 24.584 106.327 24.3065 106.469 24.0059C109.204 18.2208 113.442 15.244 119.016 15.244C120.375 15.244 121.817 15.4191 123.335 15.776C130.625 17.4907 137.493 20.2097 143.621 24.66C147.862 27.7392 152.215 30.6697 156.518 33.663C157.257 34.1784 158.003 34.6839 158.957 35.3414C159.815 32.1565 160.544 29.2193 161.396 26.3186C163.494 19.1756 168.336 15.2936 174.88 15.2936C176.239 15.2936 177.668 15.4621 179.163 15.7991C181.16 16.2517 183.127 16.8563 185.08 17.4807C190.865 19.3309 196.08 22.2581 201.023 25.7734C209.917 32.097 218.92 38.2653 227.853 44.5294C230.43 46.3333 232.83 48.3255 234.344 50.9025C234.833 52.3034 235.315 53.691 235.803 55.0885C235.843 55.3661 235.909 55.6271 235.935 55.9145C236.126 58.3263 235.819 60.8934 235.176 63.2358C231.803 75.5295 228.289 87.7835 224.721 100.021C224.286 101.521 224.758 102.168 225.886 102.925C229.355 105.258 232.648 107.871 236.212 110.038C242.241 113.706 245.403 119.282 247.35 125.775C247.677 126.861 248.007 127.952 248.201 129.065C249.406 136.02 246.116 141.243 239.057 142.803" fill="white"/>
<path d="M998.53 163.389C997.322 162.441 996.299 161.677 995.315 160.99C992.484 159.011 989.652 157.026 986.824 155.037C979.93 150.19 972.802 145.181 965.641 140.351C953.658 132.267 941.867 127.179 929.594 124.797C927.016 124.294 924.479 124.04 922.053 124.04C908.018 124.04 896.999 132.537 892.474 146.8C880.713 138.693 867.981 132.627 854.556 128.738C851.104 127.74 846.949 126.716 842.289 126.716C840.498 126.716 838.722 126.868 837.003 127.169C830.832 128.256 825.479 131.114 821.265 135.475C812.133 129.713 800.352 123.336 786.439 120.277C781.092 119.101 775.825 118.503 770.776 118.503C768.578 118.503 766.41 118.615 764.272 118.836C765.189 115.106 766.116 111.406 767.077 107.683C769.598 97.9164 772.324 87.9751 774.957 78.3609C775.918 74.8588 776.878 71.3534 777.832 67.8513C781.693 53.648 777.35 41.7013 765.272 33.2963L758.559 28.628C751.164 23.4839 743.514 18.168 736.033 12.9082C726.717 6.35997 717.509 2.96031 707.893 2.51098C707.388 2.48785 706.893 2.47464 706.398 2.47464C698.55 2.47464 691.693 5.32256 686.627 10.4402C679.746 7.06039 672.559 5.012 665.615 3.33364C662.992 2.696 660.378 2.37552 657.847 2.37552C652.435 2.37552 647.432 3.80279 643.092 6.51195C633.769 2.98674 623.344 1.10354 611.041 0.677341C610.586 0.660822 610.137 0.654214 609.692 0.654214C598.253 0.654214 588.416 5.91065 581.657 15.5414C577.69 12.9148 573.582 10.2783 569.179 7.87975C560.289 3.03299 550.656 0.495629 540.551 0.340348C540.287 0.337044 540.023 0.33374 539.766 0.33374C527.667 0.33374 516.873 4.56598 507.682 12.9115C503.709 16.5193 500.049 20.5897 496.729 25.0796C495.633 24.3296 494.538 23.583 493.432 22.8462L491.125 21.3C484.812 17.0711 478.288 12.6968 471.553 8.6099C464.497 4.3248 457.148 2.13764 449.712 2.10461H449.564C441.409 2.10461 434.469 4.88976 429.463 9.85545C425.044 7.46676 420.533 5.66947 415.827 4.42061C412.979 3.66403 410.141 3.28078 407.389 3.28078C400.62 3.28078 394.505 5.60339 389.693 9.75303C380.367 4.67501 370.279 1.96915 359.62 1.69493C359.194 1.68171 358.771 1.67841 358.349 1.67841C349.624 1.67841 341.33 4.02745 333.928 8.54712C333.644 8.34889 333.364 8.15397 333.083 7.95573C329.097 5.16398 323.576 1.82378 316.259 0.716987C314.768 0.492325 313.263 0.379994 311.785 0.379994C303.049 0.379994 295.211 4.27524 289.981 11.0217C288.885 10.2618 287.819 9.50855 286.783 8.74535C280.302 3.9878 272.837 1.57599 264.603 1.57599H264.25L263.59 1.5826C259.359 1.61894 254.567 1.65528 249.512 2.74886C241.506 4.48008 235.077 9.03279 231.411 15.5678C229.401 19.1492 228.355 23.1403 228.223 27.3031C227.361 26.7051 226.5 26.1005 225.639 25.5025C220.269 21.7692 214.719 17.9136 209.333 14.0844C202.614 9.30701 196.106 5.95029 189.443 3.81931C187.381 3.16184 184.962 2.40856 182.338 1.81387C179.817 1.2423 177.309 0.951561 174.88 0.951561C165.342 0.951561 157.161 5.39194 151.974 12.9974C144.786 7.79385 136.49 4.13317 126.616 1.81387C124.035 1.20596 121.477 0.898699 119.016 0.898699C112.679 0.898699 106.931 2.91075 102.215 6.6441C102.178 6.63089 102.142 6.61767 102.103 6.60446C92.3276 3.19157 83.4834 1.34142 75.0648 0.944953C73.6061 0.878876 71.867 0.806192 70.0387 0.806192C66.1248 0.806192 62.8511 1.12336 59.7391 1.80396C52.8254 3.31712 43.2386 7.91939 36.8364 21.2504L36.4635 22.0269C28.5993 38.4041 20.4613 55.3396 12.7654 72.2124C8.75909 80.9941 5.44248 89.9376 2.39319 98.3459C-2.72857 112.447 1.81897 126.3 14.2604 134.5C19.1115 137.698 23.8175 141.018 28.7973 144.534C33.3581 147.752 38.0772 151.082 42.8789 154.28C47.235 157.181 52.1918 159.695 57.6105 161.753C61.3859 163.187 65.1447 163.914 68.7913 163.914C77.5927 163.914 85.1928 159.831 90.4103 152.496C91.2848 153.134 92.1395 153.775 92.9745 154.426C101.271 160.858 111.135 164.122 122.286 164.122C122.672 164.122 123.061 164.119 123.451 164.112C125.659 164.069 130.622 163.974 136.018 161.674C139.734 163.101 143.664 163.835 147.693 163.835C149.822 163.835 152.007 163.633 154.181 163.23C156.218 162.854 158.26 162.49 160.303 162.124C167.983 160.752 175.906 159.332 183.82 157.333C189.456 161.575 196.192 163.808 203.37 163.808C205.066 163.808 206.812 163.683 208.554 163.438C210.395 163.177 212.032 162.814 213.478 162.494C214.092 162.358 214.709 162.219 215.322 162.1C218.058 161.568 220.797 161.053 223.536 160.538C229.609 159.398 235.889 158.218 242.133 156.844C252.528 154.551 259.716 147.448 261.989 138.194C264.002 139.604 266.015 141.009 268.025 142.423C274.787 147.187 281.78 152.113 288.875 156.814C296.234 161.687 304.986 164.492 314.887 165.153C315.471 165.193 316.045 165.209 316.619 165.209C327.747 165.209 337.192 158.056 340.898 147.131C342.403 148.204 343.888 149.285 345.363 150.385C350.802 154.452 356.303 157.538 361.966 159.685C361.824 162.837 361.913 165.817 361.996 168.54C362.032 169.719 362.068 170.899 362.085 172.071C362.108 174.186 362.128 176.304 362.144 178.421C362.2 185.032 362.256 191.871 362.57 198.72L362.877 205.421C363.649 222.482 364.448 240.128 365.745 257.545C366.523 268.045 367.791 278.508 369.018 288.631C369.52 292.758 370.021 296.884 370.487 301.014C370.691 302.825 370.995 304.477 371.262 305.937C371.355 306.446 371.447 306.955 371.536 307.467C373.272 317.692 378.681 326.14 387.175 331.895C395.442 337.495 404.234 343.624 415.682 351.761C422.358 356.509 429.532 358.591 435.667 359.998C440.65 361.141 445.614 362.053 450.409 362.938C451.785 363.193 453.158 363.444 454.531 363.705L456.29 364.68H461.457L462.487 364.531L463.566 364.379C464.56 364.24 465.556 364.101 466.546 363.933C473.44 362.753 482.766 358.898 489.159 347.404C490.38 348.23 491.607 349.049 492.845 349.855C497.056 352.594 501.682 355.412 506.969 357.461C512.589 359.638 518.374 360.923 523.354 361.954C528.344 362.988 533.743 363.969 539.403 364.161C539.845 364.174 540.28 364.184 540.713 364.184C554.352 364.184 565.454 356.767 571.173 343.832C571.328 343.485 571.48 343.138 571.635 342.792C575.938 345.795 580.364 348.857 584.911 351.781C592.614 356.737 600.874 360.15 609.457 361.931C611.682 362.393 613.912 362.628 616.084 362.628C627.37 362.628 637.158 356.261 642.277 345.597C644.306 341.361 646.257 337.079 648.148 332.84C657.368 339.435 668.285 347.176 679.353 354.609C689.472 361.405 700.553 362.585 708.008 362.882C709.84 362.955 711.8 362.991 714.001 362.991C715.087 362.991 716.166 362.985 717.248 362.971C728.142 362.839 736.911 358.211 742.098 350.529C752.738 356.565 763.823 360.464 775.182 362.149C781.139 363.034 786.93 363.484 792.392 363.484C807.503 363.484 821.406 360.034 833.716 353.238C835.254 352.389 836.689 351.497 838.062 350.589C845.943 355.472 854.701 358.944 864.215 360.94C864.931 361.088 865.638 361.277 866.347 361.455C868.139 361.911 870.37 362.479 872.875 362.783C874.307 362.958 875.739 363.044 877.132 363.044C888.088 363.044 897.058 357.665 902.031 348.692C914.902 358.092 929.185 361.118 938.986 362.582C940.827 362.856 942.646 362.995 944.395 362.995C954.212 362.995 962.582 358.63 967.957 350.704C969.644 348.216 970.96 345.273 971.759 342.19C973.729 334.591 975.676 326.88 977.561 319.423C981.31 304.589 985.184 289.246 989.335 274.346C994.54 255.662 1000.29 236.711 1005.86 218.385C1007.46 213.099 1009.06 207.809 1010.66 202.52C1015.51 186.44 1011.54 173.644 998.516 163.405L998.53 163.389ZM245.014 81.3839C245.73 83.4125 246.446 85.451 247.165 87.4729C247.155 87.5192 247.145 87.5687 247.139 87.6117C246.941 88.6491 246.7 89.9343 246.561 91.4574C246.34 93.9022 245.99 96.4297 245.617 99.0992C244.974 98.6532 244.344 98.1939 243.664 97.7776C242.753 97.2226 241.816 96.5982 240.852 95.9275C242.364 90.6942 243.733 85.9069 245.014 81.3839ZM239.057 142.812C230.282 144.749 221.418 146.278 212.597 147.996C210.584 148.389 208.594 148.928 206.564 149.212C205.485 149.364 204.426 149.443 203.379 149.443C199.231 149.443 195.37 148.211 191.968 145.475C189.694 143.645 187.565 142.611 184.902 142.611C183.879 142.611 182.774 142.766 181.549 143.083C171.712 145.657 161.61 147.25 151.591 149.096C150.268 149.341 148.971 149.463 147.7 149.463C143.248 149.463 139.107 147.95 135.321 144.755C132.021 148.723 127.847 149.651 123.18 149.741C122.883 149.747 122.586 149.747 122.296 149.747C114.725 149.747 107.914 147.824 101.766 143.057C96.4561 138.94 90.7634 135.316 84.9387 131.266C84.0147 133.311 83.15 135.21 82.2953 137.11C81.8003 138.21 81.2987 139.304 80.8202 140.411C78.223 146.374 74.088 149.542 68.7979 149.542C66.9102 149.542 64.8741 149.139 62.7092 148.317C58.5808 146.747 54.5051 144.755 50.8321 142.31C41.1628 135.874 31.8565 128.887 22.1542 122.497C14.9699 117.763 13.135 110.801 15.8807 103.246C18.9498 94.7943 22.0948 86.343 25.8239 78.1693C33.5792 61.1643 41.6776 44.3147 49.7695 27.465C52.4657 21.8517 56.4885 17.2098 62.8082 15.8255C65.1447 15.3134 67.59 15.1581 70.0387 15.1581C71.4974 15.1581 72.956 15.2143 74.3982 15.2804C82.2953 15.6471 89.9483 17.5567 97.3768 20.1503C100.396 21.2042 103.116 23.1105 106.079 24.6832C106.139 24.584 106.327 24.3065 106.469 24.0059C109.204 18.2208 113.442 15.244 119.016 15.244C120.375 15.244 121.817 15.4191 123.335 15.776C130.625 17.4907 137.493 20.2097 143.621 24.66C147.862 27.7392 152.215 30.6697 156.518 33.663C157.257 34.1784 158.003 34.6839 158.957 35.3414C159.815 32.1565 160.544 29.2193 161.396 26.3186C163.494 19.1756 168.336 15.2936 174.88 15.2936C176.239 15.2936 177.668 15.4621 179.163 15.7991C181.16 16.2517 183.127 16.8563 185.08 17.4807C190.865 19.3309 196.08 22.2581 201.023 25.7734C209.917 32.097 218.92 38.2653 227.853 44.5294C230.43 46.3333 232.83 48.3255 234.344 50.9026C234.833 52.3034 235.315 53.691 235.803 55.0885C235.843 55.3661 235.909 55.6271 235.935 55.9145C236.126 58.3263 235.819 60.8934 235.176 63.2358C231.803 75.5295 228.289 87.7835 224.721 100.021C224.286 101.521 224.757 102.168 225.886 102.925C229.355 105.258 232.648 107.871 236.212 110.038C242.241 113.706 245.403 119.282 247.35 125.775C247.677 126.861 248.007 127.952 248.201 129.065C249.406 136.02 246.116 141.243 239.057 142.803V142.812Z" stroke="#080206" stroke-width="2"/>
<path d="M460.431 350.308H460.005C459.823 350.209 459.652 350.05 459.454 350.014C452.593 348.686 445.686 347.552 438.881 345.993C433.654 344.794 428.509 343.254 423.994 340.046C414.467 333.27 404.9 326.55 395.221 319.992C389.818 316.334 386.759 311.378 385.687 305.052C385.367 303.165 384.964 301.285 384.749 299.389C383.129 285.09 381.123 270.817 380.057 256.475C378.611 237.032 377.803 217.539 376.912 198.06C376.512 189.347 376.545 180.615 376.44 171.89C376.344 164.198 375.403 156.421 378.763 148.885C369.348 148.122 361.345 144.398 353.963 138.878C347.214 133.829 340.162 129.187 333.238 124.374C332.753 124.037 332.225 123.759 331.611 123.389C331.423 124.053 331.261 124.519 331.162 124.998C330.03 130.337 329.007 135.699 327.757 141.009C326.295 147.207 321.704 151.211 315.853 150.821C309.091 150.368 302.478 148.594 296.805 144.834C286.35 137.91 276.199 130.535 265.893 123.389C260.375 119.563 258.25 114.254 258.969 107.732C259.52 102.73 260.398 97.7611 260.85 92.7525C261.108 89.9277 262.302 87.2086 261.227 84.1922C255.22 67.3062 249.343 50.3772 243.472 33.445C240.667 25.3637 244.214 18.5842 252.547 16.7836C256.375 15.9577 260.421 15.9676 264.371 15.9378C269.437 15.8916 274.143 17.2726 278.308 20.3287C281.278 22.5092 284.344 24.5543 287.367 26.6589C289.726 28.3009 292.082 29.9462 294.62 31.7137C296.445 28.3769 298.198 25.3109 299.825 22.1788C302.659 16.7043 308.005 13.9952 314.127 14.9236C318.173 15.5348 321.602 17.4444 324.879 19.734C328.007 21.9211 331.143 24.1017 334.205 26.236C334.479 26.1236 334.631 26.0939 334.733 26.0113C335.007 25.7866 335.254 25.5355 335.515 25.2944C342.214 19.0765 350.214 15.8222 359.259 16.0568C369.424 16.3178 378.875 19.4102 387.376 25.1259C389.541 26.5796 391.663 28.096 393.871 29.6323C394.105 28.9517 394.273 28.4892 394.425 28.0167C397.115 19.6316 403.672 16.0502 412.16 18.3034C418.331 19.9421 423.895 22.8132 429.053 26.5366C430.981 27.9275 432.957 29.2524 435.106 30.7391C435.333 29.6852 435.515 28.9517 435.65 28.2084C437.026 20.5401 441.897 16.4367 449.662 16.4698C454.916 16.4929 459.757 18.2439 464.124 20.8903C471.377 25.2944 478.413 30.0684 485.472 34.7896C490.64 38.2455 495.692 41.8731 500.923 45.5139C501.487 44.503 501.969 43.6605 502.434 42.8048C506.375 35.5892 511.229 29.0971 517.331 23.5532C523.869 17.6162 531.512 14.5667 540.343 14.7022C548.131 14.8244 555.592 16.82 562.335 20.4972C569.394 24.3462 575.964 29.0971 582.739 33.4714C584.013 34.2941 585.244 35.1927 586.534 36.0847C588.481 32.4868 590.211 29.074 592.138 25.7767C596.243 18.7593 602.14 14.7418 610.552 15.0326C622.888 15.4621 634.825 17.494 645.906 23.5764C649.774 17.5931 655.51 15.6636 662.255 17.2957C671.347 19.4961 680.317 22.1722 687.93 28.02C689.194 28.9914 690.55 29.8372 691.963 30.8052C692.431 29.2094 692.761 27.9011 693.197 26.6357C695.444 20.1437 700.378 16.5424 707.242 16.8629C714.889 17.2164 721.598 20.3055 727.802 24.6666C737.54 31.5122 747.325 38.295 757.094 45.0944C764.179 50.027 766.261 55.7724 764.001 64.0882C760.374 77.4193 756.655 90.7239 753.199 104.098C750.031 116.359 747.16 128.698 744.108 141.21C744.603 140.969 744.873 140.876 745.101 140.721C756.882 132.739 769.875 131.345 783.369 134.315C795.464 136.978 806.278 142.796 816.581 149.539C819.766 151.621 822.845 153.867 826.112 156.134C826.719 154.429 827.201 152.886 827.818 151.399C830.023 146.097 833.649 142.353 839.494 141.329C843.276 140.665 846.932 141.488 850.582 142.545C864.552 146.592 877.247 153.107 888.837 161.882C892.715 164.819 896.813 167.459 900.975 170.35C901.179 169.729 901.328 169.349 901.43 168.959C902.961 163.134 904.308 157.254 906.057 151.492C909.185 141.177 916.386 136.869 926.874 138.904C938.098 141.081 948.229 145.925 957.634 152.268C967.558 158.965 977.303 165.93 987.124 172.782C987.995 173.39 988.84 174.034 989.678 174.691C998.07 181.292 1000.04 188.112 996.952 198.36C989.711 222.369 982.273 246.326 975.541 270.477C969.251 293.059 963.776 315.872 957.898 338.569C957.532 339.987 956.928 341.42 956.113 342.626C952.476 347.988 947.024 349.247 941.121 348.368C929.531 346.641 918.469 343.423 909.02 335.953C905.301 333.015 901.265 330.478 897.371 327.766C896.107 326.887 894.83 326.024 893.335 325.004C892.731 328.634 892.164 331.978 891.629 335.328C890.131 344.704 883.86 349.644 874.637 348.517C872.125 348.21 869.677 347.394 867.185 346.875C856.968 344.728 847.688 340.575 839.504 334.036C838.959 333.603 838.345 333.263 838.052 333.072C834.191 335.701 830.686 338.513 826.812 340.654C811.252 349.247 794.507 350.486 777.307 347.936C763.591 345.9 751.322 340.264 740.111 332.189C737.841 330.551 735.514 328.988 732.953 327.207C732.953 329.341 732.98 331.086 732.947 332.83C732.768 342.798 727.063 348.484 717.1 348.606C714.268 348.639 711.43 348.643 708.599 348.527C701.071 348.226 693.712 346.938 687.362 342.679C676.951 335.688 666.707 328.446 656.506 321.151C654.546 319.747 652.972 317.712 651.5 315.756C650.774 314.791 650.282 314.491 649.131 314.768C646.725 315.35 644.289 315.829 641.844 316.215C640.29 316.463 639.392 317.206 638.749 318.66C635.686 325.592 632.637 332.536 629.36 339.372C626.013 346.346 619.898 349.419 612.384 347.863C605.332 346.399 598.718 343.575 592.682 339.692C585.478 335.057 578.528 330.022 571.466 325.159C569.562 323.85 567.661 322.536 565.595 321.112C563.018 326.897 560.536 332.447 558.074 338.011C554.579 345.914 548.517 350.09 539.897 349.799C535.336 349.647 530.763 348.811 526.274 347.883C521.502 346.895 516.681 345.811 512.16 344.06C508.124 342.497 504.322 340.181 500.672 337.806C494.874 334.036 489.284 329.936 483.383 325.823C481.334 330.333 479.456 334.677 477.4 338.936C474.677 344.582 470.595 348.666 464.14 349.769C462.909 349.981 461.665 350.136 460.431 350.314M524.987 181.669C530.809 169.686 536.521 157.931 542.211 146.222C539.93 144.808 537.353 143.354 534.924 141.683C526.179 135.653 517.522 129.488 508.754 123.498C504.038 120.274 499.57 116.864 496.676 111.786C496.639 111.723 496.438 111.753 496.28 111.736C493.564 119.438 490.442 126.951 485.848 133.75C482.142 139.238 477.723 144.098 471.42 146.506C456.969 152.027 443.072 150.405 429.964 142.353C425.45 139.581 421.229 136.33 417.866 133.988C413.922 137.622 410.203 141.045 406.494 144.461C407.058 144.61 407.853 144.825 408.655 145.026C414.926 146.622 420.988 148.763 426.393 152.404C431.033 155.529 435.578 158.797 440.168 161.995C445.148 165.464 450.131 168.929 455.279 172.511C456.266 170.839 457.137 169.313 458.051 167.819C461.817 161.668 467.127 158.146 474.509 158.463C476.895 158.565 479.301 158.965 481.634 159.5C492.386 161.981 502.682 165.523 511.642 172.299C515.932 175.544 520.443 178.491 524.984 181.662M626.406 131.299C625.977 132.177 625.657 132.798 625.367 133.433C623.987 136.456 622.717 139.535 621.222 142.502C618.684 147.537 614.06 150.051 608.473 149.338C602.972 148.631 598.101 146.199 593.488 143.235C590.128 141.081 590.23 141.197 586.927 143.526C584.191 145.452 581.205 147.022 578.297 148.763C587.755 155.347 597.309 161.998 606.936 168.698C609.826 163.395 612.473 158.232 615.397 153.236C619.459 146.298 624.924 140.949 632.977 138.838C633.904 138.593 634.845 138.395 636.148 138.088C632.782 135.742 629.723 133.608 626.406 131.299ZM732.894 149.169C721.466 148.647 711.361 144.597 702.47 136.677C701.721 142.191 699.668 146.265 694.962 148.558C702.813 154.016 710.476 159.345 717.202 164.02C722.551 158.955 727.634 154.145 732.891 149.169" fill="#000001"/>
<path d="M135.323 144.762C118.645 159.345 99.3027 140.784 84.9407 131.272C74.2747 170.727 41.6268 133.575 22.1562 122.5C-0.868654 111.908 43.9666 46.2506 49.7648 27.4682C59.6784 6.3037 90.1548 16.0203 106.081 24.6896C118.159 1.86001 144.913 26.3911 158.955 35.3512C161.77 7.97214 184.244 13.5689 201.025 25.7898C211.925 35.9756 231.373 40.8785 235.934 55.9243C234.805 70.9767 228.218 85.3616 224.72 100.034C224.284 101.534 224.753 102.178 225.885 102.938C239.221 109.04 261.797 134.625 239.056 142.816C228.274 145.151 217.371 147.015 206.563 149.212C196.487 152.235 191.22 140.645 181.551 143.083C166.651 144.937 148.801 155.086 135.323 144.758" fill="#000001"/>
<path d="M60.355 100.004C55.1474 100.738 50.5537 101.63 46.5705 102.681C45.1712 105.41 43.9502 107.944 42.9007 110.289C41.8546 112.635 40.8382 114.925 39.8613 117.161C39.3003 118.351 38.6205 119.048 37.8186 119.259C37.0167 119.467 35.8088 119.296 34.2017 118.734C33.2941 118.384 32.3008 117.984 31.2151 117.528C30.1359 117.075 29.0337 116.567 27.915 116.005C27.0734 115.447 26.3408 114.974 25.7105 114.591C25.0835 114.208 24.5951 113.735 24.242 113.174C23.8921 112.615 23.704 111.898 23.6644 111.023C23.6281 110.147 23.8228 108.978 24.242 107.507C25.9217 102.681 28.1064 97.0145 30.7927 90.5059C33.4822 84.0006 36.3797 77.2838 39.4917 70.3556C42.6004 63.4308 45.7817 56.5918 49.0323 49.842C52.2796 43.0922 55.3751 37.0924 58.3089 31.8459C59.3584 29.9561 60.7213 28.4198 62.3978 27.2304C64.0775 26.041 66.5526 25.5884 69.8395 25.8659C72.704 26.0047 75.255 26.2327 77.4924 26.5465C79.7299 26.8637 81.7727 27.2304 83.624 27.6467C85.4754 28.0663 87.1881 28.5222 88.759 29.0112C90.3298 29.5002 91.9205 29.9561 93.5276 30.3757C95.6925 31.1455 97.0753 32.1598 97.6693 33.4185C98.26 34.6773 98.4547 36.3226 98.2468 38.3512C97.8277 43.3202 97.4779 49.0227 97.2007 55.4553C96.9202 61.8945 96.7122 68.6112 96.5703 75.6055C96.4284 82.603 96.3426 89.6138 96.3096 96.6477C96.2733 103.678 96.2898 110.2 96.3624 116.216C96.3624 117.479 96.1017 118.351 95.577 118.84C95.0523 119.329 93.8808 119.573 92.0657 119.573C90.2506 119.573 88.5709 119.52 87.033 119.418C85.4952 119.312 83.9243 118.978 82.3172 118.42C80.6374 117.931 79.4692 117.303 78.8059 116.53C78.1426 115.761 77.6673 114.396 77.3934 112.437C77.1129 110.408 76.8687 108.188 76.6608 105.776C76.4529 103.361 76.2417 100.721 76.0305 97.8503C70.7899 98.5508 65.5659 99.2677 60.3616 100.001M65.49 81.9026C68.6713 81.5524 71.8691 81.2716 75.0801 81.0634C74.9415 75.3279 74.8326 69.609 74.7666 63.9065C74.6973 58.2041 74.7303 52.5578 74.8722 46.9577C72.077 52.0655 69.0541 57.7151 65.8068 63.9065C62.5562 70.0979 59.2891 76.5173 56.0055 83.1647C59.1505 82.6757 62.312 82.2561 65.4933 81.9059" fill="white"/>
<path d="M134.145 115.955C129.499 116.831 125.08 117.687 120.885 118.526C119.348 118.945 118.054 119.19 117.004 119.259C115.958 119.329 115.047 119.276 114.282 119.101C113.513 118.926 112.866 118.698 112.341 118.42C111.82 118.139 111.312 117.825 110.82 117.475C109.632 116.705 108.55 115.919 107.573 115.113C106.596 114.307 105.306 113.276 103.692 112.017C102.504 111.039 101.596 109.936 100.969 108.713C100.339 107.488 100.167 106.004 100.445 104.253C100.652 101.524 101.006 98.2896 101.494 94.5431C101.982 90.8031 102.576 86.7625 103.276 82.4245C103.976 78.0866 104.745 73.5933 105.583 68.9382C106.421 64.2864 107.332 59.6511 108.309 55.0356C109.286 50.4201 110.282 45.9764 111.295 41.7078C112.308 37.4392 113.305 33.5209 114.282 29.9527C114.978 27.9241 115.869 26.7182 116.955 26.335C118.037 25.9517 119.661 26.074 121.829 26.7017C123.994 27.2634 126.337 28.0497 128.852 29.064C131.367 30.0783 133.571 31.2148 135.455 32.4736C137.274 33.8017 138.406 34.9581 138.864 35.936C139.316 36.9172 139.231 38.3148 138.604 40.1352C137.204 44.3344 135.789 48.9499 134.356 53.9883C132.924 59.0266 131.489 64.2005 130.06 69.5197C128.624 74.8356 127.261 80.135 125.971 85.4145C124.677 90.7007 123.469 95.7523 122.354 100.579C125.568 100.021 128.571 99.6013 131.367 99.3204C134.162 99.0429 137.204 98.7951 140.488 98.587C142.442 98.4482 143.93 98.5705 144.943 98.9537C145.953 99.3403 146.88 100.196 147.719 101.524C148.557 102.783 149.237 104.061 149.761 105.353C150.286 106.648 150.689 107.891 150.969 109.08C151.458 110.55 151.58 111.528 151.335 112.017C151.088 112.506 149.883 112.962 147.719 113.382C143.316 114.221 138.792 115.08 134.145 115.952" fill="white"/>
<path d="M189.911 115.955C185.264 116.831 180.845 117.687 176.651 118.526C175.113 118.945 173.82 119.19 172.77 119.259C171.724 119.329 170.813 119.276 170.047 119.101C169.279 118.926 168.632 118.698 168.107 118.42C167.586 118.139 167.077 117.825 166.586 117.475C165.398 116.705 164.315 115.919 163.338 115.113C162.362 114.31 161.071 113.276 159.457 112.017C158.269 111.039 157.362 109.936 156.735 108.713C156.105 107.488 155.933 106.004 156.21 104.253C156.418 101.524 156.771 98.2896 157.26 94.5431C157.748 90.8031 158.342 86.7625 159.042 82.4245C159.741 78.0866 160.51 73.5933 161.348 68.9382C162.187 64.2864 163.097 59.6511 164.074 55.0356C165.051 50.4201 166.048 45.9764 167.061 41.7078C168.074 37.4392 169.071 33.5209 170.047 29.9527C170.744 27.9241 171.635 26.7182 172.721 26.335C173.803 25.9517 175.427 26.074 177.595 26.7017C179.76 27.2634 182.103 28.0497 184.617 29.064C187.132 30.0783 189.337 31.2148 191.221 32.4736C193.039 33.8017 194.171 34.9581 194.63 35.936C195.082 36.9172 194.996 38.3148 194.369 40.1352C192.97 44.3344 191.554 48.9499 190.122 53.9883C188.69 59.0266 187.254 64.2005 185.825 69.5197C184.39 74.8356 183.027 80.135 181.736 85.4145C180.443 90.7007 179.235 95.7523 178.12 100.579C181.334 100.021 184.337 99.6013 187.132 99.3204C189.927 99.0429 192.97 98.7951 196.254 98.587C198.207 98.4482 199.696 98.5705 200.709 98.9537C201.719 99.3403 202.646 100.196 203.484 101.524C204.322 102.783 205.002 104.061 205.527 105.353C206.052 106.648 206.454 107.891 206.735 109.08C207.223 110.55 207.345 111.528 207.101 112.017C206.854 112.506 205.649 112.962 203.484 113.382C199.082 114.221 194.557 115.08 189.911 115.952" fill="white"/>
<path d="M319.157 52.6237C316.814 56.5421 314.177 60.7744 311.243 65.3205C308.309 69.8699 305.197 74.5547 301.914 79.3817C298.63 84.2086 295.449 88.8274 292.373 93.2314C291.185 97.9229 290.172 102.274 289.334 106.298C288.495 110.322 287.69 114.221 286.921 118C286.571 119.401 286.083 120.237 285.456 120.518C284.826 120.795 283.601 120.726 281.786 120.31C280.11 119.89 278.361 119.381 276.546 118.787C274.727 118.192 273.051 117.581 271.513 116.95C269.975 115.972 268.962 115.01 268.474 114.066C267.985 113.121 267.81 111.74 267.949 109.919C268.437 106.913 268.893 103.43 269.315 99.479C269.734 95.5276 270.361 91.1368 271.2 86.3098C269.731 82.1106 268.16 77.6703 266.484 72.9821C264.804 68.2972 263.128 63.5892 261.451 58.868C259.775 54.1468 258.151 49.528 256.577 45.0183C255.006 40.5052 253.59 36.2895 252.33 32.3711C251.564 30.4846 251.369 29.206 251.755 28.5419C252.141 27.8779 253.24 27.3724 255.055 27.0222C257.22 26.8834 259.303 26.7612 261.293 26.6554C263.286 26.5497 265.329 26.7446 267.424 27.2336C269.52 27.7226 271.038 28.5122 271.985 29.5959C272.929 30.6828 273.958 32.3414 275.074 34.5814C276.681 38.7773 278.358 43.5712 280.107 48.9565C281.852 54.3451 283.671 60.0442 285.555 66.0605C289.33 60.0442 293.033 53.8891 296.666 47.592C300.3 41.2948 303.933 34.8953 307.57 28.3867C308.197 26.6389 309.21 25.7105 310.609 25.6048C312.009 25.4991 313.51 25.8526 315.117 26.6554C316.725 27.4583 318.315 28.5287 319.889 29.8569C321.46 31.185 322.807 32.3744 323.925 33.425C324.556 34.1948 325.041 34.9118 325.394 35.5759C325.744 36.2432 325.935 36.9238 325.968 37.6242C326.004 38.3247 325.879 39.0779 325.602 39.8808C325.325 40.6836 324.938 41.6483 324.45 42.765C323.262 45.4246 321.496 48.712 319.157 52.6304" fill="white"/>
<path d="M387.706 41.655C388.927 44.0668 389.818 46.8156 390.379 49.8915C391.144 54.9993 391.323 60.5431 390.9 66.5231C390.481 72.5064 389.448 78.4533 387.811 84.3639C386.168 90.2745 383.93 95.8547 381.102 101.101C378.271 106.348 374.796 110.791 370.674 114.429C367.879 116.596 364.942 118.047 361.869 118.783C358.793 119.517 355.266 119.676 351.282 119.256C348.626 118.975 345.9 118.539 343.105 117.944C340.31 117.353 337.759 116.458 335.455 115.268C333.567 114.29 331.716 113.028 329.898 111.492C328.079 109.952 326.647 108.205 325.598 106.242C323.921 103.024 322.664 99.3866 321.826 95.3294C320.987 91.2723 320.605 87.0037 320.674 82.527C320.743 78.0503 321.268 73.4843 322.245 68.8325C323.225 64.1807 324.654 59.6478 326.542 55.2437C328.426 50.8364 330.749 46.657 333.511 42.7023C336.27 38.7476 339.468 35.196 343.101 32.0507C345.547 30.1609 348.464 28.7303 351.857 27.7491C355.246 26.7711 358.473 26.5266 361.549 27.0156C365.532 27.6466 369.324 28.6246 372.925 29.9527C376.522 31.2809 379.508 32.8899 381.884 34.7797C384.541 36.947 386.481 39.2399 387.702 41.6517M360.087 47.113C358.269 48.8277 356.45 51.1536 354.635 54.0907C352.817 57.0278 351.124 60.3019 349.55 63.9031C347.979 67.5043 346.702 70.9866 345.725 74.3433C344.745 77.6307 344.049 81.0436 343.63 84.5754C343.21 88.1072 343.068 91.3978 343.21 94.4407C343.349 97.4835 343.837 100.09 344.679 102.258C345.517 104.428 346.738 105.756 348.349 106.245C349.817 106.734 351.352 106.42 352.962 105.3C354.569 104.184 356.173 102.466 357.784 100.16C359.391 97.8503 360.912 94.999 362.344 91.606C363.773 88.2129 365.017 84.5225 366.064 80.5348C366.968 77.2474 367.704 73.6264 368.265 69.6717C368.826 65.7203 369.103 62.0299 369.103 58.6005C369.103 55.1711 368.77 52.1117 368.106 49.6272C367.443 47.146 366.41 45.6956 365.017 45.2727C363.549 44.7837 361.905 45.395 360.09 47.1097" fill="white"/>
<path d="M394.204 98.2203C393.54 94.8272 393.207 91.1037 393.207 87.0433C393.207 82.9829 393.488 78.6813 394.045 74.1351C394.606 69.5857 395.339 64.9703 396.246 60.2821C397.157 55.5972 398.184 50.8892 399.342 46.168C400.494 41.4435 401.698 36.8478 402.956 32.3678C403.513 30.3392 404.335 29.1168 405.417 28.6939C406.5 28.2743 408.16 28.4494 410.394 29.2192C412.49 29.8503 414.499 30.6531 416.42 31.6311C418.341 32.6123 420.212 33.7653 422.03 35.0935C425.802 37.8225 427.096 41.3213 425.911 45.5865C424.789 49.2274 423.621 53.1623 422.4 57.3912C421.175 61.6268 420.043 65.9085 418.994 70.2465C417.945 74.5845 417.057 78.8167 416.321 82.9432C415.588 87.0697 415.13 90.78 414.958 94.0673C414.783 97.3546 414.958 100.084 415.479 102.251C416.004 104.422 417.034 105.713 418.572 106.136C420.459 106.625 422.311 105.717 424.129 103.407C425.947 101.098 427.677 97.8998 429.317 93.8063C430.957 89.7128 432.531 84.9751 434.036 79.5865C435.537 74.2012 436.937 68.6574 438.227 62.9549C439.521 57.2525 440.689 51.6392 441.738 46.1119C442.785 40.5878 443.732 35.6518 444.57 31.3139C444.708 29.2159 445.477 27.9539 446.877 27.5376C448.273 27.118 449.972 27.1675 451.962 27.6929C453.955 28.2182 456.084 29.0573 458.358 30.2137C460.628 31.37 462.707 32.5066 464.595 33.6233C465.572 34.2543 466.327 34.8292 466.849 35.3545C467.374 35.8798 467.74 36.4216 467.948 36.98C468.156 37.5416 468.225 38.1529 468.156 38.8169C468.086 39.481 467.948 40.2706 467.737 41.1792C465.641 51.1833 463.526 60.368 461.394 68.7234C459.262 77.0855 457.008 84.4828 454.632 90.9187C452.256 97.3579 449.669 102.743 446.877 107.081C444.081 111.419 440.969 114.568 437.551 116.527C435.102 117.716 432.656 118.536 430.211 118.992C427.766 119.444 424.971 119.57 421.826 119.358C415.536 118.939 410.364 117.611 406.312 115.371C404.563 114.393 402.923 113.236 401.385 111.908C399.847 110.58 398.52 108.935 397.401 106.975C395.933 104.527 394.867 101.607 394.204 98.2136" fill="white"/>
<path d="M560.45 98.9009C560.556 100.371 560.011 102.188 558.827 104.356C557.569 106.876 555.962 109.183 554.005 111.28C552.045 113.378 550.088 115.129 548.134 116.527C547.154 117.158 545.986 117.749 544.623 118.311C543.26 118.873 541.828 119.325 540.323 119.676C538.818 120.026 537.251 120.267 535.607 120.409C533.964 120.548 532.373 120.548 530.839 120.409C527.555 120.201 524.582 119.692 521.928 118.889C519.272 118.083 516.896 117.333 514.8 116.633C512.916 115.863 511.028 114.743 509.14 113.273C507.256 111.803 505.787 110.091 504.741 108.132C502.926 105.125 501.649 101.574 500.916 97.4803C500.184 93.3835 499.92 89.0158 500.131 84.3607C500.342 79.7089 501.022 74.915 502.174 69.9856C503.329 65.053 504.919 60.2425 506.946 55.5544C508.972 50.8695 511.398 46.4423 514.229 42.2795C517.061 38.1166 520.291 34.4593 523.928 31.314C526.862 28.7931 529.832 27.1544 532.835 26.3813C535.838 25.6115 538.67 25.3307 541.326 25.5421C543.283 25.7503 545.309 26.117 547.408 26.6423C549.504 27.1676 551.53 27.7987 553.487 28.5288C555.441 29.2623 557.295 30.0684 559.044 30.944C560.787 31.8195 562.361 32.7115 563.764 33.6201C565.09 34.7401 566.189 35.8436 567.064 36.9272C567.938 38.0109 568.638 39.1144 569.159 40.2311C569.684 41.3478 570.05 42.524 570.258 43.7464C570.469 44.9721 570.608 46.2838 570.677 47.6813C570.747 49.2903 570.73 50.9686 570.625 52.7197C570.522 54.4707 570.364 56.2019 570.156 57.9133C569.945 59.628 569.668 61.2733 569.314 62.846C568.965 64.4219 568.582 65.836 568.159 67.098C567.951 67.6597 567.74 68.185 567.532 68.6707C567.324 69.1596 567.024 69.5462 566.641 69.827C566.255 70.1045 565.714 70.283 565.018 70.349C564.318 70.4217 563.374 70.349 562.186 70.1409C559.949 69.7213 558.028 69.1431 556.421 68.4097C554.81 67.6762 553.487 66.8007 552.438 65.7864C551.392 64.7721 550.55 63.6026 549.923 62.2711C549.293 60.943 548.837 59.4034 548.56 57.6523C548.352 56.1821 548.243 54.8209 548.243 53.5588C548.313 51.3221 548.207 49.2936 547.93 47.4731C547.649 45.656 546.811 44.4666 545.412 43.905C544.016 43.4854 542.372 44.2882 540.485 46.3168C538.6 48.3487 536.676 50.9851 534.719 54.2394C532.762 57.4937 530.928 61.0784 529.218 64.9968C527.505 68.9152 526.159 72.5527 525.182 75.9094C524.271 79.4082 523.591 82.8905 523.136 86.3496C522.681 89.812 522.522 92.9606 522.664 95.7953C522.803 98.63 523.255 101.025 524.024 102.985C524.796 104.94 525.915 106.133 527.38 106.553C530.178 107.461 534.439 104.977 540.171 99.1025C544.293 94.9033 549.675 93.7502 556.315 95.64C558.969 96.3405 560.351 97.4241 560.454 98.8943" fill="white"/>
<path d="M601.959 100.004C596.751 100.738 592.157 101.63 588.174 102.681C586.775 105.41 585.554 107.944 584.504 110.289C583.458 112.635 582.442 114.925 581.465 117.161C580.904 118.351 580.224 119.048 579.422 119.259C578.62 119.467 577.412 119.296 575.805 118.734C574.898 118.384 573.904 117.984 572.819 117.528C571.739 117.075 570.637 116.567 569.518 116.005C568.677 115.447 567.944 114.974 567.314 114.591C566.687 114.208 566.199 113.735 565.845 113.174C565.496 112.615 565.308 111.898 565.268 111.023C565.232 110.147 565.426 108.978 565.845 107.507C567.525 102.681 569.71 97.0145 572.396 90.5059C575.086 84.0006 577.983 77.2838 581.095 70.3556C584.204 63.4308 587.385 56.5918 590.636 49.842C593.883 43.0922 596.979 37.0924 599.912 31.8459C600.962 29.9561 602.325 28.4198 604.001 27.2304C605.681 26.041 608.156 25.5884 611.443 25.8659C614.308 26.0047 616.858 26.2327 619.096 26.5465C621.333 26.8637 623.376 27.2304 625.228 27.6467C627.079 28.0663 628.792 28.5222 630.363 29.0112C631.933 29.5002 633.524 29.9561 635.131 30.3757C637.296 31.1455 638.679 32.1598 639.273 33.4185C639.864 34.6773 640.058 36.3226 639.85 38.3512C639.431 43.3202 639.081 49.0227 638.804 55.4553C638.524 61.8945 638.316 68.6112 638.174 75.6055C638.032 82.603 637.946 89.6138 637.913 96.6477C637.877 103.678 637.893 110.2 637.966 116.216C637.966 117.479 637.705 118.351 637.181 118.84C636.656 119.329 635.484 119.573 633.669 119.573C631.854 119.573 630.174 119.52 628.637 119.418C627.099 119.312 625.528 118.978 623.921 118.42C622.241 117.931 621.073 117.303 620.409 116.53C619.746 115.761 619.271 114.396 618.997 112.437C618.716 110.408 618.472 108.188 618.264 105.776C618.056 103.361 617.845 100.721 617.634 97.8503C612.393 98.5508 607.169 99.2677 601.965 100.001M607.093 81.9026C610.275 81.5524 613.473 81.2716 616.684 81.0634C616.545 75.3279 616.436 69.609 616.37 63.9065C616.301 58.2041 616.334 52.5578 616.476 46.9577C613.68 52.0655 610.658 57.7151 607.41 63.9065C604.16 70.0979 600.893 76.5173 597.609 83.1647C600.754 82.6757 603.915 82.2561 607.097 81.9059" fill="white"/>
<path d="M695.461 56.2944C697.52 47.4103 699.567 39.2234 701.593 31.7368C702.151 29.7083 703.009 28.4495 704.16 27.9605C705.315 27.4715 707.008 27.5046 709.246 28.0662C710.295 28.3471 711.239 28.5916 712.077 28.7997C712.916 29.0078 713.737 29.2887 714.539 29.6389C715.341 29.9891 716.199 30.4087 717.107 30.8976C718.014 31.3866 719.064 32.0177 720.252 32.7874C722.278 34.0462 723.413 35.3248 723.657 36.6166C723.902 37.9117 723.743 39.4678 723.185 41.285C721.578 46.4621 719.898 52.3397 718.153 58.9143C716.404 65.489 714.674 72.1727 712.965 78.9588C711.252 85.7449 709.609 92.3758 708.038 98.8447C706.464 105.317 705.121 111 704.002 115.899C703.583 118.556 701.487 119.467 697.715 118.625C694.501 117.994 691.214 117.089 687.861 115.899C684.785 114.71 682.621 112.612 681.36 109.602C680.38 107.435 679.386 104.917 678.373 102.046C677.36 99.1784 676.327 96.0827 675.281 92.759C674.232 89.4387 673.186 85.9729 672.136 82.3717C671.087 78.7705 670.11 75.1462 669.202 71.5086C668.433 75.8466 667.648 80.1846 666.843 84.5192C666.041 88.8572 665.272 93.0035 664.536 96.9549C663.803 100.91 663.137 104.584 662.543 107.973C661.949 111.366 661.477 114.32 661.13 116.841C660.85 118.03 660.398 118.78 659.767 119.097C659.137 119.411 657.916 119.322 656.098 118.833C654.418 118.413 652.725 117.974 651.012 117.521C649.299 117.069 647.639 116.352 646.032 115.371C644.498 114.601 643.465 113.709 642.943 112.694C642.419 111.684 642.227 110.266 642.366 108.446C642.508 106.556 642.732 103.863 643.046 100.365C643.363 96.869 643.778 92.8978 644.303 88.4541C644.828 84.0137 645.422 79.2562 646.085 74.1814C646.752 69.11 647.465 64.0551 648.233 59.0168C649.002 53.9784 649.788 49.1184 650.593 44.4302C651.395 39.7454 652.18 35.5825 652.949 31.945C653.438 29.8437 654.312 28.5321 655.57 28.0101C656.827 27.4848 658.536 27.5013 660.705 28.0629C663.289 28.8327 665.807 29.6025 668.252 30.3723C670.697 31.1421 673.245 32.1564 675.905 33.4185C678.07 34.327 679.608 35.4636 680.518 36.8281C681.423 38.1926 682.089 40.2046 682.508 42.8609C682.858 44.8895 683.31 47.4797 683.871 50.625C684.429 53.7735 685.059 57.1831 685.756 60.857C686.455 64.5309 687.188 68.3072 687.96 72.1892C688.729 76.0746 689.498 79.798 690.267 83.3662C691.666 74.2013 693.395 65.1751 695.455 56.2911" fill="white"/>
<path d="M435.416 240.038C439.274 230.92 443.066 222.121 446.798 213.64C450.527 205.156 454.009 197.435 457.233 190.467C460.457 183.503 463.081 178.375 465.104 175.081C466.622 172.299 468.298 170.525 470.133 169.765C471.965 169.005 474.717 169.068 478.383 169.954C482.05 170.713 485.119 171.539 487.584 172.425C490.049 173.31 492.99 174.45 496.405 175.844C498.3 176.604 499.725 177.364 500.672 178.124C501.623 178.884 502.316 179.769 502.758 180.784C503.2 181.798 503.454 183 503.517 184.391C503.58 185.786 503.613 187.431 503.613 189.327C503.613 191.481 503.421 195.155 503.042 200.346C502.662 205.539 502.217 211.615 501.715 218.576C501.207 225.541 500.669 232.951 500.101 240.798C499.53 248.651 498.993 256.31 498.488 263.78C501.144 257.578 504.019 251.024 507.121 244.122C510.22 237.223 513.348 230.289 516.509 223.324C519.671 216.366 522.799 209.557 525.898 202.906C528.997 196.259 531.904 190.025 534.627 184.2C537.343 178.378 539.812 173.155 542.026 168.53C544.237 163.911 546.105 160.144 547.62 157.23C549.517 153.309 551.415 151.125 553.309 150.679C555.207 150.236 558.18 150.837 562.226 152.483C565.133 153.877 568.014 155.427 570.859 157.135C573.707 158.843 576.456 160.775 579.112 162.926C582.02 165.711 583.409 168.688 583.284 171.853C583.155 175.018 582.333 178.25 580.815 181.54C577.654 187.365 574.176 194.012 570.384 201.482C566.589 208.956 562.731 216.743 558.814 224.844C554.89 232.951 550.939 241.211 546.956 249.629C542.97 258.051 539.178 266.218 535.571 274.131C531.967 282.047 528.581 289.487 525.42 296.448C522.258 303.413 519.539 309.492 517.265 314.682C515.998 317.087 514.289 318.604 512.143 319.242C509.992 319.873 506.893 319.873 502.847 319.242C500.57 318.862 498.606 318.449 496.966 318.006C495.32 317.56 493.772 317.15 492.32 316.77C490.861 316.39 489.409 315.977 487.954 315.538C486.498 315.092 484.885 314.682 483.116 314.302C479.571 313.04 477.044 311.299 475.525 309.082C474.007 306.869 472.994 304.43 472.489 301.771C472.107 299.111 471.635 295.883 471.067 292.084C470.496 288.284 469.955 284.141 469.453 279.645C468.945 275.152 468.473 270.559 468.028 265.874C467.582 261.193 467.364 256.634 467.364 252.2C464.454 257.773 461.484 263.565 458.444 269.578C455.411 275.594 452.53 281.449 449.814 287.148C447.092 292.847 444.597 298.133 442.32 303.006C440.043 307.883 438.208 311.904 436.819 315.069C435.301 317.6 433.69 319.086 431.981 319.532C430.274 319.975 427.964 320.008 425.057 319.628C421.136 318.99 417.374 318.201 413.771 317.253C410.167 316.304 406.718 315.323 403.431 314.309C400.395 313.298 398.214 311.937 396.887 310.225C395.561 308.517 394.706 305.891 394.323 302.346C393.313 297.155 392.396 291.172 391.574 284.399C390.756 277.626 390.026 270.378 389.393 262.653C388.762 254.552 388.192 246.068 387.683 237.204C387.182 228.343 386.736 219.511 386.357 210.71C385.977 201.912 385.726 193.302 385.598 184.88C385.472 176.459 385.406 168.642 385.406 161.423C385.535 157.376 386.291 154.776 387.68 153.636C389.073 152.496 391.792 152.37 395.838 153.259C400.514 154.273 404.755 155.317 408.547 156.391C412.342 157.465 415.883 158.955 419.173 160.855C421.067 161.995 422.585 163.389 423.724 165.034C424.862 166.679 425.717 168.421 426.285 170.258C426.852 172.094 427.202 173.991 427.327 175.953C427.453 177.919 427.453 179.723 427.327 181.368C427.202 184.662 426.978 189.473 426.664 195.803C426.347 202.136 426.027 209.193 425.714 216.981C425.397 224.768 425.143 232.872 424.955 241.29C424.763 249.712 424.671 257.72 424.671 265.316C427.958 257.595 431.528 249.173 435.39 240.058" fill="#FDC30F"/>
<path d="M626.64 283.058C617.218 284.386 608.902 286.002 601.694 287.901C599.163 292.84 596.949 297.43 595.054 301.668C593.157 305.914 591.322 310.057 589.553 314.111C588.54 316.262 587.306 317.53 585.854 317.907C584.398 318.287 582.217 317.97 579.31 316.955C577.663 316.318 575.864 315.594 573.901 314.771C571.94 313.952 569.95 313.034 567.924 312.019C566.406 311.008 565.08 310.153 563.941 309.456C562.802 308.758 561.921 307.906 561.284 306.892C560.654 305.881 560.308 304.582 560.242 302.997C560.179 301.417 560.525 299.293 561.284 296.633C564.321 287.898 568.274 277.639 573.142 265.868C578.009 254.09 583.256 241.938 588.886 229.4C594.513 216.865 600.269 204.492 606.149 192.271C612.03 180.053 617.627 169.197 622.937 159.698C624.835 156.279 627.303 153.497 630.336 151.343C633.372 149.192 637.86 148.37 643.804 148.875C648.988 149.129 653.605 149.539 657.654 150.107C661.7 150.679 665.399 151.343 668.752 152.103C672.102 152.863 675.201 153.685 678.049 154.574C680.897 155.46 683.771 156.282 686.682 157.042C690.599 158.436 693.1 160.27 694.176 162.55C695.249 164.826 695.599 167.803 695.219 171.473C694.46 180.466 693.826 190.784 693.322 202.431C692.817 214.08 692.437 226.238 692.183 238.898C691.929 251.559 691.771 264.252 691.711 276.979C691.648 289.702 691.681 301.51 691.807 312.399C691.807 314.682 691.335 316.262 690.384 317.147C689.434 318.032 687.315 318.478 684.032 318.478C680.748 318.478 677.702 318.383 674.924 318.194C672.142 318.006 669.294 317.401 666.386 316.39C663.353 315.505 661.231 314.368 660.03 312.971C658.826 311.58 657.974 309.109 657.469 305.564C656.964 301.893 656.522 297.872 656.143 293.501C655.763 289.137 655.384 284.356 655.004 279.166C645.516 280.431 636.065 281.73 626.64 283.061M635.939 250.293C641.695 249.662 647.477 249.154 653.298 248.774C653.044 238.393 652.852 228.042 652.727 217.721C652.598 207.403 652.661 197.181 652.918 187.048C647.856 196.292 642.388 206.517 636.507 217.721C630.626 228.927 624.716 240.544 618.769 252.573C624.458 251.688 630.181 250.928 635.939 250.293Z" fill="#FDC30F"/>
<path d="M703.568 274.603C706.103 274.223 708.627 274.098 711.159 274.223C713.687 274.352 716.119 274.765 718.462 275.459C720.802 276.156 722.92 277.141 724.818 278.403C735.566 285.119 744.925 289.421 752.895 291.321C760.862 293.217 766.617 292.715 770.158 289.801C771.676 288.79 772.022 287.554 771.204 286.097C770.379 284.644 768.798 282.965 766.459 281.066C764.119 279.166 761.211 277.078 757.733 274.798C754.255 272.519 750.555 270.179 746.635 267.771C742.711 265.366 738.79 262.865 734.87 260.268C730.946 257.674 727.405 255.048 724.247 252.388C720.706 249.603 717.574 246.405 714.858 242.797C712.135 239.189 710.02 235.297 708.502 231.118C706.984 226.939 706.162 222.508 706.037 217.823C705.911 213.138 706.671 208.202 708.311 203.009C709.449 198.453 711.38 193.642 714.099 188.574C716.815 183.509 720.043 178.603 723.775 173.855C727.504 169.108 731.616 164.677 736.107 160.561C740.596 156.451 745.179 152.935 749.859 150.018C751.377 148.878 753.337 147.772 755.74 146.694C758.142 145.621 760.865 144.828 763.898 144.322C766.934 143.817 770.221 143.658 773.762 143.847C777.299 144.038 780.972 144.706 784.764 145.842C790.454 147.871 796.176 150.401 801.935 153.438C807.687 156.477 812.525 159.774 816.449 163.313C818.976 165.718 820.933 168.127 822.329 170.532C823.719 172.937 824.699 175.279 825.27 177.559C825.841 179.839 826.154 182.089 826.22 184.302C826.283 186.519 826.316 188.577 826.316 190.477C825.811 193.771 825.111 197.504 824.23 201.681C823.342 205.86 822.3 210.102 821.098 214.407C819.894 218.712 818.633 222.829 817.307 226.754C815.98 230.678 814.617 233.972 813.228 236.629C811.71 239.163 810.158 240.778 808.578 241.472C806.997 242.169 804.624 241.822 801.466 240.428C784.134 234.607 776.167 226.248 777.56 215.355C777.814 213.079 778.286 210.482 778.986 207.568C779.679 204.657 780.375 201.714 781.071 198.737C781.764 195.763 782.365 192.945 782.873 190.286C783.375 187.626 783.537 185.508 783.345 183.922C783.154 182.34 782.52 181.392 781.448 181.074C780.372 180.757 778.633 181.487 776.233 183.258C774.082 184.398 771.709 186.139 769.118 188.482C766.525 190.827 764.059 193.484 761.72 196.457C759.376 199.434 757.324 202.629 755.552 206.048C753.78 209.464 752.578 212.917 751.948 216.399C751.311 219.881 751.377 223.301 752.136 226.654C752.895 230.011 754.727 233.018 757.637 235.677C761.307 239.222 765.416 242.546 769.97 245.648C774.524 248.751 779.045 251.757 783.537 254.671C788.021 257.585 792.262 260.463 796.245 263.311C800.229 266.162 803.515 269.073 806.109 272.049C808.697 275.023 810.343 278.158 811.04 281.449C811.736 284.743 811.069 288.285 809.046 292.084C807.779 294.744 806.01 297.628 803.733 300.727C801.459 303.829 798.42 306.707 794.628 309.37C790.833 312.029 786.216 314.243 780.778 316.017C775.339 317.788 768.825 318.736 761.238 318.865C750.994 319.116 741.035 317.282 731.359 313.357C721.683 309.436 711.723 302.66 701.479 293.035C695.915 288.354 693.008 284.746 692.754 282.212C692.5 279.807 693.701 277.97 696.358 276.704C698.638 275.69 701.037 274.996 703.568 274.613" fill="#FDC30F"/>
<path d="M946.586 206.61C943.042 218.388 939.533 230.48 936.055 242.886C932.574 255.296 929.224 267.639 926 279.919C922.772 292.203 919.895 303.598 917.367 314.107C917.367 315.882 916.895 317.051 915.948 317.619C914.997 318.191 913.7 318.445 912.057 318.379C910.41 318.313 908.483 317.999 906.268 317.428C904.054 316.856 901.685 316.255 899.157 315.624C893.969 314.104 889.923 312.237 887.016 310.021C884.105 307.807 883.221 304.417 884.359 299.858C884.864 295.302 885.623 290.049 886.639 284.095C887.649 278.145 888.847 271.498 890.243 264.156C884.93 264.913 879.712 265.643 874.591 266.34C869.469 267.037 864.252 267.83 858.938 268.712C856.915 277.448 855.269 285.648 854.008 293.306C852.741 300.968 851.602 307.833 850.592 313.913C850.087 316.063 849.295 317.458 848.22 318.092C847.144 318.723 844.962 318.663 841.675 317.904C838.514 317.015 835.257 316.129 831.907 315.244C828.554 314.362 825.68 313.222 823.274 311.828C820.367 310.434 818.281 308.821 817.014 306.984C815.75 305.151 815.496 302.587 816.255 299.293C818.152 290.558 819.925 280.365 821.568 268.716C823.215 257.066 824.792 244.912 826.31 232.248C827.828 219.587 829.313 206.96 830.769 194.356C832.221 181.762 833.709 170.142 835.227 159.507C836.237 155.456 837.692 153.051 839.59 152.291C841.484 151.531 844.269 151.849 847.936 153.243C851.982 154.383 856.315 155.932 860.932 157.895C865.548 159.857 869.565 161.978 872.98 164.258C874.875 165.398 876.363 166.475 877.439 167.486C878.511 168.5 879.27 169.514 879.712 170.525C880.158 171.54 880.313 172.679 880.188 173.945C880.059 175.21 879.808 176.667 879.429 178.309C877.402 185.528 875.284 194.009 873.073 203.759C870.858 213.512 868.489 223.958 865.961 235.099C871.271 234.468 876.488 233.959 881.61 233.579C886.732 233.199 891.695 232.819 896.503 232.439C899.665 219.019 902.731 205.691 905.704 192.46C908.674 179.231 911.615 167.231 914.525 156.471C915.664 152.42 917.274 150.107 919.363 149.539C921.449 148.971 924.455 149.255 928.376 150.395C932.042 151.409 935.834 152.833 939.758 154.667C943.675 156.504 947.408 158.562 950.952 160.842C954.239 163.247 956.232 165.338 956.928 167.109C957.621 168.883 957.466 171.414 956.456 174.708C953.42 184.203 950.127 194.838 946.592 206.613" fill="#FDC30F"/>
</g>
<defs>
<clipPath id="clip0_60_59145">
<rect width="1013" height="365" fill="white"/>
</clipPath>
</defs>
</svg>
