<svg width="1061" height="246" viewBox="0 0 1061 246" fill="none" xmlns="http://www.w3.org/2000/svg">
<g clip-path="url(#clip0_45_58721)">
<path d="M276.861 30.5568C276.537 32.7851 276.069 34.6543 275.34 36.7084C273.712 41.2902 270.705 46.1631 267.02 49.749C264.59 52.1134 262.054 54.1213 259.452 55.5633C257.419 56.6924 255.308 57.6991 252.986 58.4609C250.499 59.2771 248.02 59.8077 245.614 60.1151C243.173 60.428 240.955 60.3682 238.742 60.3736C233.833 60.3845 229.335 59.7451 224.452 60.2457C224.044 60.2865 223.636 60.3246 223.23 60.3736C223.23 60.3736 223.25 60.2757 223.288 60.0961C223.296 60.0634 223.301 60.0308 223.307 59.9981C223.358 59.7451 223.435 59.3588 223.535 58.8527C225.435 49.4198 227.059 39.987 228.426 30.5541C229.794 21.1212 230.899 11.6884 231.735 2.2555C231.781 1.75216 231.816 1.36581 231.838 1.11006C231.838 1.07741 231.844 1.04476 231.846 1.01211C231.863 0.832542 231.871 0.734595 231.871 0.734595C232.263 0.783568 232.657 0.821659 233.055 0.865191C237.793 1.36309 242.473 0.726432 247.38 0.734595C249.59 0.740036 251.827 0.68018 254.178 0.993067C256.494 1.30051 258.791 1.86371 261.041 2.67994C263.145 3.44175 265.007 4.45931 266.702 5.59931C268.787 7.00594 270.858 9.02474 272.572 11.4108C275.125 14.9587 276.866 19.7717 277.109 24.4025C277.217 26.4621 277.182 28.3258 276.858 30.5514L276.861 30.5568ZM258.394 30.5568C258.902 27.047 258.089 23.8365 256.26 21.5375C254.488 19.3092 251.843 17.8917 248.42 18.1175C248.42 18.1175 247.892 21.3824 246.58 30.5568C245.236 39.7339 244.811 43.0424 244.811 43.0424C248.229 43.2628 251.356 41.8452 253.813 39.4782C256.167 37.2091 257.896 34.0312 258.399 30.5568H258.394Z" fill="white"/>
<path d="M329.156 60.3763C325.961 60.0852 322.722 59.8838 319.457 59.8757C316.079 59.8675 312.672 60.0607 309.281 60.3763C309.197 59.5437 308.974 57.5168 308.647 54.796C302.924 53.8356 297.046 53.792 291.056 54.66C289.891 57.495 289.056 59.5791 288.748 60.3654C285.494 60.0579 282.198 59.8675 278.875 59.8757C275.612 59.8838 272.322 60.0852 269.04 60.3763C279.351 41.0888 288.713 20.8301 296.662 0.73999C296.796 0.750873 302.197 1.20252 307.597 1.20524C312.961 1.20252 318.452 0.756315 318.659 0.73999C320.828 20.8464 324.399 41.1079 329.158 60.3763H329.156ZM306.367 38.2892C305.964 35.7589 305.534 33.2694 305.085 30.9812C304.764 29.3134 304.41 27.5367 304.045 25.7165C303.147 27.5367 302.276 29.3134 301.474 30.9812C300.352 33.2911 299.193 35.7997 298.047 38.3463C300.791 38.5368 303.564 38.5231 306.369 38.2892H306.367Z" fill="white"/>
<path d="M380.854 60.4253C377.357 60.1097 373.89 59.8893 370.393 59.8784C366.678 59.8675 362.934 60.0798 359.121 60.4117C359.328 59.1384 360.087 55.5334 359.007 50.8373C358.383 48.1302 356.533 44.2395 352.522 43.2301C352.522 43.2301 352.516 43.2301 352.511 43.2274C351.896 48.5927 351.354 54.2192 350.837 60.379C347.664 60.0934 344.477 59.8947 341.266 59.8811C337.812 59.8648 334.332 60.0553 330.832 60.3736C334.925 40.4685 337.818 20.5662 339.508 0.661133C349.161 1.6134 356.111 0.835261 361.6 0.740035C366.371 0.658412 369.843 0.840703 373.131 1.74127C377.117 2.8323 380.53 5.26737 382.729 8.47787C384.56 11.1551 385.646 14.3166 385.75 17.957C385.848 21.4123 384.982 25.1017 383.096 28.6468C381.673 31.3213 379.564 33.8952 376.932 36.0772C375.574 37.2036 374.05 38.1559 372.761 38.866C374.997 40.3788 376.464 42.1881 377.433 44.6639C379.531 50.0266 378.565 55.6068 380.857 60.4253H380.854ZM367.457 22.0136C367.944 18.6508 365.337 15.9926 361.644 15.9001C358.713 15.8266 356.93 16.0198 356.318 16.1042C355.613 20.3268 354.984 24.5004 354.421 28.4727C354.527 28.4836 355.959 28.6006 359.861 28.2061C363.943 27.7925 366.958 25.4554 367.446 22.0925L367.457 22.0136Z" fill="white"/>
<path d="M404.091 60.3763C400.804 60.0798 397.505 59.8811 394.174 59.8757C390.843 59.8757 387.488 60.0662 384.113 60.3736C388.204 40.4685 391.096 20.5662 392.789 0.661133C399.339 1.2733 405.98 1.28963 412.707 0.699223C408.641 20.5771 405.765 40.4957 404.091 60.3736V60.3763Z" fill="white"/>
<path d="M472.848 60.3817C461.187 59.7233 449.169 59.7233 437.314 60.3817C441.397 40.5093 444.311 20.5281 445.998 0.65564C452.56 1.26781 459.208 1.28141 465.944 0.696451C463.064 14.7709 460.786 28.8454 459.11 42.9172C464.542 42.9172 469.993 42.7702 475.428 42.4601C473.827 48.3124 472.954 54.5239 472.848 60.379V60.3817Z" fill="#FAC215"/>
<path d="M514.332 60.3763C507.953 60.0743 501.512 59.8675 495.037 59.8757C488.95 59.8866 482.837 60.0933 476.758 60.3763C480.84 40.5148 483.741 20.6043 485.431 0.742746C497.805 1.32227 510.443 1.31955 522.983 0.737305C521.291 6.54884 520.199 12.4855 519.778 18.3433C519.394 18.3188 510.979 17.8046 502.363 17.8672L501.566 23.6134C506.209 23.6787 510.898 23.4311 515.636 22.8407C515.636 22.8407 514.879 24.9793 514.063 30.6194C513.246 36.2595 513.336 38.7218 513.336 38.7218C508.797 38.1368 504.208 37.8865 499.577 37.9491L498.687 44.3538C507.27 44.4408 515.353 43.8831 515.927 43.8423C514.833 49.3382 514.297 54.9348 514.332 60.3763Z" fill="#FAC215"/>
<path d="M562.689 59.405C559.456 60.2294 554.005 61.051 550.018 61.1517C543.248 61.3177 538.621 60.6266 532.778 57.5277C523.975 52.5215 518.918 42.8845 520.521 31.8219L520.902 29.1991C522.306 19.5078 528.5 10.9129 536.909 5.56391C540.777 3.06898 544.573 1.54808 548.938 0.748173C556.182 -0.576836 561.644 1.32497 570.252 0.00268555C567.468 7.05489 565.601 14.3139 564.757 21.5756C564.757 21.5756 564.066 20.773 563.103 20.2152C558.945 17.7964 553.33 17.2741 548.062 20.022C546.162 21.0124 544.54 22.3292 543.359 23.8801C541.857 25.8526 541 27.7816 540.632 30.331C540.216 33.2014 540.458 35.1113 541.413 37.0866C542.211 38.7381 543.539 40.1774 545.585 41.3038C547.346 42.2778 549.874 42.8737 552.601 42.7893C554.087 42.7431 555.671 42.5009 557.535 41.8806C560.12 41.0181 562.134 39.6169 563.468 38.2701C562.319 45.2353 562.006 52.6466 562.695 59.405H562.689Z" fill="#FAC215"/>
<path d="M603.82 60.3763C597.441 60.0743 591 59.8675 584.526 59.8757C578.438 59.8866 572.326 60.0933 566.246 60.3763C570.328 40.5148 573.229 20.6043 574.919 0.742746C587.293 1.32227 599.932 1.31955 612.472 0.737305C610.779 6.54884 609.688 12.4855 609.266 18.3433C608.882 18.3188 600.468 17.8046 591.852 17.8672L591.054 23.6134C595.697 23.6787 600.386 23.4311 605.124 22.8407C605.124 22.8407 604.367 24.9793 603.551 30.6194C602.735 36.2595 602.824 38.7218 602.824 38.7218C598.285 38.1368 593.697 37.8865 589.065 37.9491L588.175 44.3538C596.758 44.4408 604.841 43.8831 605.415 43.8423C604.321 49.3382 603.785 54.9348 603.82 60.3763Z" fill="#FAC215"/>
<path d="M643.199 18.0495C640.779 32.1431 638.983 46.2366 637.813 60.3301C634.904 60.0743 631.984 59.9002 629.045 59.8757C625.325 59.8458 621.575 60.0308 617.803 60.3682C620.72 46.2611 623.006 32.1539 624.672 18.0495C618.186 18.2998 613.351 18.708 613.351 18.708C613.351 18.708 614.287 14.3956 614.885 9.38664C615.487 4.37772 615.514 0.658447 615.514 0.658447C615.514 0.658447 627.042 1.02303 636.491 1.09105C647.286 1.02303 657.394 0.658447 657.394 0.658447C657.394 0.658447 656.343 4.38044 655.494 9.38664C654.645 14.3956 654.329 18.708 654.329 18.708C654.329 18.708 649.613 18.2998 643.202 18.0495H643.199Z" fill="#FAC215"/>
<path d="M728.413 40.8876C729.409 47.3575 728.824 52.4998 730.968 60.3764C727.64 59.9791 724.236 59.8839 720.818 59.8757C717.263 59.8703 713.693 59.9682 710.114 60.3764C710.64 57.2339 711.159 53.4629 710.395 48.4186C709.412 41.9215 705.929 37.9791 701.928 37.6308C700.946 45.1973 700.135 52.7637 699.496 60.3328C692.913 59.7397 686.242 59.756 679.482 60.3709C683.575 40.4659 686.468 20.5635 688.158 0.658447C694.719 1.27062 701.368 1.28694 708.103 0.699259C706.802 7.06311 705.624 13.4297 704.568 19.7908C708.354 18.8848 711.102 15.8974 712.681 13.7807C716.096 9.20163 717.394 3.63768 718.077 0.693817C721.846 1.04479 725.681 1.11826 729.523 1.11281C733.083 1.10737 736.648 1.04479 740.232 0.696538C734.487 7.83036 734.155 11.5741 729.945 18.025C728.089 20.8655 726.122 23.7577 721.014 27.2919C725.703 30.0753 727.599 35.6147 728.41 40.8903L728.413 40.8876Z" fill="#FAC215"/>
<path d="M771.574 60.3763C765.195 60.0743 758.754 59.8675 752.28 59.8757C746.192 59.8866 740.08 60.0933 734 60.3763C738.082 40.5148 740.983 20.6043 742.673 0.742746C755.047 1.32227 767.685 1.31955 780.226 0.737305C778.533 6.54884 777.442 12.4855 777.02 18.3433C776.636 18.3188 768.222 17.8046 759.606 17.8672L758.808 23.6134C763.451 23.6787 768.14 23.4311 772.878 22.8407C772.878 22.8407 772.121 24.9793 771.305 30.6194C770.488 36.2595 770.578 38.7218 770.578 38.7218C766.039 38.1368 761.451 37.8865 756.819 37.9491L755.929 44.3538C764.512 44.4408 772.595 43.8831 773.169 43.8423C772.075 49.3382 771.539 54.9348 771.574 60.3763Z" fill="#FAC215"/>
<path d="M819.931 59.405C816.698 60.2294 811.247 61.051 807.261 61.1517C800.49 61.3177 795.863 60.6266 790.021 57.5277C781.217 52.5215 776.161 42.8845 777.763 31.8219L778.144 29.1991C779.549 19.5078 785.743 10.9129 794.152 5.56391C798.019 3.06898 801.815 1.54808 806.18 0.748173C813.425 -0.576836 818.886 1.32497 827.494 0.00268555C824.71 7.05489 822.843 14.3139 822 21.5756C822 21.5756 821.308 20.773 820.345 20.2152C816.187 17.7964 810.572 17.2741 805.304 20.022C803.404 21.0124 801.782 22.3292 800.601 23.8801C799.099 25.8526 798.242 27.7816 797.875 30.331C797.458 33.2014 797.7 35.1113 798.656 37.0866C799.453 38.7381 800.781 40.1774 802.827 41.3038C804.588 42.2778 807.116 42.8737 809.843 42.7893C811.329 42.7431 812.913 42.5009 814.777 41.8806C817.362 41.0181 819.376 39.6169 820.71 38.2701C819.561 45.2353 819.248 52.6466 819.937 59.405H819.931Z" fill="#FAC215"/>
<path d="M843.463 60.3763C840.176 60.0798 836.877 59.8811 833.546 59.8757C830.218 59.8757 826.86 60.0662 823.485 60.3736C827.576 40.4685 830.468 20.5662 832.161 0.661133C838.712 1.2733 845.352 1.28963 852.079 0.699223C848.013 20.5771 845.137 40.4957 843.463 60.3736V60.3763Z" fill="#FAC215"/>
<path d="M884.26 60.3817C872.599 59.7233 860.581 59.7233 848.727 60.3817C852.809 40.5093 855.723 20.5281 857.411 0.65564C863.972 1.26781 870.62 1.28141 877.356 0.696451C874.476 14.7709 872.199 28.8454 870.522 42.9172C875.954 42.9172 881.405 42.7702 886.84 42.4601C885.239 48.3124 884.366 54.5239 884.26 60.379V60.3817Z" fill="#FAC215"/>
<path d="M138.45 117.346C138.967 118.786 139.28 120.851 139.046 122.905C138.801 125.051 138.17 127.584 136.801 129.897C135.642 131.851 134.657 133.045 133.405 134.248C132.812 134.819 132.017 135.505 131.288 136.016C130.297 136.715 129.309 137.382 128.006 137.967C126.659 138.574 125.325 139.091 123.564 139.374C122.068 139.613 120.454 139.659 118.007 139.507C114.883 139.311 112.728 138.832 108.926 137.997C105.723 137.292 100.577 135.586 94.6768 135.992C97.2158 128.267 99.2052 120.195 99.51 112.634C99.51 112.634 105.87 117.232 108.224 118.745C113.111 121.89 116.758 124.042 117.534 124.265C118.086 124.42 118.688 124.328 119.104 124.015C119.626 123.623 119.787 123.182 119.844 122.804C119.893 122.486 119.801 122.143 119.529 121.795C119.09 121.24 118.552 120.619 118.089 120.149C117.898 119.955 117.722 119.776 117.575 119.615C116.257 118.184 114.845 116.799 113.599 115.575C112.905 114.892 112.262 114.264 111.721 113.706C109.195 111.116 106.667 108.528 104.376 105.108C102.18 101.835 101.657 99.596 101.622 97.2997C101.586 95.0388 102.038 92.7778 102.795 90.7726C103.559 88.7538 104.939 86.7405 106.194 85.3393C107.462 83.9218 109.342 82.4417 110.632 81.6663C115.501 78.7414 119.368 78.268 125.091 78.5537C130.308 78.8149 136.254 80.3059 142.029 79.0054C139.634 86.1637 137.824 95.1503 137.332 102.17C137.28 102.132 136.137 101.321 134.624 100.225C132.882 98.9648 130.534 97.4194 128.822 96.3311C127.206 95.3027 124.843 93.8117 123.317 93.0553C122.198 92.5003 121.257 92.9982 120.843 93.7002C120.549 94.1926 120.489 94.7694 120.925 95.3544C121.529 96.1679 123.809 98.6166 124.999 99.8409C127.249 102.159 131.429 106.469 133.993 109.78C136.311 112.775 137.664 115.142 138.459 117.344L138.45 117.346Z" fill="white"/>
<path d="M196.791 138.808C193.596 138.516 190.358 138.315 187.092 138.307C183.715 138.299 180.308 138.492 176.917 138.808C176.833 137.975 176.609 135.948 176.283 133.227C170.56 132.267 164.682 132.223 158.692 133.091C157.527 135.926 156.692 138.01 156.384 138.797C153.129 138.489 149.834 138.299 146.511 138.307C143.248 138.315 139.958 138.516 136.676 138.808C146.987 119.52 156.349 99.2613 164.298 79.1713C164.431 79.1821 169.833 79.6338 175.232 79.6365C180.596 79.6338 186.088 79.1876 186.295 79.1713C188.464 99.2777 192.034 119.539 196.794 138.808H196.791ZM174.002 116.72C173.6 114.19 173.17 111.701 172.721 109.412C172.399 107.745 172.046 105.968 171.681 104.148C170.783 105.968 169.912 107.745 169.109 109.412C167.988 111.722 166.829 114.231 165.683 116.778C168.426 116.968 171.199 116.954 174.005 116.72H174.002Z" fill="white"/>
<path d="M261.887 138.81C258.703 138.525 255.505 138.323 252.283 138.31C248.841 138.293 245.368 138.484 241.879 138.802C243.379 131.511 245.564 118.772 246.729 112.112L231.519 131.747L221.983 112.079C221.213 118.742 219.697 131.524 219.082 138.81C215.811 138.517 212.529 138.318 209.214 138.31C205.859 138.304 202.479 138.492 199.077 138.802C203.17 118.897 206.063 98.9948 207.753 79.0897C214.314 79.7019 220.527 79.7563 227.263 79.1686L235.702 102.714L250.996 79.1686C257.557 79.7835 263.759 79.7182 270.495 79.1278C266.429 99.0057 263.555 118.93 261.881 138.808L261.887 138.81Z" fill="white"/>
<path d="M321.769 100.679C321.38 103.362 320.607 105.778 319.233 108.49C317.986 110.944 316.225 113.366 313.485 115.863C311.278 117.874 308.731 119.637 304.235 121.022C299.892 122.361 297.162 122.646 289.333 123.25C288.758 128.289 288.252 133.42 287.803 138.764C284.513 138.47 281.201 138.304 277.865 138.312C274.528 138.321 271.17 138.497 267.79 138.805C271.883 118.9 274.776 98.9975 276.466 79.0924C287.496 80.042 294.805 79.1876 300.577 79.1713C304.232 79.1604 307.163 79.4189 309.841 80.2215C313.719 81.3806 316.93 83.6551 319.11 87.0642C321.274 90.4461 322.607 94.8891 321.769 100.679ZM304.145 100.442C304.632 97.0793 302.025 94.4212 298.332 94.3287C295.488 94.2579 293.758 94.3559 293.11 94.4048C292.443 98.6274 291.869 102.79 291.336 106.918C291.874 106.939 293.412 106.956 296.55 106.637C300.635 106.224 303.647 103.887 304.134 100.524L304.145 100.442Z" fill="white"/>
<path d="M368.928 138.808C365.733 138.516 362.495 138.315 359.229 138.307C355.852 138.299 352.445 138.492 349.054 138.808C348.969 137.975 348.746 135.948 348.42 133.227C342.697 132.267 336.818 132.223 330.829 133.091C329.664 135.926 328.828 138.01 328.521 138.797C325.266 138.489 321.97 138.299 318.648 138.307C315.385 138.315 312.094 138.516 308.812 138.808C319.124 119.52 328.485 99.2613 336.435 79.1713C336.568 79.1821 341.97 79.6338 347.369 79.6365C352.733 79.6338 358.225 79.1876 358.432 79.1713C360.601 99.2777 364.171 119.539 368.931 138.808H368.928ZM346.139 116.72C345.736 114.19 345.306 111.701 344.857 109.412C344.536 107.745 344.182 105.968 343.818 104.148C342.92 105.968 342.049 107.745 341.246 109.412C340.125 111.722 338.966 114.231 337.82 116.778C340.563 116.968 343.336 116.954 346.142 116.72H346.139Z" fill="white"/>
<path d="M390.576 138.808C387.289 138.511 383.991 138.312 380.66 138.307C377.329 138.307 373.973 138.497 370.599 138.805C374.689 118.9 377.582 98.9975 379.274 79.0924C385.825 79.7046 392.465 79.7209 399.192 79.1305C395.127 99.0083 392.25 118.927 390.576 138.805V138.808Z" fill="white"/>
<path d="M449.394 96.2985L448.596 102.047C453.244 102.113 457.939 101.865 462.682 101.275C462.682 101.275 461.926 103.411 461.109 109.051C460.293 114.691 460.383 117.156 460.383 117.156C455.71 116.552 450.986 116.304 446.212 116.389C445.246 123.846 444.438 131.35 443.809 138.808C440.468 138.506 437.107 138.307 433.718 138.307C430.33 138.307 427.127 138.497 423.802 138.799C425.731 129.416 427.391 120.032 428.787 110.648H428.776C430.333 100.173 431.566 89.6353 432.458 79.1604C433.133 79.193 433.811 79.2257 434.489 79.2529C434.497 79.2529 434.505 79.2529 434.513 79.2529C434.644 79.2583 434.774 79.2611 434.908 79.2665C436.334 79.3264 437.762 79.3753 439.194 79.4189C439.327 79.4216 439.461 79.427 439.597 79.4298C449.671 79.7263 459.871 79.642 470.014 79.174C468.321 84.9828 467.232 90.9141 466.808 96.7691C466.424 96.7447 458.01 96.2304 449.394 96.293V96.2985Z" fill="#FDC30F"/>
<path d="M523.135 79.0898C521.048 89.2164 519.279 99.3404 517.823 109.467C516.74 116.946 516.008 121.871 513.831 126.583C512.625 129.193 510.943 131.938 508.358 134.169C506.311 135.937 503.615 137.442 500.169 138.323C495.14 139.61 492.032 139.605 489.159 139.605C486.285 139.605 483.174 139.61 478.521 138.323C475.328 137.442 473.067 135.937 471.532 134.169C469.597 131.938 468.707 129.193 468.258 126.583C467.445 121.871 468.141 116.946 469.224 109.467C470.705 99.3404 471.864 89.2164 472.71 79.0898C479.506 79.6829 488.133 79.6693 494.054 79.049C494.054 79.049 491.706 88.1118 489.256 101.133C486.951 113.39 485.738 118.209 487.409 120.924C488.315 122.399 489.681 122.777 491.594 122.777C493.507 122.777 494.985 122.399 496.316 120.924C498.773 118.209 498.956 113.39 500.199 101.133C501.522 88.1145 501.799 79.049 501.799 79.049C507.544 79.6666 516.166 79.6829 523.132 79.0898H523.135Z" fill="#FDC30F"/>
<path d="M554.513 138.813C542.852 138.155 530.834 138.155 518.979 138.813C523.062 118.941 525.976 98.9594 527.663 79.087C534.225 79.6992 540.873 79.7128 547.609 79.1278C544.729 93.2023 542.451 107.277 540.775 121.349C546.207 121.349 551.658 121.202 557.093 120.891C555.492 126.744 554.619 132.955 554.513 138.81V138.813Z" fill="#FDC30F"/>
<path d="M593.954 138.813C582.293 138.155 570.275 138.155 558.421 138.813C562.503 118.941 565.418 98.9594 567.105 79.087C573.666 79.6992 580.314 79.7128 587.05 79.1278C584.171 93.2023 581.893 107.277 580.217 121.349C585.648 121.349 591.099 121.202 596.534 120.891C594.934 126.744 594.06 132.955 593.954 138.81V138.813Z" fill="#FDC30F"/>
<path d="M674.708 138.857C671.211 138.541 667.744 138.321 664.247 138.31C660.533 138.299 656.788 138.511 652.975 138.843C653.182 137.57 653.941 133.965 652.861 129.269C652.238 126.561 650.387 122.671 646.376 121.661C646.376 121.661 646.371 121.661 646.365 121.659C645.75 127.024 645.209 132.651 644.691 138.81C641.518 138.525 638.332 138.326 635.12 138.312C631.667 138.296 628.186 138.487 624.687 138.805C628.779 118.9 631.672 98.9975 633.362 79.0924C643.015 80.0447 649.966 79.2665 655.455 79.1713C660.225 79.0897 663.698 79.272 666.985 80.1725C670.972 81.2636 674.385 83.6986 676.583 86.9091C678.415 89.5864 679.501 92.7479 679.604 96.3883C679.702 99.8436 678.837 103.533 676.951 107.078C675.528 109.753 673.419 112.326 670.787 114.509C669.429 115.635 667.905 116.587 666.615 117.297C668.852 118.81 670.319 120.619 671.288 123.095C673.386 128.458 672.42 134.038 674.711 138.857H674.708ZM661.314 100.445C661.801 97.0821 659.194 94.4239 655.501 94.3314C652.57 94.2579 650.787 94.4511 650.175 94.5354C649.47 98.758 648.842 102.932 648.278 106.904C648.384 106.915 649.816 107.032 653.718 106.637C657.8 106.224 660.816 103.887 661.303 100.524L661.314 100.445Z" fill="#FDC30F"/>
<path d="M715.549 138.808C709.17 138.506 702.728 138.299 696.254 138.307C690.166 138.318 684.054 138.525 677.975 138.808C682.057 118.946 684.958 99.0355 686.648 79.174C699.022 79.7535 711.66 79.7508 724.2 79.1686C722.507 84.9801 721.416 90.9168 720.994 96.7746C720.611 96.7501 712.196 96.2359 703.583 96.2985L702.786 102.045C707.428 102.11 712.117 101.862 716.855 101.272C716.855 101.272 716.099 103.411 715.282 109.051C714.466 114.691 714.556 117.153 714.556 117.153C710.016 116.568 705.428 116.318 700.796 116.38L699.906 122.785C708.49 122.872 716.572 122.314 717.146 122.274C716.052 127.769 715.516 133.366 715.552 138.808H715.549Z" fill="#FDC30F"/>
<path d="M774.284 100.679C773.895 103.362 773.122 105.778 771.748 108.49C770.502 110.944 768.741 113.366 766.001 115.863C763.793 117.874 761.246 119.637 756.751 121.022C752.407 122.361 749.678 122.646 741.848 123.25C741.274 128.289 740.768 133.42 740.319 138.764C737.029 138.47 733.717 138.304 730.38 138.312C727.044 138.321 723.686 138.497 720.306 138.805C724.399 118.9 727.291 98.9975 728.981 79.0924C740.011 80.042 747.321 79.1876 753.093 79.1713C756.748 79.1604 759.679 79.4189 762.357 80.2215C766.235 81.3806 769.446 83.6551 771.626 87.0642C773.789 90.4461 775.123 94.8891 774.284 100.679ZM756.661 100.442C757.148 97.0793 754.541 94.4212 750.848 94.3287C748.004 94.2579 746.273 94.3559 745.626 94.4048C744.959 98.6274 744.385 102.79 743.851 106.918C744.39 106.939 745.928 106.956 749.065 106.637C753.15 106.224 756.163 103.887 756.65 100.524L756.661 100.442Z" fill="#FDC30F"/>
<path d="M821.444 138.808C818.249 138.516 815.01 138.315 811.745 138.307C808.367 138.299 804.96 138.492 801.569 138.808C801.485 137.975 801.262 135.948 800.935 133.227C795.212 132.267 789.334 132.223 783.344 133.091C782.179 135.926 781.344 138.01 781.036 138.797C777.782 138.489 774.486 138.299 771.163 138.307C767.9 138.315 764.61 138.516 761.328 138.808C771.639 119.52 781.001 99.2613 788.95 79.1713C789.084 79.1821 794.486 79.6338 799.885 79.6365C805.249 79.6338 810.74 79.1876 810.947 79.1713C813.116 99.2777 816.687 119.539 821.446 138.808H821.444ZM798.655 116.72C798.252 114.19 797.822 111.701 797.373 109.412C797.052 107.745 796.698 105.968 796.333 104.148C795.435 105.968 794.564 107.745 793.759 109.412C792.638 111.722 791.478 114.231 790.333 116.778C793.076 116.968 795.849 116.954 798.655 116.72Z" fill="#FDC30F"/>
<path d="M843.092 138.808C839.805 138.511 836.506 138.312 833.175 138.307C829.844 138.307 826.489 138.497 823.114 138.805C827.205 118.9 830.097 98.9975 831.79 79.0924C838.34 79.7046 844.981 79.7209 851.708 79.1305C847.642 99.0083 844.766 118.927 843.092 138.805V138.808Z" fill="#FDC30F"/>
<path d="M907.475 79.0897C903.412 98.9404 900.544 118.791 898.867 138.642L898.845 138.799C895.67 138.503 892.703 138.312 889.718 138.307C886.518 138.302 883.298 138.5 879.807 138.808C877.746 130.229 875.534 123.808 870.635 114.821C869.765 122.763 869.052 130.702 868.382 138.642L868.36 138.799C865.114 138.495 861.848 138.307 858.555 138.307C855.181 138.307 851.774 138.508 848.355 138.808C852.44 118.93 855.341 99.0057 857.031 79.1305C863.595 79.7182 869.305 79.7046 876.043 79.0897C878.127 86.6344 881.037 95.6809 885.053 104.706C886.019 96.1815 886.795 87.6547 887.519 79.1305C894.083 79.7182 900.737 79.7046 907.475 79.0897Z" fill="#FDC30F"/>
<path d="M939.07 96.4808C936.651 110.574 934.854 124.668 933.684 138.761C930.775 138.506 927.855 138.331 924.916 138.307C921.196 138.277 917.446 138.462 913.674 138.799C916.591 124.692 918.877 110.585 920.543 96.4808C914.058 96.7311 909.222 97.1392 909.222 97.1392C909.222 97.1392 910.158 92.8268 910.757 87.8179C911.358 82.809 911.385 79.0897 911.385 79.0897C911.385 79.0897 922.913 79.4543 932.362 79.5223C943.157 79.4543 953.265 79.0897 953.265 79.0897C953.265 79.0897 952.214 82.8117 951.365 87.8179C950.516 92.8268 950.2 97.1392 950.2 97.1392C950.2 97.1392 945.484 96.7311 939.073 96.4808H939.07Z" fill="#FDC30F"/>
<path d="M52.2373 218.251C49.5894 218.014 46.9306 217.848 44.25 217.835C41.3871 217.821 38.4997 217.979 35.596 218.243C36.8424 212.178 38.6603 201.584 39.6291 196.044L26.9801 212.374L19.05 196.014C18.4077 201.556 17.1477 212.186 16.6388 218.246C13.9201 218.001 11.1878 217.837 8.4338 217.829C5.64437 217.824 2.83046 217.982 0.00292969 218.24C3.40739 201.684 5.8131 185.131 7.22006 168.578C12.6765 169.087 17.8444 169.133 23.4477 168.643L30.4662 188.227L43.1887 168.643C48.6451 169.155 53.8048 169.101 59.4055 168.611C56.0228 185.142 53.6334 201.714 52.2428 218.246L52.2373 218.251Z" fill="white"/>
<path d="M110.905 192.262L110.59 194.45C109.161 204.323 101.775 212.831 92.3535 216.7C88.8756 218.129 85.1228 218.926 81.2856 218.926C67.0582 218.926 57.1142 207.967 59.0709 194.45L59.3866 192.262C61.3433 178.743 74.4631 167.786 88.6905 167.786C102.918 167.786 112.862 178.743 110.905 192.262ZM94.5252 192.932C95.2817 187.7 91.6541 183.458 86.4209 183.458C81.1876 183.458 76.33 187.7 75.5734 192.932L75.4509 193.778C74.6944 199.01 78.322 203.251 83.5553 203.251C88.7885 203.251 93.6462 199.01 94.4027 193.778L94.5252 192.932Z" fill="white"/>
<path d="M151.753 205.485C151.356 207.039 150.621 208.84 149.375 210.619C148.664 211.634 147.897 212.516 147.102 213.269C146.15 214.17 145.205 214.915 144.166 215.541C142.563 216.507 140.843 217.266 139.137 217.642C135.95 218.346 132.486 218.338 128.932 218.273C121.211 218.129 119.861 217.293 110.072 218.254C113.471 201.72 115.877 185.186 117.287 168.654C124.882 169.228 129.789 168.834 133.972 168.703C137.469 168.592 140.375 168.717 143.012 169.46C145.132 170.055 147.102 170.983 148.692 172.262C151.437 174.469 152.716 177.725 152.956 180.087C153.089 181.417 153.114 182.307 152.888 183.831C152.678 185.248 152.368 186.323 151.764 187.689C150.975 189.479 149.701 191.364 148.218 192.809C149.247 193.729 150.515 195.299 151.217 196.95C151.889 198.534 152.325 200.359 152.208 202.533C152.156 203.464 152.006 204.508 151.756 205.485H151.753ZM136.791 202.394C137.145 200.109 135.512 198.221 133.158 198.196L128.989 198.153C128.578 201.069 128.221 203.94 127.927 206.514L131.854 206.554C134.208 206.579 136.424 204.732 136.78 202.449L136.788 202.394H136.791ZM130.504 187.67L133.272 187.632C135.332 187.602 137.24 185.896 137.507 183.842L137.512 183.793C137.781 181.736 136.315 180.079 134.255 180.106L131.528 180.144C131.209 182.454 130.858 185.036 130.504 187.67Z" fill="white"/>
<path d="M169.693 218.251C166.958 218.006 164.215 217.84 161.444 217.835C158.674 217.835 155.882 217.993 153.076 218.248C156.478 201.693 158.886 185.139 160.293 168.584C165.742 169.092 171.263 169.106 176.858 168.616C173.476 185.148 171.084 201.714 169.693 218.248V218.251Z" fill="white"/>
<path d="M203.623 218.256C193.924 217.707 183.928 217.71 174.071 218.256C177.468 201.728 179.89 185.109 181.294 168.581C186.75 169.09 192.28 169.103 197.881 168.613C195.486 180.318 193.592 192.026 192.196 203.73C196.713 203.73 201.247 203.608 205.767 203.352C204.437 208.22 203.71 213.386 203.623 218.256Z" fill="white"/>
<path d="M258.731 218.256C249.032 217.707 239.037 217.71 229.18 218.256C232.576 201.728 234.998 185.109 236.402 168.581C241.859 169.09 247.389 169.103 252.989 168.613C250.594 180.318 248.7 192.026 247.304 203.73C251.822 203.73 256.355 203.608 260.876 203.352C259.545 208.22 258.818 213.386 258.731 218.256Z" fill="white"/>
<path d="M314.795 192.262L314.479 194.45C313.05 204.323 305.665 212.831 296.243 216.7C292.765 218.129 289.012 218.926 285.175 218.926C270.948 218.926 261.004 207.967 262.961 194.45L263.276 192.262C265.233 178.743 278.353 167.786 292.58 167.786C306.808 167.786 316.752 178.743 314.795 192.262ZM298.415 192.932C299.171 187.7 295.544 183.458 290.311 183.458C285.077 183.458 280.22 187.7 279.463 192.932L279.341 193.778C278.584 199.01 282.212 203.251 287.445 203.251C292.678 203.251 297.536 199.01 298.292 193.778L298.415 192.932Z" fill="white"/>
<path d="M369.201 193.495C368.311 199.63 367.729 203.923 366.109 207.841C365.105 210.271 363.943 212.034 361.663 214.069C359.994 215.557 358.035 216.842 355.172 217.565C351.479 218.499 348.739 218.226 345.647 217.949C342.773 217.69 339.668 217.587 335.973 218.21C337.407 213.109 338.172 207.888 338.231 202.781C342.986 203.888 345.748 204.405 347.413 204.405C349.079 204.405 350.23 204.095 351.338 202.887C353.379 200.659 353.229 197.252 354.47 187.191C354.628 185.915 354.927 183.863 355.202 182.576C350.875 182.375 345.1 183.033 345.1 183.033C346.393 178.242 347.095 173.356 347.185 168.564C355.85 169.103 364.762 169.098 373.58 168.554C371.198 177.121 370.311 184.865 369.204 193.492L369.201 193.495Z" fill="white"/>
<path d="M415.206 218.251C412.547 218.009 409.856 217.843 407.137 217.835C404.329 217.827 401.493 217.987 398.674 218.251C398.603 217.56 398.418 215.873 398.146 213.609C393.386 212.809 388.496 212.774 383.515 213.495C382.547 215.854 381.853 217.587 381.597 218.24C378.889 217.984 376.149 217.827 373.384 217.832C370.67 217.837 367.933 218.006 365.203 218.248C373.778 202.207 381.567 185.357 388.177 168.646C388.289 168.654 392.782 169.03 397.269 169.032C401.73 169.03 406.299 168.657 406.47 168.646C408.275 185.371 411.244 202.22 415.203 218.248L415.206 218.251ZM396.254 199.88C395.919 197.775 395.56 195.704 395.187 193.802C394.921 192.415 394.627 190.937 394.322 189.425C393.574 190.94 392.85 192.417 392.183 193.802C391.25 195.723 390.286 197.81 389.334 199.929C391.617 200.087 393.922 200.076 396.254 199.883V199.88Z" fill="white"/>
<path d="M461.304 193.449C461.034 195.301 460.645 196.855 460.038 198.564C458.686 202.375 456.185 206.427 453.121 209.411C451.101 211.378 448.99 213.046 446.826 214.249C445.136 215.187 443.381 216.025 441.449 216.659C439.378 217.34 437.317 217.78 435.317 218.033C433.287 218.292 431.442 218.246 429.602 218.248C425.52 218.256 421.778 217.726 417.718 218.142C417.378 218.178 417.04 218.21 416.7 218.248C416.7 218.248 416.717 218.167 416.746 218.017C416.752 217.99 416.757 217.963 416.763 217.935C416.806 217.723 416.869 217.402 416.953 216.983C418.532 209.139 419.884 201.293 421.019 193.446C422.157 185.602 423.076 177.755 423.77 169.909C423.808 169.49 423.838 169.169 423.855 168.956C423.855 168.929 423.86 168.902 423.86 168.875C423.874 168.725 423.879 168.643 423.879 168.643C424.206 168.684 424.535 168.717 424.864 168.752C428.805 169.166 432.699 168.638 436.779 168.643C438.618 168.646 440.477 168.6 442.431 168.858C444.358 169.114 446.268 169.582 448.14 170.262C449.89 170.896 451.439 171.74 452.848 172.692C454.582 173.862 456.305 175.541 457.731 177.524C459.853 180.476 461.301 184.476 461.505 188.331C461.595 190.042 461.565 191.593 461.298 193.446L461.304 193.449ZM445.944 193.449C446.366 190.529 445.691 187.86 444.17 185.945C442.698 184.092 440.496 182.911 437.647 183.099C437.647 183.099 437.209 185.814 436.117 193.446C434.999 201.078 434.645 203.831 434.645 203.831C437.489 204.013 440.088 202.835 442.132 200.865C444.091 198.977 445.525 196.335 445.944 193.446V193.449Z" fill="white"/>
<path d="M477.022 218.251C474.287 218.006 471.544 217.84 468.774 217.835C466.003 217.835 463.211 217.993 460.405 218.248C463.807 201.693 466.213 185.139 467.622 168.584C473.071 169.092 478.592 169.106 484.187 168.616C480.805 185.148 478.413 201.714 477.022 218.248V218.251Z" fill="white"/>
<path d="M553.776 218.493C555.126 227.268 554.334 234.238 557.241 244.92C552.729 244.384 548.11 244.251 543.476 244.243C538.656 244.234 533.815 244.37 528.96 244.92C529.67 240.659 530.375 235.547 529.341 228.707C528.007 219.897 523.286 214.551 517.862 214.077C516.529 224.337 515.429 234.597 514.564 244.86C505.638 244.057 496.592 244.077 487.429 244.915C492.978 217.925 496.902 190.937 499.193 163.948C508.09 164.777 517.105 164.799 526.236 164.002C524.47 172.632 522.872 181.262 521.441 189.893C526.573 188.666 530.299 184.614 532.441 181.741C537.072 175.53 538.833 167.988 539.761 163.996C544.872 164.473 550.072 164.573 555.284 164.565C560.112 164.557 564.948 164.473 569.805 163.999C562.014 173.671 561.565 178.748 555.855 187.496C553.338 191.348 550.671 195.269 543.745 200.06C550.102 203.837 552.674 211.346 553.774 218.499L553.776 218.493Z" fill="#FAC215"/>
<path d="M612.302 244.92C603.651 244.512 594.915 244.232 586.139 244.243C577.885 244.256 569.595 244.539 561.35 244.92C566.885 217.99 570.817 190.992 573.111 164.059C589.889 164.845 607.028 164.843 624.034 164.051C621.737 171.93 620.26 179.981 619.685 187.926C619.163 187.893 607.755 187.194 596.075 187.281L594.991 195.073C601.286 195.163 607.646 194.825 614.068 194.025C614.068 194.025 613.042 196.926 611.935 204.571C610.827 212.219 610.95 215.558 610.95 215.558C604.794 214.763 598.573 214.426 592.292 214.51L591.086 223.195C602.728 223.312 613.685 222.555 614.466 222.501C612.983 229.953 612.256 237.541 612.302 244.92Z" fill="#FAC215"/>
<path d="M677.875 243.6C673.491 244.719 666.099 245.834 660.692 245.967C651.51 246.193 645.237 245.255 637.315 241.051C625.376 234.26 618.521 221.195 620.693 206.195L621.207 202.637C623.11 189.495 631.51 177.84 642.913 170.586C648.157 167.201 653.303 165.142 659.225 164.056C669.047 162.261 676.454 164.84 688.126 163.047C684.354 172.61 681.818 182.454 680.675 192.3C680.675 192.3 679.736 191.215 678.43 190.456C672.791 187.177 665.177 186.467 658.036 190.195C655.461 191.539 653.263 193.323 651.66 195.427C649.621 198.101 648.462 200.716 647.961 204.174C647.398 208.065 647.724 210.657 649.02 213.335C650.103 215.577 651.902 217.525 654.678 219.054C657.064 220.373 660.493 221.184 664.192 221.07C666.208 221.007 668.353 220.681 670.881 219.837C674.386 218.667 677.118 216.768 678.925 214.943C677.369 224.386 676.944 234.434 677.878 243.6H677.875Z" fill="#FAC215"/>
<path d="M733.647 244.92C724.996 244.512 716.26 244.232 707.483 244.243C699.229 244.256 690.94 244.539 682.694 244.92C688.23 217.99 692.162 190.992 694.456 164.059C711.234 164.845 728.373 164.843 745.379 164.051C743.082 171.93 741.604 179.981 741.03 187.926C740.508 187.893 729.099 187.194 717.419 187.281L716.336 195.073C722.631 195.163 728.991 194.825 735.413 194.025C735.413 194.025 734.387 196.926 733.28 204.571C732.172 212.219 732.294 215.558 732.294 215.558C726.139 214.763 719.918 214.426 713.637 214.51L712.431 223.195C724.073 223.312 735.029 222.555 735.81 222.501C734.327 229.953 733.601 237.541 733.647 244.92Z" fill="#FAC215"/>
<path d="M825.834 244.928C810.02 244.033 793.724 244.036 777.651 244.931C783.189 217.982 787.138 190.891 789.427 163.942C798.323 164.772 807.339 164.791 816.469 163.996C812.564 183.08 809.478 202.163 807.203 221.247C814.567 221.249 821.961 221.045 829.331 220.629C827.162 228.565 825.975 236.986 825.834 244.928Z" fill="#FAC215"/>
<path d="M908.26 244.92C903.927 244.523 899.537 244.253 895.107 244.242C890.527 244.232 885.906 244.493 881.31 244.92C881.193 243.791 880.893 241.043 880.45 237.354C872.688 236.05 864.717 235.99 856.597 237.169C855.015 241.013 853.883 243.84 853.467 244.906C849.053 244.487 844.587 244.232 840.078 244.242C835.656 244.253 831.192 244.525 826.74 244.92C840.72 218.768 853.418 191.297 864.198 164.054C864.38 164.067 871.703 164.679 879.024 164.685C886.298 164.679 893.744 164.075 894.024 164.054C896.966 191.318 901.804 218.793 908.262 244.92H908.26ZM877.358 214.97C876.811 211.536 876.229 208.163 875.622 205.058C875.184 202.797 874.708 200.389 874.212 197.919C872.993 200.389 871.812 202.797 870.723 205.058C869.202 208.19 867.629 211.591 866.075 215.046C869.795 215.305 873.556 215.285 877.361 214.97H877.358Z" fill="#FAC215"/>
<path d="M989.286 195.797C986.844 204.582 986.344 209.8 985.944 215.109C985.511 220.866 983.481 227.262 979.557 231.833C976.914 234.913 973.308 238.273 968.238 240.882C960.844 244.691 955.973 245.573 945.711 245.733C938.722 245.842 932.817 244.232 927.322 241.489C921.996 238.828 918.015 234.992 915.092 230.979C912.57 227.515 910.79 223.478 909.84 219.124C908.828 214.48 908.77 209.477 909.573 204.492C910.882 196.382 912.741 191.62 916.2 186.116C918.01 183.235 920.233 180.506 922.772 177.948C925.268 175.437 928.307 172.969 931.568 170.932C937.263 167.373 941.922 165.362 948.617 164.494C954.248 163.765 958.147 164.032 962.624 164.274C968.532 164.592 974.527 165.055 981.524 163.841C977.962 172.98 975.464 182.748 974.283 192.154C972.239 189.884 968.717 186.845 961.851 186.067C959.81 185.836 956.803 185.926 954.052 186.546C951.322 187.161 948.557 188.214 946.271 189.675C943.539 191.424 941.416 193.114 939.255 196.014C937.135 198.857 935.827 202.131 935.467 205.809C935.048 210.119 935.954 215.824 941.373 219.824C944.219 221.924 949.586 223.69 955.475 221.769C958.243 220.868 959.865 219.546 961.092 218.05C961.946 217.008 962.523 215.849 962.915 214.594C956.131 214.725 951.624 215.092 950.076 215.239C951.899 208.69 952.887 202.024 952.998 195.47C964.817 196.953 977.184 196.95 989.433 195.459L989.283 195.791L989.286 195.797Z" fill="#FAC215"/>
<path d="M1013.8 244.92C1009.34 244.517 1004.87 244.248 1000.35 244.243C995.837 244.24 991.284 244.501 986.709 244.917C992.258 217.927 996.179 190.937 998.474 163.948C1007.36 164.777 1016.36 164.799 1025.48 164.002C1019.97 190.954 1016.07 217.965 1013.8 244.92Z" fill="#FAC215"/>
<path d="M1050.65 221.916C1048.67 229.578 1047.56 237.236 1047.32 244.895C1039.57 244.052 1031.69 244.052 1023.7 244.895C1025.67 237.234 1026.78 229.575 1027.02 221.916C1034.78 222.759 1042.66 222.759 1050.65 221.916ZM1028.4 217.96C1031.57 194.994 1032.75 181.692 1033.7 164.01C1042.62 164.881 1051.82 164.911 1061 164.083C1056.84 181.706 1054.17 195.078 1050.69 217.96C1043.36 217.424 1035.88 217.367 1028.4 217.96Z" fill="#FAC215"/>
</g>
<defs>
<clipPath id="clip0_45_58721">
<rect width="1061" height="246" fill="white"/>
</clipPath>
</defs>
</svg>
