<svg width="895" height="113" viewBox="0 0 895 113" fill="none" xmlns="http://www.w3.org/2000/svg">
<g clip-path="url(#clip0_68_59219)">
<path d="M47.8838 111.215C35.9761 110.137 23.9086 110.163 11.6858 111.286C15.942 90.4241 19.4749 69.5618 22.2931 48.704C19.608 50.686 16.7986 52.6277 14.0203 54.3144C14.0203 54.3144 11.3396 40.0423 0 25.4168C0 25.4168 18.0724 17.9318 31.0009 2.5725C41.6348 3.47178 52.5395 3.46731 63.4309 2.55908C56.0723 38.8075 50.9018 74.9709 47.8794 111.224L47.8838 111.215Z" fill="#FDC30F"/>
<path d="M136.603 68.1616C136.838 71.45 136.496 76.0716 135.471 79.9416C133.669 86.7421 130.287 92.7373 126.12 97.1486C122.707 100.764 119.059 103.869 114.026 106.504C108.589 109.354 102.673 110.888 97.8262 111.219C90.5298 111.72 83.5795 110.557 79.3943 110.405C73.0654 110.177 68.3121 110.768 65.9199 111.17C68.6982 101.538 70.1407 91.6993 70.1895 82.0578C70.2117 81.9102 70.2427 81.7402 70.2649 81.6015C73.3939 82.4292 77.2906 82.7602 81.5469 82.7602C92.669 82.7602 101.989 80.5277 103.081 72.9353C104.173 65.3429 95.4961 63.1104 84.374 63.1104C80.4373 63.1104 76.7358 63.3923 73.5359 64.0947C78.2049 43.8409 81.2051 22.7414 82.3724 2.4742C102.837 3.54796 123.759 3.54348 144.534 2.4563C142.177 13.0821 140.566 24.2268 139.927 34.8347C129.511 33.658 118.273 32.9019 108.615 32.4187L107.706 41.7247C113.968 42.0647 118.198 43.6977 121.517 45.4694C126.164 47.9525 128.685 50.2521 131.202 53.4555C134.49 57.6521 136.19 62.2961 136.612 68.166L136.603 68.1616Z" fill="#FDC30F"/>
<path d="M236.526 53.9252L235.731 59.4506C231.502 88.8941 216.833 112.758 184.612 112.758C152.391 112.758 144.579 88.8896 148.809 59.4506L149.603 53.9252C153.833 24.4863 168.506 0.617432 200.723 0.617432C232.94 0.617432 240.755 24.4863 236.526 53.9252ZM203.159 55.4374C205.072 42.1139 203.958 31.3091 196.311 31.3091C188.664 31.3091 184.448 42.1094 182.535 55.4374L182.175 57.9384C180.262 71.2665 181.376 82.0667 189.023 82.0667C196.671 82.0667 200.887 71.2665 202.804 57.9384L203.164 55.4374H203.159Z" fill="#FDC30F"/>
<path d="M324.41 75.7942C326.212 87.5966 325.156 96.9697 329.03 111.34C323.012 110.62 316.852 110.441 310.669 110.428C304.238 110.414 297.781 110.598 291.31 111.34C292.26 105.609 293.201 98.7325 291.82 89.5339C290.04 77.6867 283.743 70.4925 276.508 69.8572C274.729 83.655 273.264 97.4529 272.11 111.255C260.202 110.177 248.135 110.204 235.912 111.327C243.315 75.0292 248.548 38.7315 251.606 2.42944C263.473 3.54795 275.496 3.57479 287.679 2.50103C285.327 14.1066 283.192 25.7167 281.284 37.3222C288.132 35.6713 293.098 30.222 295.957 26.3609C302.135 18.0079 304.482 7.86089 305.721 2.49208C312.538 3.13186 319.475 3.26608 326.425 3.25713C332.865 3.24371 339.313 3.13186 345.793 2.49655C335.399 15.507 334.804 22.3298 327.188 34.0965C323.833 39.2774 320.274 44.5522 311.033 50.9948C319.51 56.0728 322.945 66.1751 324.41 75.7942Z" fill="#FDC30F"/>
<path d="M395.559 0H424.869C403.863 37.2819 383.776 74.9441 364.634 113H335.391C356.374 75.7181 376.44 38.0559 395.559 0Z" fill="#FDC30F"/>
<path d="M509.506 83.3419C508.64 86.7467 507.047 90.7017 504.335 94.5985C502.791 96.8221 501.122 98.7594 499.391 100.406C497.319 102.383 495.264 104.016 493.005 105.39C489.521 107.506 485.775 109.175 482.069 109.998C475.141 111.542 467.605 111.524 459.873 111.381C443.084 111.063 440.146 109.237 418.855 111.336C426.25 75.0784 431.482 38.83 434.545 2.57715C451.059 3.83434 461.737 2.97086 470.827 2.68452C478.434 2.44293 484.754 2.71584 490.488 4.34438C495.099 5.65079 499.382 7.68646 502.84 10.4917C508.809 15.3325 511.596 22.4686 512.111 27.6495C512.4 30.5665 512.457 32.5217 511.965 35.8548C511.508 38.9642 510.833 41.3221 509.519 44.3152C507.802 48.2389 505.032 52.3728 501.806 55.5449C504.042 57.5627 506.803 61.0032 508.33 64.6272C509.79 68.099 510.74 72.1032 510.482 76.868C510.371 78.9037 510.043 81.2034 509.501 83.3375L509.506 83.3419ZM476.969 76.5683C477.742 71.5574 474.187 67.4145 469.069 67.3608L460.007 67.2623C459.114 73.6557 458.338 79.9506 457.699 85.5968L466.242 85.6908C471.359 85.7445 476.179 81.691 476.956 76.6846L476.974 76.5683H476.969ZM465.528 27.7792C464.84 32.8438 464.072 38.5079 463.3 44.2838L469.318 44.1988C473.8 44.1362 477.946 40.3959 478.527 35.8861L478.54 35.7788C479.126 31.269 475.94 27.6361 471.457 27.6987L465.528 27.7837V27.7792Z" fill="white"/>
<path d="M618.343 2.42949C614.567 20.8982 611.367 39.3624 608.735 57.8311C606.773 71.4724 605.455 80.4562 601.518 89.0463C599.339 93.8066 596.294 98.813 591.621 102.884C587.92 106.11 583.042 108.853 576.806 110.459C567.708 112.808 562.089 112.799 556.892 112.799C551.695 112.799 546.072 112.808 537.648 110.459C531.878 108.853 527.782 106.11 525.008 102.884C521.506 98.813 519.9 93.8066 519.087 89.0463C517.618 80.4562 518.879 71.4724 520.836 57.8311C523.512 39.3624 525.612 20.8982 527.143 2.42949C539.432 3.5122 555.037 3.48536 565.746 2.35791C565.746 2.35791 561.499 18.8849 557.07 42.6329C552.898 64.9851 550.701 73.772 553.723 78.7247C555.365 81.4136 557.837 82.1026 561.295 82.1026C564.752 82.1026 567.424 81.4136 569.838 78.7247C574.285 73.772 574.614 64.9851 576.864 42.6329C579.256 18.8894 579.762 2.35791 579.762 2.35791C590.152 3.48536 605.748 3.5122 618.348 2.42949H618.343Z" fill="white"/>
<path d="M675.1 111.349C654.005 110.145 632.271 110.15 610.83 111.349C618.215 75.105 623.483 38.6643 626.537 2.4248C638.405 3.54331 650.428 3.56568 662.611 2.49639C657.405 28.1638 653.286 53.8311 650.25 79.4985C660.072 79.4985 669.934 79.2301 679.764 78.6664C676.871 89.3369 675.286 100.665 675.1 111.344V111.349Z" fill="white"/>
<path d="M785.043 111.336C779.264 110.803 773.406 110.436 767.499 110.423C761.387 110.405 755.227 110.758 749.093 111.336C748.938 109.819 748.538 106.119 747.944 101.157C737.589 99.4035 726.96 99.3229 716.126 100.911C714.018 106.079 712.509 109.882 711.954 111.318C706.069 110.754 700.109 110.41 694.095 110.423C688.197 110.436 682.241 110.803 676.307 111.336C694.956 76.161 711.892 39.2146 726.268 2.57251C726.512 2.59041 736.28 3.41362 746.044 3.42257C755.746 3.4181 765.679 2.60383 766.052 2.57251C769.975 39.2415 776.433 76.1923 785.043 111.336ZM743.825 71.0561C743.097 66.439 742.321 61.8978 741.508 57.7281C740.927 54.6857 740.288 51.4466 739.627 48.1269C738.002 51.4466 736.427 54.6902 734.971 57.7281C732.943 61.9381 730.843 66.515 728.771 71.1635C733.733 71.5125 738.748 71.4856 743.825 71.0606V71.0561Z" fill="white"/>
<path d="M879.431 111.031L879.391 111.322C873.648 110.781 868.282 110.436 862.881 110.427C857.093 110.414 851.27 110.781 844.955 111.34C841.227 95.6944 837.228 83.986 828.365 67.5932C826.789 82.0756 825.502 96.5534 824.291 111.036L824.251 111.327C818.374 110.772 812.472 110.427 806.515 110.432C800.408 110.432 794.248 110.794 788.07 111.345C795.46 75.0961 800.706 38.7582 803.764 2.50982C815.636 3.58358 825.964 3.55673 838.151 2.43823C841.924 16.1958 847.183 32.6959 854.448 49.1558C856.197 33.6086 857.595 18.0615 858.909 2.51429C870.781 3.58805 882.813 3.56121 895 2.44271C887.65 38.6419 882.462 74.8456 879.431 111.049V111.031Z" fill="white"/>
</g>
<defs>
<clipPath id="clip0_68_59219">
<rect width="895" height="113" fill="white"/>
</clipPath>
</defs>
</svg>
