<svg width="1141" height="145" viewBox="0 0 1141 145" fill="none" xmlns="http://www.w3.org/2000/svg">
<g clip-path="url(#clip0_55_58970)">
<path d="M58.7366 24.39C58.3131 27.3386 57.4721 29.9941 55.9767 32.9755C54.6204 35.6729 52.7045 38.3344 49.7225 41.0796C47.3209 43.2895 44.5492 45.2273 39.6572 46.7495C34.931 48.2208 31.9609 48.5348 23.4413 49.1986C22.8165 54.7369 22.2657 60.3769 21.7771 66.2501C18.1969 65.9271 14.5931 65.7447 10.9626 65.7537C7.33208 65.7626 3.67788 65.957 0 66.2949C4.45373 44.4169 7.60155 22.5389 9.44049 0.66394C21.4425 1.7076 29.3964 0.768605 35.6773 0.750663C39.6542 0.738701 42.8435 1.02279 45.7574 1.90497C49.9772 3.17889 53.4715 5.67889 55.8434 9.4259C58.1976 13.143 59.6487 18.0264 58.7366 24.39ZM39.5595 24.1328C40.0895 20.4367 37.2526 17.515 33.2342 17.4133C30.1397 17.3356 28.2563 17.4432 27.5516 17.4971C26.826 22.1382 26.2012 26.7136 25.6208 31.2501C26.2071 31.274 27.8803 31.2919 31.2946 30.9421C35.7394 30.4875 39.0176 27.9187 39.5476 24.2226L39.5595 24.1328Z" fill="white"/>
<path d="M96.8685 66.2979C89.9273 65.966 82.918 65.7387 75.8732 65.7477C69.2489 65.7596 62.5979 65.9869 55.9824 66.2979C60.4243 44.4678 63.581 22.5838 65.42 0.753662C78.8848 1.39062 92.6369 1.38763 106.282 0.747681C104.44 7.13524 103.253 13.6604 102.794 20.0988C102.376 20.0718 93.2203 19.5067 83.8449 19.5754L82.9773 25.8912C88.0292 25.963 93.1314 25.6909 98.287 25.0419C98.287 25.0419 97.4637 27.3924 96.5754 33.5916C95.687 39.7907 95.7847 42.4971 95.7847 42.4971C90.8453 41.8541 85.8526 41.579 80.8126 41.6478L79.8443 48.6873C89.187 48.783 97.979 48.1699 98.6038 48.1251C97.4134 54.1657 96.83 60.3171 96.8685 66.2979Z" fill="white"/>
<path d="M156.482 66.3517C152.676 66.0049 148.904 65.7626 145.099 65.7507C141.056 65.7387 136.982 65.972 132.833 66.3368C133.058 64.9373 133.884 60.9749 132.709 55.8135C132.031 52.838 130.017 48.5617 125.652 47.4522C125.652 47.4522 125.646 47.4522 125.64 47.4492C124.971 53.3464 124.382 59.5306 123.819 66.3009C120.366 65.9869 116.899 65.7686 113.404 65.7537C109.646 65.7357 105.859 65.945 102.051 66.2949C106.505 44.4169 109.652 22.5419 111.491 0.66394C121.995 1.71059 129.558 0.855328 135.531 0.750663C140.722 0.66095 144.5 0.861309 148.078 1.85114C152.416 3.0503 156.129 5.72674 158.522 9.25545C160.515 12.198 161.696 15.6729 161.809 19.6741C161.916 23.472 160.974 27.527 158.922 31.4235C157.373 34.3631 155.078 37.1921 152.215 39.5904C150.737 40.8284 149.079 41.8751 147.675 42.6556C150.109 44.3182 151.705 46.3069 152.759 49.0282C155.043 54.9223 153.991 61.0557 156.485 66.3517H156.482ZM141.903 24.1328C142.433 20.4367 139.597 17.515 135.578 17.4133C132.389 17.3326 130.449 17.5449 129.783 17.6376C129.016 22.2788 128.332 26.8661 127.719 31.2321C127.834 31.2441 129.392 31.3727 133.639 30.9391C138.08 30.4845 141.362 27.9157 141.892 24.2196L141.903 24.1328Z" fill="white"/>
<path d="M198.694 66.3068C186.005 65.5831 172.929 65.5831 160.029 66.3068C164.471 44.4647 167.643 22.503 169.479 0.660889C176.618 1.33374 183.853 1.34869 191.182 0.705745C188.049 16.1752 185.57 31.6447 183.746 47.1112C189.657 47.1112 195.588 46.9498 201.502 46.6089C199.761 53.0413 198.81 59.8684 198.694 66.3038V66.3068Z" fill="white"/>
<path d="M224.686 66.3008C221.109 65.9749 217.52 65.7566 213.895 65.7506C210.273 65.7506 206.619 65.9599 202.947 66.2979C207.398 44.4199 210.546 22.5449 212.388 0.66687C219.515 1.33972 226.741 1.35766 234.061 0.708736C229.637 22.5568 226.507 44.4498 224.686 66.2979V66.3008Z" fill="white"/>
<path d="M294.746 0.66394C290.325 22.4821 287.204 44.3003 285.38 66.1185L285.356 66.2919C281.901 65.966 278.673 65.7566 275.421 65.7507C271.939 65.7447 268.436 65.963 264.636 66.3009C262.395 56.8721 259.987 49.8147 254.657 39.9373C253.709 48.6663 252.933 57.3924 252.205 66.1185L252.181 66.2919C248.649 65.957 245.095 65.7507 241.512 65.7507C237.84 65.7507 234.132 65.972 230.413 66.3009C234.858 44.4528 238.015 22.5539 239.854 0.708797C246.996 1.35473 253.209 1.33978 260.541 0.66394C262.809 8.9564 265.975 18.8996 270.346 28.8188C271.397 19.4498 272.241 10.0778 273.029 0.708797C280.171 1.35473 287.411 1.33978 294.743 0.66394H294.746Z" fill="white"/>
<path d="M349.275 33.5227C348.922 35.9719 348.413 38.0263 347.619 40.2841C345.848 45.32 342.576 50.6758 338.567 54.6172C335.922 57.2159 333.162 59.4228 330.331 61.0078C328.119 62.2488 325.821 63.3553 323.295 64.1926C320.586 65.0897 317.891 65.6728 315.273 66.0108C312.617 66.3547 310.204 66.2889 307.796 66.2949C302.454 66.3068 297.559 65.6041 292.25 66.1543C291.805 66.1992 291.361 66.241 290.92 66.2949C290.92 66.2949 290.941 66.1872 290.982 65.9898C290.991 65.9539 290.997 65.9181 291.003 65.8822C291.059 65.6041 291.142 65.1794 291.252 64.6232C293.319 54.2554 295.086 43.8876 296.573 33.5197C298.062 23.1519 299.265 12.7841 300.174 2.41626C300.224 1.86303 300.263 1.43839 300.286 1.15729C300.286 1.12141 300.292 1.08552 300.295 1.04964C300.313 0.852269 300.322 0.744613 300.322 0.744613C300.748 0.798441 301.181 0.840307 301.61 0.888154C306.766 1.4354 311.859 0.735642 317.198 0.744613C319.603 0.750594 322.037 0.684805 324.595 1.0287C327.115 1.36662 329.615 1.98564 332.064 2.88277C334.353 3.72009 336.381 4.83851 338.223 6.0915C340.491 7.63756 342.745 9.85645 344.611 12.4791C347.388 16.3786 349.283 21.6687 349.547 26.7584C349.665 29.0221 349.627 31.0706 349.275 33.5167V33.5227ZM329.182 33.5227C329.736 29.6651 328.851 26.1364 326.861 23.6094C324.933 21.1603 322.055 19.6023 318.329 19.8505C318.329 19.8505 317.755 23.439 316.328 33.5227C314.865 43.6094 314.403 47.2458 314.403 47.2458C318.122 47.488 321.525 45.93 324.199 43.3283C326.76 40.8343 328.64 37.3415 329.188 33.5227H329.182Z" fill="white"/>
<path d="M411.846 0.663875C409.575 11.7943 407.65 22.9216 406.066 34.052C404.887 42.2727 404.091 47.6854 401.722 52.8648C400.41 55.7327 398.58 58.75 395.766 61.2022C393.54 63.1459 390.605 64.7996 386.856 65.7685C381.384 67.183 378.002 67.177 374.875 67.177C371.748 67.177 368.363 67.183 363.299 65.7685C359.826 64.7996 357.365 63.1459 355.695 61.2022C353.589 58.75 352.621 55.7327 352.132 52.8648C351.247 47.6854 352.005 42.2727 353.184 34.052C354.794 22.9216 356.056 11.7943 356.977 0.663875C364.371 1.31579 373.758 1.30084 380.202 0.619019C380.202 0.619019 377.647 10.5801 374.981 24.8923C372.473 38.3642 371.152 43.6603 372.971 46.6447C373.957 48.2655 375.443 48.6812 377.525 48.6812C379.607 48.6812 381.215 48.2655 382.663 46.6447C385.337 43.6603 385.535 38.3642 386.889 24.8923C388.328 10.5831 388.63 0.619019 388.63 0.619019C394.881 1.29785 404.262 1.31579 411.843 0.663875H411.846Z" fill="white"/>
<path d="M471.658 0.66394C467.236 22.4821 464.115 44.3003 462.291 66.1185L462.267 66.2919C458.812 65.966 455.584 65.7566 452.332 65.7507C448.85 65.7447 445.347 65.963 441.547 66.3009C439.306 56.8721 436.898 49.8147 431.568 39.9373C430.62 48.6663 429.845 57.3924 429.116 66.1185L429.092 66.2919C425.56 65.957 422.006 65.7507 418.423 65.7507C414.751 65.7507 411.044 65.972 407.324 66.3009C411.769 44.4528 414.926 22.5539 416.765 0.708797C423.907 1.35473 430.12 1.33978 437.452 0.66394C439.72 8.9564 442.886 18.8996 447.257 28.8188C448.308 19.4498 449.152 10.0778 449.94 0.708797C457.082 1.35473 464.323 1.33978 471.655 0.66394H471.658Z" fill="white"/>
<path d="M534.62 26.4833C532.66 33.6035 532.26 37.8349 531.937 42.1382C531.591 46.8062 529.962 51.9886 526.811 55.6968C524.691 58.1938 521.798 60.9151 517.729 63.0323C511.795 66.1184 507.886 66.8361 499.654 66.9647C494.045 67.0514 489.307 65.7476 484.898 63.5227C480.625 61.3666 477.429 58.2566 475.084 55.003C473.059 52.195 471.631 48.9234 470.867 45.3947C470.053 41.6298 470.009 37.5748 470.654 33.5347C471.705 26.9617 473.198 23.1011 475.973 18.6394C477.427 16.3038 479.209 14.0909 481.247 12.0185C483.248 9.98205 485.688 7.98146 488.306 6.33074C492.875 3.44796 496.615 1.81818 501.987 1.11244C506.506 0.520331 509.636 0.738632 513.225 0.93301C517.966 1.19019 522.778 1.56698 528.393 0.58313C525.532 7.99043 523.53 15.9061 522.58 23.5317C520.939 21.6926 518.114 19.2285 512.606 18.5975C510.969 18.4091 508.555 18.4838 506.349 18.9862C504.158 19.4856 501.94 20.3379 500.104 21.5221C497.91 22.9426 496.207 24.3092 494.472 26.6597C492.772 28.9653 491.721 31.6178 491.43 34.5993C491.093 38.0921 491.821 42.7153 496.168 45.9569C498.451 47.6585 502.76 49.0909 507.486 47.5359C509.707 46.8062 511.01 45.7356 511.993 44.5215C512.68 43.6782 513.142 42.7362 513.456 41.7195C508.01 41.8242 504.395 42.1232 503.154 42.2398C504.617 36.9318 505.41 31.5281 505.499 26.2171C514.984 27.4193 524.907 27.4163 534.736 26.2081L534.617 26.4773L534.62 26.4833Z" fill="white"/>
<path d="M592.439 66.3009C588.962 65.9809 585.438 65.7596 581.885 65.7507C578.21 65.7417 574.502 65.954 570.813 66.3009C570.721 65.3858 570.478 63.158 570.123 60.1675C563.895 59.1119 557.499 59.0641 550.981 60.018C549.714 63.134 548.804 65.4247 548.47 66.2889C544.928 65.951 541.342 65.7417 537.726 65.7507C534.176 65.7596 530.596 65.9809 527.024 66.3009C538.245 45.1017 548.431 22.835 557.081 0.753662C557.226 0.765624 563.104 1.26204 568.98 1.26503C574.816 1.26204 580.792 0.771605 581.017 0.753662C583.377 22.8529 587.262 45.1227 592.442 66.3009H592.439ZM567.641 42.0216C567.203 39.2405 566.735 36.5043 566.246 33.9893C565.897 32.1562 565.512 30.2034 565.115 28.2028C564.138 30.2034 563.19 32.1562 562.317 33.9893C561.097 36.5282 559.835 39.2854 558.588 42.0844C561.573 42.2937 564.591 42.2788 567.644 42.0216H567.641Z" fill="white"/>
<path d="M658.587 0.66394C654.166 22.4821 651.045 44.3003 649.221 66.1185L649.197 66.2919C645.741 65.966 642.514 65.7566 639.262 65.7507C635.78 65.7447 632.277 65.963 628.477 66.3009C626.236 56.8721 623.828 49.8147 618.498 39.9373C617.55 48.6663 616.774 57.3924 616.046 66.1185L616.022 66.2919C612.489 65.957 608.936 65.7507 605.353 65.7507C601.681 65.7507 597.973 65.972 594.254 66.3009C598.699 44.4528 601.855 22.5539 603.694 0.708797C610.837 1.35473 617.05 1.33978 624.382 0.66394C626.65 8.9564 629.816 18.8996 634.187 28.8188C635.238 19.4498 636.082 10.0778 636.869 0.708797C644.012 1.35473 651.252 1.33978 658.584 0.66394H658.587Z" fill="white"/>
<path d="M754.445 66.3008C750.981 65.9868 747.501 65.7655 743.995 65.7506C740.249 65.7327 736.471 65.942 732.674 66.2919C734.306 58.2775 736.684 44.2763 737.951 36.9557L721.401 58.5377L711.025 36.9199C710.187 44.2434 708.537 58.2925 707.868 66.3008C704.308 65.9779 700.737 65.7596 697.13 65.7506C693.479 65.7446 689.801 65.951 686.1 66.2919C690.553 44.4139 693.701 22.5389 695.54 0.660889C702.68 1.33374 709.44 1.39354 716.769 0.747611L725.952 26.6268L742.595 0.747611C749.734 1.42345 756.483 1.35168 763.812 0.702755C759.388 22.5508 756.261 44.4498 754.44 66.2978L754.445 66.3008Z" fill="#FAC215"/>
<path d="M822.567 66.3009C819.09 65.9809 815.566 65.7596 812.013 65.7507C808.338 65.7417 804.63 65.954 800.94 66.3009C800.849 65.3858 800.606 63.158 800.25 60.1675C794.023 59.1119 787.627 59.0641 781.109 60.018C779.841 63.134 778.932 65.4247 778.598 66.2889C775.056 65.951 771.47 65.7417 767.854 65.7507C764.304 65.7596 760.724 65.9809 757.152 66.3009C768.373 45.1017 778.559 22.835 787.209 0.753662C787.354 0.765624 793.232 1.26204 799.107 1.26503C804.944 1.26204 810.92 0.771605 811.145 0.753662C813.505 22.8529 817.39 45.1227 822.57 66.3009H822.567ZM797.772 42.0216C797.334 39.2405 796.866 36.5043 796.377 33.9893C796.028 32.1562 795.643 30.2034 795.246 28.2028C794.269 30.2034 793.321 32.1562 792.445 33.9893C791.225 36.5282 789.963 39.2854 788.716 42.0844C791.701 42.2937 794.719 42.2788 797.772 42.0216Z" fill="#FAC215"/>
<path d="M877.628 44.8774C878.712 51.9886 878.075 57.6405 880.409 66.2978C876.787 65.8612 873.083 65.7566 869.363 65.7476C865.496 65.7416 861.611 65.8493 857.717 66.2978C858.288 62.8439 858.854 58.6992 858.022 53.1549C856.953 46.0138 853.162 41.6806 848.809 41.2979C847.74 49.6142 846.858 57.9306 846.162 66.25C838.999 65.5981 831.741 65.616 824.385 66.2919C828.839 44.4139 831.986 22.5389 833.825 0.660889C840.965 1.33374 848.199 1.35168 855.528 0.705745C854.113 7.70036 852.831 14.698 851.682 21.6896C855.801 20.6938 858.792 17.4103 860.509 15.0837C864.226 10.0508 865.638 3.93541 866.381 0.699764C870.483 1.08553 874.655 1.16627 878.836 1.16029C882.71 1.15431 886.589 1.08553 890.489 0.702755C884.238 8.54366 883.877 12.6585 879.295 19.7488C877.276 22.8708 875.135 26.0496 869.577 29.9342C874.679 32.9934 876.743 39.0819 877.625 44.8804L877.628 44.8774Z" fill="#FAC215"/>
<path d="M931.038 42.7094C931.601 44.2913 931.941 46.5611 931.687 48.8188C931.42 51.1783 930.733 53.9624 929.244 56.5042C927.982 58.6514 926.91 59.9642 925.548 61.2859C924.902 61.9139 924.038 62.6675 923.244 63.2297C922.166 63.9983 921.091 64.7309 919.673 65.3739C918.207 66.0407 916.756 66.6089 914.84 66.9199C913.211 67.1831 911.455 67.2339 908.793 67.0664C905.394 66.8511 903.048 66.3248 898.911 65.4068C895.426 64.6322 889.826 62.7572 883.406 63.2028C886.169 54.713 888.334 45.8404 888.665 37.53C888.665 37.53 895.586 42.5838 898.147 44.2465C903.466 47.7034 907.434 50.0688 908.278 50.314C908.879 50.4845 909.533 50.3828 909.987 50.0389C910.555 49.6083 910.73 49.1239 910.792 48.7082C910.845 48.3583 910.745 47.9815 910.448 47.5987C909.972 46.9887 909.385 46.3069 908.882 45.7895C908.675 45.5772 908.482 45.3798 908.322 45.2034C906.892 43.6304 905.355 42.1083 903.996 40.7626C903.241 40.012 902.542 39.3212 901.953 38.7082C899.205 35.8613 896.454 33.0174 893.96 29.2584C891.57 25.6609 891.002 23.1998 890.963 20.6759C890.925 18.1908 891.416 15.7058 892.24 13.5018C893.072 11.2829 894.573 9.07003 895.938 7.52996C897.318 5.97194 899.365 4.34515 900.768 3.49287C906.066 0.27816 910.274 -0.242175 916.501 0.0718205C922.178 0.358902 928.648 1.99766 934.932 0.568232C932.326 8.43606 930.357 18.3134 929.821 26.0288C929.765 25.9869 928.521 25.0957 926.875 23.8906C924.979 22.506 922.424 20.8075 920.561 19.6113C918.802 18.4809 916.232 16.8422 914.571 16.0108C913.353 15.4008 912.332 15.948 911.879 16.7195C911.559 17.2608 911.494 17.8948 911.968 18.5377C912.625 19.4319 915.107 22.1233 916.401 23.469C918.85 26.0168 923.398 30.7536 926.188 34.393C928.711 37.6855 930.182 40.2871 931.047 42.7064L931.038 42.7094Z" fill="#FAC215"/>
<path d="M954.849 66.3008C951.272 65.9749 947.683 65.7566 944.058 65.7506C940.434 65.7506 936.782 65.9599 933.11 66.2979C937.561 44.4199 940.709 22.5449 942.551 0.66687C949.679 1.33972 956.904 1.35766 964.224 0.708736C959.8 22.5568 956.67 44.4498 954.849 66.2979V66.3008Z" fill="#FAC215"/>
<path d="M1029.59 66.3008C1026.13 65.9868 1022.65 65.7655 1019.14 65.7506C1015.4 65.7327 1011.62 65.942 1007.82 66.2919C1009.45 58.2775 1011.83 44.2763 1013.1 36.9557L996.547 58.5377L986.171 36.9199C985.333 44.2434 983.684 58.2925 983.014 66.3008C979.455 65.9779 975.884 65.7596 972.277 65.7506C968.626 65.7446 964.948 65.951 961.246 66.2919C965.7 44.4139 968.848 22.5389 970.687 0.660889C977.826 1.33374 984.587 1.39354 991.916 0.747611L1001.1 26.6268L1017.74 0.747611C1024.88 1.42345 1031.63 1.35168 1038.96 0.702755C1034.53 22.5508 1031.41 44.4498 1029.59 66.2978L1029.59 66.3008Z" fill="#FAC215"/>
<path d="M1097.71 66.3009C1094.24 65.9809 1090.71 65.7596 1087.16 65.7507C1083.48 65.7417 1079.78 65.954 1076.09 66.3009C1075.99 65.3858 1075.75 63.158 1075.4 60.1675C1069.17 59.1119 1062.77 59.0641 1056.25 60.018C1054.99 63.134 1054.08 65.4247 1053.74 66.2889C1050.2 65.951 1046.62 65.7417 1043 65.7507C1039.45 65.7596 1035.87 65.9809 1032.3 66.3009C1043.52 45.1017 1053.7 22.835 1062.35 0.753662C1062.5 0.765624 1068.38 1.26204 1074.25 1.26503C1080.09 1.26204 1086.07 0.771605 1086.29 0.753662C1088.65 22.8529 1092.54 45.1227 1097.72 66.3009H1097.71ZM1072.91 42.0216C1072.48 39.2405 1072.01 36.5043 1071.52 33.9893C1071.17 32.1562 1070.79 30.2034 1070.39 28.2028C1069.41 30.2034 1068.46 32.1562 1067.59 33.9893C1066.37 36.5282 1065.11 39.2854 1063.86 42.0844C1066.85 42.2937 1069.86 42.2788 1072.92 42.0216H1072.91Z" fill="#FAC215"/>
<path d="M1138.19 66.3068C1125.5 65.5831 1112.43 65.5831 1099.53 66.3068C1103.97 44.4647 1107.14 22.503 1108.98 0.660889C1116.12 1.33374 1123.35 1.34869 1130.68 0.705745C1127.55 16.1752 1125.07 31.6447 1123.24 47.1112C1129.15 47.1112 1135.09 46.9498 1141 46.6089C1139.26 53.0413 1138.31 59.8684 1138.19 66.3038V66.3068Z" fill="#FAC215"/>
<path d="M196.595 122.7C197.679 129.812 197.042 135.463 199.376 144.121C195.754 143.684 192.049 143.579 188.33 143.57C184.463 143.565 180.578 143.672 176.684 144.121C177.255 140.667 177.821 136.522 176.989 130.978C175.919 123.837 172.129 119.503 167.776 119.121C166.707 127.437 165.825 135.753 165.129 144.073C157.965 143.421 150.707 143.439 143.352 144.115C147.805 122.237 150.953 100.362 152.792 78.4838C159.932 79.1566 167.166 79.1746 174.495 78.5286C173.08 85.5232 171.797 92.5208 170.648 99.5125C174.768 98.5167 177.758 95.2332 179.476 92.9066C183.192 87.8737 184.605 81.7583 185.348 78.5226C189.449 78.9084 193.622 78.9891 197.803 78.9832C201.677 78.9772 205.556 78.9084 209.456 78.5256C203.205 86.3665 202.843 90.4814 198.262 97.5717C196.243 100.694 194.102 103.873 188.543 107.757C193.646 110.816 195.71 116.905 196.592 122.703L196.595 122.7Z" fill="white"/>
<path d="M224.413 144.121C220.836 143.795 217.247 143.577 213.623 143.571C210.001 143.571 206.347 143.78 202.675 144.118C207.126 122.24 210.273 100.365 212.115 78.4868C219.243 79.1597 226.469 79.1776 233.789 78.5287C229.365 100.377 226.235 122.27 224.413 144.118V144.121Z" fill="white"/>
<path d="M268.806 144.13C256.114 143.406 243.04 143.406 230.141 144.13C234.583 122.288 237.754 100.326 239.59 78.4838C246.73 79.1566 253.964 79.1716 261.293 78.5286C258.16 93.9981 255.681 109.468 253.857 124.934C259.768 124.934 265.699 124.773 271.613 124.432C269.872 130.864 268.921 137.691 268.806 144.127V144.13Z" fill="white"/>
<path d="M334.948 144.121C331.472 143.801 327.948 143.579 324.394 143.57C320.72 143.562 317.012 143.774 313.322 144.121C313.231 143.206 312.988 140.978 312.632 137.987C306.405 136.932 300.008 136.884 293.491 137.838C292.223 140.954 291.314 143.245 290.98 144.109C287.438 143.771 283.852 143.562 280.236 143.57C276.686 143.579 273.105 143.801 269.534 144.121C280.754 122.922 290.941 100.655 299.591 78.5735C299.736 78.5854 305.614 79.0819 311.489 79.0848C317.326 79.0819 323.302 78.5914 323.527 78.5735C325.887 100.673 329.772 122.943 334.951 144.121H334.948ZM310.151 119.844C309.713 117.063 309.245 114.327 308.756 111.812C308.407 109.979 308.022 108.026 307.625 106.026C306.648 108.026 305.7 109.979 304.826 111.812C303.606 114.351 302.345 117.108 301.098 119.907C304.083 120.117 307.101 120.102 310.154 119.844H310.151Z" fill="white"/>
<path d="M397.555 78.4838C395.284 89.6142 393.359 100.742 391.775 111.872C390.596 120.093 389.8 125.505 387.431 130.685C386.119 133.553 384.289 136.57 381.475 139.022C379.249 140.966 376.314 142.62 372.565 143.588C367.093 145.003 363.711 144.997 360.584 144.997C357.457 144.997 354.072 145.003 349.008 143.588C345.535 142.62 343.074 140.966 341.404 139.022C339.298 136.57 338.33 133.553 337.841 130.685C336.956 125.505 337.714 120.093 338.893 111.872C340.503 100.742 341.765 89.6142 342.686 78.4838C350.08 79.1357 359.467 79.1208 365.911 78.439C365.911 78.439 363.356 88.4001 360.69 102.712C358.182 116.184 356.861 121.48 358.68 124.465C359.666 126.085 361.152 126.501 363.234 126.501C365.316 126.501 366.924 126.085 368.372 124.465C371.046 121.48 371.244 116.184 372.598 102.712C374.037 88.4031 374.339 78.439 374.339 78.439C380.59 79.1178 389.971 79.1357 397.552 78.4838H397.555Z" fill="white"/>
<path d="M460.562 97.6017C457.93 113.092 455.975 128.583 454.702 144.073C451.536 143.792 448.359 143.6 445.161 143.574C441.113 143.541 437.032 143.744 432.928 144.115C436.102 128.609 438.59 113.104 440.402 97.6017C433.345 97.8768 428.083 98.3253 428.083 98.3253C428.083 98.3253 429.102 93.5855 429.753 88.0801C430.408 82.5747 430.437 78.4868 430.437 78.4868C430.437 78.4868 442.981 78.8875 453.263 78.9623C465.01 78.8875 476.008 78.4868 476.008 78.4868C476.008 78.4868 474.865 82.5777 473.941 88.0801C473.017 93.5855 472.674 98.3253 472.674 98.3253C472.674 98.3253 467.542 97.8768 460.565 97.6017H460.562Z" fill="#FAC215"/>
<path d="M524.644 144.121C521.167 143.801 517.643 143.579 514.09 143.57C510.415 143.562 506.707 143.774 503.018 144.121C502.926 143.206 502.683 140.978 502.328 137.987C496.1 136.932 489.704 136.884 483.186 137.838C481.919 140.954 481.01 143.245 480.675 144.109C477.133 143.771 473.547 143.562 469.931 143.57C466.381 143.579 462.801 143.801 459.229 144.121C470.45 122.922 480.636 100.655 489.286 78.5735C489.431 78.5854 495.309 79.0819 501.185 79.0848C507.021 79.0819 512.997 78.5914 513.222 78.5735C515.582 100.673 519.467 122.943 524.647 144.121H524.644ZM499.846 119.844C499.408 117.063 498.94 114.327 498.451 111.812C498.102 109.979 497.717 108.026 497.32 106.026C496.343 108.026 495.395 109.979 494.522 111.812C493.302 114.351 492.04 117.108 490.794 119.907C493.778 120.117 496.796 120.102 499.849 119.844H499.846Z" fill="#FAC215"/>
<path d="M590.792 78.4868C586.371 100.305 583.25 122.123 581.426 143.941L581.402 144.115C577.946 143.789 574.719 143.58 571.467 143.574C567.985 143.568 564.482 143.786 560.682 144.124C558.441 134.695 556.033 127.638 550.703 117.76C549.755 126.489 548.979 135.215 548.251 143.941L548.227 144.115C544.694 143.78 541.141 143.574 537.558 143.574C533.886 143.574 530.178 143.795 526.459 144.124C530.904 122.276 534.061 100.377 535.899 78.5317C543.042 79.1776 549.255 79.1627 556.587 78.4868C558.855 86.7793 562.021 96.7225 566.392 106.642C567.443 97.2727 568.287 87.9007 569.074 78.5317C576.217 79.1776 583.457 79.1627 590.789 78.4868H590.792Z" fill="#FAC215"/>
<path d="M645.951 102.213C645.528 105.161 644.687 107.817 643.192 110.798C641.835 113.496 639.919 116.157 636.937 118.902C634.536 121.112 631.764 123.05 626.872 124.572C622.146 126.044 619.176 126.358 610.656 127.022C610.031 132.56 609.481 138.2 608.992 144.073C605.412 143.75 601.808 143.568 598.177 143.577C594.547 143.586 590.893 143.78 587.215 144.118C591.669 122.24 594.816 100.365 596.655 78.4868C608.657 79.5305 616.611 78.5915 622.892 78.5735C626.869 78.5616 630.058 78.8457 632.972 79.7278C637.192 81.0018 640.686 83.5018 643.058 87.2488C645.412 90.9659 646.864 95.8493 645.951 102.213ZM626.774 101.956C627.304 98.2595 624.467 95.3379 620.449 95.2362C617.355 95.1585 615.471 95.2661 614.766 95.32C614.041 99.9611 613.416 104.536 612.836 109.073C613.422 109.097 615.095 109.115 618.509 108.765C622.954 108.31 626.232 105.742 626.762 102.045L626.774 101.956Z" fill="#FAC215"/>
<path d="M697.264 144.121C693.787 143.801 690.263 143.579 686.71 143.57C683.035 143.562 679.328 143.774 675.638 144.121C675.546 143.206 675.303 140.978 674.948 137.987C668.72 136.932 662.324 136.884 655.806 137.838C654.539 140.954 653.63 143.245 653.295 144.109C649.753 143.771 646.167 143.562 642.552 143.57C639.001 143.579 635.421 143.801 631.85 144.121C643.07 122.922 653.257 100.655 661.906 78.5735C662.051 78.5854 667.93 79.0819 673.805 79.0848C679.641 79.0819 685.617 78.5914 685.842 78.5735C688.202 100.673 692.088 122.943 697.267 144.121H697.264ZM672.469 119.844C672.031 117.063 671.563 114.327 671.074 111.812C670.725 109.979 670.34 108.026 669.943 106.026C668.966 108.026 668.018 109.979 667.145 111.812C665.925 114.351 664.663 117.108 663.417 119.907C666.402 120.117 669.419 120.102 672.472 119.844H672.469Z" fill="#FAC215"/>
<path d="M784.423 127.252C783.902 129.306 782.943 131.687 781.311 134.037C780.381 135.377 779.377 136.543 778.338 137.539C777.091 138.729 775.856 139.716 774.494 140.541C772.398 141.815 770.144 142.823 767.917 143.319C763.748 144.249 759.217 144.24 754.565 144.151C744.464 143.959 742.696 142.859 729.889 144.124C734.336 122.273 737.484 100.425 739.329 78.5765C749.264 79.3361 755.687 78.8158 761.157 78.6423C765.732 78.4958 769.537 78.6603 772.984 79.6411C775.759 80.4306 778.335 81.6537 780.414 83.3463C784.006 86.2619 785.682 90.5652 785.993 93.6872C786.167 95.4456 786.2 96.6238 785.904 98.6333C785.628 100.505 785.223 101.929 784.432 103.732C783.399 106.097 781.731 108.588 779.792 110.499C781.136 111.716 782.798 113.789 783.715 115.972C784.595 118.065 785.166 120.475 785.01 123.349C784.944 124.578 784.746 125.96 784.42 127.249L784.423 127.252ZM764.849 123.167C765.314 120.147 763.176 117.652 760.096 117.617L754.642 117.56C754.103 121.411 753.638 125.206 753.256 128.609L758.394 128.666C761.473 128.699 764.373 126.256 764.837 123.239L764.849 123.167ZM756.626 103.711L760.245 103.66C762.939 103.621 765.433 101.367 765.785 98.6513L765.794 98.5855C766.146 95.8672 764.227 93.6782 761.533 93.7141L757.964 93.7649C757.55 96.8182 757.091 100.23 756.623 103.711H756.626Z" fill="#FAC215"/>
<path d="M847.284 144.121C843.808 143.801 840.284 143.579 836.73 143.57C833.055 143.562 829.348 143.774 825.658 144.121C825.566 143.206 825.324 140.978 824.968 137.987C818.741 136.932 812.344 136.884 805.827 137.838C804.559 140.954 803.65 143.245 803.316 144.109C799.774 143.771 796.188 143.562 792.572 143.57C789.022 143.579 785.441 143.801 781.87 144.121C793.09 122.922 803.277 100.655 811.927 78.5735C812.072 78.5854 817.95 79.0819 823.825 79.0848C829.662 79.0819 835.638 78.5914 835.863 78.5735C838.223 100.673 842.108 122.943 847.287 144.121H847.284ZM822.49 119.844C822.051 117.063 821.584 114.327 821.095 111.812C820.746 109.979 820.361 108.026 819.964 106.026C818.987 108.026 818.039 109.979 817.162 111.812C815.942 114.351 814.681 117.108 813.434 119.907C816.419 120.117 819.437 120.102 822.49 119.844Z" fill="#FAC215"/>
<path d="M879.246 97.6017C876.613 113.092 874.659 128.583 873.385 144.073C870.22 143.792 867.042 143.6 863.844 143.574C859.796 143.541 855.716 143.744 851.611 144.115C854.786 128.609 857.273 113.104 859.085 97.6017C852.029 97.8768 846.767 98.3253 846.767 98.3253C846.767 98.3253 847.785 93.5855 848.437 88.0801C849.091 82.5747 849.121 78.4868 849.121 78.4868C849.121 78.4868 861.665 78.8875 871.946 78.9623C883.694 78.8875 894.692 78.4868 894.692 78.4868C894.692 78.4868 893.549 82.5777 892.625 88.0801C891.701 93.5855 891.357 98.3253 891.357 98.3253C891.357 98.3253 886.225 97.8768 879.249 97.6017H879.246Z" fill="#FAC215"/>
<path d="M943.327 144.121C939.851 143.801 936.327 143.579 932.773 143.57C929.098 143.562 925.391 143.774 921.701 144.121C921.609 143.206 921.367 140.978 921.011 137.987C914.784 136.932 908.387 136.884 901.87 137.838C900.602 140.954 899.693 143.245 899.359 144.109C895.817 143.771 892.231 143.562 888.615 143.57C885.065 143.579 881.484 143.801 877.913 144.121C889.133 122.922 899.32 100.655 907.97 78.5735C908.115 78.5854 913.993 79.0819 919.868 79.0848C925.705 79.0819 931.681 78.5914 931.906 78.5735C934.266 100.673 938.151 122.943 943.33 144.121H943.327ZM918.53 119.844C918.092 117.063 917.624 114.327 917.135 111.812C916.786 109.979 916.401 108.026 916.004 106.026C915.027 108.026 914.079 109.979 913.202 111.812C911.982 114.351 910.721 117.108 909.474 119.907C912.459 120.117 915.477 120.102 918.53 119.844Z" fill="#FAC215"/>
<path d="M992.478 120.532C993.04 122.114 993.381 124.384 993.126 126.642C992.86 129.001 992.173 131.785 990.683 134.327C989.422 136.474 988.35 137.787 986.987 139.109C986.342 139.737 985.477 140.49 984.684 141.053C983.606 141.821 982.531 142.554 981.112 143.197C979.646 143.864 978.195 144.432 976.28 144.743C974.651 145.006 972.895 145.057 970.233 144.889C966.833 144.674 964.488 144.148 960.351 143.23C956.865 142.455 951.266 140.58 944.846 141.026C947.609 132.536 949.773 123.663 950.105 115.353C950.105 115.353 957.025 120.407 959.587 122.069C964.905 125.526 968.873 127.892 969.717 128.137C970.318 128.307 970.973 128.206 971.426 127.862C971.995 127.431 972.169 126.947 972.231 126.531C972.285 126.181 972.184 125.804 971.888 125.422C971.411 124.812 970.825 124.13 970.321 123.612C970.114 123.4 969.922 123.203 969.762 123.026C968.331 121.453 966.795 119.931 965.435 118.585C964.68 117.835 963.981 117.144 963.392 116.531C960.644 113.684 957.893 110.84 955.4 107.081C953.01 103.484 952.441 101.023 952.403 98.4988C952.364 96.0137 952.856 93.5287 953.679 91.3247C954.511 89.1058 956.013 86.8929 957.378 85.3528C958.758 83.7948 960.804 82.168 962.208 81.3157C967.505 78.101 971.713 77.5807 977.941 77.8947C983.617 78.1818 990.088 79.8205 996.372 78.3911C993.766 86.2589 991.796 96.1363 991.26 103.852C991.204 103.81 989.961 102.919 988.314 101.713C986.419 100.329 983.863 98.6303 982.001 97.4342C980.242 96.3038 977.671 94.665 976.01 93.8337C974.793 93.2236 973.771 93.7709 973.318 94.5424C972.998 95.0837 972.933 95.7177 973.407 96.3606C974.064 97.2547 976.546 99.9461 977.84 101.292C980.289 103.84 984.838 108.577 987.627 112.216C990.15 115.508 991.622 118.11 992.486 120.529L992.478 120.532Z" fill="#FAC215"/>
</g>
<defs>
<clipPath id="clip0_55_58970">
<rect width="1141" height="145" fill="white"/>
</clipPath>
</defs>
</svg>
