<svg width="184" height="427" viewBox="0 0 184 427" fill="none" xmlns="http://www.w3.org/2000/svg">
<g clip-path="url(#clip0_44_58637)">
<path d="M126.849 237.493C126.849 138.093 46.1874 57.4868 -53.3093 57.4868C-152.806 57.4868 -233.49 138.07 -233.49 237.493C-233.49 336.916 -152.829 417.499 -53.3093 417.499C46.2104 417.499 126.849 336.916 126.849 237.493ZM-149.905 237.493C-149.905 184.193 -106.661 140.991 -53.3093 140.991C0.0426331 140.991 43.2861 184.193 43.2861 237.493C43.2861 290.793 0.0426331 333.995 -53.3093 333.995C-106.661 333.995 -149.905 290.793 -149.905 237.493Z" fill="white"/>
<path d="M-243 237.47C-243 132.986 -157.895 47.9634 -53.3092 47.9634C51.2763 47.9634 136.382 132.986 136.382 237.47C136.382 341.954 51.2993 426.977 -53.3092 426.977C-157.918 426.977 -243 341.977 -243 237.47ZM117.339 237.47C117.339 143.453 40.7763 66.9877 -53.3092 66.9877C-147.395 66.9877 -223.957 143.476 -223.957 237.47C-223.957 331.465 -147.395 407.953 -53.3092 407.953C40.7763 407.953 117.339 331.465 117.339 237.47ZM-159.438 237.47C-159.438 179.017 -111.819 131.445 -53.3092 131.445C5.20065 131.445 52.7961 178.994 52.7961 237.47C52.7961 295.946 5.20065 343.473 -53.3092 343.473C-111.819 343.473 -159.438 295.923 -159.438 237.47ZM33.7763 237.47C33.7763 189.507 -5.27631 150.469 -53.2862 150.469C-101.296 150.469 -140.372 189.507 -140.372 237.47C-140.372 285.434 -101.296 324.448 -53.2862 324.448C-5.27631 324.448 33.7763 285.411 33.7763 237.47Z" fill="#080206"/>
<path d="M174.489 189.507C174.489 90.1065 93.828 9.50049 -5.6687 9.50049C-105.165 9.50049 -185.85 90.1065 -185.85 189.507C-185.85 288.907 -105.188 369.513 -5.6687 369.513C93.851 369.513 174.489 288.93 174.489 189.507ZM-102.287 189.507C-102.287 136.206 -59.0437 93.005 -5.69174 93.005C47.6602 93.005 90.9037 136.206 90.9037 189.507C90.9037 242.807 47.6602 286.008 -5.69174 286.008C-59.0437 286.008 -102.287 242.807 -102.287 189.507Z" fill="#FDC30F"/>
<path d="M-195.359 189.507C-195.359 85.0227 -110.277 0 -5.66859 0C98.94 0 184.022 85.0227 184.022 189.507C184.022 293.991 98.9169 379.014 -5.66859 379.014C-110.254 379.014 -195.359 294.014 -195.359 189.507ZM164.979 189.507C164.979 95.4895 88.4169 19.0243 -5.66859 19.0243C-99.7541 19.0243 -176.34 95.5125 -176.34 189.507C-176.34 283.501 -99.7772 359.989 -5.69162 359.989C88.3939 359.989 164.956 283.501 164.956 189.507M-111.797 189.507C-111.797 131.054 -64.2015 83.4815 -5.66859 83.4815C52.8643 83.4815 100.437 131.031 100.437 189.507C100.437 247.983 52.8413 295.509 -5.66859 295.509C-64.1785 295.509 -111.797 247.96 -111.797 189.507ZM81.3939 189.507C81.3939 141.544 42.3183 102.506 -5.66859 102.506C-53.6554 102.506 -92.7541 141.544 -92.7541 189.507C-92.7541 237.47 -53.6785 276.485 -5.66859 276.485C42.3413 276.485 81.3939 237.447 81.3939 189.507Z" fill="#080206"/>
</g>
<defs>
<clipPath id="clip0_44_58637">
<rect width="427" height="427" fill="white" transform="translate(-243)"/>
</clipPath>
</defs>
</svg>
