<svg width="235" height="187" viewBox="0 0 235 187" fill="none" xmlns="http://www.w3.org/2000/svg">
<g clip-path="url(#clip0_19_299)">
<path d="M204.922 55.4067L187.198 37.8792L139.49 41.8584L70.3863 96.8022L83.878 108.216L116.632 114.998L57.0079 156.121L66.0293 166.725L179.339 112.312L165.97 95.986L158.931 94.9067L204.922 55.4067Z" fill="#FDC30F"/>
<path d="M65.1723 170.209C64.1231 170.032 63.1529 169.539 62.4947 168.767L53.4733 158.163C52.1901 156.651 52.5232 154.586 54.2406 153.398L107.378 116.751L82.8232 111.667C82.0504 111.507 81.3392 111.168 80.7885 110.7L67.3015 99.2906C66.5015 98.6121 66.0611 97.7005 66.0815 96.7524C66.1019 95.8044 66.5758 94.9042 67.3983 94.2533L136.498 39.3049C137.193 38.7525 138.097 38.4074 139.056 38.3239L186.763 34.3447C188.187 34.2292 189.591 34.7059 190.51 35.6076L208.234 53.1351C209.641 54.5273 209.557 56.565 208.036 57.8655L167.517 92.6655C168.333 92.9212 169.049 93.3828 169.541 93.9966L182.906 110.318C183.57 111.133 183.802 112.138 183.534 113.097C183.266 114.056 182.531 114.882 181.506 115.377L68.1961 169.789C67.2519 170.242 66.1765 170.369 65.173 170.2M62.8097 156.754L67.2855 162.014L173.187 111.154L163.412 99.2132L158.15 98.4079C156.507 98.1333 155.314 97.2452 154.831 96.0005C154.347 94.7558 154.727 93.3924 155.822 92.4524L199.146 55.245L185.363 41.6107L141.416 45.2771L76.5133 96.887L86.1239 105.021L117.7 111.561C119.271 111.886 120.494 112.912 120.854 114.213C121.215 115.514 120.66 116.875 119.418 117.73L62.8302 156.756L62.8097 156.754Z" fill="#080206"/>
<path d="M187.198 37.8796L120.866 27.7195L70.3862 96.8026L103.604 101.901L57.0079 156.121L165.97 95.9864L132.761 90.8975L187.198 37.8796Z" fill="white"/>
<path d="M56.1511 159.604C55.3248 159.467 54.5366 159.128 53.9138 158.6C52.4674 157.37 52.283 155.461 53.4837 154.065L96.1863 104.375L69.5948 100.302C68.2 100.08 67.0258 99.3291 66.4546 98.2657C65.8731 97.2017 65.964 95.9738 66.6929 94.9784L117.174 25.8868C118.101 24.6149 119.881 23.9526 121.657 24.2265L187.989 34.3867C189.599 34.6127 190.747 35.4939 191.261 36.6853C191.779 37.8812 191.484 39.2072 190.496 40.1747L140.85 88.5202L166.761 92.4935L166.827 92.5016C168.52 92.7792 169.85 93.8702 170.197 95.2679C170.553 96.6831 169.831 98.1324 168.373 98.9366L59.4062 159.067C58.4233 159.611 57.2466 159.779 56.1565 159.6M104.457 98.4113C105.876 98.6473 107.056 99.4498 107.603 100.563C108.158 101.684 107.976 102.962 107.124 103.95L74.0502 142.443L154.781 97.8872L131.975 94.3932L131.914 94.3812C130.434 94.1331 129.208 93.2685 128.709 92.0907C128.19 90.8948 128.485 89.5687 129.474 88.6013L179.12 40.2558L123.019 31.6635L77.2872 94.2453L104.391 98.4031L104.451 98.4152L104.457 98.4113Z" fill="#080206"/>
</g>
<defs>
<clipPath id="clip0_19_299">
<rect width="112.501" height="188.141" fill="white" transform="matrix(0.724704 0.68906 -0.813698 0.581289 153.09 0)"/>
</clipPath>
</defs>
</svg>
