<svg width="290" height="427" viewBox="0 0 290 427" fill="none" xmlns="http://www.w3.org/2000/svg">
<g clip-path="url(#clip0_44_21373)">
<path d="M369.849 237.493C369.849 138.093 289.187 57.4871 189.691 57.4871C90.194 57.4871 9.50977 138.07 9.50977 237.493C9.50977 336.916 90.1709 417.499 189.691 417.499C289.21 417.499 369.849 336.916 369.849 237.493ZM93.0953 237.493C93.0953 184.193 136.339 140.992 189.691 140.992C243.043 140.992 286.286 184.193 286.286 237.493C286.286 290.793 243.043 333.995 189.691 333.995C136.339 333.995 93.0953 290.793 93.0953 237.493Z" fill="white"/>
<path d="M0 237.47C0 132.986 85.1053 47.9634 189.691 47.9634C294.276 47.9634 379.382 132.986 379.382 237.47C379.382 341.954 294.299 426.977 189.691 426.977C85.0822 426.977 0 341.977 0 237.47ZM360.339 237.47C360.339 143.453 283.776 66.9877 189.691 66.9877C95.6053 66.9877 19.0428 143.476 19.0428 237.47C19.0428 331.465 95.6053 407.953 189.691 407.953C283.776 407.953 360.339 331.465 360.339 237.47ZM83.5625 237.47C83.5625 179.017 131.181 131.445 189.691 131.445C248.201 131.445 295.796 178.994 295.796 237.47C295.796 295.946 248.201 343.473 189.691 343.473C131.181 343.473 83.5625 295.923 83.5625 237.47ZM276.776 237.47C276.776 189.507 237.724 150.469 189.714 150.469C141.704 150.469 102.628 189.507 102.628 237.47C102.628 285.434 141.704 324.448 189.714 324.448C237.724 324.448 276.776 285.411 276.776 237.47Z" fill="#080206"/>
<path d="M417.49 189.507C417.49 90.1067 336.829 9.50073 237.332 9.50073C137.836 9.50073 57.1514 90.1067 57.1514 189.507C57.1514 288.907 137.813 369.513 237.332 369.513C336.852 369.513 417.49 288.93 417.49 189.507ZM140.714 189.507C140.714 136.207 183.957 93.0052 237.309 93.0052C290.661 93.0052 333.905 136.207 333.905 189.507C333.905 242.807 290.661 286.009 237.309 286.009C183.957 286.009 140.714 242.807 140.714 189.507Z" fill="#FDC30F"/>
<path d="M47.6416 189.507C47.6416 85.0227 132.724 0 237.332 0C341.941 0 427.023 85.0227 427.023 189.507C427.023 293.991 341.918 379.014 237.332 379.014C132.747 379.014 47.6416 294.014 47.6416 189.507ZM407.98 189.507C407.98 95.4895 331.418 19.0243 237.332 19.0243C143.247 19.0243 66.6613 95.5125 66.6613 189.507C66.6613 283.501 143.224 359.989 237.309 359.989C331.395 359.989 407.957 283.501 407.957 189.507M131.204 189.507C131.204 131.054 178.799 83.4815 237.332 83.4815C295.865 83.4815 343.438 131.031 343.438 189.507C343.438 247.983 295.842 295.509 237.332 295.509C178.823 295.509 131.204 247.96 131.204 189.507ZM324.395 189.507C324.395 141.544 285.319 102.506 237.332 102.506C189.346 102.506 150.247 141.544 150.247 189.507C150.247 237.47 189.323 276.485 237.332 276.485C285.342 276.485 324.395 237.447 324.395 189.507Z" fill="#080206"/>
</g>
<defs>
<clipPath id="clip0_44_21373">
<rect width="427" height="427" fill="white"/>
</clipPath>
</defs>
</svg>
