<svg width="209" height="202" viewBox="0 0 209 202" fill="none" xmlns="http://www.w3.org/2000/svg">
<g clip-path="url(#clip0_68_59254)">
<path d="M150.877 145.433V94.9152H203.286V56.0124H150.877V5.49463H110.518V56.0124H58.1094V94.9152H110.518V145.433H150.877Z" fill="#FED00C"/>
<path d="M52.4082 94.9154V56.0126C52.4082 52.9791 54.9617 50.5178 58.1087 50.5178H104.817V5.49482C104.817 2.46136 107.37 0 110.517 0H150.876C154.023 0 156.577 2.46136 156.577 5.49482V50.5045H203.285C206.432 50.5045 208.986 52.9658 208.986 55.9993V94.9021C208.986 97.9355 206.432 100.397 203.285 100.397H156.577V145.42C156.577 148.453 154.023 150.915 150.876 150.915H110.517C107.37 150.915 104.817 148.453 104.817 145.42V100.397H58.1087C54.9617 100.397 52.4082 97.9355 52.4082 94.9021M63.823 61.5207V89.4206H110.517C113.664 89.4206 116.218 91.8819 116.218 94.9154V139.938H145.162V94.9154C145.162 91.8819 147.716 89.4206 150.863 89.4206H197.571V61.5207H150.863C147.716 61.5207 145.162 59.0593 145.162 56.0259V11.0029H116.218V56.0126C116.218 59.046 113.664 61.5074 110.517 61.5074H63.823V61.5207Z" fill="#080206"/>
<path d="M150.877 145.433L98.4684 195.951H58.1094L110.518 145.433H150.877Z" fill="#FDC30F"/>
<path d="M52.4083 195.951C52.4083 194.514 52.988 193.117 54.0785 192.066L106.487 141.548C107.564 140.524 109.013 139.938 110.518 139.938H150.877C153.182 139.938 155.266 141.282 156.149 143.331C157.033 145.393 156.549 147.748 154.907 149.332L102.498 199.849C101.422 200.887 99.9723 201.459 98.4678 201.459H58.1088C55.8038 201.459 53.7196 200.115 52.8362 198.066C52.5464 197.388 52.3945 196.67 52.3945 195.964M112.878 150.928L71.8839 190.443H96.1076L137.102 150.928H112.892H112.878Z" fill="#080206"/>
<path d="M58.1099 56.0127L5.70117 106.53V145.433L58.1099 94.9155V56.0127Z" fill="#FDC30F"/>
<path d="M0 145.433V106.53C0 105.067 0.607318 103.67 1.67012 102.645L54.0789 52.1275C55.7076 50.5576 58.1644 50.0786 60.3039 50.9301C62.4295 51.7816 63.8235 53.7906 63.8235 56.0125V94.9153C63.8235 96.3788 63.2162 97.7758 62.1534 98.8003L9.74468 149.318C8.11597 150.888 5.65909 151.367 3.51968 150.515C1.39407 149.664 0 147.655 0 145.433ZM11.4148 108.805V132.142L52.4087 92.6269V69.2772L11.4148 108.792V108.805Z" fill="#080206"/>
<path d="M110.519 94.9155L58.1099 145.42H5.70117L58.1099 94.9155H110.519Z" fill="white"/>
<path d="M0 145.433C0 143.996 0.579712 142.599 1.67012 141.548L54.0789 91.0303C55.1555 90.0058 56.6047 89.4204 58.1092 89.4204H110.518C112.823 89.4204 114.907 90.7642 115.791 92.8131C116.674 94.862 116.191 97.2302 114.548 98.8135L62.1396 149.331C61.063 150.369 59.6137 150.941 58.1092 150.941H5.7143C3.40926 150.941 1.32506 149.597 0.441685 147.548C0.151829 146.87 0 146.151 0 145.446M60.4695 100.41L19.4756 139.925H55.749L96.7429 100.41H60.4695Z" fill="#080206"/>
<path d="M110.518 145.433V94.9155L58.1094 145.433V195.951L110.518 145.433Z" fill="#FDC30F"/>
<path d="M52.4083 195.951V145.433C52.4083 143.97 53.0157 142.573 54.0785 141.548L106.487 91.0304C108.116 89.4604 110.573 88.9814 112.698 89.8329C114.824 90.6844 116.218 92.6934 116.218 94.9153V145.433C116.218 146.897 115.625 148.294 114.548 149.318L62.1392 199.836C60.5105 201.406 58.0536 201.885 55.9142 201.033C53.7886 200.182 52.3945 198.173 52.3945 195.951M63.8231 147.708V182.673L104.817 143.158V108.193L63.8231 147.708Z" fill="#080206"/>
<path d="M203.286 94.9155L150.877 145.433V94.9155H203.286Z" fill="white"/>
<path d="M145.162 145.433V94.9152C145.162 91.8818 147.716 89.4204 150.863 89.4204H203.271C205.577 89.4204 207.661 90.7642 208.544 92.8131C209.427 94.862 208.944 97.2302 207.302 98.8135L154.893 149.331C153.264 150.901 150.808 151.38 148.668 150.529C146.543 149.677 145.148 147.668 145.148 145.446M156.577 100.41V132.155L189.51 100.41H156.577Z" fill="#080206"/>
<path d="M110.518 5.49463L58.1094 56.0124H110.518V5.49463Z" fill="#FDC30F"/>
<path d="M52.4082 56.0122C52.4082 54.5753 52.9879 53.1783 54.0783 52.1272L106.487 1.60946C108.116 0.0395133 110.573 -0.439454 112.712 0.412044C114.838 1.26354 116.232 3.27254 116.232 5.49442V56.0122C116.232 59.0457 113.678 61.507 110.531 61.507H58.1225C55.8175 61.507 53.7333 60.1632 52.8499 58.1143C52.56 57.4358 52.4082 56.7173 52.4082 56.0122ZM104.817 18.7725L71.8976 50.5041H104.817V18.7725Z" fill="#080206"/>
</g>
<defs>
<clipPath id="clip0_68_59254">
<rect width="209" height="201.446" fill="white"/>
</clipPath>
</defs>
</svg>
