<svg width="121" height="202" viewBox="0 0 121 202" fill="none" xmlns="http://www.w3.org/2000/svg">
<g clip-path="url(#clip0_69_59330)">
<path d="M62.8771 145.433V94.9155H115.286V56.0126H62.8771V5.49487H22.5181V56.0126H-29.8906V94.9155H22.5181V145.433H62.8771Z" fill="#FED00C"/>
<path d="M-35.5918 94.9154V56.0126C-35.5918 52.9791 -33.0383 50.5178 -29.8913 50.5178H16.8169V5.49482C16.8169 2.46136 19.3704 0 22.5174 0H62.8764C66.0234 0 68.5769 2.46136 68.5769 5.49482V50.5045H115.285C118.432 50.5045 120.986 52.9658 120.986 55.9993V94.9021C120.986 97.9355 118.432 100.397 115.285 100.397H68.5769V145.42C68.5769 148.453 66.0234 150.915 62.8764 150.915H22.5174C19.3704 150.915 16.8169 148.453 16.8169 145.42V100.397H-29.8913C-33.0383 100.397 -35.5918 97.9355 -35.5918 94.9021M-24.177 61.5207V89.4206H22.5174C25.6644 89.4206 28.2179 91.8819 28.2179 94.9154V139.938H57.1621V94.9154C57.1621 91.8819 59.7156 89.4206 62.8626 89.4206H109.571V61.5207H62.8626C59.7156 61.5207 57.1621 59.0593 57.1621 56.0259V11.0029H28.2179V56.0126C28.2179 59.046 25.6644 61.5074 22.5174 61.5074H-24.177V61.5207Z" fill="#080206"/>
<path d="M62.8771 145.433L10.4684 195.951H-29.8906L22.5181 145.433H62.8771Z" fill="#FDC30F"/>
<path d="M-35.5917 195.951C-35.5917 194.514 -35.012 193.117 -33.9215 192.066L18.4872 141.548C19.5638 140.524 21.0131 139.938 22.5176 139.938H62.8766C65.1816 139.938 67.2658 141.282 68.1492 143.331C69.0326 145.393 68.5495 147.748 66.907 149.332L14.4982 199.849C13.4216 200.887 11.9723 201.459 10.4678 201.459H-29.8912C-32.1962 201.459 -34.2804 200.115 -35.1638 198.066C-35.4536 197.388 -35.6055 196.67 -35.6055 195.964M24.8778 150.928L-16.1161 190.443H8.10758L49.1015 150.928H24.8916H24.8778Z" fill="#080206"/>
<path d="M22.5186 94.9155L-29.8901 145.42H-82.2988L-29.8901 94.9155H22.5186Z" fill="white"/>
<path d="M-88 145.433C-88 143.996 -87.4203 142.599 -86.3299 141.548L-33.9211 91.0305C-32.8445 90.0061 -31.3953 89.4207 -29.8908 89.4207H22.518C24.823 89.4207 26.9072 90.7644 27.7906 92.8133C28.674 94.8623 28.1909 97.2305 26.5483 98.8137L-25.8604 149.332C-26.937 150.369 -28.3863 150.941 -29.8908 150.941H-82.2857C-84.5907 150.941 -86.6749 149.598 -87.5583 147.549C-87.8482 146.87 -88 146.152 -88 145.447M-27.5305 100.41L-68.5244 139.925H-32.251L8.7429 100.41H-27.5305Z" fill="#080206"/>
<path d="M22.5181 145.433V94.9155L-29.8906 145.433V195.951L22.5181 145.433Z" fill="#FDC30F"/>
<path d="M-35.5917 195.951V145.433C-35.5917 143.97 -34.9843 142.573 -33.9215 141.548L18.4872 91.0304C20.1159 89.4604 22.5728 88.9814 24.6984 89.8329C26.824 90.6844 28.2181 92.6934 28.2181 94.9153V145.433C28.2181 146.897 27.6245 148.294 26.5479 149.318L-25.8608 199.836C-27.4895 201.406 -29.9464 201.885 -32.0858 201.033C-34.2114 200.182 -35.6055 198.173 -35.6055 195.951M-24.1769 147.708V182.673L16.8171 143.158V108.193L-24.1769 147.708Z" fill="#080206"/>
<path d="M115.286 94.9155L62.877 145.433V94.9155H115.286Z" fill="white"/>
<path d="M57.1622 145.433V94.9155C57.1622 91.882 59.7157 89.4207 62.8627 89.4207H115.271C117.577 89.4207 119.661 90.7644 120.544 92.8133C121.427 94.8623 120.944 97.2305 119.302 98.8137L66.8931 149.332C65.2644 150.901 62.8075 151.38 60.6681 150.529C58.5425 149.677 57.1484 147.668 57.1484 145.447M68.577 100.41V132.155L101.51 100.41H68.577Z" fill="#080206"/>
<path d="M22.5181 5.49487L-29.8906 56.0126H22.5181V5.49487Z" fill="#FDC30F"/>
<path d="M-35.5918 56.0124C-35.5918 54.5755 -35.0121 53.1785 -33.9217 52.1275L18.4871 1.60971C20.1158 0.0397574 22.5726 -0.43921 24.7121 0.412288C26.8377 1.26379 28.2317 3.27279 28.2317 5.49467V56.0124C28.2317 59.0459 25.6782 61.5073 22.5312 61.5073H-29.8775C-32.1825 61.5073 -34.2667 60.1635 -35.1501 58.1146C-35.44 57.436 -35.5918 56.7176 -35.5918 56.0124ZM16.8169 18.7727L-16.1024 50.5043H16.8169V18.7727Z" fill="#080206"/>
</g>
<defs>
<clipPath id="clip0_69_59330">
<rect width="209" height="201.446" fill="white" transform="translate(-88)"/>
</clipPath>
</defs>
</svg>
