<svg width="296" height="496" viewBox="0 0 296 496" fill="none" xmlns="http://www.w3.org/2000/svg">
<g clip-path="url(#clip0_44_12037)">
<path d="M416.412 281.548L449.396 383.182L399.233 399.456L378.777 336.42L292.338 341.156L265.612 258.794L179.157 263.519L152.444 181.154L65.9695 185.855L32.9393 84.2024L83.093 67.8877L103.594 130.999L190.085 126.309L216.805 208.644L303.263 203.933L329.973 286.284L416.412 281.548Z" fill="white"/>
<path d="M81.8973 62.2933C83.1842 62.0182 84.5095 62.1882 85.6991 62.7838C87.0503 63.4724 88.0713 64.6706 88.5358 66.1152L107.685 125.026L189.779 120.567C192.368 120.424 194.74 122.042 195.539 124.52L220.897 202.67L302.973 198.201C305.563 198.059 307.935 199.676 308.733 202.154L334.078 280.307L416.122 275.817C418.712 275.674 421.083 277.292 421.882 279.77L454.838 381.41C455.303 382.854 455.185 384.424 454.497 385.775C453.808 387.126 452.61 388.147 451.165 388.611L401.003 404.885C397.935 405.909 394.767 404.207 393.785 401.202L374.693 342.364L292.663 346.851C290.073 346.994 287.702 345.376 286.903 342.898L261.542 264.734L179.482 269.214C176.892 269.357 174.52 267.739 173.722 265.261L148.361 187.097L66.2946 191.55C63.7047 191.693 61.3469 190.072 60.5346 187.597L27.4909 85.9476C26.5085 82.9422 28.1559 79.7148 31.1612 78.7324L81.3207 62.4448C81.5045 62.3772 81.7077 62.3338 81.8973 62.2933ZM186.001 132.253L103.908 136.711C101.318 136.854 98.9605 135.233 98.1482 132.758L79.4227 75.1027L40.1681 87.8698L70.0775 179.892L152.144 175.439C154.734 175.296 157.105 176.914 157.904 179.392L183.265 257.556L265.325 253.076C267.915 252.933 270.286 254.551 271.085 257.029L296.446 335.193L378.476 330.705C381.066 330.562 383.437 332.18 384.236 334.658L402.917 392.238L442.178 379.498L412.331 287.506L330.287 291.996C327.697 292.139 325.326 290.521 324.527 288.043L299.183 209.89L217.106 214.359C214.516 214.502 212.145 212.884 211.346 210.406L185.988 132.256L186.001 132.253Z" fill="#080206"/>
<path d="M396.362 310.012L429.332 411.649L379.167 427.91L358.727 364.884L272.299 369.603L245.579 287.268L159.107 291.983L132.381 209.621L45.9167 214.305L12.8759 112.669L63.046 96.3653L83.5438 159.464L170.032 154.76L196.742 237.111L283.214 232.397L309.923 314.748L396.362 310.012Z" fill="#FDC30F"/>
<path d="M61.8504 90.7708C63.1237 90.4987 64.4625 90.6658 65.6522 91.2614C67.0033 91.9499 68.0243 93.1481 68.4889 94.5928L87.6249 153.506L169.718 149.048C172.308 148.905 174.679 150.523 175.478 153.001L200.836 231.151L282.899 226.685C285.489 226.542 287.861 228.16 288.659 230.638L314.004 308.791L396.048 304.3C398.638 304.158 401.009 305.775 401.808 308.253L434.778 409.89C435.242 411.335 435.125 412.904 434.422 414.258C433.734 415.609 432.536 416.63 431.091 417.095L380.926 433.355C379.468 433.823 377.912 433.702 376.547 433.016C375.196 432.328 374.175 431.13 373.711 429.685L354.633 370.844L272.602 375.332C270.013 375.474 267.641 373.857 266.842 371.379L241.471 293.231L159.397 297.714C156.807 297.857 154.436 296.239 153.637 293.761L128.273 215.584L46.207 220.036C43.617 220.179 41.2457 218.561 40.447 216.083L7.41976 114.444C6.43746 111.439 8.08471 108.212 11.0901 107.229L61.2466 90.9282C61.4334 90.8741 61.6337 90.8171 61.8233 90.7766M165.951 160.717L83.8583 165.175C81.2684 165.318 78.8971 163.7 78.0984 161.222L59.3593 103.57L20.0912 116.34L49.9841 208.351L132.064 203.895C134.654 203.752 137.025 205.37 137.824 207.848L163.185 286.012L245.261 281.543C247.851 281.4 250.223 283.018 251.021 285.496L276.393 363.643L358.423 359.156C361.013 359.013 363.385 360.631 364.183 363.109L382.851 420.692L422.114 407.965L392.268 315.972L310.224 320.463C307.634 320.606 305.263 318.988 304.464 316.51L279.106 238.36L197.043 242.826C194.453 242.969 192.081 241.351 191.283 238.873L165.924 160.723L165.951 160.717Z" fill="#080206"/>
</g>
<defs>
<clipPath id="clip0_44_12037">
<rect width="425.41" height="381.777" fill="white" transform="translate(373.345) rotate(77.9353)"/>
</clipPath>
</defs>
</svg>
