<svg width="122" height="155" viewBox="0 0 122 155" fill="none" xmlns="http://www.w3.org/2000/svg">
<g clip-path="url(#clip0_45_58783)">
<path d="M90.9503 98.074L102.265 88.8741L69.928 23.7986L18.3996 28.1411L3.31055 42.4827L34.8641 80.9039L29.3866 81.3651L17.7279 94.9382L99.3225 151.413L107.159 142.613L81.4587 99.4497L90.9503 98.074Z" fill="#FED00C"/>
<path d="M100.394 154.418C99.4105 154.741 98.291 154.611 97.3874 153.988L15.7929 97.5206C15.0492 97.0056 14.5614 96.2217 14.4495 95.3455C14.3295 94.4693 14.5934 93.5931 15.1772 92.9168L26.8358 79.336C27.2676 78.8287 27.8513 78.4598 28.507 78.2984L0.711794 44.4502C-0.327729 43.1821 -0.215781 41.3606 0.983669 40.2231L16.0807 25.8814C16.6325 25.3664 17.3522 25.0436 18.1118 24.9745L69.6401 20.6397C71.0075 20.5244 72.3189 21.2392 72.9106 22.4305L105.248 87.506C105.896 88.8126 105.544 90.3651 104.4 91.3028L93.0854 100.503C92.6136 100.887 92.0459 101.133 91.4461 101.217L86.7283 101.901L110.03 141.037C110.725 142.206 110.581 143.666 109.67 144.681L101.833 153.481C101.434 153.926 100.938 154.242 100.394 154.418ZM22.5258 94.3463L98.7868 147.132L103.129 142.252L78.588 101.033C78.0443 100.126 78.0043 99.0116 78.4841 98.0663C78.9559 97.1209 79.8834 96.4676 80.963 96.3139L89.527 95.0688L98.179 88.0363L67.9289 27.1572L19.871 31.2L7.72457 42.744L37.4469 78.9363C38.1986 79.851 38.3665 81.096 37.8867 82.1644C37.4069 83.2327 36.3514 83.9782 35.136 84.0704L31.0419 84.4163L22.5098 94.354L22.5258 94.3463Z" fill="#080206"/>
<path d="M14.8496 22.4536L29.9467 8.11194L65.9941 15.0445L113.804 68.845L102.489 78.0449L76.8851 81.7648L118.698 122.592L110.862 131.384L29.267 74.9167L40.9256 61.336L46.4031 60.8748L14.8496 22.4536Z" fill="white"/>
<path d="M111.932 134.397C110.949 134.72 109.829 134.589 108.926 133.967L27.3393 77.4915C26.5956 76.9765 26.1078 76.1926 25.9959 75.3164C25.8759 74.4402 26.1398 73.564 26.7235 72.8877L38.3822 59.3069C38.814 58.7996 39.3817 58.4307 40.0534 58.2693L12.2502 24.4211C11.2027 23.153 11.3226 21.3315 12.5221 20.194L27.6191 5.85229C28.4028 5.11446 29.5143 4.79166 30.5938 4.99917L66.6492 11.9317C67.3769 12.0701 68.0326 12.439 68.5124 12.9847L116.322 66.7929C116.89 67.4308 117.17 68.2685 117.106 69.114C117.034 69.9594 116.618 70.7357 115.947 71.2813L104.632 80.4812C104.168 80.8655 103.6 81.1115 102.993 81.196L83.7933 83.9859L121.056 120.37C122.264 121.546 122.328 123.414 121.208 124.667L113.372 133.467C112.972 133.913 112.476 134.228 111.932 134.405M34.0642 74.3172L110.325 127.103L114.211 122.738L74.5336 83.9859C73.662 83.1328 73.3581 81.8877 73.75 80.7502C74.1418 79.6204 75.1653 78.7904 76.3887 78.6136L101.073 75.032L109.134 68.476L64.2263 17.942L31.0176 11.5628L19.279 22.7226L49.0013 58.9149C49.753 59.8295 49.9289 61.0669 49.4411 62.143C48.9613 63.219 47.8898 63.9491 46.6904 64.049L42.5963 64.3872L34.0642 74.3172Z" fill="#080206"/>
<path d="M29.9463 8.11188L81.4666 3.76941L113.804 68.8449L87.9996 71.0277L118.698 122.592L40.9252 61.3359L66.7374 59.1685L29.9463 8.11188Z" fill="#FED00C"/>
<path d="M119.769 125.597C118.713 125.943 117.506 125.766 116.602 125.051L38.8299 63.7879C37.7904 62.9732 37.3666 61.6282 37.7664 60.3908C38.1662 59.1534 39.2937 58.2695 40.6371 58.1619L60.7718 56.471L27.2272 9.91824C26.5556 8.98826 26.4516 7.78159 26.9474 6.75939C27.4511 5.73718 28.4747 5.03777 29.6501 4.94554L81.1785 0.61076C82.5538 0.495474 83.8572 1.21025 84.449 2.40923L116.786 67.4847C117.258 68.4224 117.21 69.5292 116.674 70.4284C116.138 71.3353 115.171 71.9194 114.091 72.0194L93.4288 73.764L121.56 121.016C122.352 122.346 122.04 124.029 120.824 125.021C120.504 125.282 120.145 125.474 119.761 125.605M49.2971 63.8186L106.919 109.203L85.1287 72.6035C84.5689 71.6658 84.5449 70.5129 85.0647 69.5522C85.5844 68.5915 86.584 67.9536 87.7035 67.8614L108.766 66.0859L79.4753 7.1283L35.9033 10.7944L69.4559 57.3549C70.1275 58.2849 70.2315 59.4915 69.7277 60.5137C69.232 61.536 68.2004 62.2277 67.025 62.3276L49.3051 63.8186H49.2971Z" fill="#080206"/>
</g>
<defs>
<clipPath id="clip0_45_58783">
<rect width="122" height="154" fill="white" transform="translate(0 0.595215)"/>
</clipPath>
</defs>
</svg>
