<svg width="166" height="427" viewBox="0 0 166 427" fill="none" xmlns="http://www.w3.org/2000/svg">
<g clip-path="url(#clip0_70_59414)">
<path d="M108.849 237.493C108.849 138.093 28.1874 57.4871 -71.3093 57.4871C-170.806 57.4871 -251.49 138.07 -251.49 237.493C-251.49 336.916 -170.829 417.499 -71.3093 417.499C28.2104 417.499 108.849 336.916 108.849 237.493ZM-167.905 237.493C-167.905 184.193 -124.661 140.992 -71.3093 140.992C-17.9574 140.992 25.2861 184.193 25.2861 237.493C25.2861 290.793 -17.9574 333.995 -71.3093 333.995C-124.661 333.995 -167.905 290.793 -167.905 237.493Z" fill="white"/>
<path d="M-261 237.47C-261 132.986 -175.895 47.9634 -71.3092 47.9634C33.2763 47.9634 118.382 132.986 118.382 237.47C118.382 341.954 33.2993 426.977 -71.3092 426.977C-175.918 426.977 -261 341.977 -261 237.47ZM99.3388 237.47C99.3388 143.453 22.7763 66.9877 -71.3092 66.9877C-165.395 66.9877 -241.957 143.476 -241.957 237.47C-241.957 331.465 -165.395 407.953 -71.3092 407.953C22.7763 407.953 99.3388 331.465 99.3388 237.47ZM-177.438 237.47C-177.438 179.017 -129.819 131.445 -71.3092 131.445C-12.7993 131.445 34.7961 178.994 34.7961 237.47C34.7961 295.946 -12.7993 343.473 -71.3092 343.473C-129.819 343.473 -177.438 295.923 -177.438 237.47ZM15.7763 237.47C15.7763 189.507 -23.2763 150.469 -71.2862 150.469C-119.296 150.469 -158.372 189.507 -158.372 237.47C-158.372 285.434 -119.296 324.448 -71.2862 324.448C-23.2763 324.448 15.7763 285.411 15.7763 237.47Z" fill="#080206"/>
<path d="M156.489 189.507C156.489 90.1067 75.828 9.50073 -23.6687 9.50073C-123.165 9.50073 -203.85 90.1067 -203.85 189.507C-203.85 288.907 -123.188 369.513 -23.6687 369.513C75.851 369.513 156.489 288.93 156.489 189.507ZM-120.287 189.507C-120.287 136.207 -77.0437 93.0052 -23.6917 93.0052C29.6602 93.0052 72.9037 136.207 72.9037 189.507C72.9037 242.807 29.6602 286.009 -23.6917 286.009C-77.0437 286.009 -120.287 242.807 -120.287 189.507Z" fill="#FDC30F"/>
<path d="M-213.359 189.507C-213.359 85.0227 -128.277 0 -23.6686 0C80.94 0 166.022 85.0227 166.022 189.507C166.022 293.991 80.9169 379.014 -23.6686 379.014C-128.254 379.014 -213.359 294.014 -213.359 189.507ZM146.979 189.507C146.979 95.4895 70.4169 19.0243 -23.6686 19.0243C-117.754 19.0243 -194.34 95.5125 -194.34 189.507C-194.34 283.501 -117.777 359.989 -23.6916 359.989C70.3939 359.989 146.956 283.501 146.956 189.507M-129.797 189.507C-129.797 131.054 -82.2015 83.4815 -23.6686 83.4815C34.8643 83.4815 82.4367 131.031 82.4367 189.507C82.4367 247.983 34.8413 295.509 -23.6686 295.509C-82.1785 295.509 -129.797 247.96 -129.797 189.507ZM63.3939 189.507C63.3939 141.544 24.3183 102.506 -23.6686 102.506C-71.6554 102.506 -110.754 141.544 -110.754 189.507C-110.754 237.47 -71.6785 276.485 -23.6686 276.485C24.3413 276.485 63.3939 237.447 63.3939 189.507Z" fill="#080206"/>
</g>
<defs>
<clipPath id="clip0_70_59414">
<rect width="427" height="427" fill="white" transform="translate(-261)"/>
</clipPath>
</defs>
</svg>
