<svg width="245" height="427" viewBox="0 0 245 427" fill="none" xmlns="http://www.w3.org/2000/svg">
<g clip-path="url(#clip0_18_16)">
<path d="M187.849 237.493C187.849 138.093 107.187 57.4871 7.69075 57.4871C-91.806 57.4871 -172.49 138.07 -172.49 237.493C-172.49 336.916 -91.829 417.499 7.69075 417.499C107.21 417.499 187.849 336.916 187.849 237.493ZM-88.9046 237.493C-88.9046 184.193 -45.6612 140.992 7.69075 140.992C61.0427 140.992 104.286 184.193 104.286 237.493C104.286 290.793 61.0427 333.995 7.69075 333.995C-45.6612 333.995 -88.9046 290.793 -88.9046 237.493Z" fill="white"/>
<path d="M-182 237.47C-182 132.986 -96.8948 47.9634 7.69075 47.9634C112.276 47.9634 197.382 132.986 197.382 237.47C197.382 341.954 112.299 426.977 7.69075 426.977C-96.9178 426.977 -182 341.977 -182 237.47ZM178.339 237.47C178.339 143.453 101.776 66.9877 7.69075 66.9877C-86.3948 66.9877 -162.957 143.476 -162.957 237.47C-162.957 331.465 -86.3948 407.953 7.69075 407.953C101.776 407.953 178.339 331.465 178.339 237.47ZM-98.4375 237.47C-98.4375 179.017 -50.8191 131.445 7.69075 131.445C66.2006 131.445 113.796 178.994 113.796 237.47C113.796 295.946 66.2006 343.473 7.69075 343.473C-50.8191 343.473 -98.4375 295.923 -98.4375 237.47ZM94.7763 237.47C94.7763 189.507 55.7237 150.469 7.71379 150.469C-40.2961 150.469 -79.3717 189.507 -79.3717 237.47C-79.3717 285.434 -40.2961 324.448 7.71379 324.448C55.7237 324.448 94.7763 285.411 94.7763 237.47Z" fill="#080206"/>
<path d="M235.49 189.507C235.49 90.1067 154.829 9.50073 55.3322 9.50073C-44.1645 9.50073 -124.849 90.1067 -124.849 189.507C-124.849 288.907 -44.1875 369.513 55.3322 369.513C154.852 369.513 235.49 288.93 235.49 189.507ZM-41.2862 189.507C-41.2862 136.207 1.95719 93.0052 55.3092 93.0052C108.661 93.0052 151.905 136.207 151.905 189.507C151.905 242.807 108.661 286.009 55.3092 286.009C1.95719 286.009 -41.2862 242.807 -41.2862 189.507Z" fill="#FDC30F"/>
<path d="M-134.359 189.507C-134.359 85.0227 -49.2764 0 55.3322 0C159.941 0 245.023 85.0227 245.023 189.507C245.023 293.991 159.918 379.014 55.3322 379.014C-49.2533 379.014 -134.359 294.014 -134.359 189.507ZM225.98 189.507C225.98 95.4895 149.418 19.0243 55.3322 19.0243C-38.7533 19.0243 -115.339 95.5125 -115.339 189.507C-115.339 283.501 -38.7764 359.989 55.3092 359.989C149.395 359.989 225.957 283.501 225.957 189.507M-50.7961 189.507C-50.7961 131.054 -3.20068 83.4815 55.3322 83.4815C113.865 83.4815 161.437 131.031 161.437 189.507C161.437 247.983 113.842 295.509 55.3322 295.509C-3.17766 295.509 -50.7961 247.96 -50.7961 189.507ZM142.395 189.507C142.395 141.544 103.319 102.506 55.3322 102.506C7.34537 102.506 -31.7533 141.544 -31.7533 189.507C-31.7533 237.47 7.32234 276.485 55.3322 276.485C103.342 276.485 142.395 237.447 142.395 189.507Z" fill="#080206"/>
</g>
<defs>
<clipPath id="clip0_18_16">
<rect width="427" height="427" fill="white" transform="translate(-182)"/>
</clipPath>
</defs>
</svg>
