<svg width="225" height="223" viewBox="0 0 225 223" fill="none" xmlns="http://www.w3.org/2000/svg">
<g clip-path="url(#clip0_73_59601)">
<path d="M204.922 66.0351L187.198 45.1454L139.491 49.8879L70.3868 115.371L83.8785 128.974L116.632 137.058L57.0085 186.069L66.0299 198.707L179.34 133.857L165.97 114.399L158.932 113.112L204.922 66.0351Z" fill="#FDC30F"/>
<path d="M65.1716 202.859C64.1224 202.649 63.1522 202.061 62.494 201.141L53.4726 188.503C52.1894 186.701 52.5225 184.239 54.2399 182.824L107.378 139.147L82.8225 133.088C82.0496 132.897 81.3385 132.494 80.7878 131.935L67.3008 118.337C66.5008 117.529 66.0604 116.442 66.0808 115.312C66.1012 114.182 66.575 113.109 67.3976 112.334L136.497 46.8447C137.193 46.1863 138.097 45.7749 139.055 45.6754L186.763 40.9329C188.187 40.7954 189.59 41.3635 190.51 42.4381L208.234 63.3278C209.64 64.9871 209.556 67.4157 208.035 68.9657L167.516 110.441C168.332 110.746 169.048 111.296 169.54 112.028L182.905 131.481C183.57 132.451 183.801 133.65 183.533 134.792C183.265 135.935 182.53 136.919 181.505 137.509L68.1954 202.359C67.2512 202.899 66.1757 203.051 65.1723 202.849M62.809 186.824L67.2848 193.093L173.186 132.476L163.412 118.245L158.149 117.285C156.507 116.958 155.314 115.899 154.83 114.416C154.346 112.933 154.727 111.308 155.821 110.187L199.145 65.8425L185.362 49.5928L141.415 53.9625L76.5125 115.473L86.1232 125.167L117.7 132.961C119.271 133.349 120.493 134.571 120.853 136.122C121.214 137.672 120.659 139.295 119.418 140.314L62.8295 186.826L62.809 186.824Z" fill="#080206"/>
<path d="M187.199 45.146L120.867 33.0369L70.3872 115.372L103.605 121.448L57.0089 186.07L165.971 114.399L132.762 108.334L187.199 45.146Z" fill="white"/>
<path d="M56.1511 190.221C55.3248 190.057 54.5366 189.653 53.9139 189.024C52.4674 187.559 52.2831 185.283 53.4837 183.619L96.1863 124.397L69.5948 119.543C68.2 119.279 67.0258 118.383 66.4546 117.116C65.8731 115.848 65.964 114.384 66.6929 113.198L117.174 30.8528C118.101 29.3369 119.881 28.5475 121.657 28.874L187.989 40.9831C189.599 41.2526 190.747 42.3027 191.261 43.7227C191.779 45.148 191.484 46.7284 190.496 47.8814L140.85 105.501L166.761 110.236L166.827 110.246C168.52 110.577 169.85 111.877 170.197 113.543C170.553 115.23 169.831 116.957 168.373 117.915L59.4062 189.58C58.4233 190.229 57.2466 190.429 56.1565 190.216M104.457 117.289C105.876 117.571 107.056 118.527 107.603 119.853C108.158 121.19 107.976 122.713 107.124 123.891L74.0502 169.767L154.781 116.665L131.975 112.501L131.914 112.486C130.434 112.191 129.208 111.16 128.709 109.756C128.19 108.331 128.485 106.751 129.474 105.598L179.12 47.9781L123.019 37.7376L77.2872 112.324L104.391 117.28L104.451 117.294L104.457 117.289Z" fill="#080206"/>
</g>
<defs>
<clipPath id="clip0_73_59601">
<rect width="123.22" height="201.062" fill="white" transform="matrix(0.661663 0.749802 -0.761407 0.648274 153.09 0)"/>
</clipPath>
</defs>
</svg>
