<svg width="298" height="496" viewBox="0 0 298 496" fill="none" xmlns="http://www.w3.org/2000/svg">
<g clip-path="url(#clip0_44_40019)">
<path d="M416.411 281.548L449.395 383.182L399.232 399.456L378.776 336.42L292.337 341.156L265.611 258.794L179.156 263.519L152.443 181.154L65.9685 185.855L32.9383 84.2024L83.092 67.8877L103.593 130.999L190.084 126.309L216.804 208.644L303.262 203.933L329.972 286.284L416.411 281.548Z" fill="white"/>
<path d="M81.8964 62.2933C83.1832 62.0182 84.5085 62.1882 85.6981 62.7838C87.0493 63.4724 88.0703 64.6706 88.5348 66.1152L107.684 125.026L189.778 120.567C192.367 120.424 194.739 122.042 195.538 124.52L220.896 202.67L302.972 198.201C305.562 198.059 307.934 199.676 308.732 202.154L334.077 280.307L416.121 275.817C418.711 275.674 421.082 277.292 421.881 279.77L454.837 381.41C455.302 382.854 455.184 384.424 454.496 385.775C453.807 387.126 452.609 388.147 451.164 388.611L401.002 404.885C397.935 405.909 394.766 404.207 393.784 401.202L374.692 342.364L292.662 346.851C290.072 346.994 287.701 345.376 286.902 342.898L261.541 264.734L179.481 269.214C176.891 269.357 174.519 267.739 173.721 265.261L148.36 187.097L66.2936 191.55C63.7037 191.693 61.3459 190.072 60.5336 187.597L27.4899 85.9476C26.5076 82.9422 28.1549 79.7148 31.1602 78.7324L81.3197 62.4448C81.5036 62.3772 81.7067 62.3338 81.8964 62.2933ZM186 132.253L103.907 136.711C101.317 136.854 98.9595 135.233 98.1472 132.758L79.4218 75.1027L40.1671 87.8698L70.0765 179.892L152.143 175.439C154.733 175.296 157.104 176.914 157.903 179.392L183.264 257.556L265.324 253.076C267.914 252.933 270.285 254.551 271.084 257.029L296.445 335.193L378.475 330.705C381.065 330.562 383.436 332.18 384.235 334.658L402.916 392.238L442.177 379.498L412.33 287.506L330.286 291.996C327.696 292.139 325.325 290.521 324.526 288.043L299.182 209.89L217.105 214.359C214.515 214.502 212.144 212.884 211.345 210.406L185.987 132.256L186 132.253Z" fill="#080206"/>
<path d="M396.361 310.012L429.331 411.649L379.166 427.91L358.726 364.884L272.298 369.603L245.578 287.268L159.106 291.983L132.38 209.621L45.9157 214.305L12.8749 112.669L63.045 96.3653L83.5429 159.464L170.031 154.76L196.741 237.111L283.213 232.397L309.922 314.748L396.361 310.012Z" fill="#FDC30F"/>
<path d="M61.8494 90.7711C63.1227 90.4989 64.4615 90.666 65.6512 91.2616C67.0024 91.9502 68.0233 93.1484 68.4879 94.593L87.6239 153.506L169.717 149.048C172.307 148.905 174.678 150.523 175.477 153.001L200.835 231.151L282.898 226.685C285.488 226.542 287.86 228.16 288.658 230.638L314.003 308.791L396.047 304.301C398.637 304.158 401.008 305.776 401.807 308.254L434.777 409.891C435.242 411.335 435.124 412.904 434.422 414.258C433.733 415.609 432.535 416.63 431.09 417.095L380.925 433.356C379.467 433.823 377.911 433.702 376.546 433.017C375.195 432.328 374.174 431.13 373.71 429.685L354.632 370.844L272.601 375.332C270.012 375.475 267.64 373.857 266.841 371.379L241.47 293.232L159.396 297.714C156.806 297.857 154.435 296.239 153.636 293.761L128.272 215.584L46.206 220.037C43.6161 220.179 41.2448 218.562 40.446 216.083L7.41878 114.445C6.43648 111.439 8.08373 108.212 11.0891 107.23L61.2457 90.9284C61.4324 90.8744 61.6327 90.8174 61.8223 90.7769M165.951 160.717L83.8573 165.176C81.2675 165.318 78.8961 163.7 78.0974 161.222L59.3583 103.57L20.0902 116.34L49.9832 208.351L132.063 203.895C134.653 203.753 137.024 205.37 137.823 207.848L163.184 286.012L245.261 281.543C247.85 281.4 250.222 283.018 251.02 285.496L276.392 363.643L358.422 359.156C361.012 359.013 363.384 360.631 364.182 363.109L382.85 420.692L422.113 407.965L392.267 315.973L310.223 320.463C307.633 320.606 305.262 318.988 304.463 316.51L279.105 238.36L197.042 242.826C194.452 242.969 192.08 241.351 191.282 238.873L165.923 160.723L165.951 160.717Z" fill="#080206"/>
</g>
<defs>
<clipPath id="clip0_44_40019">
<rect width="425.41" height="381.777" fill="white" transform="translate(373.344) rotate(77.9353)"/>
</clipPath>
</defs>
</svg>
