<svg width="160" height="202" viewBox="0 0 160 202" fill="none" xmlns="http://www.w3.org/2000/svg">
<g clip-path="url(#clip0_53_58969)">
<path d="M101.877 145.433V94.9152H154.286V56.0124H101.877V5.49463H61.5181V56.0124H9.10938V94.9152H61.5181V145.433H101.877Z" fill="#FED00C"/>
<path d="M3.40918 94.9154V56.0126C3.40918 52.9791 5.96267 50.5178 9.10968 50.5178H55.8179V5.49482C55.8179 2.46136 58.3714 0 61.5184 0H101.877C105.024 0 107.578 2.46136 107.578 5.49482V50.5045H154.286C157.433 50.5045 159.987 52.9658 159.987 55.9993V94.9021C159.987 97.9355 157.433 100.397 154.286 100.397H107.578V145.42C107.578 148.453 105.024 150.915 101.877 150.915H61.5184C58.3714 150.915 55.8179 148.453 55.8179 145.42V100.397H9.10968C5.96267 100.397 3.40918 97.9355 3.40918 94.9021M14.824 61.5207V89.4206H61.5184C64.6654 89.4206 67.2189 91.8819 67.2189 94.9154V139.938H96.1631V94.9154C96.1631 91.8819 98.7166 89.4206 101.864 89.4206H148.572V61.5207H101.864C98.7166 61.5207 96.1631 59.0593 96.1631 56.0259V11.0029H67.2189V56.0126C67.2189 59.046 64.6654 61.5074 61.5184 61.5074H14.824V61.5207Z" fill="#080206"/>
<path d="M101.877 145.433L49.4684 195.951H9.10938L61.5181 145.433H101.877Z" fill="#FDC30F"/>
<path d="M3.40834 195.951C3.40834 194.514 3.98805 193.117 5.07846 192.066L57.4872 141.548C58.5638 140.524 60.0131 139.938 61.5176 139.938H101.877C104.182 139.938 106.266 141.282 107.149 143.331C108.033 145.393 107.549 147.748 105.907 149.332L53.4982 199.849C52.4216 200.887 50.9723 201.459 49.4678 201.459H9.10883C6.80379 201.459 4.71959 200.115 3.83622 198.066C3.54636 197.388 3.39453 196.67 3.39453 195.964M63.8778 150.928L22.8839 190.443H47.1076L88.1015 150.928H63.8916H63.8778Z" fill="#080206"/>
<path d="M9.10892 56.0127L-43.2998 106.53V145.433L9.10892 94.9155V56.0127Z" fill="#FDC30F"/>
<path d="M-49 145.433V106.53C-49 105.067 -48.3927 103.67 -47.3299 102.645L5.07886 52.1275C6.70757 50.5576 9.16444 50.0786 11.3039 50.9301C13.4295 51.7816 14.8235 53.7906 14.8235 56.0125V94.9153C14.8235 96.3788 14.2162 97.7758 13.1534 98.8003L-39.2553 149.318C-40.884 150.888 -43.3409 151.367 -45.4803 150.515C-47.6059 149.664 -49 147.655 -49 145.433ZM-37.5852 108.805V132.142L3.40874 92.6269V69.2772L-37.5852 108.792V108.805Z" fill="#080206"/>
<path d="M61.5177 94.9155L9.10892 145.42H-43.2998L9.10892 94.9155H61.5177Z" fill="white"/>
<path d="M-49 145.433C-49 143.996 -48.4203 142.599 -47.3299 141.548L5.07886 91.0303C6.15546 90.0058 7.60474 89.4204 9.10923 89.4204H61.518C63.823 89.4204 65.9072 90.7642 66.7906 92.8131C67.674 94.862 67.1909 97.2302 65.5483 98.8135L13.1396 149.331C12.063 150.369 10.6137 150.941 9.10923 150.941H-43.2857C-45.5907 150.941 -47.6749 149.597 -48.5583 147.548C-48.8482 146.87 -49 146.151 -49 145.446M11.4695 100.41L-29.5244 139.925H6.74898L47.7429 100.41H11.4695Z" fill="#080206"/>
<path d="M61.5181 145.433V94.9155L9.10938 145.433V195.951L61.5181 145.433Z" fill="#FDC30F"/>
<path d="M3.40834 195.951V145.433C3.40834 143.97 4.01565 142.573 5.07846 141.548L57.4872 91.0304C59.1159 89.4604 61.5728 88.9814 63.6984 89.8329C65.824 90.6844 67.2181 92.6934 67.2181 94.9153V145.433C67.2181 146.897 66.6245 148.294 65.5479 149.318L13.1392 199.836C11.5105 201.406 9.05362 201.885 6.91421 201.033C4.7886 200.182 3.39453 198.173 3.39453 195.951M14.8231 147.708V182.673L55.8171 143.158V108.193L14.8231 147.708Z" fill="#080206"/>
<path d="M154.286 94.9155L101.877 145.433V94.9155H154.286Z" fill="white"/>
<path d="M96.1622 145.433V94.9152C96.1622 91.8818 98.7157 89.4204 101.863 89.4204H154.271C156.577 89.4204 158.661 90.7642 159.544 92.8131C160.427 94.862 159.944 97.2302 158.302 98.8135L105.893 149.331C104.264 150.901 101.808 151.38 99.6681 150.529C97.5425 149.677 96.1484 147.668 96.1484 145.446M107.577 100.41V132.155L140.51 100.41H107.577Z" fill="#080206"/>
<path d="M61.5181 5.49463L9.10938 56.0124H61.5181V5.49463Z" fill="#FDC30F"/>
<path d="M3.40918 56.0122C3.40918 54.5753 3.98889 53.1783 5.0793 52.1272L57.488 1.60946C59.1167 0.0395133 61.5736 -0.439454 63.713 0.412044C65.8386 1.26354 67.2327 3.27254 67.2327 5.49442V56.0122C67.2327 59.0457 64.6792 61.507 61.5322 61.507H9.12348C6.81844 61.507 4.73424 60.1632 3.85086 58.1143C3.56101 57.4358 3.40918 56.7173 3.40918 56.0122ZM55.8179 18.7725L22.8985 50.5041H55.8179V18.7725Z" fill="#080206"/>
</g>
<defs>
<clipPath id="clip0_53_58969">
<rect width="209" height="201.446" fill="white" transform="translate(-49)"/>
</clipPath>
</defs>
</svg>
