<svg width="241" height="427" viewBox="0 0 241 427" fill="none" xmlns="http://www.w3.org/2000/svg">
<g clip-path="url(#clip0_82_43)">
<path d="M183.849 237.493C183.849 138.093 103.187 57.4868 3.69067 57.4868C-95.806 57.4868 -176.49 138.07 -176.49 237.493C-176.49 336.916 -95.8291 417.499 3.69067 417.499C103.21 417.499 183.849 336.916 183.849 237.493ZM-92.9047 237.493C-92.9047 184.193 -49.6613 140.991 3.69067 140.991C57.0426 140.991 100.286 184.193 100.286 237.493C100.286 290.793 57.0426 333.995 3.69067 333.995C-49.6613 333.995 -92.9047 290.793 -92.9047 237.493Z" fill="white"/>
<path d="M-186 237.47C-186 132.986 -100.895 47.9634 3.69078 47.9634C108.276 47.9634 193.382 132.986 193.382 237.47C193.382 341.954 108.299 426.977 3.69078 426.977C-100.918 426.977 -186 341.977 -186 237.47ZM174.339 237.47C174.339 143.453 97.7763 66.9877 3.69078 66.9877C-90.3947 66.9877 -166.957 143.476 -166.957 237.47C-166.957 331.465 -90.3947 407.953 3.69078 407.953C97.7763 407.953 174.339 331.465 174.339 237.47ZM-102.438 237.47C-102.438 179.017 -54.8191 131.445 3.69078 131.445C62.2007 131.445 109.796 178.994 109.796 237.47C109.796 295.946 62.2007 343.473 3.69078 343.473C-54.8191 343.473 -102.438 295.923 -102.438 237.47ZM90.7763 237.47C90.7763 189.507 51.7237 150.469 3.71382 150.469C-44.2961 150.469 -83.3717 189.507 -83.3717 237.47C-83.3717 285.434 -44.2961 324.448 3.71382 324.448C51.7237 324.448 90.7763 285.411 90.7763 237.47Z" fill="#080206"/>
<path d="M231.489 189.507C231.489 90.1065 150.828 9.50049 51.3313 9.50049C-48.1654 9.50049 -128.85 90.1065 -128.85 189.507C-128.85 288.907 -48.1884 369.513 51.3313 369.513C150.851 369.513 231.489 288.93 231.489 189.507ZM-45.2871 189.507C-45.2871 136.206 -2.0437 93.005 51.3083 93.005C104.66 93.005 147.904 136.206 147.904 189.507C147.904 242.807 104.66 286.008 51.3083 286.008C-2.0437 286.008 -45.2871 242.807 -45.2871 189.507Z" fill="#FDC30F"/>
<path d="M-138.359 189.507C-138.359 85.0227 -53.2771 0 51.3314 0C155.94 0 241.022 85.0227 241.022 189.507C241.022 293.991 155.917 379.014 51.3314 379.014C-53.2541 379.014 -138.359 294.014 -138.359 189.507ZM221.979 189.507C221.979 95.4895 145.417 19.0243 51.3314 19.0243C-42.7541 19.0243 -119.34 95.5125 -119.34 189.507C-119.34 283.501 -42.7772 359.989 51.3084 359.989C145.394 359.989 221.956 283.501 221.956 189.507M-54.7969 189.507C-54.7969 131.054 -7.20148 83.4815 51.3314 83.4815C109.864 83.4815 157.437 131.031 157.437 189.507C157.437 247.983 109.841 295.509 51.3314 295.509C-7.17845 295.509 -54.7969 247.96 -54.7969 189.507ZM138.394 189.507C138.394 141.544 99.3183 102.506 51.3314 102.506C3.34457 102.506 -35.7541 141.544 -35.7541 189.507C-35.7541 237.47 3.32155 276.485 51.3314 276.485C99.3413 276.485 138.394 237.447 138.394 189.507Z" fill="#080206"/>
</g>
<defs>
<clipPath id="clip0_82_43">
<rect width="427" height="427" fill="white" transform="translate(-186)"/>
</clipPath>
</defs>
</svg>
