<svg width="183" height="353" viewBox="0 0 183 353" fill="none" xmlns="http://www.w3.org/2000/svg">
<g clip-path="url(#clip0_44_30694)">
<path d="M15.9874 33.2516C5.17489 47.2256 7.77754 67.3773 21.7836 78.2513C53.604 102.968 59.5215 148.894 34.9766 180.647C10.4317 212.399 -35.4186 218.127 -67.239 193.411C-81.2451 182.537 -101.358 185.04 -112.156 199.016C-122.961 212.984 -120.372 233.134 -106.36 244.016C-46.5818 290.458 39.5762 279.7 85.69 220.041C131.81 160.391 120.691 74.0828 60.8986 27.6384C46.8925 16.7644 26.7938 19.2695 15.9813 33.2435" fill="white"/>
<path d="M103.944 74.1562C110.632 87.8932 115.105 102.779 117.112 118.377C121.945 155.856 111.938 192.866 88.9625 222.596C65.9873 252.326 32.7226 271.266 -4.67939 275.934C-42.0954 280.6 -79.0971 270.425 -108.891 247.289C-116.55 241.346 -121.441 232.794 -122.679 223.192C-123.918 213.591 -121.344 204.102 -115.444 196.473C-109.55 188.837 -101.016 183.979 -91.4327 182.781C-81.8569 181.59 -72.3603 184.203 -64.7156 190.144C-34.7089 213.447 8.54025 208.052 31.6889 178.104C54.8296 148.162 49.2435 104.839 19.2449 81.5304C11.5921 75.5953 6.70296 67.0293 5.47039 57.4359C4.23178 47.8345 6.79981 38.3373 12.7057 30.7169C24.8824 14.963 47.6385 12.1317 63.4201 24.3855C80.8086 37.8946 94.555 54.8963 103.928 74.1682M-111.857 230.88C-109.999 234.699 -107.275 238.055 -103.835 240.735C-75.7984 262.515 -40.9604 272.092 -5.74308 267.697C29.4742 263.301 60.7815 245.469 82.4104 217.493C104.039 189.516 113.451 154.676 108.905 119.394C104.36 84.1118 86.4121 52.6856 58.3759 30.9055C46.2037 21.4555 28.6681 23.6423 19.2698 35.7864C14.7222 41.669 12.7377 48.9805 13.6884 56.3851C14.6391 63.7898 18.4137 70.3909 24.309 74.9703C57.9372 101.093 64.1921 149.631 38.259 183.181C12.3179 216.738 -36.1396 222.792 -69.7617 196.678C-75.657 192.099 -82.9759 190.085 -90.367 191.005C-97.7581 191.924 -104.334 195.674 -108.882 201.557C-113.429 207.44 -115.416 214.765 -114.463 222.156C-114.068 225.227 -113.183 228.169 -111.863 230.872" fill="#080206"/>
<path d="M15.24 99.0838C47.0604 123.8 52.9779 169.727 28.433 201.479C3.88815 233.231 -41.9622 238.96 -73.7826 214.243L-112.904 264.848C-53.1174 311.285 33.0326 300.532 79.1464 240.874C125.258 181.229 114.133 94.9133 54.361 48.4789L15.24 99.0838Z" fill="#FDC30F"/>
<path d="M97.3682 95.0126C120.197 141.899 116.284 199.628 82.4348 243.416C59.4456 273.144 26.1869 292.092 -11.2151 296.76C-48.6311 301.426 -85.6407 291.257 -115.434 268.121C-116.306 267.444 -116.868 266.447 -117.01 265.36C-117.158 264.264 -116.856 263.169 -116.183 262.299L-77.0624 211.695C-75.6662 209.891 -73.067 209.57 -71.2512 210.97C-56.743 222.246 -38.7064 227.199 -20.478 224.918C-2.24358 222.646 13.9619 213.415 25.1533 198.93C36.3507 184.453 41.2175 166.415 38.8677 148.147C36.5159 129.893 27.2254 113.626 12.7172 102.351C11.8454 101.674 11.2831 100.676 11.1412 99.589C10.9932 98.4936 11.296 97.3987 11.9682 96.5289L51.0892 45.924C51.7614 45.0542 52.7491 44.4875 53.8405 44.3582C54.9258 44.2209 56.0286 44.5229 56.9004 45.1998C74.5983 58.9539 88.1669 76.1019 97.3682 95.0126ZM-107.056 264.072C-49.2519 306.192 32.0027 295.085 75.8667 238.325C119.737 181.573 110.184 99.9439 55.0684 54.3447L20.9756 98.4416C35.3957 110.915 44.6151 128.052 47.0738 147.131C49.7116 167.595 44.2511 187.789 31.6994 204.026C19.1557 220.257 0.992725 230.595 -19.4284 233.154C-38.4718 235.531 -57.3287 230.869 -72.9715 219.981L-107.064 264.078L-107.056 264.072Z" fill="#080206"/>
<path d="M54.3606 48.479C68.3587 59.359 70.9613 79.5107 60.1568 93.4787C49.3584 107.455 29.2376 109.964 15.2396 99.0838C1.23357 88.2098 -1.36109 68.0521 9.44339 54.0841C20.2418 40.108 40.3626 37.599 54.3606 48.479Z" fill="white"/>
<path d="M67.2648 57.9698C73.1173 69.997 72.1218 84.7973 63.4456 96.0215C51.2609 111.781 28.5109 114.621 12.7172 102.351C5.06442 96.4158 0.167295 87.8557 -1.06332 78.2483C-2.30193 68.647 0.272138 59.1577 6.17202 51.5293C18.3487 35.7755 41.1067 32.9301 56.9004 45.2C61.4399 48.7249 64.9065 53.1193 67.2728 57.9638M9.7487 85.9558C11.6067 89.7749 14.3226 93.1375 17.7714 95.8108C29.9496 105.269 47.4931 103.076 56.8915 90.932C66.2758 78.7858 64.0145 61.2181 51.8382 51.746C39.66 42.288 22.1165 44.4808 12.7242 56.6329C8.17661 62.5156 6.19815 69.835 7.14883 77.2397C7.5439 80.3111 8.42935 83.2526 9.7487 85.9558Z" fill="#080206"/>
</g>
<defs>
<clipPath id="clip0_44_30694">
<rect width="218.26" height="295.77" fill="white" transform="translate(-53.8359 352.196) rotate(-126.938)"/>
</clipPath>
</defs>
</svg>
