<svg width="267" height="427" viewBox="0 0 267 427" fill="none" xmlns="http://www.w3.org/2000/svg">
<g clip-path="url(#clip0_50_58816)">
<path d="M209.849 237.493C209.849 138.093 129.187 57.4868 29.6907 57.4868C-69.806 57.4868 -150.49 138.07 -150.49 237.493C-150.49 336.916 -69.8291 417.499 29.6907 417.499C129.21 417.499 209.849 336.916 209.849 237.493ZM-66.9047 237.493C-66.9047 184.193 -23.6613 140.991 29.6907 140.991C83.0426 140.991 126.286 184.193 126.286 237.493C126.286 290.793 83.0426 333.995 29.6907 333.995C-23.6613 333.995 -66.9047 290.793 -66.9047 237.493Z" fill="white"/>
<path d="M-160 237.47C-160 132.986 -74.8947 47.9634 29.6908 47.9634C134.276 47.9634 219.382 132.986 219.382 237.47C219.382 341.954 134.299 426.977 29.6908 426.977C-74.9178 426.977 -160 341.977 -160 237.47ZM200.339 237.47C200.339 143.453 123.776 66.9877 29.6908 66.9877C-64.3947 66.9877 -140.957 143.476 -140.957 237.47C-140.957 331.465 -64.3947 407.953 29.6908 407.953C123.776 407.953 200.339 331.465 200.339 237.47ZM-76.4375 237.47C-76.4375 179.017 -28.8191 131.445 29.6908 131.445C88.2007 131.445 135.796 178.994 135.796 237.47C135.796 295.946 88.2007 343.473 29.6908 343.473C-28.8191 343.473 -76.4375 295.923 -76.4375 237.47ZM116.776 237.47C116.776 189.507 77.7237 150.469 29.7138 150.469C-18.2961 150.469 -57.3717 189.507 -57.3717 237.47C-57.3717 285.434 -18.2961 324.448 29.7138 324.448C77.7237 324.448 116.776 285.411 116.776 237.47Z" fill="#080206"/>
<path d="M257.49 189.507C257.49 90.1065 176.829 9.50049 77.3323 9.50049C-22.1644 9.50049 -102.849 90.1065 -102.849 189.507C-102.849 288.907 -22.1875 369.513 77.3323 369.513C176.852 369.513 257.49 288.93 257.49 189.507ZM-19.2861 189.507C-19.2861 136.206 23.9573 93.005 77.3092 93.005C130.661 93.005 173.905 136.206 173.905 189.507C173.905 242.807 130.661 286.008 77.3092 286.008C23.9573 286.008 -19.2861 242.807 -19.2861 189.507Z" fill="#FDC30F"/>
<path d="M-112.358 189.507C-112.358 85.0227 -27.2762 0 77.3324 0C181.941 0 267.023 85.0227 267.023 189.507C267.023 293.991 181.918 379.014 77.3324 379.014C-27.2531 379.014 -112.358 294.014 -112.358 189.507ZM247.98 189.507C247.98 95.4895 171.418 19.0243 77.3324 19.0243C-16.7531 19.0243 -93.3387 95.5125 -93.3387 189.507C-93.3387 283.501 -16.7762 359.989 77.3094 359.989C171.395 359.989 247.957 283.501 247.957 189.507M-28.7959 189.507C-28.7959 131.054 18.7995 83.4815 77.3324 83.4815C135.865 83.4815 183.438 131.031 183.438 189.507C183.438 247.983 135.842 295.509 77.3324 295.509C18.8225 295.509 -28.7959 247.96 -28.7959 189.507ZM164.395 189.507C164.395 141.544 125.319 102.506 77.3324 102.506C29.3456 102.506 -9.75314 141.544 -9.75314 189.507C-9.75314 237.47 29.3225 276.485 77.3324 276.485C125.342 276.485 164.395 237.447 164.395 189.507Z" fill="#080206"/>
</g>
<defs>
<clipPath id="clip0_50_58816">
<rect width="427" height="427" fill="white" transform="translate(-160)"/>
</clipPath>
</defs>
</svg>
