<svg width="334" height="427" viewBox="0 0 334 427" fill="none" xmlns="http://www.w3.org/2000/svg">
<g clip-path="url(#clip0_71_59546)">
<path d="M369.849 237.493C369.849 138.093 289.187 57.4869 189.691 57.4869C90.194 57.4869 9.50977 138.07 9.50977 237.493C9.50977 336.916 90.1709 417.499 189.691 417.499C289.21 417.499 369.849 336.916 369.849 237.493ZM93.0953 237.493C93.0953 184.193 136.339 140.991 189.691 140.991C243.043 140.991 286.286 184.193 286.286 237.493C286.286 290.793 243.043 333.995 189.691 333.995C136.339 333.995 93.0953 290.793 93.0953 237.493Z" fill="white"/>
<path d="M0 237.47C0 132.986 85.1053 47.9633 189.691 47.9633C294.276 47.9633 379.382 132.986 379.382 237.47C379.382 341.954 294.299 426.977 189.691 426.977C85.0822 426.977 0 341.977 0 237.47ZM360.339 237.47C360.339 143.453 283.776 66.9876 189.691 66.9876C95.6053 66.9876 19.0428 143.476 19.0428 237.47C19.0428 331.464 95.6053 407.953 189.691 407.953C283.776 407.953 360.339 331.464 360.339 237.47ZM83.5625 237.47C83.5625 179.017 131.181 131.445 189.691 131.445C248.201 131.445 295.796 178.994 295.796 237.47C295.796 295.946 248.201 343.472 189.691 343.472C131.181 343.472 83.5625 295.923 83.5625 237.47ZM276.776 237.47C276.776 189.507 237.724 150.469 189.714 150.469C141.704 150.469 102.628 189.507 102.628 237.47C102.628 285.433 141.704 324.448 189.714 324.448C237.724 324.448 276.776 285.41 276.776 237.47Z" fill="#080206"/>
<path d="M417.489 189.507C417.489 90.1066 336.828 9.50061 237.331 9.50061C137.835 9.50061 57.1504 90.1066 57.1504 189.507C57.1504 288.907 137.812 369.513 237.331 369.513C336.851 369.513 417.489 288.93 417.489 189.507ZM140.713 189.507C140.713 136.207 183.956 93.0051 237.308 93.0051C290.66 93.0051 333.904 136.207 333.904 189.507C333.904 242.807 290.66 286.009 237.308 286.009C183.956 286.009 140.713 242.807 140.713 189.507Z" fill="#FDC30F"/>
<path d="M47.6406 189.507C47.6406 85.0227 132.723 0 237.331 0C341.94 0 427.022 85.0227 427.022 189.507C427.022 293.991 341.917 379.014 237.331 379.014C132.746 379.014 47.6406 294.014 47.6406 189.507ZM407.979 189.507C407.979 95.4895 331.417 19.0243 237.331 19.0243C143.246 19.0243 66.6604 95.5125 66.6604 189.507C66.6604 283.501 143.223 359.989 237.308 359.989C331.394 359.989 407.956 283.501 407.956 189.507M131.203 189.507C131.203 131.054 178.799 83.4815 237.331 83.4815C295.864 83.4815 343.437 131.031 343.437 189.507C343.437 247.983 295.841 295.509 237.331 295.509C178.822 295.509 131.203 247.96 131.203 189.507ZM324.394 189.507C324.394 141.544 285.318 102.506 237.331 102.506C189.345 102.506 150.246 141.544 150.246 189.507C150.246 237.47 189.322 276.485 237.331 276.485C285.341 276.485 324.394 237.447 324.394 189.507Z" fill="#080206"/>
</g>
<defs>
<clipPath id="clip0_71_59546">
<rect width="427" height="427" fill="white"/>
</clipPath>
</defs>
</svg>
