<svg width="176" height="296" viewBox="0 0 176 296" fill="none" xmlns="http://www.w3.org/2000/svg">
<g clip-path="url(#clip0_71_59556)">
<path d="M169.99 247.48C165.34 230.44 147.75 220.41 130.72 225.07C92.0196 235.65 51.9396 212.78 41.3596 174.08C30.7796 135.38 53.6496 95.29 92.3496 84.71C109.38 80.05 119.42 62.47 114.76 45.44C110.11 28.41 92.5296 18.37 75.4896 23.03C2.77957 42.9 -40.2004 118.23 -20.3204 190.94C-0.450428 263.65 74.8696 306.63 147.59 286.75C164.62 282.09 174.65 264.52 170 247.48" fill="white"/>
<path d="M84.8303 293.2C69.9003 290.29 55.3803 284.92 41.7703 277.15C9.06034 258.49 -14.3997 228.25 -24.3097 192.02C-34.2197 155.79 -29.3897 117.82 -10.7297 85.12C7.94034 52.41 38.1703 28.95 74.4003 19.04C83.7103 16.49 93.4403 17.72 101.82 22.5C110.2 27.28 116.21 35.04 118.75 44.34C121.3 53.64 120.06 63.38 115.28 71.76C110.5 80.13 102.74 86.15 93.4403 88.69C56.9503 98.67 35.3703 136.48 45.3503 172.98C55.3303 209.47 93.1403 231.04 129.63 221.07C138.93 218.52 148.67 219.76 157.04 224.54C165.42 229.32 171.44 237.08 173.97 246.38C179.22 265.58 167.86 285.47 148.67 290.72C127.52 296.5 105.77 297.27 84.8303 293.18M89.2303 26.53C85.0803 25.72 80.7803 25.88 76.5903 27.02C42.4903 36.34 14.0303 58.43 -3.53966 89.22C-21.1097 120.01 -25.6497 155.75 -16.3297 189.85C-7.00966 223.95 15.0803 252.41 45.8703 269.98C76.6603 287.55 112.4 292.09 146.5 282.77C161.3 278.72 170.05 263.39 166.01 248.58C164.05 241.41 159.42 235.43 152.96 231.74C146.5 228.05 138.99 227.1 131.82 229.06C90.9203 240.24 48.5603 216.07 37.3803 175.18C26.2003 134.28 50.3703 91.91 91.2603 80.73C98.4303 78.77 104.41 74.13 108.1 67.67C111.79 61.21 112.74 53.7 110.78 46.53C108.82 39.36 104.18 33.37 97.7303 29.69C95.0503 28.16 92.1804 27.1 89.2403 26.53" fill="#080206"/>
<path d="M118.059 207.32C79.3594 217.9 39.2794 195.03 28.6994 156.33C18.1194 117.63 40.9894 77.54 79.6894 66.96L62.8294 5.28003C-9.88058 25.16 -52.8606 100.48 -32.9806 173.19C-13.1106 245.89 62.2194 288.87 134.919 269L118.059 207.32Z" fill="#FDC30F"/>
<path d="M72.1696 275.41C21.2096 265.48 -22.3804 227.66 -36.9704 174.29C-46.8704 138.05 -42.0504 100.08 -23.3904 67.38C-4.72035 34.67 25.5096 11.2 61.7396 1.28997C62.7996 0.999969 63.9296 1.14997 64.8796 1.68997C65.8396 2.22997 66.5296 3.12997 66.8196 4.18997L83.6796 65.87C84.2796 68.07 82.9796 70.34 80.7796 70.95C63.1296 75.77 48.3996 87.21 39.3096 103.15C30.2096 119.09 27.8596 137.59 32.6897 155.24C37.5097 172.89 48.9496 187.62 64.8896 196.72C80.8196 205.81 99.3197 208.16 116.97 203.34C118.03 203.05 119.16 203.2 120.11 203.74C121.07 204.28 121.76 205.18 122.05 206.24L138.91 267.92C139.2 268.98 139.06 270.11 138.51 271.06C137.97 272.01 137.07 272.71 136.01 273C114.48 278.88 92.7197 279.42 72.1696 275.41ZM59.9496 10.42C-8.14035 31.31 -47.9104 102.93 -28.9904 172.1C-10.0804 241.27 60.5797 282.69 129.83 266.04L115.14 212.29C96.5896 216.32 77.4397 213.39 60.7896 203.89C42.9296 193.7 30.1297 177.2 24.7197 157.41C19.3097 137.63 21.9496 116.9 32.1296 99.04C41.6296 82.39 56.6196 70.12 74.6396 64.16L59.9496 10.41V10.42Z" fill="#080206"/>
<path d="M79.6904 66.96C62.6504 71.62 45.0704 61.59 40.4204 44.55C35.7704 27.52 45.8004 9.94001 62.8404 5.28001C79.8704 0.620014 97.4504 10.66 102.1 27.69C106.76 44.73 96.7204 62.3 79.6904 66.96Z" fill="white"/>
<path d="M64.38 71.5899C60.56 70.8499 56.85 69.4699 53.37 67.4899C44.99 62.7099 38.98 54.9499 36.43 45.6499C31.18 26.4499 42.54 6.55995 61.74 1.29995C71.04 -1.24005 80.78 -0.0100541 89.15 4.76995C97.53 9.54995 103.54 17.3099 106.08 26.6099C108.63 35.9099 107.39 45.6499 102.62 54.0299C97.84 62.3999 90.08 68.4199 80.78 70.9599C75.34 72.4499 69.75 72.6499 64.37 71.5999M76.56 8.77995C72.41 7.96995 68.11 8.12995 63.92 9.26995C49.11 13.3199 40.36 28.6599 44.4 43.4599C46.36 50.6399 51 56.6199 57.46 60.2999C63.92 63.9799 71.42 64.9299 78.6 62.9699C85.77 61.0099 91.75 56.3699 95.44 49.9199C99.13 43.4599 100.08 35.9599 98.11 28.7799C96.15 21.6099 91.51 15.6299 85.06 11.9399C82.38 10.4099 79.51 9.34995 76.57 8.77995" fill="#080206"/>
<path d="M134.921 269C117.891 273.65 100.3 263.62 95.6505 246.59C90.9905 229.56 101.031 211.97 118.061 207.32C135.09 202.66 152.681 212.7 157.331 229.73C161.991 246.76 151.951 264.35 134.921 269Z" fill="white"/>
<path d="M119.649 273.61C106.579 271.06 95.3992 261.37 91.6592 247.69C86.4092 228.48 97.7592 208.59 116.969 203.34C126.269 200.79 136.009 202.02 144.389 206.81C152.769 211.59 158.779 219.35 161.319 228.65C166.569 247.85 155.219 267.75 136.009 273C130.489 274.51 124.919 274.64 119.649 273.62M131.789 210.82C127.639 210.01 123.339 210.16 119.149 211.31C104.339 215.36 95.5892 230.7 99.6292 245.51C103.679 260.31 119.009 269.06 133.829 265.02C148.639 260.97 157.389 245.63 153.339 230.82C151.379 223.65 146.739 217.67 140.279 213.98C137.599 212.45 134.729 211.39 131.789 210.82Z" fill="#080206"/>
</g>
<defs>
<clipPath id="clip0_71_59556">
<rect width="217.26" height="295.77" fill="white" transform="translate(-42)"/>
</clipPath>
</defs>
</svg>
