<svg width="139" height="296" viewBox="0 0 139 296" fill="none" xmlns="http://www.w3.org/2000/svg">
<g clip-path="url(#clip0_70_59419)">
<path d="M211.99 247.48C207.34 230.44 189.75 220.41 172.72 225.07C134.02 235.65 93.9396 212.78 83.3596 174.08C72.7796 135.38 95.6496 95.2899 134.35 84.7099C151.38 80.0499 161.42 62.4699 156.76 45.4399C152.11 28.4099 134.53 18.3699 117.49 23.0299C44.7796 42.8999 1.79957 118.23 21.6796 190.94C41.5496 263.65 116.87 306.63 189.59 286.75C206.62 282.09 216.65 264.52 212 247.48" fill="white"/>
<path d="M126.83 293.2C111.9 290.29 97.3803 284.92 83.7703 277.15C51.0603 258.49 27.6003 228.25 17.6903 192.02C7.78034 155.79 12.6103 117.82 31.2703 85.1201C49.9403 52.4101 80.1703 28.9501 116.4 19.0401C125.71 16.4901 135.44 17.7201 143.82 22.5001C152.2 27.2801 158.21 35.0401 160.75 44.3401C163.3 53.6401 162.06 63.3801 157.28 71.7601C152.5 80.1301 144.74 86.1501 135.44 88.6901C98.9503 98.6701 77.3703 136.48 87.3503 172.98C97.3303 209.47 135.14 231.04 171.63 221.07C180.93 218.52 190.67 219.76 199.04 224.54C207.42 229.32 213.44 237.08 215.97 246.38C221.22 265.58 209.86 285.47 190.67 290.72C169.52 296.5 147.77 297.27 126.83 293.18M131.23 26.5301C127.08 25.7201 122.78 25.8801 118.59 27.0201C84.4903 36.3401 56.0303 58.4301 38.4603 89.2201C20.8903 120.01 16.3503 155.75 25.6703 189.85C34.9903 223.95 57.0803 252.41 87.8703 269.98C118.66 287.55 154.4 292.09 188.5 282.77C203.3 278.72 212.05 263.39 208.01 248.58C206.05 241.41 201.42 235.43 194.96 231.74C188.5 228.05 180.99 227.1 173.82 229.06C132.92 240.24 90.5603 216.07 79.3803 175.18C68.2003 134.28 92.3703 91.9101 133.26 80.7301C140.43 78.7701 146.41 74.1301 150.1 67.6701C153.79 61.2101 154.74 53.7001 152.78 46.5301C150.82 39.3601 146.18 33.3701 139.73 29.6901C137.05 28.1601 134.18 27.1001 131.24 26.5301" fill="#080206"/>
<path d="M160.059 207.32C121.359 217.9 81.2794 195.03 70.6994 156.33C60.1194 117.63 82.9894 77.54 121.689 66.96L104.829 5.28003C32.1194 25.16 -10.8606 100.48 9.01941 173.19C28.8894 245.89 104.219 288.87 176.919 269L160.059 207.32Z" fill="#FDC30F"/>
<path d="M114.17 275.41C63.2096 265.48 19.6196 227.66 5.02965 174.29C-4.87035 138.05 -0.0503521 100.08 18.6096 67.38C37.2796 34.67 67.5096 11.2 103.74 1.28997C104.8 0.999969 105.93 1.14997 106.88 1.68997C107.84 2.22997 108.53 3.12997 108.82 4.18997L125.68 65.87C126.28 68.07 124.98 70.34 122.78 70.95C105.13 75.77 90.3996 87.21 81.3096 103.15C72.2096 119.09 69.8596 137.59 74.6897 155.24C79.5097 172.89 90.9496 187.62 106.89 196.72C122.82 205.81 141.32 208.16 158.97 203.34C160.03 203.05 161.16 203.2 162.11 203.74C163.07 204.28 163.76 205.18 164.05 206.24L180.91 267.92C181.2 268.98 181.06 270.11 180.51 271.06C179.97 272.01 179.07 272.71 178.01 273C156.48 278.88 134.72 279.42 114.17 275.41ZM101.95 10.42C33.8596 31.31 -5.91035 102.93 13.0096 172.1C31.9196 241.27 102.58 282.69 171.83 266.04L157.14 212.29C138.59 216.32 119.44 213.39 102.79 203.89C84.9296 193.7 72.1297 177.2 66.7197 157.41C61.3097 137.63 63.9496 116.9 74.1296 99.04C83.6296 82.39 98.6196 70.12 116.64 64.16L101.95 10.41V10.42Z" fill="#080206"/>
<path d="M121.69 66.9599C104.65 71.6199 87.0704 61.5899 82.4204 44.5499C77.7704 27.5199 87.8004 9.93989 104.84 5.27989C121.87 0.619892 139.45 10.6599 144.1 27.6899C148.76 44.7299 138.72 62.2999 121.69 66.9599Z" fill="white"/>
<path d="M106.38 71.5901C102.56 70.8501 98.85 69.4701 95.37 67.4901C86.99 62.7101 80.98 54.9501 78.43 45.6501C73.18 26.4501 84.54 6.56007 103.74 1.30007C113.04 -1.23993 122.78 -0.00993204 131.15 4.77007C139.53 9.55007 145.54 17.3101 148.08 26.6101C150.63 35.9101 149.39 45.6501 144.62 54.0301C139.84 62.4001 132.08 68.4201 122.78 70.9601C117.34 72.4501 111.75 72.6501 106.37 71.6001M118.56 8.78007C114.41 7.97007 110.11 8.13007 105.92 9.27007C91.11 13.3201 82.36 28.6601 86.4 43.4601C88.36 50.6401 93 56.6201 99.46 60.3001C105.92 63.9801 113.42 64.9301 120.6 62.9701C127.77 61.0101 133.75 56.3701 137.44 49.9201C141.13 43.4601 142.08 35.9601 140.11 28.7801C138.15 21.6101 133.51 15.6301 127.06 11.9401C124.38 10.4101 121.51 9.35007 118.57 8.78007" fill="#080206"/>
<path d="M176.921 269C159.891 273.65 142.3 263.62 137.65 246.59C132.99 229.56 143.031 211.97 160.061 207.32C177.09 202.66 194.681 212.7 199.331 229.73C203.991 246.76 193.951 264.35 176.921 269Z" fill="white"/>
<path d="M161.649 273.61C148.579 271.06 137.399 261.37 133.659 247.69C128.409 228.48 139.759 208.59 158.969 203.34C168.269 200.79 178.009 202.02 186.389 206.81C194.769 211.59 200.779 219.35 203.319 228.65C208.569 247.85 197.219 267.75 178.009 273C172.489 274.51 166.919 274.64 161.649 273.62M173.789 210.82C169.639 210.01 165.339 210.16 161.149 211.31C146.339 215.36 137.589 230.7 141.629 245.51C145.679 260.31 161.009 269.06 175.829 265.02C190.639 260.97 199.389 245.63 195.339 230.82C193.379 223.65 188.739 217.67 182.279 213.98C179.599 212.45 176.729 211.39 173.789 210.82Z" fill="#080206"/>
</g>
<defs>
<clipPath id="clip0_70_59419">
<rect width="217.26" height="295.77" fill="white"/>
</clipPath>
</defs>
</svg>
