<svg width="196" height="188" viewBox="0 0 196 188" fill="none" xmlns="http://www.w3.org/2000/svg">
<g clip-path="url(#clip0_45_58778)">
<path d="M178.163 70.7464L169.119 48.2353L130.103 42.8494L59.4828 88.1211L66.9205 103.176L90.9783 117.141L31.8488 149.421L35.9697 162.694L141.533 126.966L135.601 106.634L130.322 104.042L178.163 70.7464Z" fill="#FDC30F"/>
<path d="M34.2897 166.28C33.5073 165.877 32.8786 165.148 32.5774 164.181L28.4565 150.908C27.8715 149.016 28.7283 146.854 30.4322 145.921L83.129 117.155L65.0929 106.686C64.5251 106.357 64.0576 105.847 63.7549 105.229L56.3196 90.1806C55.8791 89.2861 55.7909 88.213 56.079 87.194C56.3671 86.175 57.0015 85.2997 57.8412 84.7642L128.459 39.4866C129.169 39.0317 129.986 38.8426 130.771 38.947L169.788 44.3328C170.951 44.4972 171.929 45.2964 172.4 46.456L181.444 68.9671C182.162 70.755 181.511 72.937 179.93 74.0317L137.781 103.365C138.356 103.807 138.792 104.45 139.006 105.212L144.935 125.538C145.23 126.552 145.125 127.684 144.637 128.664C144.149 129.645 143.329 130.386 142.374 130.712L36.8107 166.441C35.9312 166.738 35.0408 166.658 34.2927 166.271M36.2728 151.282L38.3177 157.866L136.98 124.467L132.645 109.598L128.698 107.661C127.473 107.032 126.78 105.831 126.753 104.39C126.726 102.949 127.419 101.554 128.557 100.762L173.624 69.4L166.592 51.8899L130.65 46.9294L64.3222 89.4559L69.6193 100.184L92.8123 113.648C93.9662 114.318 94.6426 115.673 94.5556 117.15C94.4686 118.627 93.6375 119.984 92.4068 120.655L36.2887 151.287L36.2728 151.282Z" fill="#080206"/>
<path d="M169.118 48.2357L119.372 23.8125L59.4819 88.1216L84.3918 100.363L31.848 149.421L135.6 106.635L110.695 94.405L169.118 48.2357Z" fill="white"/>
<path d="M30.1689 153.006C29.5524 152.689 29.0238 152.164 28.6809 151.468C27.8851 149.848 28.2864 147.75 29.6399 146.487L77.7931 101.528L57.85 91.7372C56.8063 91.2147 56.0896 90.1656 55.9411 88.9022C55.7846 87.636 56.2089 86.3293 57.0731 85.403L116.966 21.085C118.067 19.9006 119.67 19.547 121.001 20.203L170.748 44.6262C171.962 45.197 172.62 46.3807 172.687 47.7707C172.755 49.1665 172.141 50.5377 171.079 51.381L117.799 93.4802L137.23 103.025L137.28 103.048C138.545 103.691 139.288 105.138 139.162 106.717C139.039 108.316 138.05 109.734 136.662 110.306L32.9073 153.086C31.971 153.474 30.9886 153.416 30.1744 153.003M86.0694 96.77C87.1285 97.3127 87.8352 98.4182 87.9498 99.73C88.0694 101.053 87.5581 102.395 86.5985 103.289L49.3011 138.117L126.172 106.415L109.069 98.0175L109.024 97.9922C107.92 97.4242 107.195 96.2424 107.136 94.8699C107.067 93.4741 107.681 92.1029 108.744 91.2595L162.024 49.1603L119.949 28.5049L65.6942 86.7615L86.0192 96.7479L86.064 96.7732L86.0694 96.77Z" fill="#080206"/>
</g>
<defs>
<clipPath id="clip0_45_58778">
<rect width="108.838" height="175.903" fill="white" transform="matrix(0.390435 0.920631 -0.869258 0.494359 152.904 0.437012)"/>
</clipPath>
</defs>
</svg>
