<svg width="128" height="189" viewBox="0 0 128 189" fill="none" xmlns="http://www.w3.org/2000/svg">
<g clip-path="url(#clip0_18_28)">
<path d="M53.6735 136.448V89.0512H5.27687V52.5519H53.6735V5.15527H90.9428V52.5519H139.339V89.0512H90.9428V136.448H53.6735Z" fill="#FED00C"/>
<path d="M144.603 89.0513V52.552C144.603 49.706 142.245 47.3967 139.339 47.3967H96.2068V5.15534C96.2068 2.30929 93.8488 0 90.9427 0H53.6734C50.7673 0 48.4093 2.30929 48.4093 5.15534V47.3842H5.27682C2.37074 47.3842 0.0127258 49.6935 0.0127258 52.5395V89.0388C0.0127258 91.8849 2.37074 94.1942 5.27682 94.1942H48.4093V136.435C48.4093 139.282 50.7673 141.591 53.6734 141.591H90.9427C93.8488 141.591 96.2068 139.282 96.2068 136.435V94.1942H139.339C142.245 94.1942 144.603 91.8849 144.603 89.0388M134.062 57.7198V83.896H90.9427C88.0366 83.896 85.6786 86.2053 85.6786 89.0513V131.293H58.9502V89.0513C58.9502 86.2053 56.5922 83.896 53.6861 83.896H10.5537V57.7198H53.6861C56.5922 57.7198 58.9502 55.4105 58.9502 52.5645V10.3232H85.6786V52.552C85.6786 55.398 88.0366 57.7073 90.9427 57.7073H134.062V57.7198Z" fill="#080206"/>
<path d="M53.6735 136.448L102.07 183.845H139.339L90.9428 136.448H53.6735Z" fill="#FDC30F"/>
<path d="M144.603 183.845C144.603 182.497 144.068 181.186 143.061 180.2L94.6646 132.803C93.6704 131.842 92.3321 131.293 90.9428 131.293H53.6735C51.5449 131.293 49.6202 132.553 48.8045 134.476C47.9888 136.411 48.4349 138.62 49.9516 140.105L98.3482 187.502C99.3424 188.476 100.681 189.013 102.07 189.013H139.339C141.468 189.013 143.393 187.752 144.208 185.829C144.476 185.193 144.616 184.519 144.616 183.857M88.7632 141.603L126.619 178.677H104.25L66.394 141.603H88.7505H88.7632Z" fill="#080206"/>
<path d="M90.9427 89.0513L139.339 136.435H187.736L139.339 89.0513H90.9427Z" fill="white"/>
<path d="M193 136.448C193 135.1 192.465 133.789 191.458 132.803L143.061 85.4064C142.067 84.4452 140.729 83.896 139.339 83.896H90.9427C88.8142 83.896 86.8895 85.1567 86.0738 87.0791C85.258 89.0014 85.7041 91.2233 87.2209 92.7088L135.617 140.105C136.612 141.079 137.95 141.616 139.339 141.616H187.723C189.852 141.616 191.776 140.355 192.592 138.433C192.86 137.796 193 137.122 193 136.46M137.16 94.2067L175.015 131.28H141.519L103.663 94.2067H137.16Z" fill="#080206"/>
<path d="M90.9428 136.448V89.0513L139.339 136.448V183.845L90.9428 136.448Z" fill="#FDC30F"/>
<path d="M144.603 183.845V136.448C144.603 135.075 144.043 133.764 143.061 132.803L94.6646 85.4065C93.1606 83.9335 90.8918 83.4841 88.9289 84.283C86.966 85.0819 85.6787 86.9668 85.6787 89.0514V136.448C85.6787 137.821 86.2268 139.132 87.221 140.093L135.618 187.49C137.122 188.963 139.39 189.412 141.366 188.613C143.329 187.814 144.616 185.929 144.616 183.845M134.063 138.583V171.387L96.2069 134.314V101.509L134.063 138.583Z" fill="#080206"/>
<path d="M5.27688 89.0513L53.6735 136.448V89.0513H5.27688Z" fill="white"/>
<path d="M58.9503 136.448V89.0513C58.9503 86.2053 56.5923 83.896 53.6862 83.896H5.28959C3.16101 83.896 1.23637 85.1567 0.420628 87.0791C-0.395119 89.0014 0.0509834 91.2233 1.56776 92.7088L49.9643 140.105C51.4684 141.578 53.7372 142.028 55.7128 141.229C57.6757 140.43 58.963 138.545 58.963 136.46M48.4093 94.2067V123.99L17.9974 94.2067H48.4093Z" fill="#080206"/>
<path d="M90.9428 5.15527L139.339 52.5519H90.9428V5.15527Z" fill="#FDC30F"/>
<path d="M144.603 52.5521C144.603 51.2039 144.068 49.8932 143.061 48.9071L94.6645 1.51046C93.1605 0.0375028 90.8917 -0.411873 88.9161 0.387017C86.9532 1.18591 85.6659 3.07079 85.6659 5.15539V52.5521C85.6659 55.3981 88.0239 57.7074 90.93 57.7074H139.327C141.455 57.7074 143.38 56.4466 144.196 54.5243C144.463 53.8877 144.603 53.2136 144.603 52.5521ZM96.2068 17.6131L126.606 47.3842H96.2068V17.6131Z" fill="#080206"/>
</g>
<defs>
<clipPath id="clip0_18_28">
<rect width="193" height="189" fill="white" transform="matrix(-1 0 0 1 193 0)"/>
</clipPath>
</defs>
</svg>
