<svg width="209" height="202" viewBox="0 0 209 202" fill="none" xmlns="http://www.w3.org/2000/svg">
<g clip-path="url(#clip0_60_59144)">
<path d="M150.877 145.433V94.9155H203.286V56.0126H150.877V5.49487H110.518V56.0126H58.1094V94.9155H110.518V145.433H150.877Z" fill="#FED00C"/>
<path d="M52.4092 94.9154V56.0126C52.4092 52.9791 54.9627 50.5178 58.1097 50.5178H104.818V5.49482C104.818 2.46136 107.371 0 110.518 0H150.877C154.024 0 156.578 2.46136 156.578 5.49482V50.5045H203.286C206.433 50.5045 208.987 52.9658 208.987 55.9993V94.9021C208.987 97.9355 206.433 100.397 203.286 100.397H156.578V145.42C156.578 148.453 154.024 150.915 150.877 150.915H110.518C107.371 150.915 104.818 148.453 104.818 145.42V100.397H58.1097C54.9627 100.397 52.4092 97.9355 52.4092 94.9021M63.824 61.5207V89.4206H110.518C113.665 89.4206 116.219 91.8819 116.219 94.9154V139.938H145.163V94.9154C145.163 91.8819 147.717 89.4206 150.864 89.4206H197.572V61.5207H150.864C147.717 61.5207 145.163 59.0593 145.163 56.0259V11.0029H116.219V56.0126C116.219 59.046 113.665 61.5074 110.518 61.5074H63.824V61.5207Z" fill="#080206"/>
<path d="M150.877 145.433L98.4684 195.951H58.1094L110.518 145.433H150.877Z" fill="#FDC30F"/>
<path d="M52.4083 195.951C52.4083 194.514 52.988 193.117 54.0785 192.066L106.487 141.548C107.564 140.524 109.013 139.938 110.518 139.938H150.877C153.182 139.938 155.266 141.282 156.149 143.331C157.033 145.393 156.549 147.748 154.907 149.331L102.498 199.849C101.422 200.887 99.9723 201.459 98.4678 201.459H58.1088C55.8038 201.459 53.7196 200.115 52.8362 198.066C52.5464 197.388 52.3945 196.669 52.3945 195.964M112.878 150.928L71.8839 190.443H96.1076L137.102 150.928H112.892H112.878Z" fill="#080206"/>
<path d="M58.1089 56.0126L5.7002 106.53V145.433L58.1089 94.9154V56.0126Z" fill="#FDC30F"/>
<path d="M0 145.433V106.53C0 105.067 0.607318 103.67 1.67012 102.645L54.0789 52.1277C55.7076 50.5577 58.1644 50.0787 60.3039 50.9302C62.4295 51.7817 63.8235 53.7907 63.8235 56.0126V94.9154C63.8235 96.3789 63.2162 97.7759 62.1534 98.8004L9.74468 149.318C8.11597 150.888 5.65909 151.367 3.51968 150.516C1.39407 149.664 0 147.655 0 145.433ZM11.4148 108.805V132.142L52.4087 92.627V69.2774L11.4148 108.792V108.805Z" fill="#080206"/>
<path d="M110.518 94.9154L58.1089 145.42H5.7002L58.1089 94.9154H110.518Z" fill="white"/>
<path d="M0 145.433C0 143.996 0.579712 142.599 1.67012 141.548L54.0789 91.0304C55.1555 90.0059 56.6047 89.4205 58.1092 89.4205H110.518C112.823 89.4205 114.907 90.7643 115.791 92.8132C116.674 94.8621 116.191 97.2304 114.548 98.8136L62.1396 149.331C61.063 150.369 59.6137 150.941 58.1092 150.941H5.7143C3.40926 150.941 1.32506 149.597 0.441685 147.549C0.151829 146.87 0 146.152 0 145.446M60.4695 100.41L19.4756 139.925H55.749L96.7429 100.41H60.4695Z" fill="#080206"/>
<path d="M110.518 145.433V94.9154L58.1094 145.433V195.951L110.518 145.433Z" fill="#FDC30F"/>
<path d="M52.4083 195.951V145.433C52.4083 143.97 53.0157 142.573 54.0785 141.548L106.487 91.0305C108.116 89.4605 110.573 88.9816 112.698 89.8331C114.824 90.6846 116.218 92.6936 116.218 94.9154V145.433C116.218 146.897 115.625 148.294 114.548 149.318L62.1392 199.836C60.5105 201.406 58.0536 201.885 55.9142 201.033C53.7886 200.182 52.3945 198.173 52.3945 195.951M63.8231 147.708V182.673L104.817 143.158V108.193L63.8231 147.708Z" fill="#080206"/>
<path d="M203.286 94.9154L150.877 145.433V94.9154H203.286Z" fill="white"/>
<path d="M145.162 145.433V94.9154C145.162 91.8819 147.716 89.4205 150.863 89.4205H203.271C205.577 89.4205 207.661 90.7643 208.544 92.8132C209.427 94.8621 208.944 97.2304 207.302 98.8136L154.893 149.331C153.264 150.901 150.808 151.38 148.668 150.529C146.543 149.677 145.148 147.668 145.148 145.446M156.577 100.41V132.155L189.51 100.41H156.577Z" fill="#080206"/>
<path d="M110.518 5.49487L58.1094 56.0126H110.518V5.49487Z" fill="#FDC30F"/>
<path d="M52.4092 56.0124C52.4092 54.5755 52.9889 53.1785 54.0793 52.1275L106.488 1.60971C108.117 0.0397574 110.574 -0.43921 112.713 0.412288C114.839 1.26379 116.233 3.27279 116.233 5.49467V56.0124C116.233 59.0459 113.679 61.5073 110.532 61.5073H58.1235C55.8184 61.5073 53.7342 60.1635 52.8509 58.1146C52.561 57.436 52.4092 56.7176 52.4092 56.0124ZM104.818 18.7727L71.8985 50.5043H104.818V18.7727Z" fill="#080206"/>
</g>
<defs>
<clipPath id="clip0_60_59144">
<rect width="209" height="201.446" fill="white"/>
</clipPath>
</defs>
</svg>
