<svg width="242" height="250" viewBox="0 0 242 250" fill="none" xmlns="http://www.w3.org/2000/svg">
<g clip-path="url(#clip0_73_59606)">
<path d="M166.659 121.892L170.528 103.879L87.2203 63.7037L39.9043 108.065L36.3841 134.167L97.8431 148.212L92.813 152.927L92.0637 175.594L217.084 168.899L217.843 153.988L158.399 130.641L166.659 121.892Z" fill="#FED00C"/>
<path d="M220.514 171.082C219.801 172.17 218.595 172.908 217.213 172.985L92.1985 179.687C91.0588 179.748 89.9585 179.34 89.1554 178.548C88.3444 177.762 87.9115 176.678 87.9515 175.547L88.6948 152.872C88.719 152.028 89.0022 151.204 89.5203 150.533L35.3791 138.158C33.3524 137.693 32.0223 135.779 32.3041 133.706L35.8322 107.599C35.9684 106.654 36.4219 105.771 37.1154 105.112L84.4374 60.7583C85.693 59.5811 87.5498 59.28 89.0746 60.0156L172.383 100.191C174.054 100.998 174.935 102.829 174.55 104.657L170.681 122.671C170.521 123.422 170.156 124.11 169.632 124.66L165.526 129.009L219.423 150.178C221.032 150.81 222.045 152.387 221.949 154.112L221.19 169.024C221.149 169.782 220.91 170.483 220.514 171.082ZM96.3196 171.275L213.17 165.021L213.587 156.754L156.822 134.458C155.57 133.97 154.649 132.883 154.374 131.563C154.091 130.248 154.488 128.873 155.43 127.88L162.88 119.982L165.84 106.211L87.9059 68.6249L43.7709 109.991L40.9367 131.002L98.8296 144.233C100.293 144.566 101.443 145.685 101.815 147.129C102.188 148.573 101.738 150.141 100.613 151.177L96.8547 154.702L96.3099 171.296L96.3196 171.275Z" fill="#080206"/>
<path d="M31.9093 105.116L35.4373 79.0083L76.4222 57.9765L166.053 74.8281L162.185 92.8415L139.909 116.452L213.374 124.945L212.609 139.849L87.5948 146.551L88.3381 123.876L93.3682 119.161L31.9093 105.116Z" fill="white"/>
<path d="M216.047 142.039C215.334 143.127 214.128 143.865 212.746 143.942L87.7335 150.63C86.5939 150.691 85.4936 150.283 84.6905 149.491C83.8795 148.706 83.4465 147.622 83.4866 146.49L84.2299 123.815C84.254 122.971 84.5215 122.16 85.0554 121.477L30.9063 109.108C28.8718 108.649 27.5495 106.728 27.8313 104.656L31.3594 78.5481C31.5477 77.1996 32.3872 76.0128 33.6145 75.3829L74.6072 54.3449C75.4333 53.9187 76.3708 53.7798 77.2748 53.9547L166.912 70.814C167.976 71.0131 168.914 71.6363 169.519 72.534C170.117 73.438 170.321 74.5395 170.091 75.6084L166.222 93.6218C166.07 94.3673 165.705 95.0548 165.173 95.6115L148.47 113.316L213.942 120.885C216.061 121.127 217.601 122.951 217.489 125.077L216.73 139.989C216.688 140.747 216.449 141.448 216.054 142.047M91.8468 142.225L208.697 135.97L209.072 128.574L139.35 120.505C137.817 120.326 136.534 119.313 136.02 117.867C135.512 116.43 135.864 114.803 136.929 113.675L158.409 90.918L161.163 78.0836L76.9736 62.2552L39.2222 81.6382L36.4857 101.947L94.3786 115.177C95.8421 115.511 96.9939 116.616 97.3644 118.074C97.7427 119.526 97.2648 121.09 96.1625 122.122L92.3976 125.64L91.8468 142.225Z" fill="#080206"/>
<path d="M35.4378 79.0082L82.7458 34.6532L166.054 74.8281L142.366 97.0513L213.375 124.945L88.3386 123.876L112.047 101.662L35.4378 79.0082Z" fill="#FED00C"/>
<path d="M216.807 127.127C216.04 128.294 214.711 129.054 213.256 129.038L88.2142 127.962C86.5461 127.952 85.0651 126.932 84.4804 125.38C83.8957 123.828 84.3072 122.066 85.5452 120.915L104.039 103.587L34.1885 82.9306C32.7916 82.5191 31.735 81.3894 31.415 79.979C31.1028 78.5625 31.5578 77.0663 32.6426 76.0611L79.9646 31.7076C81.228 30.5241 83.0769 30.2292 84.6078 30.9726L167.916 71.1475C169.122 71.7218 169.95 72.8693 170.133 74.1873C170.323 75.513 169.832 76.8502 168.848 77.7885L149.877 95.5805L214.948 121.141C216.779 121.861 217.803 123.791 217.39 125.729C217.282 126.24 217.079 126.712 216.805 127.141M98.5475 119.866L191.187 120.658L140.784 100.86C139.492 100.354 138.556 99.2164 138.309 97.8491C138.061 96.4818 138.541 95.0658 139.57 94.1042L158.911 75.971L83.4409 39.568L43.4263 77.0737L113.29 97.7316C114.687 98.143 115.744 99.2728 116.056 100.689C116.376 102.1 115.907 103.594 114.828 104.607L98.5554 119.86L98.5475 119.866Z" fill="#080206"/>
</g>
<defs>
<clipPath id="clip0_73_59606">
<rect width="153" height="196.712" fill="white" transform="translate(0 94.7173) rotate(-38.2481)"/>
</clipPath>
</defs>
</svg>
