<svg width="279" height="302" viewBox="0 0 279 302" fill="none" xmlns="http://www.w3.org/2000/svg">
<g clip-path="url(#clip0_71_59551)">
<path d="M253.904 176.821L271.558 241.15L239.808 249.86L228.859 209.961L174.816 210.435L160.512 158.304L106.459 158.77L92.1635 106.637L38.0994 107.088L20.4168 42.7458L52.1628 34.0102L63.1372 73.9575L117.211 73.5139L131.513 125.628L185.567 125.17L199.861 177.294L253.904 176.821Z" fill="white"/>
<path d="M51.578 30.4871C52.3884 30.3525 53.2101 30.4965 53.9349 30.9021C54.7577 31.3703 55.3601 32.1468 55.6084 33.0611L65.8607 70.3495L117.185 69.9242C118.805 69.9095 120.237 70.9865 120.664 72.5548L134.236 122.02L185.551 121.588C187.17 121.573 188.603 122.65 189.03 124.218L202.593 173.685L253.888 173.238C255.507 173.224 256.94 174.3 257.367 175.869L275.004 240.201C275.252 241.115 275.134 242.09 274.665 242.913C274.197 243.736 273.421 244.339 272.506 244.587L240.756 253.297C238.814 253.847 236.887 252.695 236.36 250.792L226.142 213.551L174.856 213.996C173.237 214.011 171.804 212.934 171.377 211.365L157.804 161.892L106.499 162.331C104.88 162.346 103.447 161.269 103.02 159.701L89.4466 110.227L38.1391 110.649C36.5198 110.664 35.0959 109.586 34.6603 108.019L16.9692 43.678C16.4429 41.7755 17.5628 39.81 19.4652 39.2836L51.214 30.5651C51.3306 30.5282 51.4586 30.5069 51.578 30.4871ZM114.494 77.1035L63.1698 77.5287C61.5505 77.5435 60.1266 76.4651 59.6911 74.8982L49.6672 38.4046L24.8201 45.2404L40.8328 103.487L92.1403 103.065C93.7596 103.05 95.192 104.127 95.619 105.695L109.193 155.169L160.497 154.73C162.117 154.715 163.549 155.792 163.976 157.36L177.55 206.834L228.836 206.389C230.455 206.374 231.888 207.451 232.315 209.019L242.313 245.464L267.163 238.646L251.189 180.419L199.894 180.866C198.275 180.88 196.842 179.803 196.415 178.235L182.851 128.768L131.537 129.201C129.918 129.215 128.485 128.138 128.058 126.57L114.486 77.1049L114.494 77.1035Z" fill="#080206"/>
<path d="M240.583 193.997L258.229 258.328L226.477 267.029L215.538 227.137L161.502 227.601L147.201 175.487L93.1383 175.946L78.8339 123.815L24.7769 124.256L7.08729 59.9233L38.8432 51.1949L49.8162 91.1336L103.889 90.6815L118.183 142.806L172.246 142.346L186.54 194.47L240.583 193.997Z" fill="#FDC30F"/>
<path d="M38.2584 47.6717C39.0603 47.5385 39.8905 47.6811 40.6153 48.0867C41.4382 48.5549 42.0405 49.3314 42.2888 50.2457L52.5326 87.5355L103.857 87.1103C105.476 87.0955 106.909 88.1725 107.336 89.7408L120.908 139.206L172.214 138.775C173.834 138.76 175.266 139.837 175.693 141.406L189.257 190.872L240.551 190.426C242.171 190.411 243.603 191.488 244.03 193.056L261.676 257.387C261.924 258.301 261.806 259.276 261.329 260.101C260.861 260.924 260.084 261.526 259.17 261.774L227.418 270.476C226.495 270.725 225.529 270.606 224.697 270.139C223.874 269.671 223.272 268.894 223.024 267.98L212.814 230.737L161.528 231.182C159.909 231.197 158.476 230.12 158.049 228.552L144.468 179.088L93.1552 179.529C91.536 179.543 90.1035 178.466 89.6765 176.898L76.1014 127.416L24.7939 127.838C23.1746 127.853 21.7422 126.776 21.3152 125.208L3.63405 60.874C3.10767 58.9715 4.22757 57.006 6.13003 56.4796L37.8774 47.7525C37.9954 47.7242 38.122 47.6944 38.2414 47.6745M101.173 94.2796L49.8488 94.7048C48.2295 94.7196 46.7971 93.6426 46.3701 92.0743L36.3377 55.5821L11.4821 62.4194L27.4848 120.659L78.8008 120.235C80.4201 120.22 81.8525 121.297 82.2796 122.866L95.8532 172.339L147.168 171.907C148.787 171.892 150.22 172.969 150.647 174.538L164.227 224.001L215.514 223.556C217.133 223.541 218.565 224.618 218.992 226.187L228.982 262.633L253.833 255.823L237.859 197.596L186.564 198.043C184.945 198.058 183.513 196.981 183.086 195.412L169.513 145.947L118.207 146.378C116.588 146.393 115.156 145.316 114.729 143.748L101.156 94.2824L101.173 94.2796Z" fill="#080206"/>
</g>
<defs>
<clipPath id="clip0_71_59551">
<rect width="265.584" height="238.344" fill="white" transform="translate(235.123) rotate(80.5692)"/>
</clipPath>
</defs>
</svg>
