<svg width="149" height="160" viewBox="0 0 149 160" fill="none" xmlns="http://www.w3.org/2000/svg">
<g clip-path="url(#clip0_19_305)">
<path d="M111.079 101.277L124.898 91.7183L85.4038 24.1074L22.4717 28.6191L4.04321 43.5195L42.5799 83.4376L35.8902 83.9168L21.6513 98.0187L121.304 156.694L130.874 147.551L99.4864 102.706L111.079 101.277Z" fill="#FED00C"/>
<path d="M122.612 159.816C121.411 160.152 120.044 160.016 118.94 159.369L19.2878 100.702C18.3796 100.167 17.7839 99.3522 17.6471 98.4419C17.5006 97.5316 17.8229 96.6212 18.5358 95.9185L32.7747 81.8086C33.302 81.2816 34.015 80.8983 34.8158 80.7306L0.869134 45.5637C-0.400447 44.2461 -0.263723 42.3536 1.20118 41.1718L19.6394 26.2714C20.3133 25.7364 21.1922 25.401 22.12 25.3291L85.0521 20.8255C86.7221 20.7057 88.3237 21.4483 89.0464 22.686L128.54 90.2969C129.331 91.6544 128.901 93.2674 127.505 94.2416L113.686 103.8C113.11 104.199 112.416 104.455 111.684 104.543L105.922 105.253L134.38 145.914C135.23 147.128 135.054 148.645 133.941 149.699L124.37 158.842C123.882 159.305 123.276 159.633 122.612 159.816ZM27.5108 97.4038L120.649 152.246L125.952 147.176L95.9803 104.351C95.3162 103.409 95.2674 102.251 95.8533 101.269C96.4295 100.286 97.5624 99.6077 98.8808 99.448L109.34 98.1544L119.907 90.8479L82.9622 27.5969L24.2685 31.7972L9.43392 43.791L45.7342 81.3934C46.6522 82.3437 46.8573 83.6373 46.2713 84.7472C45.6853 85.8572 44.3962 86.6317 42.9118 86.7275L37.9116 87.0869L27.4913 97.4118L27.5108 97.4038Z" fill="#080206"/>
<path d="M18.1355 22.71L36.5737 7.80956L80.5989 15.0122L138.99 70.9088L125.171 80.4671L93.9002 84.332L144.967 126.75L135.396 135.885L35.7436 77.2172L49.9825 63.1073L56.6722 62.6281L18.1355 22.71Z" fill="white"/>
<path d="M136.705 139.015C135.503 139.35 134.136 139.214 133.033 138.568L33.3899 79.8922C32.4817 79.3572 31.886 78.5427 31.7492 77.6324C31.6027 76.7221 31.925 75.8118 32.6379 75.1091L46.8768 60.9992C47.4041 60.4721 48.0975 60.0888 48.9179 59.9212L14.9615 24.7542C13.6821 23.4366 13.8286 21.5441 15.2935 20.3623L33.7317 5.4619C34.6888 4.69532 36.0463 4.35994 37.3647 4.57554L81.3996 11.7782C82.2883 11.9219 83.0891 12.3052 83.6751 12.8722L142.066 68.7768C142.759 69.4395 143.101 70.3099 143.023 71.1883C142.935 72.0667 142.427 72.8732 141.607 73.4401L127.788 82.9985C127.222 83.3977 126.528 83.6533 125.786 83.7411L102.338 86.6397L147.848 124.442C149.322 125.664 149.4 127.604 148.033 128.906L138.462 138.049C137.974 138.512 137.369 138.839 136.705 139.023M41.6031 76.5943L134.742 131.437L139.488 126.901L91.0289 86.6397C89.9644 85.7534 89.5933 84.4598 90.0718 83.2779C90.5504 82.1041 91.8004 81.2417 93.2946 81.0581L123.442 77.3369L133.286 70.5255L78.4405 18.0227L37.8823 11.3949L23.5458 22.9895L59.846 60.5919C60.764 61.5422 60.9789 62.8278 60.3832 63.9457C59.7972 65.0636 58.4886 65.8222 57.0237 65.926L52.0235 66.2774L41.6031 76.5943Z" fill="#080206"/>
<path d="M36.5737 7.80955L99.4961 3.2979L138.99 70.9088L107.475 73.1766L144.967 126.75L49.9825 63.1073L81.5071 60.8554L36.5737 7.80955Z" fill="#FED00C"/>
<path d="M146.275 129.872C144.986 130.231 143.511 130.047 142.408 129.305L47.4237 65.6545C46.1541 64.808 45.6365 63.4106 46.1248 62.125C46.6131 60.8394 47.9901 59.9211 49.6308 59.8093L74.2216 58.0525L33.2532 9.68601C32.4329 8.71979 32.3059 7.46611 32.9114 6.40408C33.5267 5.34204 34.7767 4.61539 36.2123 4.51956L99.1445 0.0158958C100.824 -0.103883 102.416 0.638744 103.139 1.88444L142.633 69.4954C143.209 70.4696 143.15 71.6194 142.496 72.5537C141.841 73.496 140.66 74.1028 139.341 74.2066L114.106 76.0193L148.463 125.112C149.43 126.494 149.049 128.243 147.564 129.273C147.174 129.544 146.734 129.744 146.265 129.88M60.2074 65.6864L130.581 112.839L103.969 74.8135C103.285 73.8393 103.256 72.6415 103.891 71.6434C104.526 70.6452 105.746 69.9825 107.114 69.8866L132.837 68.0421L97.0643 6.78737L43.8493 10.5963L84.8275 58.9708C85.6479 59.937 85.7748 61.1907 85.1596 62.2528C84.5541 63.3148 83.2943 64.0335 81.8586 64.1373L60.2172 65.6864H60.2074Z" fill="#080206"/>
</g>
<defs>
<clipPath id="clip0_19_305">
<rect width="149" height="160" fill="white"/>
</clipPath>
</defs>
</svg>
