<svg width="186" height="296" viewBox="0 0 186 296" fill="none" xmlns="http://www.w3.org/2000/svg">
<g clip-path="url(#clip0_44_12027)">
<path d="M179.99 247.48C175.34 230.44 157.75 220.41 140.72 225.07C102.02 235.65 61.9396 212.78 51.3596 174.08C40.7796 135.38 63.6496 95.2899 102.35 84.7099C119.38 80.0499 129.42 62.4699 124.76 45.4399C120.11 28.4099 102.53 18.3699 85.4896 23.0299C12.7796 42.8999 -30.2004 118.23 -10.3204 190.94C9.54957 263.65 84.8696 306.63 157.59 286.75C174.62 282.09 184.65 264.52 180 247.48" fill="white"/>
<path d="M94.8303 293.2C79.9003 290.29 65.3803 284.92 51.7703 277.15C19.0603 258.49 -4.39966 228.25 -14.3097 192.02C-24.2197 155.79 -19.3897 117.82 -0.729658 85.1201C17.9403 52.4101 48.1703 28.9501 84.4003 19.0401C93.7103 16.4901 103.44 17.7201 111.82 22.5001C120.2 27.2801 126.21 35.0401 128.75 44.3401C131.3 53.6401 130.06 63.3801 125.28 71.7601C120.5 80.1301 112.74 86.1501 103.44 88.6901C66.9503 98.6701 45.3703 136.48 55.3503 172.98C65.3303 209.47 103.14 231.04 139.63 221.07C148.93 218.52 158.67 219.76 167.04 224.54C175.42 229.32 181.44 237.08 183.97 246.38C189.22 265.58 177.86 285.47 158.67 290.72C137.52 296.5 115.77 297.27 94.8303 293.18M99.2303 26.5301C95.0803 25.7201 90.7803 25.8801 86.5903 27.0201C52.4903 36.3401 24.0303 58.4301 6.46034 89.2201C-11.1097 120.01 -15.6497 155.75 -6.32966 189.85C2.99034 223.95 25.0803 252.41 55.8703 269.98C86.6603 287.55 122.4 292.09 156.5 282.77C171.3 278.72 180.05 263.39 176.01 248.58C174.05 241.41 169.42 235.43 162.96 231.74C156.5 228.05 148.99 227.1 141.82 229.06C100.92 240.24 58.5603 216.07 47.3803 175.18C36.2003 134.28 60.3703 91.9101 101.26 80.7301C108.43 78.7701 114.41 74.1301 118.1 67.6701C121.79 61.2101 122.74 53.7001 120.78 46.5301C118.82 39.3601 114.18 33.3701 107.73 29.6901C105.05 28.1601 102.18 27.1001 99.2403 26.5301" fill="#080206"/>
<path d="M128.06 207.32C89.3604 217.9 49.2804 195.03 38.7004 156.33C28.1204 117.63 50.9904 77.54 89.6904 66.96L72.8304 5.28003C0.120392 25.16 -42.8596 100.48 -22.9796 173.19C-3.10961 245.89 72.2204 288.87 144.92 269L128.06 207.32Z" fill="#FDC30F"/>
<path d="M82.1696 275.41C31.2096 265.48 -12.3804 227.66 -26.9704 174.29C-36.8704 138.05 -32.0504 100.08 -13.3904 67.38C5.27965 34.67 35.5096 11.2 71.7396 1.28997C72.7996 0.999969 73.9296 1.14997 74.8796 1.68997C75.8396 2.22997 76.5296 3.12997 76.8196 4.18997L93.6796 65.87C94.2796 68.07 92.9796 70.34 90.7796 70.95C73.1296 75.77 58.3996 87.21 49.3096 103.15C40.2096 119.09 37.8596 137.59 42.6897 155.24C47.5097 172.89 58.9496 187.62 74.8896 196.72C90.8196 205.81 109.32 208.16 126.97 203.34C128.03 203.05 129.16 203.2 130.11 203.74C131.07 204.28 131.76 205.18 132.05 206.24L148.91 267.92C149.2 268.98 149.06 270.11 148.51 271.06C147.97 272.01 147.07 272.71 146.01 273C124.48 278.88 102.72 279.42 82.1696 275.41ZM69.9496 10.42C1.85965 31.31 -37.9104 102.93 -18.9904 172.1C-0.0803528 241.27 70.5797 282.69 139.83 266.04L125.14 212.29C106.59 216.32 87.4397 213.39 70.7896 203.89C52.9296 193.7 40.1297 177.2 34.7197 157.41C29.3097 137.63 31.9496 116.9 42.1296 99.04C51.6296 82.39 66.6196 70.12 84.6396 64.16L69.9496 10.41V10.42Z" fill="#080206"/>
<path d="M89.6904 66.9599C72.6504 71.6199 55.0704 61.5899 50.4204 44.5499C45.7704 27.5199 55.8004 9.93989 72.8404 5.27989C89.8704 0.619892 107.45 10.6599 112.1 27.6899C116.76 44.7299 106.72 62.2999 89.6904 66.9599Z" fill="white"/>
<path d="M74.38 71.5901C70.56 70.8501 66.85 69.4701 63.37 67.4901C54.99 62.7101 48.98 54.9501 46.43 45.6501C41.18 26.4501 52.54 6.56007 71.74 1.30007C81.04 -1.23993 90.78 -0.00993204 99.15 4.77007C107.53 9.55007 113.54 17.3101 116.08 26.6101C118.63 35.9101 117.39 45.6501 112.62 54.0301C107.84 62.4001 100.08 68.4201 90.78 70.9601C85.34 72.4501 79.75 72.6501 74.37 71.6001M86.56 8.78007C82.41 7.97007 78.11 8.13007 73.92 9.27007C59.11 13.3201 50.36 28.6601 54.4 43.4601C56.36 50.6401 61 56.6201 67.46 60.3001C73.92 63.9801 81.42 64.9301 88.6 62.9701C95.77 61.0101 101.75 56.3701 105.44 49.9201C109.13 43.4601 110.08 35.9601 108.11 28.7801C106.15 21.6101 101.51 15.6301 95.06 11.9401C92.38 10.4101 89.51 9.35007 86.57 8.78007" fill="#080206"/>
<path d="M144.92 269C127.89 273.65 110.3 263.62 105.65 246.59C100.99 229.56 111.03 211.97 128.06 207.32C145.09 202.66 162.68 212.7 167.33 229.73C171.99 246.76 161.95 264.35 144.92 269Z" fill="white"/>
<path d="M129.65 273.61C116.58 271.06 105.4 261.37 101.66 247.69C96.4101 228.48 107.76 208.59 126.97 203.34C136.27 200.79 146.01 202.02 154.39 206.81C162.77 211.59 168.78 219.35 171.32 228.65C176.57 247.85 165.22 267.75 146.01 273C140.49 274.51 134.92 274.64 129.65 273.62M141.79 210.82C137.64 210.01 133.34 210.16 129.15 211.31C114.34 215.36 105.59 230.7 109.63 245.51C113.68 260.31 129.01 269.06 143.83 265.02C158.64 260.97 167.39 245.63 163.34 230.82C161.38 223.65 156.74 217.67 150.28 213.98C147.6 212.45 144.73 211.39 141.79 210.82Z" fill="#080206"/>
</g>
<defs>
<clipPath id="clip0_44_12027">
<rect width="217.26" height="295.77" fill="white" transform="translate(-32)"/>
</clipPath>
</defs>
</svg>
