<svg width="351" height="496" viewBox="0 0 351 496" fill="none" xmlns="http://www.w3.org/2000/svg">
<g clip-path="url(#clip0_44_58651)">
<path d="M304.411 281.548L337.395 383.182L287.232 399.456L266.776 336.42L180.337 341.156L153.611 258.794L67.1556 263.519L40.4433 181.154L-46.0315 185.855L-79.0617 84.2024L-28.908 67.8877L-8.40724 130.999L78.084 126.309L104.804 208.644L191.262 203.933L217.972 286.284L304.411 281.548Z" fill="white"/>
<path d="M-30.1036 62.2933C-28.8168 62.0182 -27.4915 62.1882 -26.3019 62.7838C-24.9507 63.4724 -23.9297 64.6706 -23.4652 66.1152L-4.31561 125.026L77.7776 120.567C80.3675 120.424 82.7387 122.042 83.5375 124.52L108.896 202.67L190.972 198.201C193.562 198.059 195.934 199.676 196.732 202.154L222.077 280.307L304.121 275.817C306.711 275.674 309.082 277.292 309.881 279.77L342.837 381.41C343.302 382.854 343.184 384.424 342.496 385.775C341.807 387.126 340.609 388.147 339.164 388.611L289.002 404.885C285.935 405.909 282.766 404.207 281.784 401.202L262.692 342.364L180.662 346.851C178.072 346.994 175.701 345.376 174.902 342.898L149.541 264.734L67.4806 269.214C64.8907 269.357 62.5194 267.739 61.7207 265.261L36.3596 187.097L-45.7064 191.55C-48.2963 191.693 -50.6541 190.072 -51.4664 187.597L-84.5101 85.9476C-85.4924 82.9422 -83.8451 79.7148 -80.8398 78.7324L-30.6803 62.4448C-30.4964 62.3772 -30.2933 62.3338 -30.1036 62.2933ZM74.0004 132.253L-8.09282 136.711C-10.6827 136.854 -13.0405 135.233 -13.8528 132.758L-32.5782 75.1027L-71.8329 87.8698L-41.9235 179.892L40.1426 175.439C42.7325 175.296 45.1038 176.914 45.9026 179.392L71.2636 257.556L153.324 253.076C155.914 252.933 158.285 254.551 159.084 257.029L184.445 335.193L266.475 330.705C269.065 330.562 271.436 332.18 272.235 334.658L290.916 392.238L330.177 379.498L300.33 287.506L218.286 291.996C215.696 292.139 213.325 290.521 212.526 288.043L187.182 209.89L105.105 214.359C102.515 214.502 100.144 212.884 99.345 210.406L73.9868 132.256L74.0004 132.253Z" fill="#080206"/>
<path d="M284.361 310.012L317.331 411.649L267.166 427.91L246.726 364.884L160.298 369.603L133.578 287.268L47.1057 291.983L20.3799 209.621L-66.0843 214.305L-99.1251 112.669L-48.955 96.3653L-28.4571 159.464L58.0312 154.76L84.7406 237.111L171.213 232.397L197.922 314.748L284.361 310.012Z" fill="#FDC30F"/>
<path d="M-50.1506 90.7711C-48.8773 90.4989 -47.5385 90.666 -46.3488 91.2616C-44.9976 91.9502 -43.9767 93.1484 -43.5121 94.593L-24.3761 153.506L57.717 149.048C60.307 148.905 62.6783 150.523 63.477 153.001L88.8352 231.151L170.898 226.685C173.488 226.542 175.86 228.16 176.658 230.638L202.003 308.791L284.047 304.301C286.637 304.158 289.008 305.776 289.807 308.254L322.777 409.891C323.242 411.335 323.124 412.904 322.422 414.258C321.733 415.609 320.535 416.63 319.09 417.095L268.925 433.356C267.467 433.823 265.911 433.702 264.546 433.017C263.195 432.328 262.174 431.13 261.71 429.685L242.632 370.844L160.601 375.332C158.012 375.475 155.64 373.857 154.841 371.379L129.47 293.232L47.3959 297.714C44.8061 297.857 42.4347 296.239 41.636 293.761L16.2721 215.584L-65.794 220.037C-68.3839 220.179 -70.7552 218.562 -71.554 216.083L-104.581 114.445C-105.564 111.439 -103.916 108.212 -100.911 107.23L-50.7543 90.9284C-50.5676 90.8744 -50.3673 90.8174 -50.1777 90.7769M53.9505 160.717L-28.1427 165.176C-30.7325 165.318 -33.1039 163.7 -33.9026 161.222L-52.6417 103.57L-91.9098 116.34L-62.0168 208.351L20.0628 203.895C22.6527 203.753 25.024 205.37 25.8228 207.848L51.1838 286.012L133.261 281.543C135.85 281.4 138.222 283.018 139.02 285.496L164.392 363.643L246.422 359.156C249.012 359.013 251.384 360.631 252.182 363.109L270.85 420.692L310.113 407.965L280.267 315.973L198.223 320.463C195.633 320.606 193.262 318.988 192.463 316.51L167.105 238.36L85.0415 242.826C82.4516 242.969 80.0803 241.351 79.2816 238.873L53.9234 160.723L53.9505 160.717Z" fill="#080206"/>
</g>
<defs>
<clipPath id="clip0_44_58651">
<rect width="425.41" height="381.777" fill="white" transform="translate(261.344) rotate(77.9353)"/>
</clipPath>
</defs>
</svg>
