<svg width="331" height="344" viewBox="0 0 331 344" fill="none" xmlns="http://www.w3.org/2000/svg">
<g clip-path="url(#clip0_1_344)">
<path d="M282.803 163.943L318.218 220.473L290.315 237.949L268.351 202.887L216.729 218.888L188.032 173.076L136.398 189.073L107.709 143.257L56.0602 159.242L20.6147 102.707L48.5054 85.2082L70.5083 120.309L122.169 104.328L150.858 150.125L202.495 134.135L231.181 179.943L282.803 163.943Z" fill="white"/>
<path d="M46.9314 82.0023C47.6688 81.6402 48.4972 81.5418 49.308 81.7217C50.2308 81.9333 51.0311 82.5038 51.5319 83.3079L72.0782 116.07L121.111 100.898C122.657 100.418 124.339 101.037 125.199 102.416L152.428 145.886L201.449 130.709C202.996 130.229 204.677 130.848 205.538 132.228L232.759 175.701L281.757 160.516C283.303 160.036 284.985 160.656 285.845 162.035L321.244 218.573C321.745 219.377 321.912 220.345 321.7 221.268C321.489 222.191 320.918 222.991 320.114 223.492L292.212 240.968C290.51 242.054 288.333 241.505 287.281 239.834L266.781 207.107L217.791 222.287C216.245 222.767 214.563 222.148 213.703 220.769L186.47 177.292L137.461 192.472C135.914 192.952 134.232 192.333 133.372 190.954L106.139 147.477L57.1224 162.642C55.5758 163.122 53.9019 162.499 53.0339 161.123L17.5806 104.592C16.5292 102.921 17.0363 100.717 18.7069 99.6654L46.6053 82.1817C46.7063 82.1128 46.8227 82.0556 46.9314 82.0023ZM120.599 108.548L71.5665 123.72C70.0199 124.2 68.346 123.577 67.478 122.202L47.3792 90.1348L25.5491 103.83L57.6417 155.007L106.659 139.842C108.205 139.362 109.887 139.982 110.747 141.361L137.98 184.838L186.989 169.657C188.536 169.177 190.218 169.797 191.078 171.176L218.311 214.653L267.301 199.472C268.847 198.992 270.529 199.612 271.389 200.991L291.449 233.019L313.287 219.339L281.237 168.17L232.239 183.354C230.693 183.834 229.011 183.215 228.151 181.836L200.93 138.363L151.909 153.539C150.362 154.019 148.68 153.4 147.82 152.021L120.591 108.551L120.599 108.548Z" fill="#080206"/>
<path d="M274.987 184.225L310.394 240.759L282.488 258.228L260.535 223.169L208.917 239.159L180.228 193.362L128.583 209.355L99.8854 163.543L48.2405 179.517L12.7911 122.993L40.6934 105.498L62.6924 140.592L114.349 124.602L143.035 170.411L194.68 154.417L223.365 200.226L274.987 184.225Z" fill="#FDC30F"/>
<path d="M39.1194 102.292C39.849 101.934 40.6851 101.832 41.496 102.012C42.4188 102.223 43.2191 102.794 43.7199 103.598L64.2584 136.364L113.291 121.191C114.837 120.711 116.519 121.331 117.379 122.71L144.608 166.179L193.621 151.006C195.168 150.526 196.85 151.146 197.71 152.525L224.931 195.998L273.929 180.814C275.476 180.334 277.157 180.953 278.017 182.332L313.424 238.867C313.925 239.671 314.092 240.639 313.873 241.566C313.661 242.488 313.091 243.289 312.286 243.79L284.38 261.258C283.569 261.762 282.608 261.926 281.678 261.718C280.755 261.506 279.955 260.936 279.454 260.132L258.961 227.4L209.971 242.581C208.425 243.061 206.743 242.442 205.883 241.063L178.646 197.597L129.629 212.781C128.083 213.261 126.401 212.642 125.541 211.263L98.304 167.778L49.2871 182.943C47.7405 183.423 46.0588 182.804 45.1986 181.425L9.75691 124.897C8.70547 123.227 9.21256 121.022 10.8832 119.971L38.7777 102.479C38.8826 102.418 38.9952 102.353 39.1039 102.3M112.783 128.83L63.7506 144.002C62.2041 144.482 60.5224 143.863 59.6622 142.484L39.5556 110.421L17.7178 124.12L49.7988 175.293L98.8235 160.124C100.37 159.644 102.052 160.264 102.912 161.643L130.145 205.12L179.166 189.943C180.712 189.463 182.394 190.083 183.254 191.462L210.491 234.927L259.481 219.747C261.027 219.267 262.709 219.886 263.569 221.265L283.622 253.297L305.464 239.625L273.413 188.456L224.416 203.64C222.869 204.12 221.187 203.501 220.327 202.122L193.098 158.652L144.085 173.825C142.539 174.305 140.857 173.686 139.997 172.307L112.768 128.837L112.783 128.83Z" fill="#080206"/>
</g>
<defs>
<clipPath id="clip0_1_344">
<rect width="265.584" height="238.344" fill="white" transform="translate(213.947) rotate(63.8496)"/>
</clipPath>
</defs>
</svg>
